<?xml version="1.0" encoding="UTF-8"?>
<svg xmlns:svgjs="http://svgjs.com/svgjs" xmlns="http://www.w3.org/2000/svg" xmlns:xlink="http://www.w3.org/1999/xlink" version="1.1" id="Ebene_1" x="0px" y="0px" viewBox="0 0 113.4 113.4" style="enable-background:new 0 0 113.4 113.4;" xml:space="preserve">
<style type="text/css">
	.st0{fill:#D4D1E4;}
	.st1{fill:#24195D;}
</style>
<circle class="st0" cx="57.1" cy="56.1" r="51.4"></circle>
<title>Exported from Streamline App (https://app.streamlineicons.com)</title>
<g transform="matrix(2,0,0,2,0,0)">
	<path class="st1" d="M26.8,37.7h-5.2c-1.4,0-2.5-1.1-2.5-2.5v-8.7c0-0.4,0.3-0.8,0.8-0.8s0.8,0.3,0.8,0.8v8.7c0,0.5,0.4,1,1,1h5.2   c0.4,0,0.8,0.3,0.8,0.8S27.2,37.7,26.8,37.7z"></path>
	<path class="st1" d="M16.3,25.5c-0.2,0-0.4-0.1-0.6-0.3c-0.3-0.3-0.2-0.8,0.1-1.1l10.2-8.6c0.9-0.8,2.3-0.8,3.2,0l8.5,7.2   c0.3,0.3,0.4,0.7,0.1,1.1c-0.3,0.3-0.7,0.4-1.1,0.1l-8.5-7.2c-0.4-0.3-0.9-0.3-1.3,0l-10.2,8.6C16.7,25.4,16.5,25.5,16.3,25.5z"></path>
	<path class="st1" d="M37.2,20.2c-0.4,0-0.8-0.3-0.8-0.8v-2.7h-2.7c-0.4,0-0.8-0.3-0.8-0.8c0-0.4,0.3-0.8,0.8-0.8h3.5   c0.4,0,0.8,0.3,0.8,0.8v3.5C38,19.9,37.7,20.2,37.2,20.2z"></path>
	<path class="st1" d="M35.5,32.9c-0.7,0-1.2-0.5-1.2-1.2s0.5-1.2,1.2-1.2s1.2,0.5,1.2,1.2S36.2,32.9,35.5,32.9z M35.5,31.4   c-0.2,0-0.3,0.1-0.3,0.3s0.1,0.3,0.3,0.3s0.3-0.1,0.3-0.3S35.7,31.4,35.5,31.4z"></path>
	<path class="st1" d="M35.5,41.1c-0.3,0-0.7-0.1-1-0.3c-0.1-0.1-0.2-0.2-0.3-0.3c-1.4-1.8-4.7-6.3-4.7-8.8c0-3.3,2.7-6,6-6   s6,2.7,6,6c0,2.6-3.3,7-4.7,8.8C36.5,40.9,36,41.1,35.5,41.1z M35.5,27.2c-2.5,0-4.5,2-4.5,4.5c0,1.7,2.4,5.3,4.4,7.9   c0.1,0.1,0.1,0.1,0.2,0c2-2.6,4.4-6.2,4.4-7.9C40,29.2,38,27.2,35.5,27.2z"></path>
</g>
</svg>
