<?xml version="1.0" encoding="UTF-8"?>
<svg xmlns="http://www.w3.org/2000/svg" viewBox="0 0 102.8 102.8">
  <defs>
    <style>.cls-1{fill:#d4d1e4;}.cls-2{fill:none;stroke:#24195d;stroke-linecap:round;stroke-linejoin:round;stroke-width:3px;}</style>
  </defs>
  <g id="kreis">
    <circle class="cls-1" cx="51.4" cy="51.4" r="51.4"></circle>
  </g>
  <g id="Ebene_1" data-name="Ebene 1">
    <path class="cls-2" d="M44.11,65.63H30a3.53,3.53,0,0,1-3.53-3.53V33.85A3.53,3.53,0,0,1,30,30.32H72.35a3.54,3.54,0,0,1,3.54,3.53V55" transform="translate(0.08 -0.14)"></path>
    <path class="cls-2" d="M27.32,31.54l19.09,14.6a7.07,7.07,0,0,0,9.51,0L75,31.54" transform="translate(0.08 -0.14)"></path>
    <path class="cls-2" d="M65.29,56.8,79.42,67.4,65.29,78v-5.3H54.7a3.53,3.53,0,0,1-3.53-3.53V65.63A3.53,3.53,0,0,1,54.7,62.1H65.29Z" transform="translate(0.08 -0.14)"></path>
  </g>
</svg>
