<?xml version="1.0" encoding="UTF-8"?>
<svg xmlns="http://www.w3.org/2000/svg" xmlns:xlink="http://www.w3.org/1999/xlink" xmlns:svgjs="http://svgjs.com/svgjs" version="1.1" viewBox="0 0 200 200" width="200" height="200">
  <title>Exported from Streamline App (https://app.streamlineicons.com)</title>
  <g transform="matrix(8.333333333333334,0,0,8.333333333333334,0,0)">
    <path d="M 13,22.906c2.513-2.127,5.589-3.479,8.856-3.89c0.796-0.105,1.391-0.784,1.391-1.587V2.365 c0.001-0.891-0.72-1.614-1.611-1.615c-0.075,0-0.15,0.005-0.224,0.015C18.309,1.246,15.398,2.573,13,4.6 c-0.589,0.455-1.411,0.455-2,0C8.601,2.573,5.689,1.246,2.585,0.767C1.703,0.644,0.888,1.26,0.765,2.143 C0.755,2.216,0.75,2.291,0.75,2.365v15.064c0,0.803,0.595,1.482,1.391,1.587c3.268,0.411,6.345,1.762,8.859,3.89 C11.589,23.362,12.411,23.362,13,22.906z " stroke="#ffffff" fill="none" stroke-width="1.5" stroke-linecap="round" stroke-linejoin="round"></path>
    <path d="M 12,4.938v18.311" stroke="#ffffff" fill="none" stroke-width="1.5" stroke-linecap="round" stroke-linejoin="round"></path>
  </g>
</svg>
