<?xml version="1.0" encoding="UTF-8"?>
<svg xmlns:svgjs="http://svgjs.com/svgjs" xmlns="http://www.w3.org/2000/svg" xmlns:xlink="http://www.w3.org/1999/xlink" version="1.1" id="Ebene_1" x="0px" y="0px" viewBox="0 0 113.4 113.4" style="enable-background:new 0 0 113.4 113.4;" xml:space="preserve">
<style type="text/css">
	.st0{fill:#D4D1E4;}
	.st1{fill:#24195D;}
</style>
<circle class="st0" cx="56.5" cy="57.7" r="51.4"></circle>
<title>Exported from Streamline App (https://app.streamlineicons.com)</title>
<g transform="matrix(2,0,0,2,0,0)">
	<path class="st1" d="M28.3,44.7c-8.7,0-15.9-7.1-15.9-15.9c0-8.7,7.1-15.9,15.9-15.9c8.7,0,15.9,7.1,15.9,15.9   C44.1,37.6,37,44.7,28.3,44.7z M28.3,14.5c-7.9,0-14.4,6.4-14.4,14.4c0,7.9,6.4,14.4,14.4,14.4c7.9,0,14.4-6.4,14.4-14.4   C42.6,20.9,36.2,14.5,28.3,14.5z"></path>
	<path class="st1" d="M28.3,29.6c-0.4,0-0.8-0.3-0.8-0.8v-5.4c0-0.4,0.3-0.8,0.8-0.8S29,23,29,23.5v5.4C29,29.3,28.7,29.6,28.3,29.6   z"></path>
	<path class="st1" d="M35,36.4c-0.2,0-0.4-0.1-0.5-0.2l-6.7-6.7c-0.3-0.3-0.3-0.8,0-1.1c0.3-0.3,0.8-0.3,1.1,0l6.7,6.7   c0.3,0.3,0.3,0.8,0,1.1C35.4,36.3,35.2,36.4,35,36.4z"></path>
</g>
</svg>
