<?xml version="1.0" encoding="UTF-8"?>
<svg xmlns="http://www.w3.org/2000/svg" xmlns:xlink="http://www.w3.org/1999/xlink" xmlns:svgjs="http://svgjs.com/svgjs" version="1.1" viewBox="0 0 200 200" width="200" height="200">
  <title>Exported from Streamline App (https://app.streamlineicons.com)</title>
  <g transform="matrix(8.333333333333334,0,0,8.333333333333334,0,0)">
    <path d="M 15.75,10.5c2.899,0,5.25,2.351,5.25,5.25S18.649,21,15.75,21s-5.25-2.351-5.25-5.25S12.851,10.5,15.75,10.5z " stroke="#24195d" fill="none" stroke-width="1.5" stroke-linecap="round" stroke-linejoin="round"></path>
    <path d="M 23.25,23.25l-3.788-3.788 " stroke="#24195d" fill="none" stroke-width="1.5" stroke-linecap="round" stroke-linejoin="round"></path>
    <path d="M 10.022,9.942C9.043,9.323,7.908,8.996,6.75,9c-3.042-0.024-5.62,2.232-6,5.25 " stroke="#24195d" fill="none" stroke-width="1.5" stroke-linecap="round" stroke-linejoin="round"></path>
    <path d="M 6.75,0.75 c1.864,0,3.375,1.511,3.375,3.375S8.614,7.5,6.75,7.5S3.375,5.989,3.375,4.125S4.886,0.75,6.75,0.75z " stroke="#24195d" fill="none" stroke-width="1.5" stroke-linecap="round" stroke-linejoin="round"></path>
    <path d="M 16.5,0.75 c1.45,0,2.625,1.175,2.625,2.625S17.95,6,16.5,6s-2.625-1.175-2.625-2.625S15.05,0.75,16.5,0.75z " stroke="#24195d" fill="none" stroke-width="1.5" stroke-linecap="round" stroke-linejoin="round"></path>
    <path d="M 20.4,9 c-1.244-2.152-3.996-2.888-6.148-1.644c-0.427,0.247-0.811,0.563-1.136,0.934" stroke="#24195d" fill="none" stroke-width="1.5" stroke-linecap="round" stroke-linejoin="round"></path>
  </g>
</svg>
