<?xml version="1.0" encoding="UTF-8" standalone="no"?>
<svg xmlns:dc="http://purl.org/dc/elements/1.1/" xmlns:cc="http://creativecommons.org/ns#" xmlns:rdf="http://www.w3.org/1999/02/22-rdf-syntax-ns#" xmlns:svg="http://www.w3.org/2000/svg" xmlns="http://www.w3.org/2000/svg" xmlns:sodipodi="http://sodipodi.sourceforge.net/DTD/sodipodi-0.dtd" xmlns:inkscape="http://www.inkscape.org/namespaces/inkscape" version="1.1" id="Ebene_1" x="0px" y="0px" viewBox="0 0 200 200" style="enable-background:new 0 0 200 200;" xml:space="preserve" sodipodi:docname="ausbildung-icon-jsd.svg" inkscape:version="0.92.3 (2405546, 2018-03-11)"><metadata id="metadata871"></metadata><defs id="defs869"></defs>
<style type="text/css" id="style844">
	.st0{fill:none;stroke:#000000;stroke-width:12.5;stroke-linecap:round;stroke-linejoin:round;stroke-miterlimit:33.3333;}
	.st1{enable-background:new    ;}
</style>

<path class="st0" d="M6.8,68.7C14,27.6,53.2,0.2,94.4,7.4c5.8,1,11.5,2.7,16.9,5.1" id="path848" style="stroke:#ffffff;stroke-opacity:1"></path>
<path class="st0" d="M141.5,127.2c-25.1,33.3-72.5,40-105.8,14.8c-3.7-2.8-7.2-6-10.3-9.4" id="path850" style="stroke:#ffffff;stroke-opacity:1"></path>
<path class="st0" d="M134.6,135.2l58.6,58.6" id="path852" style="stroke:#ffffff;stroke-opacity:1"></path>
<g class="st1" id="g864" style="stroke:#ffffff;stroke-opacity:1;fill:#ffffff;fill-opacity:1">
	<path d="M17.7,112.4l16.5-74H43l16.5,74H49l-3.1-15.9H31.4l-3.1,15.9H17.7z M43.9,86.6l-5.2-26.8h-0.2l-5.2,26.8H43.9z" id="path854" style="stroke:#ffffff;stroke-opacity:1;fill:#ffffff;fill-opacity:1"></path>
	<path d="M61.4,112.4V103l20-54.7h-19v-10h30.5v8.4l-20.4,55.6h20.4v10H61.4V112.4z" id="path856" style="stroke:#ffffff;stroke-opacity:1;fill:#ffffff;fill-opacity:1"></path>
	<path d="M133.7,38.4v57.4c0,2.4-0.4,4.7-1.3,6.7c-0.9,2-2.1,3.9-3.7,5.5c-1.6,1.6-3.4,2.8-5.5,3.7c-2.1,0.9-4.3,1.4-6.7,1.4   c-2.4,0-4.6-0.5-6.6-1.4s-3.9-2.1-5.5-3.7s-2.8-3.4-3.7-5.5c-0.9-2-1.4-4.3-1.4-6.7V38.4H110v56.3c0,2.6,0.6,4.6,1.9,5.8   c1.2,1.2,2.8,1.9,4.7,1.9c1.9,0,3.4-0.6,4.7-1.9c1.2-1.2,1.9-3.2,1.9-5.8V38.4H133.7z" id="path858" style="stroke:#ffffff;stroke-opacity:1;fill:#ffffff;fill-opacity:1"></path>
	<path d="M143.7,112.4v-74h15.5c3.4,0,6.3,0.5,8.7,1.6s4.3,2.4,5.9,4.2c1.5,1.7,2.6,3.7,3.3,6s1,4.6,1,7v2.7c0,2-0.2,3.7-0.5,5.1   c-0.3,1.4-0.8,2.6-1.4,3.6c-1.2,1.9-3,3.6-5.4,5c2.5,1.2,4.3,2.9,5.5,5.2c1.2,2.3,1.8,5.4,1.8,9.4v4.2c0,6.5-1.6,11.5-4.7,15   c-3.2,3.5-8.2,5.2-15.1,5.2h-14.6V112.4z M154.3,48.4v20.4h4.8c3.5,0,5.9-0.9,7.1-2.7c1.2-1.8,1.8-4.3,1.8-7.7c0-3.3-0.7-5.8-2-7.5   s-3.8-2.5-7.3-2.5C158.7,48.4,154.3,48.4,154.3,48.4z M154.3,78.1v23.7h4.6c2.1,0,3.8-0.3,5-0.9s2.1-1.5,2.8-2.6   c0.6-1.1,1-2.4,1.1-3.9s0.2-3.2,0.2-5c0-1.9-0.1-3.5-0.3-4.9s-0.6-2.6-1.2-3.5c-0.7-1-1.6-1.7-2.8-2.1c-1.2-0.5-2.7-0.7-4.7-0.7   h-4.7V78.1z" id="path860" style="stroke:#ffffff;stroke-opacity:1;fill:#ffffff;fill-opacity:1"></path>
	<path d="M188.3,112.4v-74h10.6v74H188.3z" id="path862" style="stroke:#ffffff;stroke-opacity:1;fill:#ffffff;fill-opacity:1"></path>
</g>
</svg>
