<?xml version="1.0" encoding="UTF-8" standalone="no"?>
<svg xmlns:dc="http://purl.org/dc/elements/1.1/" xmlns:cc="http://creativecommons.org/ns#" xmlns:rdf="http://www.w3.org/1999/02/22-rdf-syntax-ns#" xmlns:svg="http://www.w3.org/2000/svg" xmlns="http://www.w3.org/2000/svg" xmlns:sodipodi="http://sodipodi.sourceforge.net/DTD/sodipodi-0.dtd" xmlns:inkscape="http://www.inkscape.org/namespaces/inkscape" sodipodi:docname="bagger_neu.svg" inkscape:version="1.0 (4035a4fb49, 2020-05-01)" id="svg8" version="1.1" viewBox="0 0 529.16665 299.77293" height="1133" width="2000">
  <defs id="defs2"></defs>
  <metadata id="metadata5"></metadata>
  <g id="layer1" inkscape:groupmode="layer" inkscape:label="Ebene 1">
    <g transform="matrix(2.1375106,0,0,2.0548334,-77.377884,-43.062398)" id="g121" style="fill:#24195d;fill-opacity:1">
      <path class="st0" d="M 44.2,48" id="path74" style="fill:#24195d;fill-opacity:1"></path>
      <g id="g98" style="fill:#24195d;fill-opacity:1">
        <path class="st1" d="m 87.3,140 c 1.4,0 2.6,-1.2 2.6,-2.6 0,-1.4 -1.2,-2.6 -2.6,-2.6 -1.4,0 -2.6,1.2 -2.6,2.6 0,1.5 1.2,2.6 2.6,2.6 z" id="path76" style="fill:#24195d;fill-opacity:1"></path>
        <path class="st1" d="m 69.9,139.7 c 1.3,0 2.3,-1 2.3,-2.3 0,-1.3 -1,-2.3 -2.3,-2.3 -1.3,0 -2.3,1 -2.3,2.3 0,1.3 1.1,2.3 2.3,2.3 z" id="path78" style="fill:#24195d;fill-opacity:1"></path>
        <path class="st1" d="m 105.5,139.7 c 1.3,0 2.3,-1 2.3,-2.3 0,-1.3 -1,-2.3 -2.3,-2.3 -1.3,0 -2.3,1 -2.3,2.3 0,1.3 1,2.3 2.3,2.3 z" id="path80" style="fill:#24195d;fill-opacity:1"></path>
        <path class="st1" d="m 50.8,139.7 c 1.3,0 2.3,-1 2.3,-2.3 0,-1.3 -1,-2.3 -2.3,-2.3 -1.3,0 -2.3,1 -2.3,2.3 0,1.3 1,2.3 2.3,2.3 z" id="path82" style="fill:#24195d;fill-opacity:1"></path>
        <path class="st1" d="m 128.7,146.9 v -0.6 c 4.4,-0.5 7.8,-4.3 7.8,-8.8 0,-4.5 -3.4,-8.3 -7.8,-8.8 v -0.6 H 44 v 0.6 c -4.4,0.5 -7.8,4.3 -7.8,8.8 0,4.5 3.4,8.3 7.8,8.8 v 0.6 z m -77.9,-14 c 2.1,0 3.9,1.5 4.4,3.4 h 10.4 c 0.5,-1.9 2.3,-3.4 4.4,-3.4 2.1,0 3.9,1.5 4.4,3.4 h 8.4 c 0.5,-2.1 2.4,-3.7 4.7,-3.7 2.3,0 4.2,1.6 4.7,3.7 h 9.1 c 0.5,-1.9 2.3,-3.4 4.4,-3.4 2.1,0 3.9,1.5 4.4,3.4 h 9.3 c 0.5,-1.9 2.3,-3.4 4.4,-3.4 2.5,0 4.5,2 4.5,4.5 0,2.5 -2,4.5 -4.5,4.5 -2.1,0 -3.9,-1.5 -4.4,-3.4 h -9.6 c -0.5,1.9 -2.3,3.4 -4.4,3.4 -2.1,0 -3.9,-1.5 -4.4,-3.4 h -9.1 c -0.5,2.1 -2.4,3.7 -4.7,3.7 -2.3,0 -4.2,-1.6 -4.7,-3.7 h -8.4 c -0.5,1.9 -2.3,3.4 -4.4,3.4 -2.1,0 -3.9,-1.5 -4.4,-3.4 H 55.1 c -0.5,1.9 -2.3,3.4 -4.4,3.4 -2.5,0 -4.5,-2 -4.5,-4.5 0.1,-2.4 2.1,-4.5 4.6,-4.5 z" id="path84" style="fill:#24195d;fill-opacity:1"></path>
        <path class="st1" d="m 123.5,139.7 c 1.3,0 2.3,-1 2.3,-2.3 0,-1.3 -1,-2.3 -2.3,-2.3 -1.3,0 -2.3,1 -2.3,2.3 0,1.3 1,2.3 2.3,2.3 z" id="path86" style="fill:#24195d;fill-opacity:1"></path>
        <path class="st1" d="M 121.2,100.6 113.7,87.5 H 89.9 v 12 l -13.1,0.6 V 97 L 59.3,96.7 v 2.8 h -6.2 v 7.9 h 23.7 v 3.2 H 53.1 v 10.2 h 68.1 c 0,0 0,-20.2 0,-20.2 z m -4.8,6.8 H 94.3 V 91.5 h 16.6 l 5.6,7.9 z" id="path88" style="fill:#24195d;fill-opacity:1"></path>
        <g id="g96" style="fill:#24195d;fill-opacity:1">
          <path class="st1" d="M 110.6,71.7 133.4,54.5 V 44.8 L 105.5,61.5 94.3,84.2 h 16.3 c 0,0 0,-12.5 0,-12.5 z" id="path90" style="fill:#24195d;fill-opacity:1"></path>
          <path class="st1" d="m 172.9,99 -32,-58.1 -4.4,3.9 v 8.1 L 165.1,99 Z" id="path92" style="fill:#24195d;fill-opacity:1"></path>
          <path class="st1" d="m 167,104.2 c 0.2,16.2 -15,16.6 -15,16.6 30.8,12.1 20.8,-16.6 20.8,-16.6 z" id="path94" style="fill:#24195d;fill-opacity:1"></path>
        </g>
      </g>
    </g>
  </g>
  <style type="text/css" id="style10">
	.st0{fill:#003D7C;}
</style>
  <style type="text/css" id="style56">
	.st0{fill:#003D7C;}
</style>
  <style type="text/css" id="style72">
	.st0{fill:#A31747;}
	.st1{fill:#003D7C;}
</style>
  <style type="text/css" id="style123">
	.st0{fill:#A31747;}
	.st1{fill:#003D7C;}
</style>
</svg>
