<?xml version="1.0" encoding="UTF-8" standalone="no"?>
<svg xmlns:dc="http://purl.org/dc/elements/1.1/" xmlns:cc="http://creativecommons.org/ns#" xmlns:rdf="http://www.w3.org/1999/02/22-rdf-syntax-ns#" xmlns:svg="http://www.w3.org/2000/svg" xmlns="http://www.w3.org/2000/svg" xmlns:xlink="http://www.w3.org/1999/xlink" xmlns:sodipodi="http://sodipodi.sourceforge.net/DTD/sodipodi-0.dtd" xmlns:inkscape="http://www.inkscape.org/namespaces/inkscape" sodipodi:docname="scan_neu.svg" inkscape:version="1.0 (4035a4fb49, 2020-05-01)" id="svg8" version="1.1" viewBox="0 0 529.16665 299.77293" height="1133" width="2000">
  <defs id="defs2">
    <rect id="SVGID_1_" x="-375" y="-690.83" width="148.65" height="148.65"></rect>
    <rect id="SVGID_3_" x="198.65" y="538.5" width="294" height="294"></rect>
    <rect id="SVGID_5_" x="198.65" y="538.5" width="294" height="294"></rect>
    <rect id="SVGID_7_" x="198.65" y="538.5" width="294" height="294"></rect>
    <rect id="SVGID_9_" x="-374.68" y="9.5" width="147" height="147"></rect>
    <rect id="SVGID_11_" x="-374.68" y="9.5" width="147" height="147"></rect>
    <rect id="SVGID_13_" x="-374.68" y="9.5" width="147" height="147"></rect>
    <rect id="SVGID_15_" x="190" y="-494.16" width="297.31" height="297.31"></rect>
    <rect id="SVGID_1_-7" x="-383" y="303.17" width="148.65" height="148.65"></rect>
    <rect id="SVGID_3_-8" x="190.65" y="1532.5" width="294" height="294"></rect>
    <rect id="SVGID_5_-4" x="190.65" y="1532.5" width="294" height="294"></rect>
    <rect id="SVGID_7_-9" x="190.65" y="1532.5" width="294" height="294"></rect>
    <rect id="SVGID_9_-5" x="-382.68" y="1003.5" width="147" height="147"></rect>
    <rect id="SVGID_11_-6" x="-382.68" y="1003.5" width="147" height="147"></rect>
    <rect id="SVGID_13_-4" x="-382.68" y="1003.5" width="147" height="147"></rect>
    <rect id="SVGID_15_-8" x="182" y="499.84" width="297.31" height="297.31"></rect>
    <rect id="SVGID_1_-6" x="-383" y="-1208.83" width="148.65" height="148.65"></rect>
    <rect id="SVGID_3_-5" x="190.65" y="20.5" width="294" height="294"></rect>
    <rect id="SVGID_5_-1" x="190.65" y="20.5" width="294" height="294"></rect>
    <rect id="SVGID_7_-92" x="190.65" y="20.5" width="294" height="294"></rect>
    <rect id="SVGID_9_-2" x="-382.68" y="-508.5" width="147" height="147"></rect>
    <rect id="SVGID_11_-5" x="-382.68" y="-508.5" width="147" height="147"></rect>
    <rect id="SVGID_13_-8" x="-382.68" y="-508.5" width="147" height="147"></rect>
    <rect id="SVGID_15_-5" x="182" y="-1012.16" width="297.31" height="297.31"></rect>
    <rect id="SVGID_1_-9" x="-383" y="-1698.83" width="148.65" height="148.65"></rect>
    <rect id="SVGID_3_-1" x="190.65" y="-469.5" width="294" height="294"></rect>
    <rect id="SVGID_5_-6" x="190.65" y="-469.5" width="294" height="294"></rect>
    <rect id="SVGID_7_-3" x="190.65" y="-469.5" width="294" height="294"></rect>
    <rect id="SVGID_9_-0" x="-382.68" y="-998.5" width="147" height="147"></rect>
    <rect id="SVGID_11_-0" x="-382.68" y="-998.5" width="147" height="147"></rect>
    <rect id="SVGID_13_-9" x="-382.68" y="-998.5" width="147" height="147"></rect>
    <rect id="SVGID_15_-3" x="182" y="-1502.16" width="297.31" height="297.31"></rect>
    <rect id="SVGID_1_-73" x="-375" y="-188.83" width="148.65" height="148.65"></rect>
    <rect id="SVGID_3_-4" x="198.65" y="1040.5" width="294" height="294"></rect>
    <rect id="SVGID_5_-8" x="198.65" y="1040.5" width="294" height="294"></rect>
    <rect id="SVGID_7_-0" x="198.65" y="1040.5" width="294" height="294"></rect>
    <rect id="SVGID_9_-1" x="-374.68" y="511.5" width="147" height="147"></rect>
    <rect id="SVGID_11_-7" x="-374.68" y="511.5" width="147" height="147"></rect>
    <rect id="SVGID_13_-43" x="-374.68" y="511.5" width="147" height="147"></rect>
    <rect id="SVGID_15_-2" x="190" y="7.84" width="297.31" height="297.31"></rect>
    <clipPath id="SVGID_2_">
      <use height="100%" width="100%" y="0" x="0" xlink:href="#SVGID_1_" style="overflow:visible" id="use75"></use>
    </clipPath>
    <clipPath id="clipPath3730">
      <use height="100%" width="100%" y="0" x="0" xlink:href="#SVGID_1_" style="overflow:visible" id="use3728"></use>
    </clipPath>
    <clipPath id="clipPath3734">
      <use height="100%" width="100%" y="0" x="0" xlink:href="#SVGID_1_" style="overflow:visible" id="use3732"></use>
    </clipPath>
    <clipPath id="clipPath3738">
      <use height="100%" width="100%" y="0" x="0" xlink:href="#SVGID_1_" style="overflow:visible" id="use3736"></use>
    </clipPath>
    <clipPath id="clipPath3742">
      <use height="100%" width="100%" y="0" x="0" xlink:href="#SVGID_1_" style="overflow:visible" id="use3740"></use>
    </clipPath>
    <clipPath id="clipPath3746">
      <use height="100%" width="100%" y="0" x="0" xlink:href="#SVGID_1_" style="overflow:visible" id="use3744"></use>
    </clipPath>
    <clipPath id="clipPath3750">
      <use height="100%" width="100%" y="0" x="0" xlink:href="#SVGID_1_" style="overflow:visible" id="use3748"></use>
    </clipPath>
    <clipPath id="clipPath3754">
      <use height="100%" width="100%" y="0" x="0" xlink:href="#SVGID_1_" style="overflow:visible" id="use3752"></use>
    </clipPath>
    <clipPath id="clipPath3758">
      <use height="100%" width="100%" y="0" x="0" xlink:href="#SVGID_1_" style="overflow:visible" id="use3756"></use>
    </clipPath>
    <clipPath id="clipPath3762">
      <use height="100%" width="100%" y="0" x="0" xlink:href="#SVGID_1_" style="overflow:visible" id="use3760"></use>
    </clipPath>
    <clipPath id="clipPath3766">
      <use height="100%" width="100%" y="0" x="0" xlink:href="#SVGID_1_" style="overflow:visible" id="use3764"></use>
    </clipPath>
    <clipPath id="SVGID_4_">
      <use height="100%" width="100%" y="0" x="0" xlink:href="#SVGID_3_" style="overflow:visible" id="use197"></use>
    </clipPath>
    <clipPath id="SVGID_6_">
      <use height="100%" width="100%" y="0" x="0" xlink:href="#SVGID_5_" style="overflow:visible" id="use215"></use>
    </clipPath>
    <clipPath id="SVGID_8_">
      <use height="100%" width="100%" y="0" x="0" xlink:href="#SVGID_7_" style="overflow:visible" id="use233"></use>
    </clipPath>
    <clipPath id="SVGID_10_">
      <use height="100%" width="100%" y="0" x="0" xlink:href="#SVGID_9_" style="overflow:visible" id="use257"></use>
    </clipPath>
    <clipPath id="SVGID_12_">
      <use height="100%" width="100%" y="0" x="0" xlink:href="#SVGID_11_" style="overflow:visible" id="use275"></use>
    </clipPath>
    <clipPath id="SVGID_14_">
      <use height="100%" width="100%" y="0" x="0" xlink:href="#SVGID_13_" style="overflow:visible" id="use293"></use>
    </clipPath>
    <clipPath id="SVGID_16_">
      <use height="100%" width="100%" y="0" x="0" xlink:href="#SVGID_15_" style="overflow:visible" id="use359"></use>
    </clipPath>
    <clipPath id="clipPath3784">
      <use height="100%" width="100%" y="0" x="0" xlink:href="#SVGID_15_" style="overflow:visible" id="use3782"></use>
    </clipPath>
    <clipPath id="clipPath3788">
      <use height="100%" width="100%" y="0" x="0" xlink:href="#SVGID_15_" style="overflow:visible" id="use3786"></use>
    </clipPath>
    <clipPath id="clipPath3792">
      <use height="100%" width="100%" y="0" x="0" xlink:href="#SVGID_15_" style="overflow:visible" id="use3790"></use>
    </clipPath>
    <clipPath id="clipPath3796">
      <use height="100%" width="100%" y="0" x="0" xlink:href="#SVGID_15_" style="overflow:visible" id="use3794"></use>
    </clipPath>
    <clipPath id="clipPath3800">
      <use height="100%" width="100%" y="0" x="0" xlink:href="#SVGID_15_" style="overflow:visible" id="use3798"></use>
    </clipPath>
    <clipPath id="clipPath3804">
      <use height="100%" width="100%" y="0" x="0" xlink:href="#SVGID_15_" style="overflow:visible" id="use3802"></use>
    </clipPath>
    <clipPath id="clipPath3808">
      <use height="100%" width="100%" y="0" x="0" xlink:href="#SVGID_15_" style="overflow:visible" id="use3806"></use>
    </clipPath>
    <clipPath id="clipPath3812">
      <use height="100%" width="100%" y="0" x="0" xlink:href="#SVGID_15_" style="overflow:visible" id="use3810"></use>
    </clipPath>
    <clipPath id="clipPath3816">
      <use height="100%" width="100%" y="0" x="0" xlink:href="#SVGID_15_" style="overflow:visible" id="use3814"></use>
    </clipPath>
    <clipPath id="clipPath3820">
      <use height="100%" width="100%" y="0" x="0" xlink:href="#SVGID_15_" style="overflow:visible" id="use3818"></use>
    </clipPath>
    <rect id="rect488" x="-375" y="-690.83002" width="148.64999" height="148.64999"></rect>
    <rect id="rect551" x="198.64999" y="538.5" width="294" height="294"></rect>
    <rect id="rect562" x="198.64999" y="538.5" width="294" height="294"></rect>
    <rect id="rect573" x="198.64999" y="538.5" width="294" height="294"></rect>
    <rect id="rect587" x="-374.67999" y="9.5" width="147" height="147"></rect>
    <rect id="rect598" x="-374.67999" y="9.5" width="147" height="147"></rect>
    <rect id="rect609" x="-374.67999" y="9.5" width="147" height="147"></rect>
    <rect id="rect644" x="190" y="-494.16" width="297.31" height="297.31"></rect>
    <clipPath id="SVGID_2_-3">
      <use id="use75-4" style="overflow:visible" xlink:href="#SVGID_1_" x="0" y="0" width="100%" height="100%"></use>
    </clipPath>
    <clipPath id="clipPath4635">
      <use id="use4633" style="overflow:visible" xlink:href="#SVGID_1_" x="0" y="0" width="100%" height="100%"></use>
    </clipPath>
    <clipPath id="clipPath4639">
      <use id="use4637" style="overflow:visible" xlink:href="#SVGID_1_" x="0" y="0" width="100%" height="100%"></use>
    </clipPath>
    <clipPath id="clipPath4643">
      <use id="use4641" style="overflow:visible" xlink:href="#SVGID_1_" x="0" y="0" width="100%" height="100%"></use>
    </clipPath>
    <clipPath id="clipPath4647">
      <use id="use4645" style="overflow:visible" xlink:href="#SVGID_1_" x="0" y="0" width="100%" height="100%"></use>
    </clipPath>
    <clipPath id="clipPath4651">
      <use id="use4649" style="overflow:visible" xlink:href="#SVGID_1_" x="0" y="0" width="100%" height="100%"></use>
    </clipPath>
    <clipPath id="clipPath4655">
      <use id="use4653" style="overflow:visible" xlink:href="#SVGID_1_" x="0" y="0" width="100%" height="100%"></use>
    </clipPath>
    <clipPath id="clipPath4659">
      <use id="use4657" style="overflow:visible" xlink:href="#SVGID_1_" x="0" y="0" width="100%" height="100%"></use>
    </clipPath>
    <clipPath id="clipPath4663">
      <use id="use4661" style="overflow:visible" xlink:href="#SVGID_1_" x="0" y="0" width="100%" height="100%"></use>
    </clipPath>
    <clipPath id="clipPath4667">
      <use id="use4665" style="overflow:visible" xlink:href="#SVGID_1_" x="0" y="0" width="100%" height="100%"></use>
    </clipPath>
    <clipPath id="clipPath4671">
      <use id="use4669" style="overflow:visible" xlink:href="#SVGID_1_" x="0" y="0" width="100%" height="100%"></use>
    </clipPath>
    <clipPath id="SVGID_4_-2">
      <use id="use197-5" style="overflow:visible" xlink:href="#SVGID_3_" x="0" y="0" width="100%" height="100%"></use>
    </clipPath>
    <clipPath id="SVGID_6_-2">
      <use id="use215-2" style="overflow:visible" xlink:href="#SVGID_5_" x="0" y="0" width="100%" height="100%"></use>
    </clipPath>
    <clipPath id="SVGID_8_-5">
      <use id="use233-2" style="overflow:visible" xlink:href="#SVGID_7_" x="0" y="0" width="100%" height="100%"></use>
    </clipPath>
    <clipPath id="SVGID_10_-5">
      <use id="use257-1" style="overflow:visible" xlink:href="#SVGID_9_" x="0" y="0" width="100%" height="100%"></use>
    </clipPath>
    <clipPath id="SVGID_12_-1">
      <use id="use275-7" style="overflow:visible" xlink:href="#SVGID_11_" x="0" y="0" width="100%" height="100%"></use>
    </clipPath>
    <clipPath id="SVGID_14_-9">
      <use id="use293-1" style="overflow:visible" xlink:href="#SVGID_13_" x="0" y="0" width="100%" height="100%"></use>
    </clipPath>
    <clipPath id="SVGID_16_-9">
      <use id="use359-4" style="overflow:visible" xlink:href="#SVGID_15_" x="0" y="0" width="100%" height="100%"></use>
    </clipPath>
    <clipPath id="clipPath4689">
      <use id="use4687" style="overflow:visible" xlink:href="#SVGID_15_" x="0" y="0" width="100%" height="100%"></use>
    </clipPath>
    <clipPath id="clipPath4693">
      <use id="use4691" style="overflow:visible" xlink:href="#SVGID_15_" x="0" y="0" width="100%" height="100%"></use>
    </clipPath>
    <clipPath id="clipPath4697">
      <use id="use4695" style="overflow:visible" xlink:href="#SVGID_15_" x="0" y="0" width="100%" height="100%"></use>
    </clipPath>
    <clipPath id="clipPath4701">
      <use id="use4699" style="overflow:visible" xlink:href="#SVGID_15_" x="0" y="0" width="100%" height="100%"></use>
    </clipPath>
    <clipPath id="clipPath4705">
      <use id="use4703" style="overflow:visible" xlink:href="#SVGID_15_" x="0" y="0" width="100%" height="100%"></use>
    </clipPath>
    <clipPath id="clipPath4709">
      <use id="use4707" style="overflow:visible" xlink:href="#SVGID_15_" x="0" y="0" width="100%" height="100%"></use>
    </clipPath>
    <clipPath id="clipPath4713">
      <use id="use4711" style="overflow:visible" xlink:href="#SVGID_15_" x="0" y="0" width="100%" height="100%"></use>
    </clipPath>
    <clipPath id="clipPath4717">
      <use id="use4715" style="overflow:visible" xlink:href="#SVGID_15_" x="0" y="0" width="100%" height="100%"></use>
    </clipPath>
    <clipPath id="clipPath4721">
      <use id="use4719" style="overflow:visible" xlink:href="#SVGID_15_" x="0" y="0" width="100%" height="100%"></use>
    </clipPath>
    <clipPath id="clipPath4725">
      <use id="use4723" style="overflow:visible" xlink:href="#SVGID_15_" x="0" y="0" width="100%" height="100%"></use>
    </clipPath>
    <rect height="148.64999" width="148.64999" y="-690.83002" x="-375" id="rect4408"></rect>
    <rect height="294" width="294" y="538.5" x="198.64999" id="rect4471"></rect>
    <rect height="294" width="294" y="538.5" x="198.64999" id="rect4482"></rect>
    <rect height="294" width="294" y="538.5" x="198.64999" id="rect4493"></rect>
    <rect height="147" width="147" y="9.5" x="-374.67999" id="rect4507"></rect>
    <rect height="147" width="147" y="9.5" x="-374.67999" id="rect4518"></rect>
    <rect height="147" width="147" y="9.5" x="-374.67999" id="rect4529"></rect>
    <rect height="297.31" width="297.31" y="-494.16" x="190" id="rect4564"></rect>
    <clipPath id="SVGID_2_-9">
      <use id="use75-0" style="overflow:visible" xlink:href="#SVGID_1_" x="0" y="0" width="100%" height="100%"></use>
    </clipPath>
    <clipPath id="clipPath5477">
      <use id="use5475" style="overflow:visible" xlink:href="#SVGID_1_" x="0" y="0" width="100%" height="100%"></use>
    </clipPath>
    <clipPath id="clipPath5481">
      <use id="use5479" style="overflow:visible" xlink:href="#SVGID_1_" x="0" y="0" width="100%" height="100%"></use>
    </clipPath>
    <clipPath id="clipPath5485">
      <use id="use5483" style="overflow:visible" xlink:href="#SVGID_1_" x="0" y="0" width="100%" height="100%"></use>
    </clipPath>
    <clipPath id="clipPath5489">
      <use id="use5487" style="overflow:visible" xlink:href="#SVGID_1_" x="0" y="0" width="100%" height="100%"></use>
    </clipPath>
    <clipPath id="clipPath5493">
      <use id="use5491" style="overflow:visible" xlink:href="#SVGID_1_" x="0" y="0" width="100%" height="100%"></use>
    </clipPath>
    <clipPath id="clipPath5497">
      <use id="use5495" style="overflow:visible" xlink:href="#SVGID_1_" x="0" y="0" width="100%" height="100%"></use>
    </clipPath>
    <clipPath id="clipPath5501">
      <use id="use5499" style="overflow:visible" xlink:href="#SVGID_1_" x="0" y="0" width="100%" height="100%"></use>
    </clipPath>
    <clipPath id="clipPath5505">
      <use id="use5503" style="overflow:visible" xlink:href="#SVGID_1_" x="0" y="0" width="100%" height="100%"></use>
    </clipPath>
    <clipPath id="clipPath5509">
      <use id="use5507" style="overflow:visible" xlink:href="#SVGID_1_" x="0" y="0" width="100%" height="100%"></use>
    </clipPath>
    <clipPath id="clipPath5513">
      <use id="use5511" style="overflow:visible" xlink:href="#SVGID_1_" x="0" y="0" width="100%" height="100%"></use>
    </clipPath>
    <clipPath id="SVGID_10_-4">
      <use id="use257-8" style="overflow:visible" xlink:href="#SVGID_9_" x="0" y="0" width="100%" height="100%"></use>
    </clipPath>
    <clipPath id="SVGID_12_-0">
      <use id="use275-9" style="overflow:visible" xlink:href="#SVGID_11_" x="0" y="0" width="100%" height="100%"></use>
    </clipPath>
    <clipPath id="SVGID_14_-7">
      <use id="use293-9" style="overflow:visible" xlink:href="#SVGID_13_" x="0" y="0" width="100%" height="100%"></use>
    </clipPath>
    <clipPath id="SVGID_16_-4">
      <use id="use359-6" style="overflow:visible" xlink:href="#SVGID_15_" x="0" y="0" width="100%" height="100%"></use>
    </clipPath>
    <clipPath id="clipPath5525">
      <use id="use5523" style="overflow:visible" xlink:href="#SVGID_15_" x="0" y="0" width="100%" height="100%"></use>
    </clipPath>
    <clipPath id="clipPath5529">
      <use id="use5527" style="overflow:visible" xlink:href="#SVGID_15_" x="0" y="0" width="100%" height="100%"></use>
    </clipPath>
    <clipPath id="clipPath5533">
      <use id="use5531" style="overflow:visible" xlink:href="#SVGID_15_" x="0" y="0" width="100%" height="100%"></use>
    </clipPath>
    <clipPath id="clipPath5537">
      <use id="use5535" style="overflow:visible" xlink:href="#SVGID_15_" x="0" y="0" width="100%" height="100%"></use>
    </clipPath>
    <clipPath id="clipPath5541">
      <use id="use5539" style="overflow:visible" xlink:href="#SVGID_15_" x="0" y="0" width="100%" height="100%"></use>
    </clipPath>
    <clipPath id="clipPath5545">
      <use id="use5543" style="overflow:visible" xlink:href="#SVGID_15_" x="0" y="0" width="100%" height="100%"></use>
    </clipPath>
    <clipPath id="clipPath5549">
      <use id="use5547" style="overflow:visible" xlink:href="#SVGID_15_" x="0" y="0" width="100%" height="100%"></use>
    </clipPath>
    <clipPath id="clipPath5553">
      <use id="use5551" style="overflow:visible" xlink:href="#SVGID_15_" x="0" y="0" width="100%" height="100%"></use>
    </clipPath>
    <clipPath id="clipPath5557">
      <use id="use5555" style="overflow:visible" xlink:href="#SVGID_15_" x="0" y="0" width="100%" height="100%"></use>
    </clipPath>
    <clipPath id="clipPath5561">
      <use id="use5559" style="overflow:visible" xlink:href="#SVGID_15_" x="0" y="0" width="100%" height="100%"></use>
    </clipPath>
    <rect id="rect5271" x="-375" y="-690.83002" width="148.64999" height="148.64999"></rect>
    <rect id="rect5370" x="-374.67999" y="9.5" width="147" height="147"></rect>
    <rect id="rect5381" x="-374.67999" y="9.5" width="147" height="147"></rect>
    <rect id="rect5392" x="-374.67999" y="9.5" width="147" height="147"></rect>
    <rect id="rect5421" x="190" y="-494.16" width="297.31" height="297.31"></rect>
  </defs>
  <metadata id="metadata5"></metadata>
  <g id="layer1" inkscape:groupmode="layer" inkscape:label="Ebene 1">
    <g transform="matrix(0.26458333,0,0,0.26458333,-393.98337,-72.202888)" id="g412">
</g>
    <g transform="matrix(0.26458333,0,0,0.26458333,-393.98337,-72.202888)" id="g414">
</g>
    <g transform="matrix(0.26458333,0,0,0.26458333,-393.98337,-72.202888)" id="g416">
</g>
    <g transform="matrix(0.26458333,0,0,0.26458333,-393.98337,-72.202888)" id="g418">
</g>
    <g transform="matrix(0.26458333,0,0,0.26458333,-393.98337,-72.202888)" id="g420">
</g>
    <g transform="matrix(0.26458333,0,0,0.26458333,-393.98337,-72.202888)" id="g422">
</g>
    <g transform="matrix(0.26458333,0,0,0.26458333,-393.98337,-72.202888)" id="g424">
</g>
    <g transform="matrix(0.26458333,0,0,0.26458333,-393.98337,-72.202888)" id="g426">
</g>
    <g transform="matrix(0.26458333,0,0,0.26458333,-393.98337,-72.202888)" id="g428">
</g>
    <g transform="matrix(0.26458333,0,0,0.26458333,-393.98337,-72.202888)" id="g430">
</g>
    <g transform="matrix(0.26458333,0,0,0.26458333,-393.98337,-72.202888)" id="g432">
</g>
    <g transform="matrix(0.26458333,0,0,0.26458333,-393.98337,-72.202888)" id="g434">
</g>
    <g transform="matrix(0.26458333,0,0,0.26458333,-393.98337,-72.202888)" id="g436">
</g>
    <g transform="matrix(0.26458333,0,0,0.26458333,-393.98337,-72.202888)" id="g438">
</g>
    <g transform="matrix(0.26458333,0,0,0.26458333,-393.98337,-72.202888)" id="g440">
</g>
    <g style="fill:#24195d;fill-opacity:1" transform="matrix(1.1976939,0,0,1.1976939,-270.67882,-59.37462)" id="g146">
      <g style="fill:#24195d;fill-opacity:1" id="g144">
        <rect style="fill:#24195d;fill-opacity:1" id="rect102" height="43.099998" width="9.8299999" class="st1" y="117.75" x="304.64001"></rect>
        <rect style="fill:#24195d;fill-opacity:1" id="rect104" height="43.099998" width="19.66" class="st1" y="117.75" x="275.14999"></rect>
        <rect style="fill:#24195d;fill-opacity:1" id="rect106" height="43.099998" width="19.66" class="st1" y="189.59" x="275.14999"></rect>
        <rect style="fill:#24195d;fill-opacity:1" id="rect108" height="43.099998" width="9.8299999" class="st1" y="189.59" x="255.74001"></rect>
        <rect style="fill:#24195d;fill-opacity:1" id="rect110" height="43.099998" width="9.8299999" class="st1" y="117.75" x="255.74001"></rect>
        <rect style="fill:#24195d;fill-opacity:1" id="rect112" height="43.099998" width="9.8299999" class="st1" y="117.75" x="392.60999"></rect>
        <rect style="fill:#24195d;fill-opacity:1" id="rect114" height="43.099998" width="19.66" class="st1" y="117.75" x="343.70999"></rect>
        <rect style="fill:#24195d;fill-opacity:1" id="rect116" height="43.099998" width="9.8299999" class="st1" y="117.75" x="324.04999"></rect>
        <rect style="fill:#24195d;fill-opacity:1" id="rect118" height="43.099998" width="9.8299999" class="st1" y="117.75" x="372.94"></rect>
        <rect style="fill:#24195d;fill-opacity:1" id="rect120" height="43.099998" width="9.8299999" class="st1" y="189.59" x="392.60999"></rect>
        <rect style="fill:#24195d;fill-opacity:1" id="rect122" height="43.099998" width="9.8299999" class="st1" y="189.59" x="412.26001"></rect>
        <rect style="fill:#24195d;fill-opacity:1" id="rect124" height="43.099998" width="9.8299999" class="st1" y="189.59" x="304.64001"></rect>
        <rect style="fill:#24195d;fill-opacity:1" id="rect126" height="43.099998" width="9.8299999" class="st1" y="189.59" x="372.94"></rect>
        <rect style="fill:#24195d;fill-opacity:1" id="rect128" height="43.099998" width="9.8299999" class="st1" y="117.75" x="412.26001"></rect>
        <rect style="fill:#24195d;fill-opacity:1" id="rect130" height="43.099998" width="19.66" class="st1" y="189.59" x="343.70999"></rect>
        <rect style="fill:#24195d;fill-opacity:1" id="rect132" height="43.099998" width="9.8299999" class="st1" y="189.59" x="324.04999"></rect>
        <rect style="fill:#24195d;fill-opacity:1" id="rect134" height="11.34" width="188.28" class="st1" y="169.17" x="244.64999"></rect>
        <polygon style="fill:#24195d;fill-opacity:1" id="polygon136" points="235.83,121.28 235.83,96.08 260.78,96.08 260.78,86.5 226,86.5 226,121.28 " class="st1"></polygon>
        <polygon style="fill:#24195d;fill-opacity:1" id="polygon138" points="418.06,86.5 418.06,96.08 443.02,96.08 443.02,121.28 452.85,121.28 452.85,86.5 " class="st1"></polygon>
        <polygon style="fill:#24195d;fill-opacity:1" id="polygon140" points="235.83,253.36 235.83,228.15 226,228.15 226,262.94 260.78,262.94 260.78,253.36 " class="st1"></polygon>
        <polygon style="fill:#24195d;fill-opacity:1" id="polygon142" points="443.02,228.15 443.02,253.36 418.06,253.36 418.06,262.94 452.85,262.94 452.85,228.15 " class="st1"></polygon>
      </g>
    </g>
    <path class="st0" d="M -281.81964,946.30915" id="path12" style="fill:#a31747;stroke-width:0.264583"></path>
  </g>
  <style type="text/css" id="style10">
	.st0{fill:#A31747;}
	.st1{fill:#A3184A;}
	.st2{fill:none;stroke:#A3184A;stroke-width:0.338;stroke-miterlimit:10;}
	.st3{fill:#FFFFFF;}
	.st4{fill:#E7E7E8;}
	.st5{clip-path:url(#SVGID_2_);fill:#A3184A;}
	.st6{clip-path:url(#SVGID_4_);fill:#A3184A;}
	.st7{clip-path:url(#SVGID_6_);fill:#A3184A;}
	.st8{clip-path:url(#SVGID_8_);fill:#A3184A;}
	.st9{clip-path:url(#SVGID_10_);fill:#A3184A;}
	.st10{clip-path:url(#SVGID_12_);fill:#A3184A;}
	.st11{clip-path:url(#SVGID_14_);fill:#A3184A;}
	.st12{fill:#A21749;}
	.st13{clip-path:url(#SVGID_16_);fill:#A3184A;}
	.st14{fill:#A31749;}
</style>
  <style type="text/css" id="style691">
	.st0{fill:#A31747;}
	.st1{fill:#A3184A;}
	.st2{fill:none;stroke:#A3184A;stroke-width:0.338;stroke-miterlimit:10;}
	.st3{fill:#FFFFFF;}
	.st4{fill:#E7E7E8;}
	.st5{clip-path:url(#SVGID_2_);fill:#A3184A;}
	.st6{clip-path:url(#SVGID_4_);fill:#A3184A;}
	.st7{clip-path:url(#SVGID_6_);fill:#A3184A;}
	.st8{clip-path:url(#SVGID_8_);fill:#A3184A;}
	.st9{clip-path:url(#SVGID_10_);fill:#A3184A;}
	.st10{clip-path:url(#SVGID_12_);fill:#A3184A;}
	.st11{clip-path:url(#SVGID_14_);fill:#A3184A;}
	.st12{fill:#A21749;}
	.st13{clip-path:url(#SVGID_16_);fill:#A3184A;}
	.st14{fill:#A31749;}
</style>
  <style type="text/css" id="style1372">
	.st0{fill:#A31747;}
	.st1{fill:#A3184A;}
	.st2{fill:none;stroke:#A3184A;stroke-width:0.338;stroke-miterlimit:10;}
	.st3{fill:#FFFFFF;}
	.st4{fill:#E7E7E8;}
	.st5{clip-path:url(#SVGID_2_);fill:#A3184A;}
	.st6{clip-path:url(#SVGID_4_);fill:#A3184A;}
	.st7{clip-path:url(#SVGID_6_);fill:#A3184A;}
	.st8{clip-path:url(#SVGID_8_);fill:#A3184A;}
	.st9{clip-path:url(#SVGID_10_);fill:#A3184A;}
	.st10{clip-path:url(#SVGID_12_);fill:#A3184A;}
	.st11{clip-path:url(#SVGID_14_);fill:#A3184A;}
	.st12{fill:#A21749;}
	.st13{clip-path:url(#SVGID_16_);fill:#A3184A;}
	.st14{fill:#A31749;}
</style>
  <style type="text/css" id="style2053">
	.st0{fill:#A31747;}
	.st1{fill:#A3184A;}
	.st2{fill:none;stroke:#A3184A;stroke-width:0.338;stroke-miterlimit:10;}
	.st3{fill:#FFFFFF;}
	.st4{fill:#E7E7E8;}
	.st5{clip-path:url(#SVGID_2_);fill:#A3184A;}
	.st6{clip-path:url(#SVGID_4_);fill:#A3184A;}
	.st7{clip-path:url(#SVGID_6_);fill:#A3184A;}
	.st8{clip-path:url(#SVGID_8_);fill:#A3184A;}
	.st9{clip-path:url(#SVGID_10_);fill:#A3184A;}
	.st10{clip-path:url(#SVGID_12_);fill:#A3184A;}
	.st11{clip-path:url(#SVGID_14_);fill:#A3184A;}
	.st12{fill:#A21749;}
	.st13{clip-path:url(#SVGID_16_);fill:#A3184A;}
	.st14{fill:#A31749;}
</style>
  <style type="text/css" id="style2734">
	.st0{fill:#A31747;}
	.st1{fill:#A3184A;}
	.st2{fill:none;stroke:#A3184A;stroke-width:0.338;stroke-miterlimit:10;}
	.st3{fill:#FFFFFF;}
	.st4{fill:#E7E7E8;}
	.st5{clip-path:url(#SVGID_2_);fill:#A3184A;}
	.st6{clip-path:url(#SVGID_4_);fill:#A3184A;}
	.st7{clip-path:url(#SVGID_6_);fill:#A3184A;}
	.st8{clip-path:url(#SVGID_8_);fill:#A3184A;}
	.st9{clip-path:url(#SVGID_10_);fill:#A3184A;}
	.st10{clip-path:url(#SVGID_12_);fill:#A3184A;}
	.st11{clip-path:url(#SVGID_14_);fill:#A3184A;}
	.st12{fill:#A21749;}
	.st13{clip-path:url(#SVGID_16_);fill:#A3184A;}
	.st14{fill:#A31749;}
</style>
  <style type="text/css" id="style10-8">
	.st0{fill:#003D7C;}
</style>
  <style type="text/css" id="style56">
	.st0{fill:#003D7C;}
</style>
  <style type="text/css" id="style72">
	.st0{fill:#A31747;}
	.st1{fill:#003D7C;}
</style>
  <style type="text/css" id="style123">
	.st0{fill:#A31747;}
	.st1{fill:#003D7C;}
</style>
</svg>
