<?xml version="1.0" encoding="UTF-8" standalone="no"?>
<svg xmlns:dc="http://purl.org/dc/elements/1.1/" xmlns:cc="http://creativecommons.org/ns#" xmlns:rdf="http://www.w3.org/1999/02/22-rdf-syntax-ns#" xmlns:svg="http://www.w3.org/2000/svg" xmlns="http://www.w3.org/2000/svg" xmlns:sodipodi="http://sodipodi.sourceforge.net/DTD/sodipodi-0.dtd" xmlns:inkscape="http://www.inkscape.org/namespaces/inkscape" sodipodi:docname="besteck_neu.svg" inkscape:version="1.0 (4035a4fb49, 2020-05-01)" id="svg8" version="1.1" viewBox="0 0 529.16666 299.77293" height="1133" width="2000">
  <defs id="defs2"></defs>
  <metadata id="metadata5"></metadata>
  <g id="layer1" inkscape:groupmode="layer" inkscape:label="Ebene 1">
    <g transform="matrix(2.0792007,0,0,2.0792007,-117.30078,-59.800932)" id="g151" style="fill:#24195d;fill-opacity:1">
      <path class="st0" d="M 44.2,48" id="path125" style="fill:#24195d;fill-opacity:1"></path>
      <g id="g135" style="fill:#24195d;fill-opacity:1">
        <g id="g133" style="fill:#24195d;fill-opacity:1">
          <path class="st1" d="m 135.7,150 c 0,0 0,-30.5 0,-33.5 0,-2.8 -0.1,-69.2 -0.1,-69.2 h -1.5 c 0,0 -12.4,7 -12.4,58.7 9.5,2.6 5.5,13 4.8,14.3 0,2.6 0.2,29.7 0.2,29.7 v 0 0.1 c 0,2.5 2,4.5 4.5,4.5 2.5,0 4.5,-2 4.5,-4.5 0,-0.1 0,-0.1 0,-0.1 z" id="path127" style="fill:#24195d;fill-opacity:1"></path>
          <path class="st1" d="m 113.8,49.2 h -2.7 l 0.8,28.1 h -3.2 V 49.2 h -2.4 v 28.3 h -2.7 V 49.2 H 101 v 28.3 h -3.2 l 0.9,-28.3 h -2.4 l -3,24 c 0,0 -0.1,0.9 -0.1,1.2 0,3.7 1.7,7 4.4,9.2 8.8,10 2.8,20.1 2.8,22.5 0,2.7 0,43.8 0,43.8 0,0 0,0 0,0.1 0,2.5 2,4.6 4.6,4.6 2.5,0 4.6,-2 4.6,-4.6 0,-0.1 0,-0.1 0,-0.1 v 0 c 0,0 0,-40.6 0,-43.7 0,-2.8 -5.1,-14.5 3.4,-23.2 0,0 0,0 0.1,-0.1 2.1,-2 3.4,-4.7 3.6,-7.7 0,-0.2 0,-0.8 0,-0.8 z" id="path129" style="fill:#24195d;fill-opacity:1"></path>
          <path class="st1" d="m 73.1,46.8 h -0.3 c -9.9,0.2 -15.5,9.6 -15.5,19.9 0,10.4 6.2,17.8 11.7,19.4 3,4.2 1,14 -1.1,19.7 v 44.4 0.1 c 0,2.6 2.1,4.6 4.6,4.6 h 0.8 c 2.6,0 4.6,-2.1 4.6,-4.6 v -0.1 -44.4 C 75.8,100.1 73.8,90.2 76.8,86.1 82.2,84.5 88.5,77.1 88.5,66.7 88.5,56.4 83,47 73.1,46.8 Z M 67.9,82.1 C 67.3,81.6 66.5,80.9 65.7,79.9 64.8,78.9 64,77.7 63.2,76.2 62.8,75.5 62.4,74.7 62.1,73.9 61.8,73.1 61.5,72.2 61.3,71.3 61,69.4 61,67.7 61.2,66 c 0.2,-1.6 0.5,-3.1 0.9,-4.3 0.4,-1.2 0.8,-2.2 1.2,-2.9 0.3,-0.7 0.6,-1 0.6,-1 0,0 -0.1,0.5 -0.1,1.2 0,0.7 -0.1,1.8 -0.1,3 0,2.5 -0.2,5.8 0.2,8.8 0.1,0.7 0.3,1.5 0.6,2.2 0.2,0.7 0.5,1.5 0.8,2.2 0.6,1.4 1.2,2.7 1.7,3.9 0.5,1.1 1,2.1 1.3,2.7 0.3,0.7 0.7,0.9 0.7,0.9 0,0 -0.5,-0.1 -1.1,-0.6 z" id="path131" style="fill:#24195d;fill-opacity:1"></path>
        </g>
      </g>
    </g>
  </g>
  <style type="text/css" id="style10">
	.st0{fill:#003D7C;}
</style>
  <style type="text/css" id="style56">
	.st0{fill:#003D7C;}
</style>
  <style type="text/css" id="style72">
	.st0{fill:#A31747;}
	.st1{fill:#003D7C;}
</style>
  <style type="text/css" id="style123">
	.st0{fill:#A31747;}
	.st1{fill:#003D7C;}
</style>
</svg>
