<?xml version="1.0" encoding="UTF-8" standalone="no"?>
<svg xmlns:dc="http://purl.org/dc/elements/1.1/" xmlns:cc="http://creativecommons.org/ns#" xmlns:rdf="http://www.w3.org/1999/02/22-rdf-syntax-ns#" xmlns:svg="http://www.w3.org/2000/svg" xmlns="http://www.w3.org/2000/svg" xmlns:sodipodi="http://sodipodi.sourceforge.net/DTD/sodipodi-0.dtd" xmlns:inkscape="http://www.inkscape.org/namespaces/inkscape" sodipodi:docname="vertrag_neu.svg" inkscape:version="1.0 (4035a4fb49, 2020-05-01)" id="svg8" version="1.1" viewBox="0 0 529.16665 299.77293" height="1133" width="2000">
  <defs id="defs2"></defs>
  <metadata id="metadata5"></metadata>
  <g id="layer1" inkscape:groupmode="layer" inkscape:label="Ebene 1">
    <g transform="matrix(1.6166295,0,0,1.6166295,-47.723288,-20.616952)" id="g181" style="fill:#24195d;fill-opacity:1">
      <path class="st0" d="M 40,79.8" id="path143" style="fill:#24195d;fill-opacity:1"></path>
      <g transform="scale(5.8333333)" id="g161" style="fill:#24195d;fill-opacity:1">
        <path class="st1" d="m 10.9,20 c -0.1,0 -0.3,0 -0.4,-0.1 -0.1,-0.1 -0.3,-0.2 -0.4,-0.3 -1.8,-1.5 -3.6,-3 -3.6,-4.9 V 10.5 L 5.2,8.7 C 5,8.4 5,8.1 5.3,7.8 5.5,7.6 5.9,7.7 6.1,7.9 l 1.5,1.9 c 0.1,0.1 0.2,0.3 0.2,0.4 v 4.5 c 0,1.3 1.6,2.6 3.1,4 0.1,0.1 0.3,0.2 0.4,0.3 0.3,0.2 0.3,0.6 0.1,0.8 C 11.2,20 11.1,20 10.9,20 Z" id="path145" style="fill:#24195d;fill-opacity:1"></path>
        <path class="st1" d="m 12.8,16.2 v 0 c -0.5,0 -1,-0.2 -1.3,-0.5 L 9.7,13.9 c -0.2,-0.2 -0.2,-0.6 0,-0.8 0.2,-0.2 0.6,-0.2 0.8,0 l 1.8,1.8 c 0.1,0.1 0.3,0.2 0.4,0.2 0.2,0 0.3,-0.1 0.4,-0.2 0.2,-0.2 0.2,-0.6 0,-0.9 L 10.5,11.2 C 10.4,11.1 10.3,10.9 10.3,10.8 V 9.4 C 10.2,8.6 9.9,7.8 9.4,7.2 9.2,6.9 9.3,6.5 9.6,6.4 c 0.3,-0.2 0.6,-0.2 0.8,0.1 0.5,0.8 0.9,1.7 1.1,2.7 v 0.1 1.2 l 2.6,2.6 c 0.3,0.3 0.5,0.8 0.5,1.3 0,0.5 -0.2,0.9 -0.5,1.3 -0.4,0.4 -0.9,0.5 -1.3,0.5 z" id="path147" style="fill:#24195d;fill-opacity:1"></path>
        <path class="st1" d="m 19.9,28.5 h -7.5 c -1.2,0 -2.1,-0.9 -2.1,-2.1 V 14.2 c 0,-0.3 0.3,-0.6 0.6,-0.6 0.3,0 0.6,0.3 0.6,0.6 v 12.1 c 0,0.5 0.4,0.9 0.9,0.9 h 7.5 c 0.3,0 0.6,0.3 0.6,0.6 0,0.3 -0.3,0.7 -0.6,0.7 z" id="path149" style="fill:#24195d;fill-opacity:1"></path>
        <path class="st1" d="m 23.9,29.9 c -0.2,0 -0.4,-0.1 -0.5,-0.3 -0.5,-0.8 -0.9,-1.7 -1.1,-2.7 v -0.1 -1.2 l -2.6,-2.5 c -0.3,-0.3 -0.5,-0.8 -0.5,-1.3 0,-0.5 0.2,-0.9 0.5,-1.3 C 20,20.2 20.5,20 21,20 c 0.5,0 0.9,0.2 1.3,0.5 l 0.7,0.7 v -3.8 c 0,-0.2 0.1,-0.4 0.3,-0.5 0.2,-0.1 0.5,-0.1 0.6,0.1 1.8,1.5 3.3,2.9 3.2,4.6 v 4.2 l 1.4,1.7 c 0.2,0.3 0.2,0.6 -0.1,0.8 -0.3,0.2 -0.6,0.2 -0.8,-0.1 L 26.1,26.3 C 26,26.2 26,26.1 26,25.9 v -4.5 c 0,-0.9 -0.8,-1.8 -1.8,-2.8 v 4 c 0,0.2 -0.1,0.5 -0.4,0.6 -0.2,0.1 -0.5,0 -0.7,-0.1 l -1.7,-1.8 c -0.1,-0.1 -0.3,-0.2 -0.4,-0.2 -0.2,0 -0.3,0.1 -0.4,0.2 -0.1,0.1 -0.2,0.3 -0.2,0.4 0,0.2 0.1,0.3 0.2,0.4 l 2.8,2.8 c 0.1,0.1 0.2,0.3 0.2,0.4 v 1.4 c 0.1,0.8 0.4,1.5 0.9,2.2 0.2,0.3 0.1,0.6 -0.2,0.8 -0.2,0.2 -0.3,0.2 -0.4,0.2 z" id="path151" style="fill:#24195d;fill-opacity:1"></path>
        <path class="st1" d="m 17.9,24.7 h -4 c -0.3,0 -0.6,-0.3 -0.6,-0.6 0,-0.3 0.3,-0.6 0.6,-0.6 h 4 c 0.3,0 0.6,0.3 0.6,0.6 0,0.3 -0.3,0.6 -0.6,0.6 z" id="path153" style="fill:#24195d;fill-opacity:1"></path>
        <path class="st1" d="m 15.4,21 h -1.5 c -0.3,0 -0.6,-0.3 -0.6,-0.6 0,-0.3 0.3,-0.6 0.6,-0.6 h 1.5 c 0.3,0 0.6,0.3 0.6,0.6 0,0.3 -0.3,0.6 -0.6,0.6 z" id="path155" style="fill:#24195d;fill-opacity:1"></path>
        <path class="st1" d="m 20.7,16.5 c -2.8,0 -5.1,-2.3 -5.1,-5.1 0,-2.8 2.3,-5.1 5.1,-5.1 0.3,0 0.6,0.3 0.6,0.6 0,0.3 -0.3,0.6 -0.6,0.6 -2.2,0 -3.9,1.7 -3.9,3.9 0,2.2 1.7,3.9 3.9,3.9 2.2,0 3.9,-1.7 3.9,-3.9 0,-0.3 0.3,-0.6 0.6,-0.6 0.3,0 0.6,0.3 0.6,0.6 0,2.8 -2.3,5.1 -5.1,5.1 z" id="path157" style="fill:#24195d;fill-opacity:1"></path>
        <path class="st1" d="m 20.7,12.8 c -0.3,0 -0.6,-0.1 -0.8,-0.3 v 0 l -1.3,-1.3 c -0.2,-0.2 -0.2,-0.6 0,-0.8 0.2,-0.2 0.6,-0.2 0.8,0 l 1.3,1.3 4.1,-4.1 c 0.2,-0.2 0.6,-0.2 0.8,0 0.2,0.2 0.2,0.6 0,0.8 l -4.1,4.1 c -0.2,0.2 -0.5,0.3 -0.8,0.3 z" id="path159" style="fill:#24195d;fill-opacity:1"></path>
      </g>
    </g>
  </g>
  <style type="text/css" id="style10">
	.st0{fill:#003D7C;}
</style>
  <style type="text/css" id="style56">
	.st0{fill:#003D7C;}
</style>
  <style type="text/css" id="style72">
	.st0{fill:#A31747;}
	.st1{fill:#003D7C;}
</style>
  <style type="text/css" id="style123">
	.st0{fill:#A31747;}
	.st1{fill:#003D7C;}
</style>
  <style type="text/css" id="style10-0">
	.st0{fill:#A31747;}
	.st1{fill:#003D7C;}
</style>
  <style type="text/css" id="style81">
	.st0{fill:#A31747;}
	.st1{fill:#003D7C;}
</style>
  <style type="text/css" id="style99">
	.st0{fill:#A31747;}
	.st1{fill:#003D7C;}
	.st2{fill:#FFFFFF;}
</style>
  <style type="text/css" id="style141">
	.st0{fill:#A31747;}
	.st1{fill:#003D7C;}
</style>
</svg>
