<?xml version="1.0" encoding="UTF-8"?>
<svg xmlns:svgjs="http://svgjs.com/svgjs" xmlns="http://www.w3.org/2000/svg" xmlns:xlink="http://www.w3.org/1999/xlink" version="1.1" id="Ebene_1" x="0px" y="0px" viewBox="0 0 113.4 113.4" style="enable-background:new 0 0 113.4 113.4;" xml:space="preserve">
<style type="text/css">
	.st0{fill:#D4D1E4;}
	.st1{fill:#24195D;}
</style>
<circle class="st0" cx="56.6" cy="54.9" r="51.4"></circle>
<title>Exported from Streamline App (https://app.streamlineicons.com)</title>
<g transform="matrix(2,0,0,2,0,0)">
	<path class="st1" d="M24.2,35.7c-0.5,0-0.8-0.4-0.8-0.8v-5.8h-0.8c-0.5,0-0.8-0.4-0.8-0.8c0-0.5,0.4-0.8,0.8-0.8h0.8   c0.9,0,1.7,0.7,1.7,1.7v5.8C25,35.4,24.6,35.7,24.2,35.7z"></path>
	<path class="st1" d="M25.8,35.7h-3.3c-0.5,0-0.8-0.4-0.8-0.8s0.4-0.8,0.8-0.8h3.3c0.5,0,0.8,0.4,0.8,0.8S26.3,35.7,25.8,35.7z"></path>
	<path class="st1" d="M31.1,35.7c-0.1,0-0.2,0-0.3-0.1c-0.4-0.2-0.6-0.6-0.5-1.1l2.1-5.5l-2.1,0c-0.5,0-0.8-0.4-0.8-0.8   c0-0.5,0.4-0.8,0.8-0.8h2.1c0.9,0,1.7,0.7,1.7,1.7c0,0.2,0,0.4-0.1,0.6l-2.1,5.5C31.8,35.5,31.5,35.7,31.1,35.7z"></path>
	<path class="st1" d="M39,40.7H17.5c-1.4,0-2.5-1.1-2.5-2.5V20c0-1.4,1.1-2.5,2.5-2.5H39c1.4,0,2.5,1.1,2.5,2.5v18.2   C41.5,39.6,40.4,40.7,39,40.7z M17.5,19.2c-0.5,0-0.8,0.4-0.8,0.8v18.2c0,0.5,0.4,0.8,0.8,0.8H39c0.5,0,0.8-0.4,0.8-0.8V20   c0-0.5-0.4-0.8-0.8-0.8H17.5z"></path>
	<path class="st1" d="M40.7,25.8H15.9c-0.5,0-0.8-0.4-0.8-0.8c0-0.5,0.4-0.8,0.8-0.8h24.8c0.5,0,0.8,0.4,0.8,0.8   C41.5,25.4,41.1,25.8,40.7,25.8z"></path>
	<path class="st1" d="M22.5,21.7c-0.5,0-0.8-0.4-0.8-0.8v-5.8c0-0.5,0.4-0.8,0.8-0.8c0.5,0,0.8,0.4,0.8,0.8v5.8   C23.3,21.3,23,21.7,22.5,21.7z"></path>
	<path class="st1" d="M34.1,21.7c-0.5,0-0.8-0.4-0.8-0.8v-5.8c0-0.5,0.4-0.8,0.8-0.8s0.8,0.4,0.8,0.8v5.8   C34.9,21.3,34.5,21.7,34.1,21.7z"></path>
</g>
</svg>
