<?xml version="1.0" encoding="UTF-8" standalone="no"?>
<svg xmlns:dc="http://purl.org/dc/elements/1.1/" xmlns:cc="http://creativecommons.org/ns#" xmlns:rdf="http://www.w3.org/1999/02/22-rdf-syntax-ns#" xmlns:svg="http://www.w3.org/2000/svg" xmlns="http://www.w3.org/2000/svg" xmlns:sodipodi="http://sodipodi.sourceforge.net/DTD/sodipodi-0.dtd" xmlns:inkscape="http://www.inkscape.org/namespaces/inkscape" sodipodi:docname="todo_neu.svg" inkscape:version="1.0 (4035a4fb49, 2020-05-01)" id="svg8" version="1.1" viewBox="0 0 529.16665 299.77293" height="1133" width="2000">
  <defs id="defs2">
    <rect id="SVGID_1_" x="-375" y="-690.83" width="148.65" height="148.65"></rect>
    <rect id="SVGID_3_" x="198.65" y="538.5" width="294" height="294"></rect>
    <rect id="SVGID_5_" x="198.65" y="538.5" width="294" height="294"></rect>
    <rect id="SVGID_7_" x="198.65" y="538.5" width="294" height="294"></rect>
    <rect id="SVGID_9_" x="-374.68" y="9.5" width="147" height="147"></rect>
    <rect id="SVGID_11_" x="-374.68" y="9.5" width="147" height="147"></rect>
    <rect id="SVGID_13_" x="-374.68" y="9.5" width="147" height="147"></rect>
    <rect id="SVGID_15_" x="190" y="-494.16" width="297.31" height="297.31"></rect>
    <rect id="SVGID_1_-6" x="-375" y="-690.83" width="148.65" height="148.65"></rect>
    <rect id="SVGID_3_-8" x="198.65" y="538.5" width="294" height="294"></rect>
    <rect id="SVGID_5_-0" x="198.65" y="538.5" width="294" height="294"></rect>
    <rect id="SVGID_7_-2" x="198.65" y="538.5" width="294" height="294"></rect>
    <rect id="SVGID_9_-5" x="-374.68" y="9.5" width="147" height="147"></rect>
    <rect id="SVGID_11_-0" x="-374.68" y="9.5" width="147" height="147"></rect>
    <rect id="SVGID_13_-1" x="-374.68" y="9.5" width="147" height="147"></rect>
    <rect id="SVGID_15_-6" x="190" y="-494.16" width="297.31" height="297.31"></rect>
  </defs>
  <metadata id="metadata5"></metadata>
  <g id="layer1" inkscape:groupmode="layer" inkscape:label="Ebene 1">
    <g transform="matrix(0.26458333,0,0,0.26458333,-309.08818,27.2158)" id="g1169">
</g>
    <path style="stroke-width:0.264583" id="path741" d="M -349.20695,705.22646" class="st0"></path>
    <g transform="matrix(0.26458333,0,0,0.26458333,-309.08818,27.2158)" id="g1141">
</g>
    <g transform="matrix(0.26458333,0,0,0.26458333,-309.08818,27.2158)" id="g1143">
</g>
    <g transform="matrix(0.26458333,0,0,0.26458333,-309.08818,27.2158)" id="g1145">
</g>
    <g transform="matrix(0.26458333,0,0,0.26458333,-309.08818,27.2158)" id="g1147">
</g>
    <g transform="matrix(0.26458333,0,0,0.26458333,-309.08818,27.2158)" id="g1149">
</g>
    <g transform="matrix(0.26458333,0,0,0.26458333,-309.08818,27.2158)" id="g1151">
</g>
    <g transform="matrix(0.26458333,0,0,0.26458333,-309.08818,27.2158)" id="g1153">
</g>
    <g transform="matrix(0.26458333,0,0,0.26458333,-309.08818,27.2158)" id="g1155">
</g>
    <g transform="matrix(0.26458333,0,0,0.26458333,-309.08818,27.2158)" id="g1157">
</g>
    <g transform="matrix(0.26458333,0,0,0.26458333,-309.08818,27.2158)" id="g1159">
</g>
    <g transform="matrix(0.26458333,0,0,0.26458333,-309.08818,27.2158)" id="g1161">
</g>
    <g transform="matrix(0.26458333,0,0,0.26458333,-309.08818,27.2158)" id="g1163">
</g>
    <g transform="matrix(0.26458333,0,0,0.26458333,-309.08818,27.2158)" id="g1165">
</g>
    <g transform="matrix(0.26458333,0,0,0.26458333,-309.08818,27.2158)" id="g1167">
</g>
    <g transform="translate(-55.940608,10.054167)" id="g2857">
      <rect id="rect743" height="233.33739" width="172.19965" class="st1" y="26.515724" x="54.788689" style="fill:#1a195d;fill-opacity:1"></rect>
      <line id="line745" y2="80.573677" x2="169.04468" y1="80.573677" x1="77.157379" class="st2" style="stroke:#24195d;stroke-opacity:1"></line>
      <g style="fill:#ffffff" id="g761" transform="matrix(1.0325577,0,0,1.0325577,-232.0317,1016.484)">
        <path id="path747" d="m 309.39,-931.83 v 20.62 h -3.22 v -20.62 h -6.06 v -2.71 h 15.68 l -0.34,2.71 z" class="st3" style="fill:#ffffff;stroke:#24195d;stroke-opacity:1"></path>
        <path id="path749" d="m 329.42,-915.88 c -0.35,1.08 -0.85,2 -1.5,2.76 -0.65,0.76 -1.43,1.34 -2.35,1.76 -0.92,0.42 -1.93,0.63 -3.04,0.63 -1.13,0 -2.16,-0.21 -3.08,-0.63 -0.92,-0.42 -1.7,-1.02 -2.33,-1.79 -0.63,-0.77 -1.12,-1.72 -1.46,-2.83 -0.34,-1.11 -0.51,-2.35 -0.51,-3.73 0,-1.38 0.17,-2.61 0.51,-3.71 0.34,-1.09 0.83,-2.03 1.46,-2.81 0.63,-0.78 1.4,-1.38 2.3,-1.79 0.9,-0.42 1.91,-0.63 3.04,-0.63 1.25,0 2.34,0.24 3.28,0.71 0.94,0.47 1.72,1.12 2.35,1.93 0.62,0.81 1.09,1.77 1.4,2.88 0.31,1.11 0.46,2.3 0.46,3.59 0,1.36 -0.18,2.58 -0.53,3.66 z m -3.3,-6.82 c -0.18,-0.88 -0.45,-1.59 -0.8,-2.11 -0.35,-0.52 -0.77,-0.9 -1.26,-1.12 -0.49,-0.23 -1.04,-0.34 -1.66,-0.34 -1.37,0 -2.35,0.49 -2.96,1.48 -0.6,0.99 -0.91,2.57 -0.91,4.75 0,1.29 0.09,2.38 0.26,3.27 0.17,0.89 0.42,1.6 0.75,2.14 0.33,0.54 0.75,0.94 1.25,1.17 0.5,0.24 1.08,0.36 1.74,0.36 1.18,0 2.12,-0.49 2.82,-1.48 0.7,-0.99 1.04,-2.59 1.04,-4.82 0,-1.31 -0.09,-2.41 -0.27,-3.3 z" class="st3" style="fill:#ffffff;stroke:#24195d;stroke-opacity:1"></path>
        <path id="path751" d="m 357.55,-917.89 c -0.45,1.39 -1.07,2.57 -1.85,3.54 -0.81,1.02 -1.81,1.79 -3,2.34 -1.19,0.54 -2.8,0.81 -4.82,0.81 h -5.8 v -23.33 h 5.4 c 2,0 3.69,0.28 5.06,0.83 1.37,0.55 2.58,1.56 3.64,3.03 1.37,1.92 2.06,4.53 2.06,7.82 -0.02,1.92 -0.24,3.57 -0.69,4.96 z m -3.22,-8.88 c -0.22,-1.22 -0.68,-2.27 -1.38,-3.16 -0.65,-0.81 -1.34,-1.36 -2.07,-1.64 -0.73,-0.28 -1.66,-0.42 -2.81,-0.42 h -2.62 v 18.08 H 348 c 1.34,0 2.45,-0.2 3.33,-0.59 0.87,-0.4 1.57,-1.07 2.08,-2.02 0.43,-0.79 0.74,-1.7 0.94,-2.71 0.2,-1.02 0.3,-2.1 0.3,-3.26 0.02,-1.64 -0.1,-3.06 -0.32,-4.28 z" class="st3" style="fill:#ffffff;stroke:#24195d;stroke-opacity:1"></path>
        <path id="path753" d="m 376.12,-915.88 c -0.35,1.08 -0.85,2 -1.5,2.76 -0.65,0.76 -1.43,1.34 -2.35,1.76 -0.92,0.42 -1.93,0.63 -3.04,0.63 -1.13,0 -2.16,-0.21 -3.08,-0.63 -0.92,-0.42 -1.7,-1.02 -2.33,-1.79 -0.63,-0.77 -1.12,-1.72 -1.46,-2.83 -0.34,-1.11 -0.51,-2.35 -0.51,-3.73 0,-1.38 0.17,-2.61 0.51,-3.71 0.34,-1.09 0.83,-2.03 1.46,-2.81 0.63,-0.78 1.4,-1.38 2.3,-1.79 0.9,-0.42 1.91,-0.63 3.04,-0.63 1.25,0 2.34,0.24 3.28,0.71 0.94,0.47 1.72,1.12 2.35,1.93 0.62,0.81 1.09,1.77 1.4,2.88 0.31,1.11 0.46,2.3 0.46,3.59 -0.01,1.36 -0.18,2.58 -0.53,3.66 z m -3.31,-6.82 c -0.18,-0.88 -0.45,-1.59 -0.8,-2.11 -0.35,-0.52 -0.77,-0.9 -1.26,-1.12 -0.49,-0.23 -1.04,-0.34 -1.66,-0.34 -1.37,0 -2.35,0.49 -2.96,1.48 -0.6,0.99 -0.91,2.57 -0.91,4.75 0,1.29 0.09,2.38 0.26,3.27 0.17,0.89 0.42,1.6 0.75,2.14 0.33,0.54 0.75,0.94 1.25,1.17 0.5,0.24 1.08,0.36 1.74,0.36 1.18,0 2.12,-0.49 2.82,-1.48 0.7,-0.99 1.04,-2.59 1.04,-4.82 0.01,-1.31 -0.08,-2.41 -0.27,-3.3 z" class="st3" style="fill:#ffffff;stroke:#24195d;stroke-opacity:1"></path>
        <path id="path755" d="m 385.04,-922.14 c -0.47,0.47 -1.04,0.71 -1.69,0.71 -0.65,0 -1.21,-0.23 -1.68,-0.69 -0.46,-0.46 -0.69,-1.03 -0.69,-1.71 0,-0.68 0.23,-1.26 0.69,-1.74 0.46,-0.48 1.03,-0.73 1.71,-0.73 0.65,0 1.21,0.24 1.68,0.71 0.47,0.47 0.69,1.04 0.69,1.69 0,0.7 -0.24,1.28 -0.71,1.76 z m 0,10.65 c -0.47,0.46 -1.05,0.69 -1.73,0.69 -0.66,0 -1.21,-0.23 -1.66,-0.69 -0.45,-0.46 -0.68,-1.03 -0.68,-1.71 0,-0.7 0.23,-1.29 0.69,-1.78 0.46,-0.48 1.03,-0.73 1.71,-0.73 0.65,0 1.21,0.24 1.68,0.73 0.46,0.49 0.69,1.08 0.69,1.78 0.01,0.68 -0.23,1.25 -0.7,1.71 z" class="st3" style="fill:#ffffff;stroke:#24195d;stroke-opacity:1"></path>
        <path id="path757" d="m 299.44,-906.06 v -0.68 h 14.02 v 0.68 z" class="st3" style="fill:#ffffff;stroke:#24195d;stroke-opacity:1"></path>
        <path id="path759" d="m 313.46,-906.06 v -0.68 h 75 v 0.68 z" class="st3" style="fill:#ffffff;stroke:#24195d;stroke-opacity:1"></path>
      </g>
      <g style="fill:#ffffff" id="g765" transform="matrix(1.0325577,0,0,1.0325577,-232.0317,1016.484)">
        <path id="path763" d="m 398.75,-867.87 1.79,3.1 c -11.66,8.24 -22.46,18.66 -32.41,31.28 -9.95,12.62 -17.13,24.97 -21.55,37.07 l -2.63,1.73 c -2.27,1.47 -4.22,2.95 -5.85,4.42 -0.28,-1.43 -1.05,-3.74 -2.33,-6.92 l -1.37,-3.4 c -2.98,-7.36 -5.5,-12.5 -7.55,-15.43 -2.05,-2.92 -4.27,-4.51 -6.66,-4.75 3.22,-2.94 6.03,-4.42 8.42,-4.42 3.3,0 6.92,4.44 10.86,13.31 l 2.15,4.78 c 7.04,-12.61 15.55,-24.23 25.52,-34.86 9.97,-10.62 20.51,-19.26 31.61,-25.91 z" class="st3" style="fill:#ffffff;stroke:#24195d;stroke-opacity:1"></path>
      </g>
    </g>
  </g>
  <style type="text/css" id="style10">
	.st0{fill:#A31747;}
	.st1{fill:#E7E7E8;}
	.st2{fill:#A3184A;}
	.st3{fill:none;stroke:#A3184A;stroke-width:0.338;stroke-miterlimit:10;}
	.st4{clip-path:url(#SVGID_2_);fill:#A3184A;}
	.st5{clip-path:url(#SVGID_4_);fill:#A3184A;}
	.st6{clip-path:url(#SVGID_6_);fill:#A3184A;}
	.st7{clip-path:url(#SVGID_8_);fill:#A3184A;}
	.st8{clip-path:url(#SVGID_10_);fill:#A3184A;}
	.st9{clip-path:url(#SVGID_12_);fill:#A3184A;}
	.st10{clip-path:url(#SVGID_14_);fill:#A3184A;}
	.st11{fill:#FFFFFF;}
	.st12{fill:#A21749;}
	.st13{clip-path:url(#SVGID_16_);fill:#A3184A;}
	.st14{fill:#A31749;}
</style>
  <style type="text/css" id="style739">
	.st0{fill:#A31747;}
	.st1{fill:#A3184A;}
	.st2{fill:none;stroke:#A3184A;stroke-width:0.338;stroke-miterlimit:10;}
	.st3{fill:#FFFFFF;}
	.st4{fill:#E7E7E8;}
	.st5{clip-path:url(#SVGID_2_);fill:#A3184A;}
	.st6{clip-path:url(#SVGID_4_);fill:#A3184A;}
	.st7{clip-path:url(#SVGID_6_);fill:#A3184A;}
	.st8{clip-path:url(#SVGID_8_);fill:#A3184A;}
	.st9{clip-path:url(#SVGID_10_);fill:#A3184A;}
	.st10{clip-path:url(#SVGID_12_);fill:#A3184A;}
	.st11{clip-path:url(#SVGID_14_);fill:#A3184A;}
	.st12{fill:#A21749;}
	.st13{clip-path:url(#SVGID_16_);fill:#A3184A;}
	.st14{fill:#A31749;}
</style>
  <style type="text/css" id="style10-7">
	.st0{fill:#003D7C;}
</style>
  <style type="text/css" id="style56">
	.st0{fill:#003D7C;}
</style>
  <style type="text/css" id="style72">
	.st0{fill:#A31747;}
	.st1{fill:#003D7C;}
</style>
  <style type="text/css" id="style123">
	.st0{fill:#A31747;}
	.st1{fill:#003D7C;}
</style>
  <style type="text/css" id="style153">
	.st0{fill:#003D7C;}
</style>
  <style type="text/css" id="style166">
	.st0{fill:#A31747;}
	.st1{fill:#003D7C;}
	.st2{fill:#FFFFFF;}
</style>
  <style type="text/css" id="style205">
	.st0{fill:#003D7C;}
</style>
  <style type="text/css" id="style221">
	.st0{fill:#A31747;}
	.st1{fill:#003D7C;}
	.st2{fill:#E7E7E8;}
</style>
  <style type="text/css" id="style272">
	.st0{fill:#003D7C;}
</style>
  <style type="text/css" id="style288">
	.st0{fill:#003D7C;}
</style>
  <style type="text/css" id="style307">
	.st0{fill:#003D7C;}
	.st1{fill:none;stroke:#FFFFFF;stroke-width:4.6275;stroke-miterlimit:10;}
	.st2{fill:#FFFFFF;}
</style>
  <style type="text/css" id="style353">
	.st0{fill:#003D7C;}
</style>
  <style type="text/css" id="style377">
	.st0{fill:#003D7C;}
	.st1{fill:#003D7C;stroke:#FFFFFF;stroke-width:5.1045;stroke-linecap:round;stroke-linejoin:round;stroke-miterlimit:10;}
</style>
  <style type="text/css" id="style411">
	.st0{fill:#003D7C;}
</style>
</svg>
