<?xml version="1.0" encoding="UTF-8" standalone="no"?>
<svg xmlns:dc="http://purl.org/dc/elements/1.1/" xmlns:cc="http://creativecommons.org/ns#" xmlns:rdf="http://www.w3.org/1999/02/22-rdf-syntax-ns#" xmlns:svg="http://www.w3.org/2000/svg" xmlns="http://www.w3.org/2000/svg" xmlns:sodipodi="http://sodipodi.sourceforge.net/DTD/sodipodi-0.dtd" xmlns:inkscape="http://www.inkscape.org/namespaces/inkscape" sodipodi:docname="download-icon-jds.svg" inkscape:version="1.0 (4035a4fb49, 2020-05-01)" id="svg8" version="1.1" viewBox="0 0 52.916665 52.916668" height="200" width="200">
  <defs id="defs2"></defs>
  <metadata id="metadata5"></metadata>
  <g id="layer1" inkscape:groupmode="layer" inkscape:label="Ebene 1">
    <g transform="matrix(2.2048611,0,0,2.2048611,1.3333332e-7,3.0048396e-6)" id="g915">
      <path d="m 11.25,17.25 a 6,6 0 1 0 12,0 6,6 0 1 0 -12,0 z" fill="none" stroke="#ffffff" stroke-linecap="round" stroke-linejoin="round" stroke-width="1.5" id="path905"></path>
      <path d="m 17.25,14.25 v 6" fill="none" stroke="#ffffff" stroke-linecap="round" stroke-linejoin="round" stroke-width="1.5" id="path907"></path>
      <path d="M 17.25,20.25 19.5,18" fill="none" stroke="#ffffff" stroke-linecap="round" stroke-linejoin="round" stroke-width="1.5" id="path909"></path>
      <path d="M 17.25,20.25 15,18" fill="none" stroke="#ffffff" stroke-linecap="round" stroke-linejoin="round" stroke-width="1.5" id="path911"></path>
      <path d="m 8.25,20.25 h -6 a 1.5,1.5 0 0 1 -1.5,-1.5 V 2.25 a 1.5,1.5 0 0 1 1.5,-1.5 h 10.629 a 1.5,1.5 0 0 1 1.06,0.439 l 2.872,2.872 a 1.5,1.5 0 0 1 0.439,1.06 V 8.25" fill="none" stroke="#ffffff" stroke-linecap="round" stroke-linejoin="round" stroke-width="1.5" id="path913"></path>
    </g>
  </g>
</svg>
