<?xml version="1.0" encoding="UTF-8" standalone="no"?>
<svg xmlns:dc="http://purl.org/dc/elements/1.1/" xmlns:cc="http://creativecommons.org/ns#" xmlns:rdf="http://www.w3.org/1999/02/22-rdf-syntax-ns#" xmlns:svg="http://www.w3.org/2000/svg" xmlns="http://www.w3.org/2000/svg" xmlns:sodipodi="http://sodipodi.sourceforge.net/DTD/sodipodi-0.dtd" xmlns:inkscape="http://www.inkscape.org/namespaces/inkscape" sodipodi:docname="einkaufswagen_neu.svg" inkscape:version="1.0 (4035a4fb49, 2020-05-01)" id="svg8" version="1.1" viewBox="0 0 529.16665 299.77293" height="1133" width="2000">
  <defs id="defs2">
    <rect id="SVGID_1_" x="-375" y="-690.83" width="148.65" height="148.65"></rect>
    <rect id="SVGID_3_" x="198.65" y="538.5" width="294" height="294"></rect>
    <rect id="SVGID_5_" x="198.65" y="538.5" width="294" height="294"></rect>
    <rect id="SVGID_7_" x="198.65" y="538.5" width="294" height="294"></rect>
    <rect id="SVGID_9_" x="-374.68" y="9.5" width="147" height="147"></rect>
    <rect id="SVGID_11_" x="-374.68" y="9.5" width="147" height="147"></rect>
    <rect id="SVGID_13_" x="-374.68" y="9.5" width="147" height="147"></rect>
    <rect id="SVGID_15_" x="190" y="-494.16" width="297.31" height="297.31"></rect>
    <rect id="SVGID_1_-6" x="-375" y="-690.83" width="148.65" height="148.65"></rect>
    <rect id="SVGID_3_-8" x="198.65" y="538.5" width="294" height="294"></rect>
    <rect id="SVGID_5_-0" x="198.65" y="538.5" width="294" height="294"></rect>
    <rect id="SVGID_7_-2" x="198.65" y="538.5" width="294" height="294"></rect>
    <rect id="SVGID_9_-5" x="-374.68" y="9.5" width="147" height="147"></rect>
    <rect id="SVGID_11_-0" x="-374.68" y="9.5" width="147" height="147"></rect>
    <rect id="SVGID_13_-1" x="-374.68" y="9.5" width="147" height="147"></rect>
    <rect id="SVGID_15_-6" x="190" y="-494.16" width="297.31" height="297.31"></rect>
  </defs>
  <metadata id="metadata5"></metadata>
  <g id="layer1" inkscape:groupmode="layer" inkscape:label="Ebene 1">
    <g transform="matrix(0.26458333,0,0,0.26458333,-309.08818,27.2158)" id="g1169">
</g>
    <path style="stroke-width:0.264583" id="path741" d="M -349.20695,705.22646" class="st0"></path>
    <g transform="matrix(0.26458333,0,0,0.26458333,-309.08818,27.2158)" id="g1141">
</g>
    <g transform="matrix(0.26458333,0,0,0.26458333,-309.08818,27.2158)" id="g1143">
</g>
    <g transform="matrix(0.26458333,0,0,0.26458333,-309.08818,27.2158)" id="g1145">
</g>
    <g transform="matrix(0.26458333,0,0,0.26458333,-309.08818,27.2158)" id="g1147">
</g>
    <g transform="matrix(0.26458333,0,0,0.26458333,-309.08818,27.2158)" id="g1149">
</g>
    <g transform="matrix(0.26458333,0,0,0.26458333,-309.08818,27.2158)" id="g1151">
</g>
    <g transform="matrix(0.26458333,0,0,0.26458333,-309.08818,27.2158)" id="g1153">
</g>
    <g transform="matrix(0.26458333,0,0,0.26458333,-309.08818,27.2158)" id="g1155">
</g>
    <g transform="matrix(0.26458333,0,0,0.26458333,-309.08818,27.2158)" id="g1157">
</g>
    <g transform="matrix(0.26458333,0,0,0.26458333,-309.08818,27.2158)" id="g1159">
</g>
    <g transform="matrix(0.26458333,0,0,0.26458333,-309.08818,27.2158)" id="g1161">
</g>
    <g transform="matrix(0.26458333,0,0,0.26458333,-309.08818,27.2158)" id="g1163">
</g>
    <g transform="matrix(0.26458333,0,0,0.26458333,-309.08818,27.2158)" id="g1165">
</g>
    <g transform="matrix(0.26458333,0,0,0.26458333,-309.08818,27.2158)" id="g1167">
</g>
    <g id="g1941" transform="translate(-10.068481,-6.2496428)">
      <path style="fill:#1a195d;fill-opacity:1;stroke-width:1.0243" id="path1041" d="m 176.02457,223.84555 c -16.21468,0 -31.70211,0 -47.41488,0 11.72824,7.32374 13.05983,17.29019 10.20203,25.85334 -2.98071,8.9319 -11.30827,14.7909 -21.8176,13.59247 -8.69631,-1.00381 -15.86641,-6.01264 -17.863801,-16.29662 -1.6184,-8.36854 0.43021,-16.90096 10.888311,-23.30284 -2.77585,0 -5.54146,0 -8.31732,0 -5.172711,0 -9.106031,-2.76561 -10.693691,-7.66177 -5.48001,-16.89072 -10.91905,-33.80192 -16.38881,-50.69263 -4.78349,-14.78066 -9.58746,-29.56132 -14.3607,-44.35222 -2.30468,-7.14962 -4.61959,-14.28899 -6.76038,-21.489831 -0.70677,-2.38662 -1.86423,-3.31873 -4.39425,-3.29825 -11.14439,0.11268 -22.28878,-0.041 -33.42293,0.11268 -2.77586,0.041 -5.13175,-1.20868 -5.58244,-4.46595 -0.34826,-2.570998 2.42759,-5.244423 5.49025,-5.316124 4.00502,-0.09219 8.01003,-0.02049 12.01505,-0.02049 7.22132,0 14.45288,0.133159 21.6742,-0.04097 6.91403,-0.163888 12.02529,3.677239 13.54125,10.181544 0.85017,3.646511 2.23298,7.180351 3.57481,10.683461 0.27656,0.71701 1.36232,1.22916 2.18176,1.57742 0.5941,0.24583 1.37256,0.0512 2.06909,0.0512 49.965381,0 99.930771,-0.0102 149.896151,0.0102 8.67583,0 10.34544,5.39807 9.01384,11.55411 -3.17533,14.76018 -6.79111,29.42816 -10.18154,44.13712 -1.82326,7.89735 -3.54408,15.82544 -5.28539,23.74328 -1.18819,5.41855 -5.97168,8.72705 -10.88832,8.70656 -34.81598,-0.12292 -69.6422,-0.0615 -104.458181,-0.0615 -1.01405,0 -2.03835,0 -3.54408,0 1.79253,5.60293 3.31874,10.8371 5.223941,15.92788 0.30729,0.81944 2.30467,1.41353 3.53383,1.43402 8.44024,0.12291 16.89072,0.0615 25.33096,0.0615 27.07226,0 54.14453,0 81.21679,0 3.12412,0 4.59911,1.43403 4.62984,4.46596 0.0307,3.24703 -1.42378,4.73226 -4.69129,4.74251 -5.26491,0.0205 -10.52982,0 -15.90739,0.22534 6.33017,3.54408 10.00741,8.9319 11.11366,15.85618 0.85017,5.35709 -0.32778,10.57078 -3.56457,14.96503 -8.03051,10.88831 -22.16586,11.01123 -30.64707,3.68748 -5.59268,-4.8347 -7.48764,-11.14439 -6.79111,-18.3862 0.70676,-7.2418 4.9781,-12.09699 11.37998,-16.18394 z M 70.050419,118.84449 c 1.63889,5.1215 3.33922,10.12009 4.81422,15.18014 0.57361,1.95641 1.40329,2.69391 3.55432,2.67342 11.99456,-0.12292 23.978881,-0.0512 35.973441,-0.0615 0.83992,0 1.67985,-0.0819 2.59148,-0.13316 0,-5.97167 0,-11.74873 0,-17.66918 -15.66156,0.0102 -31.179711,0.0102 -46.933461,0.0102 z m 56.992091,-0.0512 c 0,6.05362 0,11.83068 0,17.61798 14.01243,0 27.85073,0 41.59685,0 0,-6.01265 0,-11.78971 0,-17.61798 -13.94073,0 -27.65612,0 -41.59685,0 z m 51.65548,17.84332 c 12.10723,0 23.92766,0.0205 35.73785,-0.0512 0.57361,0 1.54669,-0.64531 1.66961,-1.15746 1.33159,-5.49025 2.54026,-11.01124 3.76942,-16.51173 -13.96121,0 -27.56393,0 -41.17688,0 0,5.94094 0,11.65654 0,17.7204 z m -10.0279,25.50508 c 0,-5.36734 0,-10.44786 0,-15.61034 -13.95098,0 -27.73806,0 -41.57636,0 0,5.29564 0,10.43762 0,15.61034 13.94073,0 27.66635,0 41.57636,0 z m -41.67879,24.99293 c 14.07389,0 27.86097,0 41.69927,0 0,-5.09076 0,-9.99717 0,-14.9343 -14.00219,0 -27.85073,0 -41.69927,0 0,5.07029 0,9.91523 0,14.9343 z M 78.982329,146.46989 c 1.43402,4.58886 2.90901,9.02409 4.1689,13.53101 0.53264,1.88471 1.54669,2.29443 3.34946,2.28419 9.3826,-0.0819 18.765191,-0.0307 28.137541,-0.041 0.75798,0 1.50572,-0.0922 2.2637,-0.1434 0,-5.31612 0,-10.45811 0,-15.62059 -12.72181,-0.0102 -25.218281,-0.0102 -37.919601,-0.0102 z m 99.695171,15.66155 c 10.50933,0 20.76258,0 31.35384,0 1.17795,-5.15223 2.36614,-10.34543 3.55433,-15.55912 -11.75897,0 -23.2926,0 -34.90817,0 0,5.22393 0,10.243 0,15.55912 z m -61.64241,10.00742 c -10.07911,0 -19.861191,0 -29.848121,0 1.42378,4.48644 2.88853,8.75777 4.09721,13.09056 0.47117,1.66961 1.25989,2.13055 2.88852,2.11006 6.955011,-0.0717 13.920251,-0.0307 20.875251,-0.041 0.65555,0 1.31111,-0.13316 1.9769,-0.2151 0.0102,-5.04981 0.0102,-9.90499 0.0102,-14.94455 z m 61.69363,15.16989 c 6.60674,0 12.94716,0.041 19.27734,-0.0102 7.49788,-0.0512 5.75657,1.03454 7.71298,-5.9307 0.83993,-2.97047 1.29062,-6.05362 1.93593,-9.15725 -9.97669,0 -19.47196,0 -29.05941,0 0,4.66057 0,9.08555 0,13.52077 0,0.40972 0.0717,0.82968 0.13316,1.57742 z m 17.27995,55.20981 c 0.0922,-6.21751 -5.02932,-10.52981 -11.01123,-10.92929 -5.25466,-0.34826 -11.19561,5.54146 -10.99075,11.14439 0.19462,5.31612 3.87186,10.79613 10.98051,10.88831 6.1458,0.0819 11.02147,-4.91664 11.02147,-11.10341 z m -87.41381,0.10243 c -0.65556,6.27896 5.55171,10.88831 10.70394,11.08293 5.60292,0.20486 11.17512,-6.04338 11.00099,-10.81662 -0.24584,-6.46333 -4.763,-11.03171 -11.05221,-11.20584 -4.78348,-0.14341 -11.04196,4.11768 -10.65272,10.93953 z" class="st12"></path>
      <path style="fill:#1a195d;fill-opacity:1;stroke-width:1.0243" id="path1043" d="m 213.47299,92.222919 c 0.21511,3.01144 0.44045,6.02289 0.62483,9.034331 0.1434,2.32516 -1.04479,3.8104 -3.22655,4.34303 -2.7144,0.65556 -4.99859,-0.36874 -5.77705,-2.65293 -0.60434,-1.7618 -1.03455,-3.636271 -1.20868,-5.490261 -2.03836,-20.977673 9.61818,-39.937477 29.61253,-46.349599 15.16989,-4.865428 29.16184,-2.017872 41.45345,8.225134 9.06506,7.549096 13.91,17.300437 14.94454,29.10038 1.05503,11.994566 -2.31492,22.452666 -9.96644,31.661136 -7.12913,8.58364 -16.22492,13.36712 -27.2464,14.88309 -5.82827,0.79895 -11.48241,0.56336 -17.08533,-1.10625 -3.19582,-0.9526 -4.5479,-3.0729 -3.78991,-5.6439 0.92187,-3.12411 3.19581,-4.40449 6.44285,-3.61578 12.23015,3.01145 23.057,0.11268 32.04012,-8.48121 5.60292,-5.35709 8.90117,-12.13796 9.8845,-20.096771 2.21249,-17.935508 -10.5503,-33.197587 -26.45768,-36.690452 -13.96122,-3.062659 -29.06966,3.830884 -35.99393,16.665371 -2.75537,5.070288 -4.49668,10.355679 -4.25085,16.214681 z" class="st12"></path>
      <path style="fill:#1a195d;fill-opacity:1;stroke-width:1.0243" id="path1045" d="m 241.96904,87.541863 c 0,-6.698926 -0.1434,-13.039347 0.10243,-19.369525 0.0615,-1.690096 0.8809,-3.9538 2.14079,-4.875671 3.33922,-2.448078 7.47739,0.08194 7.49788,4.312306 0.0307,6.514552 0.0102,13.029104 0.0102,19.943133 2.82707,0 5.49025,0 8.14319,0 4.08696,0 8.18416,-0.01024 12.27112,0 2.37638,0.01024 4.33279,1.823255 4.6196,4.240603 0.23559,1.99739 -1.53645,4.53765 -3.64651,4.94737 -1.58767,0.30729 -3.22655,0.50191 -4.84495,0.5224 -5.38782,0.0615 -10.77564,0.0205 -16.55269,0.0205 0,1.51596 0,2.868041 0,4.220121 0,5.0498 0.0102,10.0996 0,15.1494 -0.0102,3.17533 -1.87447,5.16248 -4.81422,5.18296 -2.90901,0.0205 -4.85518,-1.89495 -4.89615,-5.10101 -0.082,-5.39807 -0.0205,-10.79613 -0.0205,-16.1942 0,-0.952601 0,-1.894951 0,-3.257271 -4.88591,0 -9.63867,0.0512 -14.38118,-0.0205 -2.22273,-0.0307 -4.51717,-0.041 -6.65795,-0.55313 -3.04218,-0.72725 -4.15866,-2.79634 -3.46214,-5.89997 0.56337,-2.489048 2.33541,-3.339217 4.82446,-3.298245 6.41212,0.09219 12.84473,0.03073 19.66657,0.03073 z" class="st12"></path>
    </g>
  </g>
  <style type="text/css" id="style10">
	.st0{fill:#A31747;}
	.st1{fill:#E7E7E8;}
	.st2{fill:#A3184A;}
	.st3{fill:none;stroke:#A3184A;stroke-width:0.338;stroke-miterlimit:10;}
	.st4{clip-path:url(#SVGID_2_);fill:#A3184A;}
	.st5{clip-path:url(#SVGID_4_);fill:#A3184A;}
	.st6{clip-path:url(#SVGID_6_);fill:#A3184A;}
	.st7{clip-path:url(#SVGID_8_);fill:#A3184A;}
	.st8{clip-path:url(#SVGID_10_);fill:#A3184A;}
	.st9{clip-path:url(#SVGID_12_);fill:#A3184A;}
	.st10{clip-path:url(#SVGID_14_);fill:#A3184A;}
	.st11{fill:#FFFFFF;}
	.st12{fill:#A21749;}
	.st13{clip-path:url(#SVGID_16_);fill:#A3184A;}
	.st14{fill:#A31749;}
</style>
  <style type="text/css" id="style739">
	.st0{fill:#A31747;}
	.st1{fill:#A3184A;}
	.st2{fill:none;stroke:#A3184A;stroke-width:0.338;stroke-miterlimit:10;}
	.st3{fill:#FFFFFF;}
	.st4{fill:#E7E7E8;}
	.st5{clip-path:url(#SVGID_2_);fill:#A3184A;}
	.st6{clip-path:url(#SVGID_4_);fill:#A3184A;}
	.st7{clip-path:url(#SVGID_6_);fill:#A3184A;}
	.st8{clip-path:url(#SVGID_8_);fill:#A3184A;}
	.st9{clip-path:url(#SVGID_10_);fill:#A3184A;}
	.st10{clip-path:url(#SVGID_12_);fill:#A3184A;}
	.st11{clip-path:url(#SVGID_14_);fill:#A3184A;}
	.st12{fill:#A21749;}
	.st13{clip-path:url(#SVGID_16_);fill:#A3184A;}
	.st14{fill:#A31749;}
</style>
  <style type="text/css" id="style10-7">
	.st0{fill:#003D7C;}
</style>
  <style type="text/css" id="style56">
	.st0{fill:#003D7C;}
</style>
  <style type="text/css" id="style72">
	.st0{fill:#A31747;}
	.st1{fill:#003D7C;}
</style>
  <style type="text/css" id="style123">
	.st0{fill:#A31747;}
	.st1{fill:#003D7C;}
</style>
  <style type="text/css" id="style153">
	.st0{fill:#003D7C;}
</style>
  <style type="text/css" id="style166">
	.st0{fill:#A31747;}
	.st1{fill:#003D7C;}
	.st2{fill:#FFFFFF;}
</style>
  <style type="text/css" id="style205">
	.st0{fill:#003D7C;}
</style>
  <style type="text/css" id="style221">
	.st0{fill:#A31747;}
	.st1{fill:#003D7C;}
	.st2{fill:#E7E7E8;}
</style>
  <style type="text/css" id="style272">
	.st0{fill:#003D7C;}
</style>
  <style type="text/css" id="style288">
	.st0{fill:#003D7C;}
</style>
  <style type="text/css" id="style307">
	.st0{fill:#003D7C;}
	.st1{fill:none;stroke:#FFFFFF;stroke-width:4.6275;stroke-miterlimit:10;}
	.st2{fill:#FFFFFF;}
</style>
  <style type="text/css" id="style353">
	.st0{fill:#003D7C;}
</style>
  <style type="text/css" id="style377">
	.st0{fill:#003D7C;}
	.st1{fill:#003D7C;stroke:#FFFFFF;stroke-width:5.1045;stroke-linecap:round;stroke-linejoin:round;stroke-miterlimit:10;}
</style>
  <style type="text/css" id="style411">
	.st0{fill:#003D7C;}
</style>
</svg>
