<?xml version="1.0" encoding="UTF-8" standalone="no"?>
<svg xmlns:dc="http://purl.org/dc/elements/1.1/" xmlns:cc="http://creativecommons.org/ns#" xmlns:rdf="http://www.w3.org/1999/02/22-rdf-syntax-ns#" xmlns:svg="http://www.w3.org/2000/svg" xmlns="http://www.w3.org/2000/svg" xmlns:sodipodi="http://sodipodi.sourceforge.net/DTD/sodipodi-0.dtd" xmlns:inkscape="http://www.inkscape.org/namespaces/inkscape" inkscape:version="1.0 (4035a4fb49, 2020-05-01)" sodipodi:docname="flamme_neu.svg" id="svg8" version="1.1" viewBox="0 0 529.16665 299.77293" height="1133" width="2000">
  <defs id="defs2"></defs>
  <metadata id="metadata5"></metadata>
  <g id="layer1" inkscape:groupmode="layer" inkscape:label="Ebene 1">
    <path id="path155" d="m 110.73109,260.3297 c 12.1246,-5.96295 24.44805,-16.09992 33.39251,-33.39251 4.57158,-8.94438 17.69007,-42.33689 -16.09999,-85.66767 C 90.655769,94.559802 89.661959,55.403112 90.854549,41.688322 c 0.19908,-1.987646 -2.38518,-3.378996 -4.17402,-1.987646 -4.96914,3.577766 -9.14324,7.553066 -12.72101,11.925896 -13.91351,16.89503 -20.27402,37.566569 -20.27402,57.840588 0,12.12467 -1.39129,22.06288 -3.77647,27.82711 -5.764244,14.31108 -16.100004,7.95057 -14.509854,-17.0938 0.19907,-2.18641 -2.58397,-3.37901 -4.37288,-1.98765 -5.76418,4.77036 -15.90115,15.50368 -24.0505001,38.95792 -6.36049996,18.4851 -7.55308996,32.99495 -6.75805996,43.33078 2.38517996,33.98876 22.65920006,51.28135 40.74682006,59.82818 2.38518,1.19259 4.770364,-1.39129 3.379,-3.37899 -14.70855,-21.86409 -5.5654,-48.29984 11.130864,-69.1702 17.29251,-21.66539 23.65302,-38.16286 23.65302,-38.16286 0,0 11.92588,12.91971 31.603651,53.46775 11.72712,24.24934 4.37281,43.132 -3.37906,54.26287 -1.39129,1.59014 0.99388,4.17402 3.37906,2.98143 z" class="st0" style="fill:#24195d;fill-opacity:1;stroke-width:1.98765"></path>
  </g>
  <style type="text/css" id="style10">
	.st0{fill:#003D7C;}
</style>
  <style type="text/css" id="style56">
	.st0{fill:#003D7C;}
</style>
  <style type="text/css" id="style72">
	.st0{fill:#A31747;}
	.st1{fill:#003D7C;}
</style>
  <style type="text/css" id="style123">
	.st0{fill:#A31747;}
	.st1{fill:#003D7C;}
</style>
  <style type="text/css" id="style153">
	.st0{fill:#003D7C;}
</style>
  <style type="text/css" id="style166">
	.st0{fill:#A31747;}
	.st1{fill:#003D7C;}
	.st2{fill:#FFFFFF;}
</style>
  <style type="text/css" id="style205">
	.st0{fill:#003D7C;}
</style>
  <style type="text/css" id="style221">
	.st0{fill:#A31747;}
	.st1{fill:#003D7C;}
	.st2{fill:#E7E7E8;}
</style>
  <style type="text/css" id="style272">
	.st0{fill:#003D7C;}
</style>
  <style type="text/css" id="style288">
	.st0{fill:#003D7C;}
</style>
  <style type="text/css" id="style307">
	.st0{fill:#003D7C;}
	.st1{fill:none;stroke:#FFFFFF;stroke-width:4.6275;stroke-miterlimit:10;}
	.st2{fill:#FFFFFF;}
</style>
  <style type="text/css" id="style353">
	.st0{fill:#003D7C;}
</style>
  <style type="text/css" id="style377">
	.st0{fill:#003D7C;}
	.st1{fill:#003D7C;stroke:#FFFFFF;stroke-width:5.1045;stroke-linecap:round;stroke-linejoin:round;stroke-miterlimit:10;}
</style>
  <style type="text/css" id="style411">
	.st0{fill:#003D7C;}
</style>
</svg>
