<?xml version="1.0" encoding="UTF-8" standalone="no"?>
<svg xmlns:dc="http://purl.org/dc/elements/1.1/" xmlns:cc="http://creativecommons.org/ns#" xmlns:rdf="http://www.w3.org/1999/02/22-rdf-syntax-ns#" xmlns:svg="http://www.w3.org/2000/svg" xmlns="http://www.w3.org/2000/svg" xmlns:sodipodi="http://sodipodi.sourceforge.net/DTD/sodipodi-0.dtd" xmlns:inkscape="http://www.inkscape.org/namespaces/inkscape" version="1.1" viewBox="0 0 200 200" height="200" width="200" id="svg1072" sodipodi:docname="fortbildung-weiterbildung-icon-jsd.svg" inkscape:version="0.92.4 (5da689c313, 2019-01-14)">
  <metadata id="metadata1078"></metadata>
  <defs id="defs1076"></defs>
  <g transform="matrix(8.333333333333334,0,0,8.333333333333334,0,0)" id="g1070" style="opacity:1;fill:none">
    <path d="M 16.5,14.308l-6.75,2.779l6.75,2.471l6.75-2.471L16.5,14.308z " stroke="#000000" fill="none" stroke-width="1.5" stroke-linecap="round" stroke-linejoin="round" id="path1056" style="fill:none;stroke:#ffffff;stroke-opacity:1"></path>
    <path d="M 9.75,17.066v3.771 " stroke="#000000" fill="none" stroke-width="1.5" stroke-linecap="round" stroke-linejoin="round" id="path1058" style="fill:none;stroke:#ffffff;stroke-opacity:1"></path>
    <path d="M 12.75,18.185V21.3 c-0.002,0.308,0.185,0.585,0.471,0.7l3,1.2c0.179,0.072,0.379,0.072,0.558,0l3-1.2c0.286-0.115,0.473-0.392,0.471-0.7v-3.115 " stroke="#000000" fill="none" stroke-width="1.5" stroke-linecap="round" stroke-linejoin="round" id="path1060" style="fill:none;stroke:#ffffff;stroke-opacity:1"></path>
    <path d="M 6,0.75c1.657,0,3,1.343,3,3s-1.343,3-3,3s-3-1.343-3-3S4.343,0.75,6,0.75z " stroke="#000000" fill="none" stroke-width="1.5" stroke-linecap="round" stroke-linejoin="round" id="path1062" style="fill:none;stroke:#ffffff;stroke-opacity:1"></path>
    <path d="M 10.555,10.888c-1.444-2.515-4.653-3.384-7.168-1.94 C1.756,9.884,0.751,11.62,0.75,13.5v2.25H3l0.75,7.5h4.5 " stroke="#000000" fill="none" stroke-width="1.5" stroke-linecap="round" stroke-linejoin="round" id="path1064" style="fill:none;stroke:#ffffff;stroke-opacity:1"></path>
    <path d="M 16.5,0.75c1.45,0,2.625,1.175,2.625,2.625S17.95,6,16.5,6 s-2.625-1.175-2.625-2.625S15.05,0.75,16.5,0.75z " stroke="#000000" fill="none" stroke-width="1.5" stroke-linecap="round" stroke-linejoin="round" id="path1066" style="fill:none;stroke:#ffffff;stroke-opacity:1"></path>
    <path d="M 20.4,9c-1.243-2.152-3.996-2.889-6.148-1.645 c-0.428,0.247-0.812,0.563-1.137,0.935" stroke="#000000" fill="none" stroke-width="1.5" stroke-linecap="round" stroke-linejoin="round" id="path1068" style="fill:none;stroke:#ffffff;stroke-opacity:1"></path>
  </g>
</svg>
