<?xml version="1.0" encoding="UTF-8" standalone="no"?>
<svg xmlns:dc="http://purl.org/dc/elements/1.1/" xmlns:cc="http://creativecommons.org/ns#" xmlns:rdf="http://www.w3.org/1999/02/22-rdf-syntax-ns#" xmlns:svg="http://www.w3.org/2000/svg" xmlns="http://www.w3.org/2000/svg" xmlns:xlink="http://www.w3.org/1999/xlink" xmlns:sodipodi="http://sodipodi.sourceforge.net/DTD/sodipodi-0.dtd" xmlns:inkscape="http://www.inkscape.org/namespaces/inkscape" sodipodi:docname="gaeste_neu.svg" inkscape:version="1.0 (4035a4fb49, 2020-05-01)" id="svg8" version="1.1" viewBox="0 0 529.16665 299.77293" height="1133" width="2000">
  <defs id="defs2">
    <rect id="SVGID_1_" x="-375" y="-690.83" width="148.65" height="148.65"></rect>
    <rect id="SVGID_3_" x="198.65" y="538.5" width="294" height="294"></rect>
    <rect id="SVGID_5_" x="198.65" y="538.5" width="294" height="294"></rect>
    <rect id="SVGID_7_" x="198.65" y="538.5" width="294" height="294"></rect>
    <rect id="SVGID_9_" x="-374.68" y="9.5" width="147" height="147"></rect>
    <rect id="SVGID_11_" x="-374.68" y="9.5" width="147" height="147"></rect>
    <rect id="SVGID_13_" x="-374.68" y="9.5" width="147" height="147"></rect>
    <rect id="SVGID_15_" x="190" y="-494.16" width="297.31" height="297.31"></rect>
    <rect id="SVGID_1_-7" x="-383" y="303.17" width="148.65" height="148.65"></rect>
    <rect id="SVGID_3_-8" x="190.65" y="1532.5" width="294" height="294"></rect>
    <rect id="SVGID_5_-4" x="190.65" y="1532.5" width="294" height="294"></rect>
    <rect id="SVGID_7_-9" x="190.65" y="1532.5" width="294" height="294"></rect>
    <rect id="SVGID_9_-5" x="-382.68" y="1003.5" width="147" height="147"></rect>
    <rect id="SVGID_11_-6" x="-382.68" y="1003.5" width="147" height="147"></rect>
    <rect id="SVGID_13_-4" x="-382.68" y="1003.5" width="147" height="147"></rect>
    <rect id="SVGID_15_-8" x="182" y="499.84" width="297.31" height="297.31"></rect>
    <rect id="SVGID_1_-6" x="-383" y="-1208.83" width="148.65" height="148.65"></rect>
    <rect id="SVGID_3_-5" x="190.65" y="20.5" width="294" height="294"></rect>
    <rect id="SVGID_5_-1" x="190.65" y="20.5" width="294" height="294"></rect>
    <rect id="SVGID_7_-92" x="190.65" y="20.5" width="294" height="294"></rect>
    <rect id="SVGID_9_-2" x="-382.68" y="-508.5" width="147" height="147"></rect>
    <rect id="SVGID_11_-5" x="-382.68" y="-508.5" width="147" height="147"></rect>
    <rect id="SVGID_13_-8" x="-382.68" y="-508.5" width="147" height="147"></rect>
    <rect id="SVGID_15_-5" x="182" y="-1012.16" width="297.31" height="297.31"></rect>
    <rect id="SVGID_1_-9" x="-383" y="-1698.83" width="148.65" height="148.65"></rect>
    <rect id="SVGID_3_-1" x="190.65" y="-469.5" width="294" height="294"></rect>
    <rect id="SVGID_5_-6" x="190.65" y="-469.5" width="294" height="294"></rect>
    <rect id="SVGID_7_-3" x="190.65" y="-469.5" width="294" height="294"></rect>
    <rect id="SVGID_9_-0" x="-382.68" y="-998.5" width="147" height="147"></rect>
    <rect id="SVGID_11_-0" x="-382.68" y="-998.5" width="147" height="147"></rect>
    <rect id="SVGID_13_-9" x="-382.68" y="-998.5" width="147" height="147"></rect>
    <rect id="SVGID_15_-3" x="182" y="-1502.16" width="297.31" height="297.31"></rect>
    <rect id="SVGID_1_-73" x="-375" y="-188.83" width="148.65" height="148.65"></rect>
    <rect id="SVGID_3_-4" x="198.65" y="1040.5" width="294" height="294"></rect>
    <rect id="SVGID_5_-8" x="198.65" y="1040.5" width="294" height="294"></rect>
    <rect id="SVGID_7_-0" x="198.65" y="1040.5" width="294" height="294"></rect>
    <rect id="SVGID_9_-1" x="-374.68" y="511.5" width="147" height="147"></rect>
    <rect id="SVGID_11_-7" x="-374.68" y="511.5" width="147" height="147"></rect>
    <rect id="SVGID_13_-43" x="-374.68" y="511.5" width="147" height="147"></rect>
    <rect id="SVGID_15_-2" x="190" y="7.84" width="297.31" height="297.31"></rect>
    <clipPath id="SVGID_2_">
      <use height="100%" width="100%" y="0" x="0" xlink:href="#SVGID_1_" style="overflow:visible" id="use75"></use>
    </clipPath>
    <clipPath id="clipPath3730">
      <use height="100%" width="100%" y="0" x="0" xlink:href="#SVGID_1_" style="overflow:visible" id="use3728"></use>
    </clipPath>
    <clipPath id="clipPath3734">
      <use height="100%" width="100%" y="0" x="0" xlink:href="#SVGID_1_" style="overflow:visible" id="use3732"></use>
    </clipPath>
    <clipPath id="clipPath3738">
      <use height="100%" width="100%" y="0" x="0" xlink:href="#SVGID_1_" style="overflow:visible" id="use3736"></use>
    </clipPath>
    <clipPath id="clipPath3742">
      <use height="100%" width="100%" y="0" x="0" xlink:href="#SVGID_1_" style="overflow:visible" id="use3740"></use>
    </clipPath>
    <clipPath id="clipPath3746">
      <use height="100%" width="100%" y="0" x="0" xlink:href="#SVGID_1_" style="overflow:visible" id="use3744"></use>
    </clipPath>
    <clipPath id="clipPath3750">
      <use height="100%" width="100%" y="0" x="0" xlink:href="#SVGID_1_" style="overflow:visible" id="use3748"></use>
    </clipPath>
    <clipPath id="clipPath3754">
      <use height="100%" width="100%" y="0" x="0" xlink:href="#SVGID_1_" style="overflow:visible" id="use3752"></use>
    </clipPath>
    <clipPath id="clipPath3758">
      <use height="100%" width="100%" y="0" x="0" xlink:href="#SVGID_1_" style="overflow:visible" id="use3756"></use>
    </clipPath>
    <clipPath id="clipPath3762">
      <use height="100%" width="100%" y="0" x="0" xlink:href="#SVGID_1_" style="overflow:visible" id="use3760"></use>
    </clipPath>
    <clipPath id="clipPath3766">
      <use height="100%" width="100%" y="0" x="0" xlink:href="#SVGID_1_" style="overflow:visible" id="use3764"></use>
    </clipPath>
    <clipPath id="SVGID_4_">
      <use height="100%" width="100%" y="0" x="0" xlink:href="#SVGID_3_" style="overflow:visible" id="use197"></use>
    </clipPath>
    <clipPath id="SVGID_6_">
      <use height="100%" width="100%" y="0" x="0" xlink:href="#SVGID_5_" style="overflow:visible" id="use215"></use>
    </clipPath>
    <clipPath id="SVGID_8_">
      <use height="100%" width="100%" y="0" x="0" xlink:href="#SVGID_7_" style="overflow:visible" id="use233"></use>
    </clipPath>
    <clipPath id="SVGID_10_">
      <use height="100%" width="100%" y="0" x="0" xlink:href="#SVGID_9_" style="overflow:visible" id="use257"></use>
    </clipPath>
    <clipPath id="SVGID_12_">
      <use height="100%" width="100%" y="0" x="0" xlink:href="#SVGID_11_" style="overflow:visible" id="use275"></use>
    </clipPath>
    <clipPath id="SVGID_14_">
      <use height="100%" width="100%" y="0" x="0" xlink:href="#SVGID_13_" style="overflow:visible" id="use293"></use>
    </clipPath>
    <clipPath id="SVGID_16_">
      <use height="100%" width="100%" y="0" x="0" xlink:href="#SVGID_15_" style="overflow:visible" id="use359"></use>
    </clipPath>
    <clipPath id="clipPath3784">
      <use height="100%" width="100%" y="0" x="0" xlink:href="#SVGID_15_" style="overflow:visible" id="use3782"></use>
    </clipPath>
    <clipPath id="clipPath3788">
      <use height="100%" width="100%" y="0" x="0" xlink:href="#SVGID_15_" style="overflow:visible" id="use3786"></use>
    </clipPath>
    <clipPath id="clipPath3792">
      <use height="100%" width="100%" y="0" x="0" xlink:href="#SVGID_15_" style="overflow:visible" id="use3790"></use>
    </clipPath>
    <clipPath id="clipPath3796">
      <use height="100%" width="100%" y="0" x="0" xlink:href="#SVGID_15_" style="overflow:visible" id="use3794"></use>
    </clipPath>
    <clipPath id="clipPath3800">
      <use height="100%" width="100%" y="0" x="0" xlink:href="#SVGID_15_" style="overflow:visible" id="use3798"></use>
    </clipPath>
    <clipPath id="clipPath3804">
      <use height="100%" width="100%" y="0" x="0" xlink:href="#SVGID_15_" style="overflow:visible" id="use3802"></use>
    </clipPath>
    <clipPath id="clipPath3808">
      <use height="100%" width="100%" y="0" x="0" xlink:href="#SVGID_15_" style="overflow:visible" id="use3806"></use>
    </clipPath>
    <clipPath id="clipPath3812">
      <use height="100%" width="100%" y="0" x="0" xlink:href="#SVGID_15_" style="overflow:visible" id="use3810"></use>
    </clipPath>
    <clipPath id="clipPath3816">
      <use height="100%" width="100%" y="0" x="0" xlink:href="#SVGID_15_" style="overflow:visible" id="use3814"></use>
    </clipPath>
    <clipPath id="clipPath3820">
      <use height="100%" width="100%" y="0" x="0" xlink:href="#SVGID_15_" style="overflow:visible" id="use3818"></use>
    </clipPath>
    <rect id="rect488" x="-375" y="-690.83002" width="148.64999" height="148.64999"></rect>
    <rect id="rect551" x="198.64999" y="538.5" width="294" height="294"></rect>
    <rect id="rect562" x="198.64999" y="538.5" width="294" height="294"></rect>
    <rect id="rect573" x="198.64999" y="538.5" width="294" height="294"></rect>
    <rect id="rect587" x="-374.67999" y="9.5" width="147" height="147"></rect>
    <rect id="rect598" x="-374.67999" y="9.5" width="147" height="147"></rect>
    <rect id="rect609" x="-374.67999" y="9.5" width="147" height="147"></rect>
    <rect id="rect644" x="190" y="-494.16" width="297.31" height="297.31"></rect>
    <clipPath id="SVGID_2_-3">
      <use id="use75-4" style="overflow:visible" xlink:href="#SVGID_1_" x="0" y="0" width="100%" height="100%"></use>
    </clipPath>
    <clipPath id="clipPath4635">
      <use id="use4633" style="overflow:visible" xlink:href="#SVGID_1_" x="0" y="0" width="100%" height="100%"></use>
    </clipPath>
    <clipPath id="clipPath4639">
      <use id="use4637" style="overflow:visible" xlink:href="#SVGID_1_" x="0" y="0" width="100%" height="100%"></use>
    </clipPath>
    <clipPath id="clipPath4643">
      <use id="use4641" style="overflow:visible" xlink:href="#SVGID_1_" x="0" y="0" width="100%" height="100%"></use>
    </clipPath>
    <clipPath id="clipPath4647">
      <use id="use4645" style="overflow:visible" xlink:href="#SVGID_1_" x="0" y="0" width="100%" height="100%"></use>
    </clipPath>
    <clipPath id="clipPath4651">
      <use id="use4649" style="overflow:visible" xlink:href="#SVGID_1_" x="0" y="0" width="100%" height="100%"></use>
    </clipPath>
    <clipPath id="clipPath4655">
      <use id="use4653" style="overflow:visible" xlink:href="#SVGID_1_" x="0" y="0" width="100%" height="100%"></use>
    </clipPath>
    <clipPath id="clipPath4659">
      <use id="use4657" style="overflow:visible" xlink:href="#SVGID_1_" x="0" y="0" width="100%" height="100%"></use>
    </clipPath>
    <clipPath id="clipPath4663">
      <use id="use4661" style="overflow:visible" xlink:href="#SVGID_1_" x="0" y="0" width="100%" height="100%"></use>
    </clipPath>
    <clipPath id="clipPath4667">
      <use id="use4665" style="overflow:visible" xlink:href="#SVGID_1_" x="0" y="0" width="100%" height="100%"></use>
    </clipPath>
    <clipPath id="clipPath4671">
      <use id="use4669" style="overflow:visible" xlink:href="#SVGID_1_" x="0" y="0" width="100%" height="100%"></use>
    </clipPath>
    <clipPath id="SVGID_4_-2">
      <use id="use197-5" style="overflow:visible" xlink:href="#SVGID_3_" x="0" y="0" width="100%" height="100%"></use>
    </clipPath>
    <clipPath id="SVGID_6_-2">
      <use id="use215-2" style="overflow:visible" xlink:href="#SVGID_5_" x="0" y="0" width="100%" height="100%"></use>
    </clipPath>
    <clipPath id="SVGID_8_-5">
      <use id="use233-2" style="overflow:visible" xlink:href="#SVGID_7_" x="0" y="0" width="100%" height="100%"></use>
    </clipPath>
    <clipPath id="SVGID_10_-5">
      <use id="use257-1" style="overflow:visible" xlink:href="#SVGID_9_" x="0" y="0" width="100%" height="100%"></use>
    </clipPath>
    <clipPath id="SVGID_12_-1">
      <use id="use275-7" style="overflow:visible" xlink:href="#SVGID_11_" x="0" y="0" width="100%" height="100%"></use>
    </clipPath>
    <clipPath id="SVGID_14_-9">
      <use id="use293-1" style="overflow:visible" xlink:href="#SVGID_13_" x="0" y="0" width="100%" height="100%"></use>
    </clipPath>
    <clipPath id="SVGID_16_-9">
      <use id="use359-4" style="overflow:visible" xlink:href="#SVGID_15_" x="0" y="0" width="100%" height="100%"></use>
    </clipPath>
    <clipPath id="clipPath4689">
      <use id="use4687" style="overflow:visible" xlink:href="#SVGID_15_" x="0" y="0" width="100%" height="100%"></use>
    </clipPath>
    <clipPath id="clipPath4693">
      <use id="use4691" style="overflow:visible" xlink:href="#SVGID_15_" x="0" y="0" width="100%" height="100%"></use>
    </clipPath>
    <clipPath id="clipPath4697">
      <use id="use4695" style="overflow:visible" xlink:href="#SVGID_15_" x="0" y="0" width="100%" height="100%"></use>
    </clipPath>
    <clipPath id="clipPath4701">
      <use id="use4699" style="overflow:visible" xlink:href="#SVGID_15_" x="0" y="0" width="100%" height="100%"></use>
    </clipPath>
    <clipPath id="clipPath4705">
      <use id="use4703" style="overflow:visible" xlink:href="#SVGID_15_" x="0" y="0" width="100%" height="100%"></use>
    </clipPath>
    <clipPath id="clipPath4709">
      <use id="use4707" style="overflow:visible" xlink:href="#SVGID_15_" x="0" y="0" width="100%" height="100%"></use>
    </clipPath>
    <clipPath id="clipPath4713">
      <use id="use4711" style="overflow:visible" xlink:href="#SVGID_15_" x="0" y="0" width="100%" height="100%"></use>
    </clipPath>
    <clipPath id="clipPath4717">
      <use id="use4715" style="overflow:visible" xlink:href="#SVGID_15_" x="0" y="0" width="100%" height="100%"></use>
    </clipPath>
    <clipPath id="clipPath4721">
      <use id="use4719" style="overflow:visible" xlink:href="#SVGID_15_" x="0" y="0" width="100%" height="100%"></use>
    </clipPath>
    <clipPath id="clipPath4725">
      <use id="use4723" style="overflow:visible" xlink:href="#SVGID_15_" x="0" y="0" width="100%" height="100%"></use>
    </clipPath>
    <rect height="148.64999" width="148.64999" y="-690.83002" x="-375" id="rect4408"></rect>
    <rect height="294" width="294" y="538.5" x="198.64999" id="rect4471"></rect>
    <rect height="294" width="294" y="538.5" x="198.64999" id="rect4482"></rect>
    <rect height="294" width="294" y="538.5" x="198.64999" id="rect4493"></rect>
    <rect height="147" width="147" y="9.5" x="-374.67999" id="rect4507"></rect>
    <rect height="147" width="147" y="9.5" x="-374.67999" id="rect4518"></rect>
    <rect height="147" width="147" y="9.5" x="-374.67999" id="rect4529"></rect>
    <rect height="297.31" width="297.31" y="-494.16" x="190" id="rect4564"></rect>
    <clipPath id="SVGID_2_-9">
      <use id="use75-0" style="overflow:visible" xlink:href="#SVGID_1_" x="0" y="0" width="100%" height="100%"></use>
    </clipPath>
    <clipPath id="clipPath5477">
      <use id="use5475" style="overflow:visible" xlink:href="#SVGID_1_" x="0" y="0" width="100%" height="100%"></use>
    </clipPath>
    <clipPath id="clipPath5481">
      <use id="use5479" style="overflow:visible" xlink:href="#SVGID_1_" x="0" y="0" width="100%" height="100%"></use>
    </clipPath>
    <clipPath id="clipPath5485">
      <use id="use5483" style="overflow:visible" xlink:href="#SVGID_1_" x="0" y="0" width="100%" height="100%"></use>
    </clipPath>
    <clipPath id="clipPath5489">
      <use id="use5487" style="overflow:visible" xlink:href="#SVGID_1_" x="0" y="0" width="100%" height="100%"></use>
    </clipPath>
    <clipPath id="clipPath5493">
      <use id="use5491" style="overflow:visible" xlink:href="#SVGID_1_" x="0" y="0" width="100%" height="100%"></use>
    </clipPath>
    <clipPath id="clipPath5497">
      <use id="use5495" style="overflow:visible" xlink:href="#SVGID_1_" x="0" y="0" width="100%" height="100%"></use>
    </clipPath>
    <clipPath id="clipPath5501">
      <use id="use5499" style="overflow:visible" xlink:href="#SVGID_1_" x="0" y="0" width="100%" height="100%"></use>
    </clipPath>
    <clipPath id="clipPath5505">
      <use id="use5503" style="overflow:visible" xlink:href="#SVGID_1_" x="0" y="0" width="100%" height="100%"></use>
    </clipPath>
    <clipPath id="clipPath5509">
      <use id="use5507" style="overflow:visible" xlink:href="#SVGID_1_" x="0" y="0" width="100%" height="100%"></use>
    </clipPath>
    <clipPath id="clipPath5513">
      <use id="use5511" style="overflow:visible" xlink:href="#SVGID_1_" x="0" y="0" width="100%" height="100%"></use>
    </clipPath>
    <clipPath id="SVGID_10_-4">
      <use id="use257-8" style="overflow:visible" xlink:href="#SVGID_9_" x="0" y="0" width="100%" height="100%"></use>
    </clipPath>
    <clipPath id="SVGID_12_-0">
      <use id="use275-9" style="overflow:visible" xlink:href="#SVGID_11_" x="0" y="0" width="100%" height="100%"></use>
    </clipPath>
    <clipPath id="SVGID_14_-7">
      <use id="use293-9" style="overflow:visible" xlink:href="#SVGID_13_" x="0" y="0" width="100%" height="100%"></use>
    </clipPath>
    <clipPath id="SVGID_16_-4">
      <use id="use359-6" style="overflow:visible" xlink:href="#SVGID_15_" x="0" y="0" width="100%" height="100%"></use>
    </clipPath>
    <clipPath id="clipPath5525">
      <use id="use5523" style="overflow:visible" xlink:href="#SVGID_15_" x="0" y="0" width="100%" height="100%"></use>
    </clipPath>
    <clipPath id="clipPath5529">
      <use id="use5527" style="overflow:visible" xlink:href="#SVGID_15_" x="0" y="0" width="100%" height="100%"></use>
    </clipPath>
    <clipPath id="clipPath5533">
      <use id="use5531" style="overflow:visible" xlink:href="#SVGID_15_" x="0" y="0" width="100%" height="100%"></use>
    </clipPath>
    <clipPath id="clipPath5537">
      <use id="use5535" style="overflow:visible" xlink:href="#SVGID_15_" x="0" y="0" width="100%" height="100%"></use>
    </clipPath>
    <clipPath id="clipPath5541">
      <use id="use5539" style="overflow:visible" xlink:href="#SVGID_15_" x="0" y="0" width="100%" height="100%"></use>
    </clipPath>
    <clipPath id="clipPath5545">
      <use id="use5543" style="overflow:visible" xlink:href="#SVGID_15_" x="0" y="0" width="100%" height="100%"></use>
    </clipPath>
    <clipPath id="clipPath5549">
      <use id="use5547" style="overflow:visible" xlink:href="#SVGID_15_" x="0" y="0" width="100%" height="100%"></use>
    </clipPath>
    <clipPath id="clipPath5553">
      <use id="use5551" style="overflow:visible" xlink:href="#SVGID_15_" x="0" y="0" width="100%" height="100%"></use>
    </clipPath>
    <clipPath id="clipPath5557">
      <use id="use5555" style="overflow:visible" xlink:href="#SVGID_15_" x="0" y="0" width="100%" height="100%"></use>
    </clipPath>
    <clipPath id="clipPath5561">
      <use id="use5559" style="overflow:visible" xlink:href="#SVGID_15_" x="0" y="0" width="100%" height="100%"></use>
    </clipPath>
    <rect id="rect5271" x="-375" y="-690.83002" width="148.64999" height="148.64999"></rect>
    <rect id="rect5370" x="-374.67999" y="9.5" width="147" height="147"></rect>
    <rect id="rect5381" x="-374.67999" y="9.5" width="147" height="147"></rect>
    <rect id="rect5392" x="-374.67999" y="9.5" width="147" height="147"></rect>
    <rect id="rect5421" x="190" y="-494.16" width="297.31" height="297.31"></rect>
    <clipPath id="SVGID_2_-4">
      <use id="use75-5" style="overflow:visible" xlink:href="#SVGID_1_" x="0" y="0" width="100%" height="100%"></use>
    </clipPath>
    <clipPath id="clipPath6199">
      <use id="use6197" style="overflow:visible" xlink:href="#SVGID_1_" x="0" y="0" width="100%" height="100%"></use>
    </clipPath>
    <clipPath id="clipPath6203">
      <use id="use6201" style="overflow:visible" xlink:href="#SVGID_1_" x="0" y="0" width="100%" height="100%"></use>
    </clipPath>
    <clipPath id="clipPath6207">
      <use id="use6205" style="overflow:visible" xlink:href="#SVGID_1_" x="0" y="0" width="100%" height="100%"></use>
    </clipPath>
    <clipPath id="clipPath6211">
      <use id="use6209" style="overflow:visible" xlink:href="#SVGID_1_" x="0" y="0" width="100%" height="100%"></use>
    </clipPath>
    <clipPath id="clipPath6215">
      <use id="use6213" style="overflow:visible" xlink:href="#SVGID_1_" x="0" y="0" width="100%" height="100%"></use>
    </clipPath>
    <clipPath id="clipPath6219">
      <use id="use6217" style="overflow:visible" xlink:href="#SVGID_1_" x="0" y="0" width="100%" height="100%"></use>
    </clipPath>
    <clipPath id="clipPath6223">
      <use id="use6221" style="overflow:visible" xlink:href="#SVGID_1_" x="0" y="0" width="100%" height="100%"></use>
    </clipPath>
    <clipPath id="clipPath6227">
      <use id="use6225" style="overflow:visible" xlink:href="#SVGID_1_" x="0" y="0" width="100%" height="100%"></use>
    </clipPath>
    <clipPath id="clipPath6231">
      <use id="use6229" style="overflow:visible" xlink:href="#SVGID_1_" x="0" y="0" width="100%" height="100%"></use>
    </clipPath>
    <clipPath id="clipPath6235">
      <use id="use6233" style="overflow:visible" xlink:href="#SVGID_1_" x="0" y="0" width="100%" height="100%"></use>
    </clipPath>
    <clipPath id="SVGID_10_-7">
      <use id="use257-17" style="overflow:visible" xlink:href="#SVGID_9_" x="0" y="0" width="100%" height="100%"></use>
    </clipPath>
    <clipPath id="SVGID_12_-2">
      <use id="use275-5" style="overflow:visible" xlink:href="#SVGID_11_" x="0" y="0" width="100%" height="100%"></use>
    </clipPath>
    <clipPath id="SVGID_14_-5">
      <use id="use293-8" style="overflow:visible" xlink:href="#SVGID_13_" x="0" y="0" width="100%" height="100%"></use>
    </clipPath>
    <clipPath id="SVGID_16_-0">
      <use id="use359-47" style="overflow:visible" xlink:href="#SVGID_15_" x="0" y="0" width="100%" height="100%"></use>
    </clipPath>
    <clipPath id="clipPath6247">
      <use id="use6245" style="overflow:visible" xlink:href="#SVGID_15_" x="0" y="0" width="100%" height="100%"></use>
    </clipPath>
    <clipPath id="clipPath6251">
      <use id="use6249" style="overflow:visible" xlink:href="#SVGID_15_" x="0" y="0" width="100%" height="100%"></use>
    </clipPath>
    <clipPath id="clipPath6255">
      <use id="use6253" style="overflow:visible" xlink:href="#SVGID_15_" x="0" y="0" width="100%" height="100%"></use>
    </clipPath>
    <clipPath id="clipPath6259">
      <use id="use6257" style="overflow:visible" xlink:href="#SVGID_15_" x="0" y="0" width="100%" height="100%"></use>
    </clipPath>
    <clipPath id="clipPath6263">
      <use id="use6261" style="overflow:visible" xlink:href="#SVGID_15_" x="0" y="0" width="100%" height="100%"></use>
    </clipPath>
    <clipPath id="clipPath6267">
      <use id="use6265" style="overflow:visible" xlink:href="#SVGID_15_" x="0" y="0" width="100%" height="100%"></use>
    </clipPath>
    <clipPath id="clipPath6271">
      <use id="use6269" style="overflow:visible" xlink:href="#SVGID_15_" x="0" y="0" width="100%" height="100%"></use>
    </clipPath>
    <clipPath id="clipPath6275">
      <use id="use6273" style="overflow:visible" xlink:href="#SVGID_15_" x="0" y="0" width="100%" height="100%"></use>
    </clipPath>
    <clipPath id="clipPath6279">
      <use id="use6277" style="overflow:visible" xlink:href="#SVGID_15_" x="0" y="0" width="100%" height="100%"></use>
    </clipPath>
    <clipPath id="clipPath6283">
      <use id="use6281" style="overflow:visible" xlink:href="#SVGID_15_" x="0" y="0" width="100%" height="100%"></use>
    </clipPath>
    <rect height="148.64999" width="148.64999" y="-690.83002" x="-375" id="rect6028"></rect>
    <rect height="147" width="147" y="9.5" x="-374.67999" id="rect6092"></rect>
    <rect height="147" width="147" y="9.5" x="-374.67999" id="rect6103"></rect>
    <rect height="147" width="147" y="9.5" x="-374.67999" id="rect6114"></rect>
    <rect height="297.31" width="297.31" y="-494.16" x="190" id="rect6143"></rect>
    <clipPath id="SVGID_2_-93">
      <use id="use75-9" style="overflow:visible" xlink:href="#SVGID_1_" x="0" y="0" width="100%" height="100%"></use>
    </clipPath>
    <clipPath id="clipPath6199-5">
      <use id="use6197-2" style="overflow:visible" xlink:href="#SVGID_1_" x="0" y="0" width="100%" height="100%"></use>
    </clipPath>
    <clipPath id="clipPath6203-6">
      <use id="use6201-0" style="overflow:visible" xlink:href="#SVGID_1_" x="0" y="0" width="100%" height="100%"></use>
    </clipPath>
    <clipPath id="clipPath6207-4">
      <use id="use6205-5" style="overflow:visible" xlink:href="#SVGID_1_" x="0" y="0" width="100%" height="100%"></use>
    </clipPath>
    <clipPath id="clipPath6211-2">
      <use id="use6209-3" style="overflow:visible" xlink:href="#SVGID_1_" x="0" y="0" width="100%" height="100%"></use>
    </clipPath>
    <clipPath id="clipPath6215-0">
      <use id="use6213-4" style="overflow:visible" xlink:href="#SVGID_1_" x="0" y="0" width="100%" height="100%"></use>
    </clipPath>
    <clipPath id="clipPath6219-2">
      <use id="use6217-3" style="overflow:visible" xlink:href="#SVGID_1_" x="0" y="0" width="100%" height="100%"></use>
    </clipPath>
    <clipPath id="clipPath6223-5">
      <use id="use6221-8" style="overflow:visible" xlink:href="#SVGID_1_" x="0" y="0" width="100%" height="100%"></use>
    </clipPath>
    <clipPath id="clipPath6227-8">
      <use id="use6225-0" style="overflow:visible" xlink:href="#SVGID_1_" x="0" y="0" width="100%" height="100%"></use>
    </clipPath>
    <clipPath id="clipPath6231-5">
      <use id="use6229-9" style="overflow:visible" xlink:href="#SVGID_1_" x="0" y="0" width="100%" height="100%"></use>
    </clipPath>
    <clipPath id="clipPath6235-5">
      <use id="use6233-6" style="overflow:visible" xlink:href="#SVGID_1_" x="0" y="0" width="100%" height="100%"></use>
    </clipPath>
    <clipPath id="SVGID_10_-6">
      <use id="use257-0" style="overflow:visible" xlink:href="#SVGID_9_" x="0" y="0" width="100%" height="100%"></use>
    </clipPath>
    <clipPath id="SVGID_12_-24">
      <use id="use275-3" style="overflow:visible" xlink:href="#SVGID_11_" x="0" y="0" width="100%" height="100%"></use>
    </clipPath>
    <clipPath id="SVGID_14_-0">
      <use id="use293-88" style="overflow:visible" xlink:href="#SVGID_13_" x="0" y="0" width="100%" height="100%"></use>
    </clipPath>
    <clipPath id="SVGID_16_-8">
      <use id="use359-5" style="overflow:visible" xlink:href="#SVGID_15_" x="0" y="0" width="100%" height="100%"></use>
    </clipPath>
    <clipPath id="clipPath6247-9">
      <use id="use6245-0" style="overflow:visible" xlink:href="#SVGID_15_" x="0" y="0" width="100%" height="100%"></use>
    </clipPath>
    <clipPath id="clipPath6251-8">
      <use id="use6249-3" style="overflow:visible" xlink:href="#SVGID_15_" x="0" y="0" width="100%" height="100%"></use>
    </clipPath>
    <clipPath id="clipPath6255-5">
      <use id="use6253-1" style="overflow:visible" xlink:href="#SVGID_15_" x="0" y="0" width="100%" height="100%"></use>
    </clipPath>
    <clipPath id="clipPath6259-1">
      <use id="use6257-5" style="overflow:visible" xlink:href="#SVGID_15_" x="0" y="0" width="100%" height="100%"></use>
    </clipPath>
    <clipPath id="clipPath6263-5">
      <use id="use6261-1" style="overflow:visible" xlink:href="#SVGID_15_" x="0" y="0" width="100%" height="100%"></use>
    </clipPath>
    <clipPath id="clipPath6267-4">
      <use id="use6265-3" style="overflow:visible" xlink:href="#SVGID_15_" x="0" y="0" width="100%" height="100%"></use>
    </clipPath>
    <clipPath id="clipPath6271-5">
      <use id="use6269-2" style="overflow:visible" xlink:href="#SVGID_15_" x="0" y="0" width="100%" height="100%"></use>
    </clipPath>
    <clipPath id="clipPath6275-3">
      <use id="use6273-3" style="overflow:visible" xlink:href="#SVGID_15_" x="0" y="0" width="100%" height="100%"></use>
    </clipPath>
    <clipPath id="clipPath6279-2">
      <use id="use6277-1" style="overflow:visible" xlink:href="#SVGID_15_" x="0" y="0" width="100%" height="100%"></use>
    </clipPath>
    <clipPath id="clipPath6283-3">
      <use id="use6281-5" style="overflow:visible" xlink:href="#SVGID_15_" x="0" y="0" width="100%" height="100%"></use>
    </clipPath>
    <rect height="148.64999" width="148.64999" y="-690.83002" x="-375" id="rect6028-4"></rect>
    <rect height="147" width="147" y="9.5" x="-374.67999" id="rect6092-2"></rect>
    <rect height="147" width="147" y="9.5" x="-374.67999" id="rect6103-9"></rect>
    <rect height="147" width="147" y="9.5" x="-374.67999" id="rect6114-7"></rect>
    <rect height="297.31" width="297.31" y="-494.16" x="190" id="rect6143-7"></rect>
  </defs>
  <metadata id="metadata5"></metadata>
  <g id="layer1" inkscape:groupmode="layer" inkscape:label="Ebene 1">
    <g transform="matrix(0.26458333,0,0,0.26458333,-393.98337,-72.202888)" id="g412">
</g>
    <g transform="matrix(0.26458333,0,0,0.26458333,-393.98337,-72.202888)" id="g414">
</g>
    <g transform="matrix(0.26458333,0,0,0.26458333,-393.98337,-72.202888)" id="g416">
</g>
    <g transform="matrix(0.26458333,0,0,0.26458333,-393.98337,-72.202888)" id="g418">
</g>
    <g transform="matrix(0.26458333,0,0,0.26458333,-393.98337,-72.202888)" id="g420">
</g>
    <g transform="matrix(0.26458333,0,0,0.26458333,-393.98337,-72.202888)" id="g422">
</g>
    <g transform="matrix(0.26458333,0,0,0.26458333,-393.98337,-72.202888)" id="g424">
</g>
    <g transform="matrix(0.26458333,0,0,0.26458333,-393.98337,-72.202888)" id="g426">
</g>
    <g transform="matrix(0.26458333,0,0,0.26458333,-393.98337,-72.202888)" id="g428">
</g>
    <g transform="matrix(0.26458333,0,0,0.26458333,-393.98337,-72.202888)" id="g430">
</g>
    <g transform="matrix(0.26458333,0,0,0.26458333,-393.98337,-72.202888)" id="g432">
</g>
    <g transform="matrix(0.26458333,0,0,0.26458333,-393.98337,-72.202888)" id="g434">
</g>
    <g transform="matrix(0.26458333,0,0,0.26458333,-393.98337,-72.202888)" id="g436">
</g>
    <g transform="matrix(0.26458333,0,0,0.26458333,-393.98337,-72.202888)" id="g438">
</g>
    <g transform="matrix(0.26458333,0,0,0.26458333,-393.98337,-72.202888)" id="g440">
</g>
    <path class="st0" d="M -281.81964,946.30915" id="path12" style="fill:#a31747;stroke-width:0.264583"></path>
    <g transform="translate(-227.4306,-18.749785)" id="g7524">
      <path id="path168" d="M 218.96388,146.63494" class="st0" style="stroke-width:1.8454"></path>
      <path class="st1" d="m 521.60994,162.68995 h -131.0236 c -8.11977,0 -14.76322,-6.64345 -14.76322,-14.76323 V 73.18791 c 0,-8.119773 6.64345,-14.763223 14.76322,-14.763223 h 131.0236 c 8.11977,0 14.76322,6.64345 14.76322,14.763223 v 74.73881 c 0,8.11978 -6.64345,14.76323 -14.76322,14.76323 z" id="path170" style="fill:#24195d;fill-opacity:1;stroke-width:1.8454"></path>
      <path class="st1" d="m 293.14907,198.6753 c 10.33426,0 34.50904,-12.3642 34.50904,-42.07518 0,-23.25208 -3.13719,-42.07519 -34.50904,-42.07519 -31.37184,0 -34.50903,18.82311 -34.50903,42.07519 0,29.52644 24.35932,42.07518 34.50903,42.07518 z" id="path172" style="fill:#24195d;fill-opacity:1;stroke-width:1.8454"></path>
      <path class="st1" d="m 286.87471,205.13421 c -4.42897,-0.9227 -8.6734,-3.13718 -12.54874,-6.08983 -0.73816,-0.55362 -1.84541,-0.73816 -2.58357,-0.18454 -7.38161,3.87535 -24.91294,13.2869 -29.89552,16.79317 -8.30432,5.72074 -11.99512,45.3969 -12.73328,49.45679 0,0.36908 0,0.73816 0.18454,1.10724 0,0 62.00553,28.41921 128.07095,0 0.36908,-0.18454 0.18454,-0.73816 0.18454,-1.10724 v 0 c -1.8454,-10.88788 -5.35167,-44.47421 -12.73328,-49.45679 -4.98258,-3.50627 -22.32937,-12.73328 -29.71098,-16.60863 h -0.18454 c -0.9227,-0.36908 -1.84541,-0.36908 -2.58357,0.18454 -3.87534,3.13719 -8.11977,5.16713 -12.54874,6.08983" id="path174" style="fill:#24195d;fill-opacity:1;stroke-width:1.8454"></path>
      <path class="st2" d="m 505.92402,148.84942 v 0 c 0,2.02995 1.47632,3.50627 3.50626,3.50627 1.84541,0 3.50627,-1.47632 3.50627,-3.50627 v 0 0 c 0,0 0.18454,-21.03759 0.18454,-23.06753 -0.55362,-1.10724 -3.69081,-9.04247 3.6908,-11.07242 0,-40.414319 -9.59609,-45.765987 -9.59609,-45.765987 h -1.10724 c 0,0 0,51.855817 0,53.885767 -0.18454,2.21448 -0.18454,26.02017 -0.18454,26.02017 z" id="path176" style="fill:#ffffff;fill-opacity:1"></path>
      <path class="st2" d="m 406.45681,72.634289 h -2.02995 l 0.55362,21.960293 h -2.58356 V 72.634289 h -1.8454 v 22.144833 h -2.02995 V 72.634289 h -2.02994 v 22.144833 h -2.39902 l 0.73816,-22.144833 h -1.8454 l -2.39903,18.638568 c 0,0 0,0.738161 0,0.922702 0,2.952644 1.29178,5.536208 3.50627,7.19707 6.82799,7.750691 2.21448,15.685921 2.21448,17.531331 0,2.02994 0,34.13995 0,34.13995 v 0 c 0,2.02994 1.66086,3.50626 3.50627,3.50626 2.02994,0 3.50626,-1.66086 3.50626,-3.50626 v 0 0 c 0,0 0,-31.74093 0,-34.13995 0,-2.21449 -4.05988,-11.25696 2.58357,-18.084951 v 0 c 1.66086,-1.476323 2.7681,-3.690806 2.7681,-6.08983 0,-0.18454 0,-0.55362 0,-0.55362 z" id="path178" style="fill:#ffffff;fill-opacity:1"></path>
      <circle class="st2" cx="456.09814" cy="110.64958" r="38.568916" id="circle180" style="fill:#ffffff;fill-opacity:1"></circle>
      <path class="st1" d="m 338.73052,113.78677 c 0,0 17.16225,-15.132302 36.1699,-14.763221 19.00765,0.36908 7.75069,23.436611 7.75069,23.436611 0,0 -17.90041,-17.53132 -43.92059,-8.67339 z" id="path182" style="fill:#24195d;fill-opacity:1;stroke-width:1.8454"></path>
    </g>
  </g>
  <style type="text/css" id="style10">
	.st0{fill:#A31747;}
	.st1{fill:#A3184A;}
	.st2{fill:none;stroke:#A3184A;stroke-width:0.338;stroke-miterlimit:10;}
	.st3{fill:#FFFFFF;}
	.st4{fill:#E7E7E8;}
	.st5{clip-path:url(#SVGID_2_);fill:#A3184A;}
	.st6{clip-path:url(#SVGID_4_);fill:#A3184A;}
	.st7{clip-path:url(#SVGID_6_);fill:#A3184A;}
	.st8{clip-path:url(#SVGID_8_);fill:#A3184A;}
	.st9{clip-path:url(#SVGID_10_);fill:#A3184A;}
	.st10{clip-path:url(#SVGID_12_);fill:#A3184A;}
	.st11{clip-path:url(#SVGID_14_);fill:#A3184A;}
	.st12{fill:#A21749;}
	.st13{clip-path:url(#SVGID_16_);fill:#A3184A;}
	.st14{fill:#A31749;}
</style>
  <style type="text/css" id="style691">
	.st0{fill:#A31747;}
	.st1{fill:#A3184A;}
	.st2{fill:none;stroke:#A3184A;stroke-width:0.338;stroke-miterlimit:10;}
	.st3{fill:#FFFFFF;}
	.st4{fill:#E7E7E8;}
	.st5{clip-path:url(#SVGID_2_);fill:#A3184A;}
	.st6{clip-path:url(#SVGID_4_);fill:#A3184A;}
	.st7{clip-path:url(#SVGID_6_);fill:#A3184A;}
	.st8{clip-path:url(#SVGID_8_);fill:#A3184A;}
	.st9{clip-path:url(#SVGID_10_);fill:#A3184A;}
	.st10{clip-path:url(#SVGID_12_);fill:#A3184A;}
	.st11{clip-path:url(#SVGID_14_);fill:#A3184A;}
	.st12{fill:#A21749;}
	.st13{clip-path:url(#SVGID_16_);fill:#A3184A;}
	.st14{fill:#A31749;}
</style>
  <style type="text/css" id="style1372">
	.st0{fill:#A31747;}
	.st1{fill:#A3184A;}
	.st2{fill:none;stroke:#A3184A;stroke-width:0.338;stroke-miterlimit:10;}
	.st3{fill:#FFFFFF;}
	.st4{fill:#E7E7E8;}
	.st5{clip-path:url(#SVGID_2_);fill:#A3184A;}
	.st6{clip-path:url(#SVGID_4_);fill:#A3184A;}
	.st7{clip-path:url(#SVGID_6_);fill:#A3184A;}
	.st8{clip-path:url(#SVGID_8_);fill:#A3184A;}
	.st9{clip-path:url(#SVGID_10_);fill:#A3184A;}
	.st10{clip-path:url(#SVGID_12_);fill:#A3184A;}
	.st11{clip-path:url(#SVGID_14_);fill:#A3184A;}
	.st12{fill:#A21749;}
	.st13{clip-path:url(#SVGID_16_);fill:#A3184A;}
	.st14{fill:#A31749;}
</style>
  <style type="text/css" id="style2053">
	.st0{fill:#A31747;}
	.st1{fill:#A3184A;}
	.st2{fill:none;stroke:#A3184A;stroke-width:0.338;stroke-miterlimit:10;}
	.st3{fill:#FFFFFF;}
	.st4{fill:#E7E7E8;}
	.st5{clip-path:url(#SVGID_2_);fill:#A3184A;}
	.st6{clip-path:url(#SVGID_4_);fill:#A3184A;}
	.st7{clip-path:url(#SVGID_6_);fill:#A3184A;}
	.st8{clip-path:url(#SVGID_8_);fill:#A3184A;}
	.st9{clip-path:url(#SVGID_10_);fill:#A3184A;}
	.st10{clip-path:url(#SVGID_12_);fill:#A3184A;}
	.st11{clip-path:url(#SVGID_14_);fill:#A3184A;}
	.st12{fill:#A21749;}
	.st13{clip-path:url(#SVGID_16_);fill:#A3184A;}
	.st14{fill:#A31749;}
</style>
  <style type="text/css" id="style2734">
	.st0{fill:#A31747;}
	.st1{fill:#A3184A;}
	.st2{fill:none;stroke:#A3184A;stroke-width:0.338;stroke-miterlimit:10;}
	.st3{fill:#FFFFFF;}
	.st4{fill:#E7E7E8;}
	.st5{clip-path:url(#SVGID_2_);fill:#A3184A;}
	.st6{clip-path:url(#SVGID_4_);fill:#A3184A;}
	.st7{clip-path:url(#SVGID_6_);fill:#A3184A;}
	.st8{clip-path:url(#SVGID_8_);fill:#A3184A;}
	.st9{clip-path:url(#SVGID_10_);fill:#A3184A;}
	.st10{clip-path:url(#SVGID_12_);fill:#A3184A;}
	.st11{clip-path:url(#SVGID_14_);fill:#A3184A;}
	.st12{fill:#A21749;}
	.st13{clip-path:url(#SVGID_16_);fill:#A3184A;}
	.st14{fill:#A31749;}
</style>
  <style type="text/css" id="style10-8">
	.st0{fill:#003D7C;}
</style>
  <style type="text/css" id="style56">
	.st0{fill:#003D7C;}
</style>
  <style type="text/css" id="style72">
	.st0{fill:#A31747;}
	.st1{fill:#003D7C;}
</style>
  <style type="text/css" id="style123">
	.st0{fill:#A31747;}
	.st1{fill:#003D7C;}
</style>
  <style type="text/css" id="style10-4">
	.st0{fill:#003D7C;}
</style>
  <style type="text/css" id="style56-6">
	.st0{fill:#003D7C;}
</style>
  <style type="text/css" id="style72-2">
	.st0{fill:#A31747;}
	.st1{fill:#003D7C;}
</style>
  <style type="text/css" id="style123-0">
	.st0{fill:#A31747;}
	.st1{fill:#003D7C;}
</style>
  <style type="text/css" id="style153">
	.st0{fill:#003D7C;}
</style>
  <style type="text/css" id="style166">
	.st0{fill:#A31747;}
	.st1{fill:#003D7C;}
	.st2{fill:#FFFFFF;}
</style>
</svg>
