<?xml version="1.0" encoding="UTF-8" standalone="no"?>
<svg xmlns:dc="http://purl.org/dc/elements/1.1/" xmlns:cc="http://creativecommons.org/ns#" xmlns:rdf="http://www.w3.org/1999/02/22-rdf-syntax-ns#" xmlns:svg="http://www.w3.org/2000/svg" xmlns="http://www.w3.org/2000/svg" xmlns:sodipodi="http://sodipodi.sourceforge.net/DTD/sodipodi-0.dtd" xmlns:inkscape="http://www.inkscape.org/namespaces/inkscape" version="1.1" viewBox="0 0 200 200" width="200" height="200" id="svg891" sodipodi:docname="helfen-ehrenamt-spenden-jsd.svg" inkscape:version="0.92.4 (5da689c313, 2019-01-14)">
  <metadata id="metadata897"></metadata>
  <defs id="defs895"></defs>
  <g transform="matrix(8.333333333333334,0,0,8.333333333333334,0,0)" id="g889" style="stroke:#ffffff;stroke-opacity:1">
    <path d="M 0.75,14.25v9 " stroke="#000000" fill="none" stroke-width="1.5" stroke-linecap="round" stroke-linejoin="round" id="path881" style="stroke:#ffffff;stroke-opacity:1"></path>
    <path d="M 0.75,21.75h15c0-1.657-1.343-3-3-3H9c0-1.657-1.343-3-3-3H0.75 " stroke="#000000" fill="none" stroke-width="1.5" stroke-linecap="round" stroke-linejoin="round" id="path883" style="stroke:#ffffff;stroke-opacity:1"></path>
    <path d="M 6,18.75h3 " stroke="#000000" fill="none" stroke-width="1.5" stroke-linecap="round" stroke-linejoin="round" id="path885" style="stroke:#ffffff;stroke-opacity:1"></path>
    <path d="M 15.75,13.875 L9.358,7.207c-1.151-1.151-1.436-2.91-0.709-4.366l0,0c0.934-1.868,3.206-2.626,5.074-1.691c0.364,0.182,0.695,0.421,0.983,0.708 L15.75,2.9l1.044-1.044c1.477-1.477,3.872-1.477,5.349,0c0.287,0.287,0.527,0.619,0.708,0.983l0,0 c0.728,1.456,0.442,3.215-0.709,4.366L15.75,13.875z" stroke="#000000" fill="none" stroke-width="1.5" stroke-linecap="round" stroke-linejoin="round" id="path887" style="stroke:#ffffff;stroke-opacity:1"></path>
  </g>
</svg>
