<?xml version="1.0" encoding="UTF-8" standalone="no"?>
<svg xmlns:dc="http://purl.org/dc/elements/1.1/" xmlns:cc="http://creativecommons.org/ns#" xmlns:rdf="http://www.w3.org/1999/02/22-rdf-syntax-ns#" xmlns:svg="http://www.w3.org/2000/svg" xmlns="http://www.w3.org/2000/svg" xmlns:sodipodi="http://sodipodi.sourceforge.net/DTD/sodipodi-0.dtd" xmlns:inkscape="http://www.inkscape.org/namespaces/inkscape" version="1.1" viewBox="0 0 200 200" width="200" height="200" id="svg885" sodipodi:docname="karriere-bewerbung-jsd.svg" inkscape:version="0.92.3 (2405546, 2018-03-11)">
  <metadata id="metadata891"></metadata>
  <defs id="defs889"></defs>
  <path style="fill:none;stroke:#ffffff;stroke-width:12.5;stroke-linecap:round;stroke-linejoin:round;stroke-opacity:1" inkscape:connector-curvature="0" id="path871" d="m 143.74167,93.766666 c 27.61666,0 50,22.383334 50,50.000004 0,27.61666 -22.38334,50 -50,50 -27.61667,0 -50.000004,-22.38334 -50.000004,-50 0,-27.61667 22.383334,-50.000004 50.000004,-50.000004 z"></path>
  <path style="fill:none;stroke:#ffffff;stroke-width:12.5;stroke-linecap:round;stroke-linejoin:round;stroke-opacity:1" inkscape:connector-curvature="0" id="path873" d="m 118.74167,143.76667 h 50"></path>
  <path style="fill:none;stroke:#ffffff;stroke-width:12.5;stroke-linecap:round;stroke-linejoin:round;stroke-opacity:1" inkscape:connector-curvature="0" id="path875" d="m 168.74167,143.76667 -18.75,18.75"></path>
  <path style="fill:none;stroke:#ffffff;stroke-width:12.5;stroke-linecap:round;stroke-linejoin:round;stroke-opacity:1" inkscape:connector-curvature="0" id="path877" d="m 168.74167,143.76667 -18.75,-18.75"></path>
  <path style="fill:none;stroke:#ffffff;stroke-width:12.5;stroke-linecap:round;stroke-linejoin:round;stroke-opacity:1" inkscape:connector-curvature="0" id="path879" d="M 68.741666,131.26667 H 18.741667 c -6.9,0 -12.5000004,-5.6 -12.5000004,-12.5 V 18.766667 c 0,-6.9 5.6000004,-12.5000004 12.5000004,-12.5000004 H 168.74167 c 6.9,0 12.5,5.6000004 12.5,12.5000004 V 75"></path>
  <path style="fill:none;stroke:#ffffff;stroke-width:12.5;stroke-linecap:round;stroke-linejoin:round;stroke-opacity:1" inkscape:connector-curvature="0" id="path881" d="M 178.40833,10.833333 110.54167,63.05 c -9.90834,7.625 -23.700004,7.625 -33.608337,0 L 9.0666666,10.833333"></path>
</svg>
