<?xml version="1.0" encoding="UTF-8" standalone="no"?>
<svg xmlns:dc="http://purl.org/dc/elements/1.1/" xmlns:cc="http://creativecommons.org/ns#" xmlns:rdf="http://www.w3.org/1999/02/22-rdf-syntax-ns#" xmlns:svg="http://www.w3.org/2000/svg" xmlns="http://www.w3.org/2000/svg" xmlns:sodipodi="http://sodipodi.sourceforge.net/DTD/sodipodi-0.dtd" xmlns:inkscape="http://www.inkscape.org/namespaces/inkscape" version="1.1" viewBox="0 0 200 200" width="200" height="200" id="svg851" sodipodi:docname="konferenzen-veranstaltungen-icon-jsd.svg" inkscape:version="0.92.3 (2405546, 2018-03-11)">
  <metadata id="metadata857"></metadata>
  <defs id="defs855"></defs>
  <path style="fill:none;stroke:#ffffff;stroke-width:12.5;stroke-linecap:round;stroke-linejoin:round;stroke-opacity:1" inkscape:connector-curvature="0" id="path839" d="m 37.5,131.25 h 125"></path>
  <path style="fill:none;stroke:#ffffff;stroke-width:12.5;stroke-linecap:round;stroke-linejoin:round;stroke-opacity:1" inkscape:connector-curvature="0" id="path841" d="m 131.25,193.75 h -62.5 l -6.25,-62.5 h 75 z"></path>
  <path style="fill:none;stroke:#ffffff;stroke-width:12.5;stroke-linecap:round;stroke-linejoin:round;stroke-opacity:1" inkscape:connector-curvature="0" id="path843" d="m 100,43.75 c 12.08333,0 21.875,9.791666 21.875,21.875 C 121.875,77.708333 112.08333,87.5 100,87.5 87.916666,87.5 78.125,77.708333 78.125,65.625 78.125,53.541666 87.916666,43.75 100,43.75 Z"></path>
  <path style="fill:none;stroke:#ffffff;stroke-width:12.5;stroke-linecap:round;stroke-linejoin:round;stroke-opacity:1" inkscape:connector-curvature="0" id="path845" d="m 127.075,106.25 c -12.74167,-14.958334 -35.191667,-16.758334 -50.15,-4.01667 -1.441667,1.23334 -2.783334,2.575 -4.016667,4.01667"></path>
  <path style="fill:none;stroke:#ffffff;stroke-width:12.5;stroke-linecap:round;stroke-linejoin:round;stroke-opacity:1" inkscape:connector-curvature="0" id="path847" d="M 37.5,106.25 H 18.75 c -6.9,0 -12.5,-5.6 -12.5,-12.5 v -75 c 0,-6.9 5.6,-12.5 12.5,-12.5 h 162.5 c 6.9,0 12.5,5.6 12.5,12.5 v 75 c 0,6.9 -5.6,12.5 -12.5,12.5 H 162.5"></path>
</svg>
