<?xml version="1.0" encoding="UTF-8" standalone="no"?>
<svg xmlns:dc="http://purl.org/dc/elements/1.1/" xmlns:cc="http://creativecommons.org/ns#" xmlns:rdf="http://www.w3.org/1999/02/22-rdf-syntax-ns#" xmlns:svg="http://www.w3.org/2000/svg" xmlns="http://www.w3.org/2000/svg" xmlns:sodipodi="http://sodipodi.sourceforge.net/DTD/sodipodi-0.dtd" xmlns:inkscape="http://www.inkscape.org/namespaces/inkscape" sodipodi:docname="kh_neu.svg" inkscape:version="1.0 (4035a4fb49, 2020-05-01)" id="svg8" version="1.1" viewBox="0 0 529.16665 299.77293" height="1133" width="2000">
  <defs id="defs2"></defs>
  <metadata id="metadata5"></metadata>
  <g id="layer1" inkscape:groupmode="layer" inkscape:label="Ebene 1">
    <g transform="matrix(2.6826338,0,0,2.6826338,-107.30535,-124.94937)" id="g276" style="fill:#24195d;fill-opacity:1">
      <path class="st0" d="m 154.7,135.1 c 0.1,-0.4 0.2,-0.9 0.2,-1.4 V 83.8 c 0,-2.4 -1.9,-4.3 -4.3,-4.3 h -23.8 v 53.1 c 0,0.9 -0.2,1.7 -0.4,2.4 h -2.8 c 0.1,-0.4 0.2,-0.9 0.2,-1.4 V 65.2 c 0,-2.4 -1.9,-4.3 -4.3,-4.3 H 82.1 c -2.4,0 -4.3,1.9 -4.3,4.3 v 68.5 c 0,0.5 0.1,0.9 0.2,1.4 h -2.8 c -0.3,-0.8 -0.4,-1.6 -0.4,-2.4 V 79.5 H 51.5 c -2.4,0 -4.3,1.9 -4.3,4.3 v 49.9 c 0,0.5 0.1,0.9 0.2,1.4 H 40 v 8.9 h 121.3 v -8.9 z M 60.1,117.6 H 54 v -6.1 h 6.1 z m 0,-10.8 H 54 v -6.1 h 6.1 z m 0,-10.4 H 54 v -6.1 h 6.1 z m 9.6,21.2 h -6.1 v -6.1 h 6.1 z m 0,-10.8 h -6.1 v -6.1 h 6.1 z m 0,-10.4 h -6.1 v -6.1 h 6.1 z m 40.6,38.4 h -18 v -22.5 h 18 z m -9.5,-36.4 c -8.3,0 -15.1,-6.8 -15.1,-15.1 0,-8.3 6.8,-15.1 15.1,-15.1 8.3,0 15.1,6.8 15.1,15.1 0,8.3 -6.8,15.1 -15.1,15.1 z m 39,19.2 h -6.1 v -6.1 h 6.1 z m 0,-10.8 h -6.1 v -6.1 h 6.1 z m 0,-10.4 h -6.1 v -6.1 h 6.1 z m 9.5,21.2 h -6.1 v -6.1 h 6.1 z m 0,-10.8 h -6.1 v -6.1 h 6.1 z m 0,-10.4 h -6.1 v -6.1 h 6.1 z M 104.5,79.6 h 5.8 v 7.5 h -5.8 v 5.8 H 97 V 87.1 H 91.2 V 79.6 H 97 v -5.8 h 7.5 z m 0,-1.4" id="path274" style="fill:#24195d;fill-opacity:1"></path>
    </g>
  </g>
  <style type="text/css" id="style10">
	.st0{fill:#003D7C;}
</style>
  <style type="text/css" id="style56">
	.st0{fill:#003D7C;}
</style>
  <style type="text/css" id="style72">
	.st0{fill:#A31747;}
	.st1{fill:#003D7C;}
</style>
  <style type="text/css" id="style123">
	.st0{fill:#A31747;}
	.st1{fill:#003D7C;}
</style>
  <style type="text/css" id="style10-9">
	.st0{fill:#003D7C;}
</style>
  <style type="text/css" id="style56-3">
	.st0{fill:#003D7C;}
</style>
  <style type="text/css" id="style72-4">
	.st0{fill:#A31747;}
	.st1{fill:#003D7C;}
</style>
  <style type="text/css" id="style123-3">
	.st0{fill:#A31747;}
	.st1{fill:#003D7C;}
</style>
  <style type="text/css" id="style153">
	.st0{fill:#003D7C;}
</style>
  <style type="text/css" id="style166">
	.st0{fill:#A31747;}
	.st1{fill:#003D7C;}
	.st2{fill:#FFFFFF;}
</style>
  <style type="text/css" id="style205">
	.st0{fill:#003D7C;}
</style>
  <style type="text/css" id="style221">
	.st0{fill:#A31747;}
	.st1{fill:#003D7C;}
	.st2{fill:#E7E7E8;}
</style>
  <style type="text/css" id="style272">
	.st0{fill:#003D7C;}
</style>
  <style type="text/css" id="style288">
	.st0{fill:#003D7C;}
</style>
  <style type="text/css" id="style307">
	.st0{fill:#003D7C;}
	.st1{fill:none;stroke:#FFFFFF;stroke-width:4.6275;stroke-miterlimit:10;}
	.st2{fill:#FFFFFF;}
</style>
  <style type="text/css" id="style353">
	.st0{fill:#003D7C;}
</style>
  <style type="text/css" id="style377">
	.st0{fill:#003D7C;}
	.st1{fill:#003D7C;stroke:#FFFFFF;stroke-width:5.1045;stroke-linecap:round;stroke-linejoin:round;stroke-miterlimit:10;}
</style>
  <style type="text/css" id="style411">
	.st0{fill:#003D7C;}
</style>
</svg>
