<?xml version="1.0" encoding="UTF-8"?>
<svg xmlns="http://www.w3.org/2000/svg" viewBox="0 0 200 200">
  <g transform="matrix(8.333333333333334,0,0,8.333333333333334,0,0)">
    <path d="M13,22.906a16.989,16.989,0,0,1,8.856-3.89,1.6,1.6,0,0,0,1.391-1.587V2.365a1.613,1.613,0,0,0-1.835-1.6A17.077,17.077,0,0,0,13,4.6,1.636,1.636,0,0,1,11,4.6,17.077,17.077,0,0,0,2.585.767,1.613,1.613,0,0,0,.75,2.365V17.429a1.6,1.6,0,0,0,1.391,1.587A16.989,16.989,0,0,1,11,22.906,1.633,1.633,0,0,0,13,22.906Z" fill="none" stroke="#ffffff" stroke-linecap="round" stroke-linejoin="round" stroke-width="1.5"></path>
    <path d="M12 4.938L12 23.249" fill="none" stroke="#ffffff" stroke-linecap="round" stroke-linejoin="round" stroke-width="1.5"></path>
  </g>
</svg>
