<?xml version="1.0" encoding="UTF-8" standalone="no"?>
<svg xmlns:dc="http://purl.org/dc/elements/1.1/" xmlns:cc="http://creativecommons.org/ns#" xmlns:rdf="http://www.w3.org/1999/02/22-rdf-syntax-ns#" xmlns:svg="http://www.w3.org/2000/svg" xmlns="http://www.w3.org/2000/svg" xmlns:sodipodi="http://sodipodi.sourceforge.net/DTD/sodipodi-0.dtd" xmlns:inkscape="http://www.inkscape.org/namespaces/inkscape" version="1.1" id="Ebene_1" x="0px" y="0px" viewBox="0 0 170.1 170.1" xml:space="preserve" sodipodi:docname="logo-fisch-jsd.svg" width="170.10001" height="170.10001" inkscape:version="0.92.4 (5da689c313, 2019-01-14)"><metadata id="metadata3737"></metadata><defs id="defs3735"></defs>
<style type="text/css" id="style3726">
	.st0{fill:#00BC82;}
</style>

<polygon class="st0" points="85,113.4 56.7,113.4 56.7,85.1 28.4,85.1 28.4,113.4 0,113.4 0,141.8 28.4,141.8 28.4,170.1 56.7,170.1 56.7,141.8 85,141.8 " id="polygon3728" style="fill:#00bc82" transform="matrix(0.61728395,0,0,0.61728395,32.550003,32.550003)"></polygon><path class="st0" d="M 111.31544,120.08087 H 102.55 v -17.46914 h 8.76544 c 4.81481,0 8.76543,-3.950616 8.76543,-8.765431 V 50.080867 H 76.315435 c -4.814815,0 -8.765432,3.888889 -8.765432,8.765432 v 8.765432 H 50.019139 v -8.765432 c 0,-14.506173 11.790123,-26.296296 26.296296,-26.296296 H 137.55 v 61.234568 c 0,14.506169 -11.79012,26.234569 -26.23456,26.296299 z" id="path3730" inkscape:connector-curvature="0" style="fill:#00bc82;stroke-width:0.61728394"></path>
</svg>
