<?xml version="1.0" encoding="UTF-8" standalone="no"?>
<svg xmlns:dc="http://purl.org/dc/elements/1.1/" xmlns:cc="http://creativecommons.org/ns#" xmlns:rdf="http://www.w3.org/1999/02/22-rdf-syntax-ns#" xmlns:svg="http://www.w3.org/2000/svg" xmlns="http://www.w3.org/2000/svg" xmlns:xlink="http://www.w3.org/1999/xlink" xmlns:sodipodi="http://sodipodi.sourceforge.net/DTD/sodipodi-0.dtd" xmlns:inkscape="http://www.inkscape.org/namespaces/inkscape" inkscape:version="1.0 (4035a4fb49, 2020-05-01)" sodipodi:docname="logo-blau-jsd.svg.svg" inkscape:export-ydpi="96" inkscape:export-xdpi="96" inkscape:export-filename="C:\Users\ailee\gelb.png" id="svg8" version="1.1" viewBox="0 0 200.09599 46.265" height="46.264999mm" width="200.09599mm">
  <defs id="defs2">
    <filter id="b">
      <feGaussianBlur stdDeviation=".53036" id="feGaussianBlur262"></feGaussianBlur>
    </filter>
    <linearGradient id="a">
      <stop stop-color="#fff" offset="0" id="stop265"></stop>
      <stop stop-color="#fff" stop-opacity="0" offset="1" id="stop267"></stop>
    </linearGradient>
    <linearGradient id="e" x1="275.60999" x2="342" y1="300.85999" y2="391.45001" gradientUnits="userSpaceOnUse">
      <stop stop-color="#500" offset="0" id="stop270"></stop>
      <stop stop-color="#f00" offset="1" id="stop272"></stop>
    </linearGradient>
    <linearGradient id="f" x1="241.41" x2="315.47" y1="287.48999" y2="367.88" gradientUnits="userSpaceOnUse" xlink:href="#a"></linearGradient>
    <linearGradient id="d" x1="159.02" x2="201.96001" y1="746.53998" y2="796.35999" gradientUnits="userSpaceOnUse" xlink:href="#a"></linearGradient>
    <radialGradient id="c" cx="312.78" cy="386.57001" r="53.035999" gradientTransform="matrix(-0.59327,-0.59327,0.71505,-0.71505,243.27,849.03)" gradientUnits="userSpaceOnUse">
      <stop stop-color="#fff" stop-opacity=".40816" offset="0" id="stop277"></stop>
      <stop stop-color="#fff" stop-opacity="0" offset="1" id="stop279"></stop>
    </radialGradient>
    <filter id="b-9">
      <feGaussianBlur stdDeviation=".53036" id="feGaussianBlur327"></feGaussianBlur>
    </filter>
    <linearGradient id="e-9" x1="275.60999" x2="342" y1="300.85999" y2="391.45001" gradientUnits="userSpaceOnUse">
      <stop stop-color="#112b00" offset="0" id="stop335"></stop>
      <stop stop-color="#6f0" offset="1" id="stop337"></stop>
    </linearGradient>
    <linearGradient id="f-1" x1="241.41" x2="315.47" y1="287.48999" y2="367.88" gradientUnits="userSpaceOnUse" xlink:href="#a"></linearGradient>
    <linearGradient id="d-0" x1="299.01999" x2="341.95999" y1="866.53998" y2="916.35999" gradientUnits="userSpaceOnUse" xlink:href="#a"></linearGradient>
    <radialGradient id="c-2" cx="312.78" cy="386.57001" r="53.035999" gradientTransform="matrix(-0.59327,-0.59327,0.71505,-0.71505,243.27,849.03)" gradientUnits="userSpaceOnUse">
      <stop stop-color="#fff" stop-opacity=".40816" offset="0" id="stop342"></stop>
      <stop stop-color="#fff" stop-opacity="0" offset="1" id="stop344"></stop>
    </radialGradient>
    <filter id="b-3">
      <feGaussianBlur stdDeviation=".53036" id="feGaussianBlur389"></feGaussianBlur>
    </filter>
    <linearGradient id="e-7" x1="275.60999" x2="342" y1="300.85999" y2="391.45001" gradientUnits="userSpaceOnUse">
      <stop stop-color="#806600" offset="0" id="stop397"></stop>
      <stop stop-color="#fc0" offset="1" id="stop399"></stop>
    </linearGradient>
    <linearGradient id="d-7" x1="159.02" x2="201.96001" y1="866.53998" y2="916.35999" gradientUnits="userSpaceOnUse" xlink:href="#a"></linearGradient>
    <radialGradient id="c-6" cx="312.78" cy="386.57001" r="53.035999" gradientTransform="matrix(-0.59327,-0.59327,0.71505,-0.71505,243.27,849.03)" gradientUnits="userSpaceOnUse">
      <stop stop-color="#fff" stop-opacity=".40816" offset="0" id="stop404"></stop>
      <stop stop-color="#fff" stop-opacity="0" offset="1" id="stop406"></stop>
    </radialGradient>
    <linearGradient y2="367.88" x2="315.47" y1="287.48999" x1="241.41" gradientUnits="userSpaceOnUse" id="linearGradient450" xlink:href="#a" inkscape:collect="always"></linearGradient>
    <style id="style452">.cls-1{fill:#24195d;}.cls-2{fill:#00bc82;}</style>
  </defs>
  <metadata id="metadata5"></metadata>
  <g id="layer1" inkscape:groupmode="layer" inkscape:label="Ebene 1">
    <g transform="matrix(1.8768524,0,0,1.8768524,61.890888,-1618.7717)" id="g298">
      <path transform="matrix(0.97354,0,0,0.97354,-100.92,445.99)" d="m 356.79,346.11 c 0,29.291 -23.745,53.036 -53.036,53.036 -29.291,0 -53.036,-23.745 -53.036,-53.036 0,-29.291 23.745,-53.036 53.036,-53.036 29.291,0 53.036,23.745 53.036,53.036 z" fill="#999999" id="path284"></path>
      <path style="fill:url(#f)" transform="matrix(0.9596,0,0,0.9596,-96.687,450.82)" d="m 356.79,346.11 c 0,29.291 -23.745,53.036 -53.036,53.036 -29.291,0 -53.036,-23.745 -53.036,-53.036 0,-29.291 23.745,-53.036 53.036,-53.036 29.291,0 53.036,23.745 53.036,53.036 z" fill="url(#f)" id="path286"></path>
      <path transform="matrix(0.87355,0,0,0.87355,-70.55,480.6)" d="m 356.79,346.11 c 0,29.291 -23.745,53.036 -53.036,53.036 -29.291,0 -53.036,-23.745 -53.036,-53.036 0,-29.291 23.745,-53.036 53.036,-53.036 29.291,0 53.036,23.745 53.036,53.036 z" fill="#ececec" filter="url(#b)" id="path288"></path>
      <path transform="matrix(0.83838,0,0,0.83838,-59.869,492.77)" d="m 356.79,346.11 c 0,29.291 -23.745,53.036 -53.036,53.036 -29.291,0 -53.036,-23.745 -53.036,-53.036 0,-29.291 23.745,-53.036 53.036,-53.036 29.291,0 53.036,23.745 53.036,53.036 z" fill="#999999" filter="url(#b)" id="path290"></path>
      <path style="fill:url(#e)" transform="matrix(0.80587,0,0,0.80587,-49.992,504.02)" d="m 356.79,346.11 c 0,29.291 -23.745,53.036 -53.036,53.036 -29.291,0 -53.036,-23.745 -53.036,-53.036 0,-29.291 23.745,-53.036 53.036,-53.036 29.291,0 53.036,23.745 53.036,53.036 z" fill="url(#e)" id="path292"></path>
      <path style="fill:url(#c)" transform="matrix(0.75825,0,0,0.75825,-34.266,522.52)" d="m 356.79,346.11 c 0,29.291 -23.745,53.036 -53.036,53.036 -29.291,0 -53.036,-23.745 -53.036,-53.036 0,-29.291 23.745,-53.036 53.036,-53.036 29.291,0 53.036,23.745 53.036,53.036 z" fill="url(#c)" id="path294"></path>
      <path style="fill:url(#d)" d="m 193.79,742.76 c -13.331,0.30069 -26.186,7.358 -33.336,19.742 -7.6903,13.32 -6.7139,29.266 1.1545,41.331 0.85306,-26.532 21.132,-46.515 46.324,-45.054 8.2589,0.47907 16.054,3.2001 22.859,7.5908 -3.2578,-7.4498 -8.8171,-13.953 -16.394,-18.327 -6.4867,-3.7451 -13.625,-5.4393 -20.608,-5.2818 z" fill="url(#d)" opacity="0.31771" id="path296"></path>
    </g>
    <g transform="matrix(1.8816669,0,0,1.8816669,-857.42089,-1876.4644)" id="g363">
      <path transform="matrix(0.97354,0,0,0.97354,39.077,565.99)" d="m 356.79,346.11 c 0,29.291 -23.745,53.036 -53.036,53.036 -29.291,0 -53.036,-23.745 -53.036,-53.036 0,-29.291 23.745,-53.036 53.036,-53.036 29.291,0 53.036,23.745 53.036,53.036 z" fill="#999999" id="path349"></path>
      <path transform="matrix(0.9596,0,0,0.9596,43.313,570.82)" d="m 356.79,346.11 c 0,29.291 -23.745,53.036 -53.036,53.036 -29.291,0 -53.036,-23.745 -53.036,-53.036 0,-29.291 23.745,-53.036 53.036,-53.036 29.291,0 53.036,23.745 53.036,53.036 z" fill="url(#f)" id="path351" style="fill:url(#linearGradient450)"></path>
      <path transform="matrix(0.87355,0,0,0.87355,69.45,600.6)" d="m 356.79,346.11 c 0,29.291 -23.745,53.036 -53.036,53.036 -29.291,0 -53.036,-23.745 -53.036,-53.036 0,-29.291 23.745,-53.036 53.036,-53.036 29.291,0 53.036,23.745 53.036,53.036 z" fill="#ececec" filter="url(#b)" id="path353" style="filter:url(#b-9)"></path>
      <path transform="matrix(0.83838,0,0,0.83838,80.131,612.77)" d="m 356.79,346.11 c 0,29.291 -23.745,53.036 -53.036,53.036 -29.291,0 -53.036,-23.745 -53.036,-53.036 0,-29.291 23.745,-53.036 53.036,-53.036 29.291,0 53.036,23.745 53.036,53.036 z" fill="#999999" filter="url(#b)" id="path355" style="filter:url(#b-9)"></path>
      <path transform="matrix(0.80587,0,0,0.80587,90.008,624.02)" d="m 356.79,346.11 c 0,29.291 -23.745,53.036 -53.036,53.036 -29.291,0 -53.036,-23.745 -53.036,-53.036 0,-29.291 23.745,-53.036 53.036,-53.036 29.291,0 53.036,23.745 53.036,53.036 z" fill="url(#e)" id="path357" style="fill:url(#e-9)"></path>
      <path transform="matrix(0.75825,0,0,0.75825,105.73,642.52)" d="m 356.79,346.11 c 0,29.291 -23.745,53.036 -53.036,53.036 -29.291,0 -53.036,-23.745 -53.036,-53.036 0,-29.291 23.745,-53.036 53.036,-53.036 29.291,0 53.036,23.745 53.036,53.036 z" fill="url(#c)" id="path359" style="fill:url(#c-2)"></path>
      <path d="m 333.79,862.76 c -13.331,0.30069 -26.186,7.358 -33.336,19.742 -7.6903,13.32 -6.7139,29.266 1.1545,41.331 0.85306,-26.532 21.132,-46.515 46.324,-45.054 8.2589,0.47907 16.054,3.2001 22.859,7.5908 -3.2578,-7.4498 -8.8171,-13.953 -16.394,-18.327 -6.4867,-3.7451 -13.625,-5.4393 -20.608,-5.2818 z" fill="url(#d)" opacity="0.31771" id="path361" style="fill:url(#d-0)"></path>
    </g>
    <g transform="matrix(1.8816669,0,0,1.8816669,-596.72592,-1600.574)" id="g425">
      <path transform="matrix(0.97354,0,0,0.97354,-100.92,565.99)" d="m 356.79,346.11 c 0,29.291 -23.745,53.036 -53.036,53.036 -29.291,0 -53.036,-23.745 -53.036,-53.036 0,-29.291 23.745,-53.036 53.036,-53.036 29.291,0 53.036,23.745 53.036,53.036 z" fill="#999999" id="path411"></path>
      <path transform="matrix(0.9596,0,0,0.9596,-96.687,570.82)" d="m 356.79,346.11 c 0,29.291 -23.745,53.036 -53.036,53.036 -29.291,0 -53.036,-23.745 -53.036,-53.036 0,-29.291 23.745,-53.036 53.036,-53.036 29.291,0 53.036,23.745 53.036,53.036 z" fill="url(#f)" id="path413" style="fill:url(#f-1)"></path>
      <path transform="matrix(0.87355,0,0,0.87355,-70.55,600.6)" d="m 356.79,346.11 c 0,29.291 -23.745,53.036 -53.036,53.036 -29.291,0 -53.036,-23.745 -53.036,-53.036 0,-29.291 23.745,-53.036 53.036,-53.036 29.291,0 53.036,23.745 53.036,53.036 z" fill="#ececec" filter="url(#b)" id="path415" style="filter:url(#b-3)"></path>
      <path transform="matrix(0.83838,0,0,0.83838,-59.869,612.77)" d="m 356.79,346.11 c 0,29.291 -23.745,53.036 -53.036,53.036 -29.291,0 -53.036,-23.745 -53.036,-53.036 0,-29.291 23.745,-53.036 53.036,-53.036 29.291,0 53.036,23.745 53.036,53.036 z" fill="#999999" filter="url(#b)" id="path417" style="filter:url(#b-3)"></path>
      <path transform="matrix(0.80587,0,0,0.80587,-49.992,624.02)" d="m 356.79,346.11 c 0,29.291 -23.745,53.036 -53.036,53.036 -29.291,0 -53.036,-23.745 -53.036,-53.036 0,-29.291 23.745,-53.036 53.036,-53.036 29.291,0 53.036,23.745 53.036,53.036 z" fill="url(#e)" id="path419" style="fill:url(#e-7)"></path>
      <path transform="matrix(0.75825,0,0,0.75825,-34.266,642.52)" d="m 356.79,346.11 c 0,29.291 -23.745,53.036 -53.036,53.036 -29.291,0 -53.036,-23.745 -53.036,-53.036 0,-29.291 23.745,-53.036 53.036,-53.036 29.291,0 53.036,23.745 53.036,53.036 z" fill="url(#c)" id="path421" style="fill:url(#c-6)"></path>
      <path d="m 193.79,862.76 c -13.331,0.30069 -26.186,7.358 -33.336,19.742 -7.6903,13.32 -6.7139,29.266 1.1545,41.331 0.85306,-26.532 21.132,-46.515 46.324,-45.054 8.2589,0.47907 16.054,3.2001 22.859,7.5908 -3.2578,-7.4498 -8.8171,-13.953 -16.394,-18.327 -6.4867,-3.7451 -13.625,-5.4393 -20.608,-5.2818 z" fill="url(#d)" opacity="0.31771" id="path423" style="fill:url(#d-7)"></path>
    </g>
    <g transform="translate(-0.05011303,0.45101735)" id="g636">
      <rect y="-0.44629899" x="0.038688991" class="cls-1" width="200.09579" height="46.265419" id="rect458" style="stroke-width:0.182057"></rect>
      <polygon class="cls-2" points="113.39,170.08 85.04,170.08 85.04,198.43 56.69,198.43 56.69,226.77 85.04,226.77 85.04,255.12 113.39,255.12 113.39,226.77 141.73,226.77 141.73,198.43 113.39,198.43 " id="polygon460" transform="matrix(0.26458333,0,0,0.26458333,-14.612674,-22.128523)"></polygon>
      <path class="cls-2" d="m 34.136804,37.871039 h -3.749145 v -7.498292 h 3.749145 a 3.7544375,3.7544375 0 0 0 3.751792,-3.751791 V 7.872581 H 19.137575 a 3.7517916,3.7517916 0 0 0 -3.749145,3.749146 v 3.749145 H 7.876909 V 11.621727 A 11.260667,11.260667 0 0 1 19.137575,0.36106 H 45.386888 V 26.610372 A 11.260667,11.260667 0 0 1 34.136804,37.871039 Z" id="path462" style="stroke-width:0.264583"></path>
      <path class="cls-2" d="m 52.887825,17.712435 v -3.929063 a 5.0773541,5.0773541 0 0 0 0.883708,0.07408 c 1.547813,0 2.061105,-0.590021 2.061105,-2.333625 V 0.36106 h 4.444999 v 11.961812 c 0,3.683 -1.5875,5.476875 -5.598583,5.476875 a 15.08125,15.08125 0 0 1 -1.791229,-0.08731 z" id="path464" style="stroke-width:0.264583"></path>
      <path class="cls-2" d="M 62.14295,14.61681 A 7.3395416,7.3395416 0 0 1 61.555575,11.571456 7.2204791,7.2204791 0 0 1 62.14295,8.563143 c 0.98425,-2.161646 3.119437,-3.463396 6.138333,-3.463396 3.018896,0 5.156729,1.277938 6.114521,3.439584 a 6.9347291,6.9347291 0 0 1 0.613833,3.042708 6.9770624,6.9770624 0 0 1 -0.613833,3.069167 c -0.957792,2.137833 -3.092979,3.413125 -6.114521,3.413125 -3.021541,0 -5.154083,-1.285875 -6.138333,-3.447521 z m 8.202083,-1.031875 c 0.219604,-0.489479 0.293688,-1.127125 0.293688,-2.013479 0,-0.886354 -0.07408,-1.521354 -0.293688,-1.987021 -0.343958,-0.762 -1.008062,-1.153583 -2.06375,-1.153583 -1.055687,0 -1.717146,0.415395 -2.061104,1.153583 a 5.2916666,5.2916666 0 0 0 -0.296333,1.987021 5.4398333,5.4398333 0 0 0 0.296333,2.013479 c 0.343958,0.738187 1.005417,1.156229 2.061104,1.156229 1.055688,0 1.719792,-0.418042 2.06375,-1.150937 z" id="path466" style="stroke-width:0.264583"></path>
      <path class="cls-2" d="m 88.341996,9.830497 v 7.881938 H 84.24095 v -6.998229 c 0,-1.621896 -0.637646,-2.283354 -1.915584,-2.283354 -1.349375,0 -2.084916,0.79375 -2.084916,2.405062 v 6.879167 H 76.139408 V 0.36106 h 4.101042 v 6.614583 c 0.833437,-1.203854 2.037291,-1.891771 3.757083,-1.891771 2.749023,0.0053 4.344463,1.674813 4.344463,4.746625 z" id="path468" style="stroke-width:0.264583"></path>
      <path class="cls-2" d="m 101.74843,10.663935 v 7.0485 h -4.101044 v -1.449917 c -0.80962,1.129771 -2.0611,1.791229 -4.05077,1.791229 -1.9394,0 -3.38931,-0.685271 -4.00315,-2.061104 a 3.8073541,3.8073541 0 0 1 -0.34395,-1.743604 4.1883541,4.1883541 0 0 1 0.29633,-1.669521 c 0.88371,-1.915583 3.26496,-2.357437 6.26004,-2.357437 h 1.85208 v -0.195792 c 0,-0.738187 -0.0476,-1.008062 -0.19579,-1.322917 q -0.37041,-0.814916 -1.69333,-0.81227 c -0.95779,0 -1.50019,0.246062 -1.7436,0.79375 a 2.1166666,2.1166666 0 0 0 -0.14817,0.738187 h -4.18571 a 4.5614166,4.5614166 0 0 1 0.37042,-1.719792 c 0.80962,-1.791229 2.89718,-2.6035 5.64621,-2.6035 2.97127,0 4.714874,0.79375 5.524504,2.555875 a 7.7390624,7.7390624 0 0 1 0.51593,3.008313 z m -4.320644,3.362854 c 0.17198,-0.341312 0.2196,-0.685271 0.2196,-1.349375 v -0.171979 h -1.57162 c -1.1774,0 -2.13519,0.124354 -2.40507,0.762 a 1.1615208,1.1615208 0 0 0 -0.12435,0.529167 1.2276667,1.2276667 0 0 0 0.12435,0.59002 c 0.24342,0.529167 0.88371,0.735542 1.61925,0.735542 1.10596,0.01058 1.81769,-0.381 2.13784,-1.095375 z" id="path470" style="stroke-width:0.264583"></path>
      <path class="cls-2" d="m 115.37447,9.830497 v 7.881938 h -4.10104 v -6.998229 c 0,-1.621896 -0.63764,-2.283354 -1.91293,-2.283354 -1.35203,0 -2.08757,0.79375 -2.08757,2.405062 v 6.879167 h -4.10104 v -12.2555 h 4.10104 v 1.516062 c 0.83344,-1.203854 2.03729,-1.891771 3.75709,-1.891771 2.74902,0.0053 4.34445,1.674813 4.34445,4.746625 z" id="path472" style="stroke-width:0.264583"></path>
      <path class="cls-2" d="m 129.12487,9.830497 v 7.881938 h -4.10104 v -6.998229 c 0,-1.621896 -0.63765,-2.283354 -1.91559,-2.283354 -1.34937,0 -2.08756,0.79375 -2.08756,2.405062 v 6.879167 h -4.09839 v -12.2555 h 4.09839 v 1.516062 c 0.83609,-1.203854 2.03994,-1.891771 3.75709,-1.891771 2.75166,0.0053 4.3471,1.674813 4.3471,4.746625 z" id="path474" style="stroke-width:0.264583"></path>
      <path class="cls-2" d="m 139.0441,13.590227 h 4.14867 a 4.2333333,4.2333333 0 0 1 -1.39965,2.873374 c -1.20121,1.105959 -2.97127,1.5875 -4.91067,1.5875 -3.01889,0 -5.25462,-1.201208 -6.23623,-3.386666 a 7.6226457,7.6226457 0 0 1 -0.59002,-3.119438 6.9955832,6.9955832 0 0 1 0.59002,-3.069166 c 0.9578,-2.135188 3.06917,-3.389313 5.96636,-3.389313 2.94746,0 5.05883,1.30175 6.04044,3.439584 0.52916,1.201208 0.63764,2.283354 0.63764,4.05077 h -9.08314 a 3.7359166,3.7359166 0 0 0 0.29368,1.30175 c 0.34396,0.79375 1.12977,1.177396 2.30717,1.177396 a 2.6061458,2.6061458 0 0 0 1.71979,-0.529167 1.55575,1.55575 0 0 0 0.51594,-0.936624 z m -4.5429,-4.39473 a 3.0294791,3.0294791 0 0 0 -0.26458,1.058334 h 4.87362 a 2.4632708,2.4632708 0 0 0 -0.24606,-1.058334 c -0.36777,-0.809625 -1.10596,-1.201208 -2.18546,-1.201208 -1.0795,0 -1.80181,0.386292 -2.17752,1.195917 z" id="path476" style="stroke-width:0.264583"></path>
      <path class="cls-2" d="m 144.27227,15.672497 a 4.7095833,4.7095833 0 0 1 -0.39159,-1.98702 h 4.02696 a 2.159,2.159 0 0 0 0.17198,0.955145 c 0.24606,0.542396 0.71173,0.79375 1.44727,0.79375 0.64029,0 1.10596,-0.195791 1.27794,-0.587375 a 1.000125,1.000125 0 0 0 0.0979,-0.468312 0.83872916,0.83872916 0 0 0 -0.0979,-0.441854 c -0.29369,-0.661459 -1.27794,-0.85725 -2.6035,-1.201209 -1.42346,-0.370416 -2.97127,-0.933979 -3.60892,-2.333625 a 3.4739791,3.4739791 0 0 1 -0.26458,-1.399645 3.683,3.683 0 0 1 0.32014,-1.5875 c 0.68527,-1.547813 2.57705,-2.309813 4.88421,-2.309813 2.30717,0 4.1275,0.687917 4.83923,2.259542 a 4.1513124,4.1513124 0 0 1 0.34396,1.719791 h -3.88673 a 2.0505208,2.0505208 0 0 0 -0.14552,-0.836083 c -0.22225,-0.441854 -0.64029,-0.661458 -1.22767,-0.661458 -0.58737,0 -0.95779,0.195791 -1.10596,0.529166 a 1.0795,1.0795 0 0 0 -0.0741,0.391584 0.92074999,0.92074999 0 0 0 0.0741,0.394229 c 0.32015,0.661458 1.49755,0.931333 2.67759,1.227667 1.69333,0.441854 3.24114,1.029229 3.87879,2.428875 a 3.3416875,3.3416875 0 0 1 0.26458,1.449916 3.9899166,3.9899166 0 0 1 -0.32014,1.693333 c -0.79375,1.719792 -2.87073,2.481792 -5.37634,2.481792 -2.57439,-0.0291 -4.46352,-0.841375 -5.2017,-2.510896 z" id="path478" style="stroke-width:0.264583"></path>
      <path class="cls-2" d="m 156.15735,15.672497 a 4.7095833,4.7095833 0 0 1 -0.39423,-1.98702 h 4.02696 a 2.159,2.159 0 0 0 0.17198,0.955145 c 0.24606,0.542396 0.71173,0.79375 1.44991,0.79375 0.63765,0 1.10332,-0.195791 1.2753,-0.587375 a 1.0027708,1.0027708 0 0 0 0.10054,-0.468312 0.84137499,0.84137499 0 0 0 -0.10054,-0.441854 c -0.29369,-0.661459 -1.2753,-0.85725 -2.60086,-1.201209 -1.4261,-0.370416 -2.97127,-0.933979 -3.60892,-2.333625 a 3.4713333,3.4713333 0 0 1 -0.26458,-1.399645 3.7200416,3.7200416 0 0 1 0.32015,-1.5875 c 0.68791,-1.547813 2.57968,-2.309813 4.88685,-2.309813 2.30717,0 4.12486,0.687917 4.83658,2.259542 a 4.1089791,4.1089791 0 0 1 0.34396,1.719791 h -3.88673 a 2.047875,2.047875 0 0 0 -0.14816,-0.836083 c -0.21961,-0.441854 -0.63765,-0.661458 -1.22767,-0.661458 -0.59002,0 -0.95779,0.195791 -1.10596,0.529166 a 1.1350625,1.1350625 0 0 0 -0.0714,0.391584 0.96308332,0.96308332 0 0 0 0.0714,0.394229 c 0.32015,0.661458 1.50019,0.931333 2.67759,1.227667 1.69333,0.441854 3.24114,1.029229 3.87879,2.428875 a 3.302,3.302 0 0 1 0.26458,1.449916 4.0322499,4.0322499 0 0 1 -0.3175,1.693333 c -0.79375,1.719792 -2.87337,2.481792 -5.37898,2.481792 -2.57175,-0.0291 -4.46352,-0.841375 -5.19906,-2.510896 z" id="path480" style="stroke-width:0.264583"></path>
      <path class="cls-2" d="M 168.8256,13.733102 V 8.650456 h -1.64571 V 5.459581 h 1.64571 V 2.549164 h 4.10104 v 2.910417 h 2.87338 v 3.190875 h -2.87338 v 4.370916 c 0,1.227667 0.46567,1.645709 1.49754,1.645709 a 5.1514374,5.1514374 0 0 0 1.27794,-0.17198 v 3.175 a 14.00175,14.00175 0 0 1 -2.7014,0.264584 c -2.921,-0.0026 -4.17512,-1.132417 -4.17512,-4.201583 z" id="path482" style="stroke-width:0.264583"></path>
      <path class="cls-2" d="m 176.97741,2.144352 c 0,-1.180042 0.91017,-2.037292 2.16165,-2.037292 1.25148,0 2.16164,0.85725 2.16164,2.037292 0,1.180041 -0.91016,2.037291 -2.16164,2.037291 -1.25148,0 -2.16165,-0.859896 -2.16165,-2.037291 z m 0.0979,3.315229 h 4.10368 v 12.252854 h -4.10104 z" id="path484" style="stroke-width:0.264583"></path>
      <path class="cls-2" d="m 183.84335,8.650456 h -1.49754 V 5.459581 h 1.49754 V 4.353622 c 0,-3.069166 1.44991,-4.418541 4.93712,-4.418541 a 9.300104,9.300104 0 0 1 1.96321,0.219604 v 3.241146 a 3.2411458,3.2411458 0 0 0 -1.20385,-0.195792 c -1.05834,0 -1.5875,0.529167 -1.5875,1.547813 v 0.711729 h 2.72521 v 3.190875 h -2.72521 v 9.061979 h -4.10104 z" id="path486" style="stroke-width:0.264583"></path>
      <path class="cls-2" d="M 192.91326,13.733102 V 8.650456 h -1.6457 V 5.459581 h 1.6457 V 2.549164 h 4.10105 v 2.910417 h 2.87337 v 3.190875 h -2.87337 v 4.370916 c 0,1.227667 0.46566,1.645709 1.49754,1.645709 a 5.1673124,5.1673124 0 0 0 1.27794,-0.17198 v 3.175 a 14.00175,14.00175 0 0 1 -2.7014,0.264584 c -2.921,-0.0026 -4.17513,-1.132417 -4.17513,-4.201583 z" id="path488" style="stroke-width:0.264583"></path>
      <path class="cls-2" d="m 52.887825,20.535539 h 7.315729 c 3.854979,0 6.458479,1.571625 7.672917,4.273021 0.563562,1.203854 0.809625,2.6035 0.809625,4.394729 0,1.791229 -0.246063,3.193521 -0.809625,4.397375 -1.203854,2.69875 -3.807354,4.270375 -7.672917,4.270375 h -7.315729 z m 6.614583,13.554604 c 2.137834,0 3.389313,-0.762 4.003146,-2.135188 0.3175,-0.711729 0.441854,-1.547812 0.441854,-2.751666 0,-1.203854 -0.124354,-2.061104 -0.441854,-2.772833 -0.637646,-1.375834 -1.852083,-2.116667 -4.003146,-2.116667 h -2.161646 v 9.771062 z" id="path490" style="stroke-width:0.264583"></path>
      <path class="cls-2" d="m 69.950804,22.302956 c 0,-1.177396 0.910167,-2.037292 2.161646,-2.037292 1.251479,0 2.161646,0.859896 2.161646,2.037292 0,1.177395 -0.910167,2.039937 -2.161646,2.039937 -1.251479,0 -2.161646,-0.859896 -2.161646,-2.039937 z m 0.0979,3.315229 h 4.101041 v 12.252854 h -4.095749 z" id="path492" style="stroke-width:0.264583"></path>
      <path class="cls-2" d="m 87.751966,30.825185 v 7.045854 h -4.098391 v -1.447271 c -0.812271,1.129771 -2.06375,1.791229 -4.053417,1.791229 -1.939396,0 -3.386667,-0.687917 -4.0005,-2.061104 A 3.8073541,3.8073541 0 0 1 75.2557,34.410289 4.2333333,4.2333333 0 0 1 75.549387,32.740768 c 0.883709,-1.915583 3.264959,-2.357438 6.262688,-2.357438 h 1.852083 v -0.198437 c 0,-0.735542 -0.05027,-1.005417 -0.198438,-1.322917 -0.243416,-0.529166 -0.809624,-0.809625 -1.693333,-0.809625 -0.957791,0 -1.497541,0.246063 -1.743604,0.79375 a 2.238375,2.238375 0 0 0 -0.148167,0.735542 h -4.183062 a 4.4979166,4.4979166 0 0 1 0.367771,-1.717146 c 0.809625,-1.793875 2.897187,-2.6035 5.646208,-2.6035 2.971271,0 4.714873,0.79375 5.527143,2.553229 a 7.8131457,7.8131457 0 0 1 0.51329,3.010959 z m -4.320641,3.362854 c 0.171979,-0.343959 0.22225,-0.687917 0.22225,-1.349375 V 32.666685 H 82.08195 c -1.180042,0 -2.137834,0.121708 -2.407709,0.759354 a 1.17475,1.17475 0 0 0 -0.121708,0.542396 1.2091458,1.2091458 0 0 0 0.121708,0.587375 c 0.246063,0.529166 0.883709,0.738187 1.621896,0.738187 1.103313,-0.0079 1.815042,-0.394229 2.135188,-1.105958 z" id="path494" style="stroke-width:0.264583"></path>
      <path class="cls-2" d="m 97.229346,37.871039 -3.80471,-5.106459 v 5.106459 h -4.10104 v -17.3355 h 4.10104 v 9.085791 l 3.41313,-4.003145 h 5.082644 l -4.937124,5.5245 5.476874,6.728354 z" id="path496" style="stroke-width:0.264583"></path>
      <path class="cls-2" d="m 102.06858,34.77806 a 7.3395416,7.3395416 0 0 1 -0.59002,-3.045355 7.2204791,7.2204791 0 0 1 0.59002,-3.018895 c 0.9816,-2.161646 3.11944,-3.463396 6.13833,-3.463396 3.0189,0 5.15673,1.277937 6.11452,3.439583 a 7.9216249,7.9216249 0 0 1 0,6.114521 c -0.95779,2.137833 -3.09298,3.413125 -6.11452,3.413125 -3.02154,0 -5.15937,-1.277938 -6.13833,-3.439583 z m 8.20208,-1.031875 c 0.21961,-0.48948 0.29369,-1.129771 0.29369,-2.01348 0,-0.883708 -0.0741,-1.521354 -0.29369,-1.989666 -0.34396,-0.759354 -1.00806,-1.153584 -2.06375,-1.153584 -1.05569,0 -1.71714,0.418042 -2.0611,1.153584 a 5.2652083,5.2652083 0 0 0 -0.29634,1.989666 5.3948541,5.3948541 0 0 0 0.29634,2.01348 c 0.34396,0.738187 1.00541,1.153583 2.0611,1.153583 1.05569,0 1.71715,-0.407458 2.06375,-1.153583 z" id="path498" style="stroke-width:0.264583"></path>
      <path class="cls-2" d="m 128.19089,29.994393 v 7.881937 h -4.0984 v -7.00352 c 0,-1.61925 -0.64029,-2.283355 -1.91558,-2.283355 -1.35202,0 -2.08756,0.79375 -2.08756,2.407709 v 6.879166 h -4.10104 V 25.618185 h 4.10104 v 1.524 c 0.83344,-1.203854 2.03729,-1.891771 3.75708,-1.891771 2.74902,0 4.34446,1.669521 4.34446,4.743979 z" id="path500" style="stroke-width:0.264583"></path>
      <path class="cls-2" d="m 129.58524,22.302956 c 0,-1.177396 0.90753,-2.037292 2.16165,-2.037292 1.25413,0 2.159,0.859896 2.159,2.037292 0,1.177395 -0.90752,2.039937 -2.159,2.039937 -1.25148,0 -2.16165,-0.859896 -2.16165,-2.039937 z m 0.0979,3.315229 h 4.10104 v 12.252854 h -4.10104 z" id="path502" style="stroke-width:0.264583"></path>
      <path class="cls-2" d="m 143.95477,33.746185 h 4.15131 a 4.2333333,4.2333333 0 0 1 -1.40229,2.862791 c -1.20121,1.105959 -2.97127,1.5875 -4.91067,1.5875 -3.0189,0 -5.25463,-1.203854 -6.23623,-3.389312 a 7.5644374,7.5644374 0 0 1 -0.59002,-3.116792 6.9585416,6.9585416 0 0 1 0.59002,-3.069167 c 0.95779,-2.137833 3.06917,-3.389312 5.96635,-3.389312 2.94746,0 5.05884,1.30175 6.04044,3.439583 0.52917,1.203854 0.63765,2.283354 0.63765,4.053417 h -9.09109 a 3.7359166,3.7359166 0 0 0 0.29369,1.30175 c 0.34396,0.79375 1.12977,1.177396 2.30717,1.177396 a 2.6167291,2.6167291 0 0 0 1.71979,-0.515938 1.5610416,1.5610416 0 0 0 0.52388,-0.941916 z m -4.5429,-4.39473 a 2.9712708,2.9712708 0 0 0 -0.26458,1.058334 h 4.88685 a 2.492375,2.492375 0 0 0 -0.24606,-1.058334 c -0.36777,-0.809625 -1.10596,-1.203854 -2.18546,-1.203854 -1.0795,0 -1.82298,0.394229 -2.19075,1.203854 z" id="path504" style="stroke-width:0.264583"></path>
    </g>
  </g>
</svg>
