<?xml version="1.0" encoding="UTF-8"?>
<svg xmlns="http://www.w3.org/2000/svg" xmlns:xlink="http://www.w3.org/1999/xlink" version="1.1" id="Ebene_1" x="0px" y="0px" viewBox="0 0 102.9 102.9" style="enable-background:new 0 0 102.9 102.9;" xml:space="preserve">
<style type="text/css">
	.st0{fill:#D4D1E4;}
	.st1{fill:none;stroke:#24195D;stroke-width:3;stroke-linecap:round;stroke-linejoin:round;}
</style>
<circle class="st0" cx="51.4" cy="51.4" r="51.4"></circle>
<path class="st1" d="M35.2,56.4l4.2-3.3c1.7-1.7,4.2-0.8,5.8,0.8l0,0c0.8,1.7,0.8,3.3,0,4.2L41,63.9c-1.5,1.6-3.1,3-5,4.2l-5.8,2.5  v5.8"></path>
<path class="st1" d="M36.8,43.9l-9.2,4.2c-2.5,0.8-4.2,2.5-5.8,5l-3.3,6.7c-0.7,1.3-1,2.7-0.8,4.2v12.5"></path>
<path class="st1" d="M36.8,54.6V28.9c0-4.1,3.3-7.5,7.4-7.5c0,0,0,0,0.1,0h19.2c4.1,0,7.5,3.3,7.5,7.4c0,0,0,0,0,0v41.8  c0,4.1-3.3,7.5-7.4,7.5c0,0,0,0,0,0H44.3c-4.1,0-7.5-3.3-7.5-7.4c0,0,0,0,0,0v-1.7"></path>
<path class="st1" d="M39.2,66.4H71"></path>
</svg>
