<?xml version="1.0" encoding="UTF-8" standalone="no"?>
<svg xmlns:dc="http://purl.org/dc/elements/1.1/" xmlns:cc="http://creativecommons.org/ns#" xmlns:rdf="http://www.w3.org/1999/02/22-rdf-syntax-ns#" xmlns:svg="http://www.w3.org/2000/svg" xmlns="http://www.w3.org/2000/svg" xmlns:xlink="http://www.w3.org/1999/xlink" xmlns:sodipodi="http://sodipodi.sourceforge.net/DTD/sodipodi-0.dtd" xmlns:inkscape="http://www.inkscape.org/namespaces/inkscape" sodipodi:docname="nachbestellung_neu.svg" inkscape:version="1.0 (4035a4fb49, 2020-05-01)" id="svg8" version="1.1" viewBox="0 0 529.16665 299.77293" height="1133" width="2000">
  <defs id="defs2">
    <rect id="SVGID_1_" x="-375" y="-690.83" width="148.65" height="148.65"></rect>
    <rect id="SVGID_3_" x="198.65" y="538.5" width="294" height="294"></rect>
    <rect id="SVGID_5_" x="198.65" y="538.5" width="294" height="294"></rect>
    <rect id="SVGID_7_" x="198.65" y="538.5" width="294" height="294"></rect>
    <rect id="SVGID_9_" x="-374.68" y="9.5" width="147" height="147"></rect>
    <rect id="SVGID_11_" x="-374.68" y="9.5" width="147" height="147"></rect>
    <rect id="SVGID_13_" x="-374.68" y="9.5" width="147" height="147"></rect>
    <rect id="SVGID_15_" x="190" y="-494.16" width="297.31" height="297.31"></rect>
    <rect id="SVGID_1_-7" x="-383" y="303.17" width="148.65" height="148.65"></rect>
    <rect id="SVGID_3_-8" x="190.65" y="1532.5" width="294" height="294"></rect>
    <rect id="SVGID_5_-4" x="190.65" y="1532.5" width="294" height="294"></rect>
    <rect id="SVGID_7_-9" x="190.65" y="1532.5" width="294" height="294"></rect>
    <rect id="SVGID_9_-5" x="-382.68" y="1003.5" width="147" height="147"></rect>
    <rect id="SVGID_11_-6" x="-382.68" y="1003.5" width="147" height="147"></rect>
    <rect id="SVGID_13_-4" x="-382.68" y="1003.5" width="147" height="147"></rect>
    <rect id="SVGID_15_-8" x="182" y="499.84" width="297.31" height="297.31"></rect>
    <rect id="SVGID_1_-6" x="-383" y="-1208.83" width="148.65" height="148.65"></rect>
    <rect id="SVGID_3_-5" x="190.65" y="20.5" width="294" height="294"></rect>
    <rect id="SVGID_5_-1" x="190.65" y="20.5" width="294" height="294"></rect>
    <rect id="SVGID_7_-92" x="190.65" y="20.5" width="294" height="294"></rect>
    <rect id="SVGID_9_-2" x="-382.68" y="-508.5" width="147" height="147"></rect>
    <rect id="SVGID_11_-5" x="-382.68" y="-508.5" width="147" height="147"></rect>
    <rect id="SVGID_13_-8" x="-382.68" y="-508.5" width="147" height="147"></rect>
    <rect id="SVGID_15_-5" x="182" y="-1012.16" width="297.31" height="297.31"></rect>
    <rect id="SVGID_1_-9" x="-383" y="-1698.83" width="148.65" height="148.65"></rect>
    <rect id="SVGID_3_-1" x="190.65" y="-469.5" width="294" height="294"></rect>
    <rect id="SVGID_5_-6" x="190.65" y="-469.5" width="294" height="294"></rect>
    <rect id="SVGID_7_-3" x="190.65" y="-469.5" width="294" height="294"></rect>
    <rect id="SVGID_9_-0" x="-382.68" y="-998.5" width="147" height="147"></rect>
    <rect id="SVGID_11_-0" x="-382.68" y="-998.5" width="147" height="147"></rect>
    <rect id="SVGID_13_-9" x="-382.68" y="-998.5" width="147" height="147"></rect>
    <rect id="SVGID_15_-3" x="182" y="-1502.16" width="297.31" height="297.31"></rect>
    <rect id="SVGID_1_-73" x="-375" y="-188.83" width="148.65" height="148.65"></rect>
    <rect id="SVGID_3_-4" x="198.65" y="1040.5" width="294" height="294"></rect>
    <rect id="SVGID_5_-8" x="198.65" y="1040.5" width="294" height="294"></rect>
    <rect id="SVGID_7_-0" x="198.65" y="1040.5" width="294" height="294"></rect>
    <rect id="SVGID_9_-1" x="-374.68" y="511.5" width="147" height="147"></rect>
    <rect id="SVGID_11_-7" x="-374.68" y="511.5" width="147" height="147"></rect>
    <rect id="SVGID_13_-43" x="-374.68" y="511.5" width="147" height="147"></rect>
    <rect id="SVGID_15_-2" x="190" y="7.84" width="297.31" height="297.31"></rect>
    <clipPath id="SVGID_2_">
      <use height="100%" width="100%" y="0" x="0" xlink:href="#SVGID_1_" style="overflow:visible" id="use75"></use>
    </clipPath>
    <clipPath id="clipPath3730">
      <use height="100%" width="100%" y="0" x="0" xlink:href="#SVGID_1_" style="overflow:visible" id="use3728"></use>
    </clipPath>
    <clipPath id="clipPath3734">
      <use height="100%" width="100%" y="0" x="0" xlink:href="#SVGID_1_" style="overflow:visible" id="use3732"></use>
    </clipPath>
    <clipPath id="clipPath3738">
      <use height="100%" width="100%" y="0" x="0" xlink:href="#SVGID_1_" style="overflow:visible" id="use3736"></use>
    </clipPath>
    <clipPath id="clipPath3742">
      <use height="100%" width="100%" y="0" x="0" xlink:href="#SVGID_1_" style="overflow:visible" id="use3740"></use>
    </clipPath>
    <clipPath id="clipPath3746">
      <use height="100%" width="100%" y="0" x="0" xlink:href="#SVGID_1_" style="overflow:visible" id="use3744"></use>
    </clipPath>
    <clipPath id="clipPath3750">
      <use height="100%" width="100%" y="0" x="0" xlink:href="#SVGID_1_" style="overflow:visible" id="use3748"></use>
    </clipPath>
    <clipPath id="clipPath3754">
      <use height="100%" width="100%" y="0" x="0" xlink:href="#SVGID_1_" style="overflow:visible" id="use3752"></use>
    </clipPath>
    <clipPath id="clipPath3758">
      <use height="100%" width="100%" y="0" x="0" xlink:href="#SVGID_1_" style="overflow:visible" id="use3756"></use>
    </clipPath>
    <clipPath id="clipPath3762">
      <use height="100%" width="100%" y="0" x="0" xlink:href="#SVGID_1_" style="overflow:visible" id="use3760"></use>
    </clipPath>
    <clipPath id="clipPath3766">
      <use height="100%" width="100%" y="0" x="0" xlink:href="#SVGID_1_" style="overflow:visible" id="use3764"></use>
    </clipPath>
    <clipPath id="SVGID_4_">
      <use height="100%" width="100%" y="0" x="0" xlink:href="#SVGID_3_" style="overflow:visible" id="use197"></use>
    </clipPath>
    <clipPath id="SVGID_6_">
      <use height="100%" width="100%" y="0" x="0" xlink:href="#SVGID_5_" style="overflow:visible" id="use215"></use>
    </clipPath>
    <clipPath id="SVGID_8_">
      <use height="100%" width="100%" y="0" x="0" xlink:href="#SVGID_7_" style="overflow:visible" id="use233"></use>
    </clipPath>
    <clipPath id="SVGID_10_">
      <use height="100%" width="100%" y="0" x="0" xlink:href="#SVGID_9_" style="overflow:visible" id="use257"></use>
    </clipPath>
    <clipPath id="SVGID_12_">
      <use height="100%" width="100%" y="0" x="0" xlink:href="#SVGID_11_" style="overflow:visible" id="use275"></use>
    </clipPath>
    <clipPath id="SVGID_14_">
      <use height="100%" width="100%" y="0" x="0" xlink:href="#SVGID_13_" style="overflow:visible" id="use293"></use>
    </clipPath>
    <clipPath id="SVGID_16_">
      <use height="100%" width="100%" y="0" x="0" xlink:href="#SVGID_15_" style="overflow:visible" id="use359"></use>
    </clipPath>
    <clipPath id="clipPath3784">
      <use height="100%" width="100%" y="0" x="0" xlink:href="#SVGID_15_" style="overflow:visible" id="use3782"></use>
    </clipPath>
    <clipPath id="clipPath3788">
      <use height="100%" width="100%" y="0" x="0" xlink:href="#SVGID_15_" style="overflow:visible" id="use3786"></use>
    </clipPath>
    <clipPath id="clipPath3792">
      <use height="100%" width="100%" y="0" x="0" xlink:href="#SVGID_15_" style="overflow:visible" id="use3790"></use>
    </clipPath>
    <clipPath id="clipPath3796">
      <use height="100%" width="100%" y="0" x="0" xlink:href="#SVGID_15_" style="overflow:visible" id="use3794"></use>
    </clipPath>
    <clipPath id="clipPath3800">
      <use height="100%" width="100%" y="0" x="0" xlink:href="#SVGID_15_" style="overflow:visible" id="use3798"></use>
    </clipPath>
    <clipPath id="clipPath3804">
      <use height="100%" width="100%" y="0" x="0" xlink:href="#SVGID_15_" style="overflow:visible" id="use3802"></use>
    </clipPath>
    <clipPath id="clipPath3808">
      <use height="100%" width="100%" y="0" x="0" xlink:href="#SVGID_15_" style="overflow:visible" id="use3806"></use>
    </clipPath>
    <clipPath id="clipPath3812">
      <use height="100%" width="100%" y="0" x="0" xlink:href="#SVGID_15_" style="overflow:visible" id="use3810"></use>
    </clipPath>
    <clipPath id="clipPath3816">
      <use height="100%" width="100%" y="0" x="0" xlink:href="#SVGID_15_" style="overflow:visible" id="use3814"></use>
    </clipPath>
    <clipPath id="clipPath3820">
      <use height="100%" width="100%" y="0" x="0" xlink:href="#SVGID_15_" style="overflow:visible" id="use3818"></use>
    </clipPath>
    <rect id="rect488" x="-375" y="-690.83002" width="148.64999" height="148.64999"></rect>
    <rect id="rect551" x="198.64999" y="538.5" width="294" height="294"></rect>
    <rect id="rect562" x="198.64999" y="538.5" width="294" height="294"></rect>
    <rect id="rect573" x="198.64999" y="538.5" width="294" height="294"></rect>
    <rect id="rect587" x="-374.67999" y="9.5" width="147" height="147"></rect>
    <rect id="rect598" x="-374.67999" y="9.5" width="147" height="147"></rect>
    <rect id="rect609" x="-374.67999" y="9.5" width="147" height="147"></rect>
    <rect id="rect644" x="190" y="-494.16" width="297.31" height="297.31"></rect>
    <clipPath id="SVGID_2_-3">
      <use id="use75-4" style="overflow:visible" xlink:href="#SVGID_1_" x="0" y="0" width="100%" height="100%"></use>
    </clipPath>
    <clipPath id="clipPath4635">
      <use id="use4633" style="overflow:visible" xlink:href="#SVGID_1_" x="0" y="0" width="100%" height="100%"></use>
    </clipPath>
    <clipPath id="clipPath4639">
      <use id="use4637" style="overflow:visible" xlink:href="#SVGID_1_" x="0" y="0" width="100%" height="100%"></use>
    </clipPath>
    <clipPath id="clipPath4643">
      <use id="use4641" style="overflow:visible" xlink:href="#SVGID_1_" x="0" y="0" width="100%" height="100%"></use>
    </clipPath>
    <clipPath id="clipPath4647">
      <use id="use4645" style="overflow:visible" xlink:href="#SVGID_1_" x="0" y="0" width="100%" height="100%"></use>
    </clipPath>
    <clipPath id="clipPath4651">
      <use id="use4649" style="overflow:visible" xlink:href="#SVGID_1_" x="0" y="0" width="100%" height="100%"></use>
    </clipPath>
    <clipPath id="clipPath4655">
      <use id="use4653" style="overflow:visible" xlink:href="#SVGID_1_" x="0" y="0" width="100%" height="100%"></use>
    </clipPath>
    <clipPath id="clipPath4659">
      <use id="use4657" style="overflow:visible" xlink:href="#SVGID_1_" x="0" y="0" width="100%" height="100%"></use>
    </clipPath>
    <clipPath id="clipPath4663">
      <use id="use4661" style="overflow:visible" xlink:href="#SVGID_1_" x="0" y="0" width="100%" height="100%"></use>
    </clipPath>
    <clipPath id="clipPath4667">
      <use id="use4665" style="overflow:visible" xlink:href="#SVGID_1_" x="0" y="0" width="100%" height="100%"></use>
    </clipPath>
    <clipPath id="clipPath4671">
      <use id="use4669" style="overflow:visible" xlink:href="#SVGID_1_" x="0" y="0" width="100%" height="100%"></use>
    </clipPath>
    <clipPath id="SVGID_4_-2">
      <use id="use197-5" style="overflow:visible" xlink:href="#SVGID_3_" x="0" y="0" width="100%" height="100%"></use>
    </clipPath>
    <clipPath id="SVGID_6_-2">
      <use id="use215-2" style="overflow:visible" xlink:href="#SVGID_5_" x="0" y="0" width="100%" height="100%"></use>
    </clipPath>
    <clipPath id="SVGID_8_-5">
      <use id="use233-2" style="overflow:visible" xlink:href="#SVGID_7_" x="0" y="0" width="100%" height="100%"></use>
    </clipPath>
    <clipPath id="SVGID_10_-5">
      <use id="use257-1" style="overflow:visible" xlink:href="#SVGID_9_" x="0" y="0" width="100%" height="100%"></use>
    </clipPath>
    <clipPath id="SVGID_12_-1">
      <use id="use275-7" style="overflow:visible" xlink:href="#SVGID_11_" x="0" y="0" width="100%" height="100%"></use>
    </clipPath>
    <clipPath id="SVGID_14_-9">
      <use id="use293-1" style="overflow:visible" xlink:href="#SVGID_13_" x="0" y="0" width="100%" height="100%"></use>
    </clipPath>
    <clipPath id="SVGID_16_-9">
      <use id="use359-4" style="overflow:visible" xlink:href="#SVGID_15_" x="0" y="0" width="100%" height="100%"></use>
    </clipPath>
    <clipPath id="clipPath4689">
      <use id="use4687" style="overflow:visible" xlink:href="#SVGID_15_" x="0" y="0" width="100%" height="100%"></use>
    </clipPath>
    <clipPath id="clipPath4693">
      <use id="use4691" style="overflow:visible" xlink:href="#SVGID_15_" x="0" y="0" width="100%" height="100%"></use>
    </clipPath>
    <clipPath id="clipPath4697">
      <use id="use4695" style="overflow:visible" xlink:href="#SVGID_15_" x="0" y="0" width="100%" height="100%"></use>
    </clipPath>
    <clipPath id="clipPath4701">
      <use id="use4699" style="overflow:visible" xlink:href="#SVGID_15_" x="0" y="0" width="100%" height="100%"></use>
    </clipPath>
    <clipPath id="clipPath4705">
      <use id="use4703" style="overflow:visible" xlink:href="#SVGID_15_" x="0" y="0" width="100%" height="100%"></use>
    </clipPath>
    <clipPath id="clipPath4709">
      <use id="use4707" style="overflow:visible" xlink:href="#SVGID_15_" x="0" y="0" width="100%" height="100%"></use>
    </clipPath>
    <clipPath id="clipPath4713">
      <use id="use4711" style="overflow:visible" xlink:href="#SVGID_15_" x="0" y="0" width="100%" height="100%"></use>
    </clipPath>
    <clipPath id="clipPath4717">
      <use id="use4715" style="overflow:visible" xlink:href="#SVGID_15_" x="0" y="0" width="100%" height="100%"></use>
    </clipPath>
    <clipPath id="clipPath4721">
      <use id="use4719" style="overflow:visible" xlink:href="#SVGID_15_" x="0" y="0" width="100%" height="100%"></use>
    </clipPath>
    <clipPath id="clipPath4725">
      <use id="use4723" style="overflow:visible" xlink:href="#SVGID_15_" x="0" y="0" width="100%" height="100%"></use>
    </clipPath>
    <rect height="148.64999" width="148.64999" y="-690.83002" x="-375" id="rect4408"></rect>
    <rect height="294" width="294" y="538.5" x="198.64999" id="rect4471"></rect>
    <rect height="294" width="294" y="538.5" x="198.64999" id="rect4482"></rect>
    <rect height="294" width="294" y="538.5" x="198.64999" id="rect4493"></rect>
    <rect height="147" width="147" y="9.5" x="-374.67999" id="rect4507"></rect>
    <rect height="147" width="147" y="9.5" x="-374.67999" id="rect4518"></rect>
    <rect height="147" width="147" y="9.5" x="-374.67999" id="rect4529"></rect>
    <rect height="297.31" width="297.31" y="-494.16" x="190" id="rect4564"></rect>
  </defs>
  <metadata id="metadata5"></metadata>
  <g id="layer1" inkscape:groupmode="layer" inkscape:label="Ebene 1">
    <g transform="matrix(0.26458333,0,0,0.26458333,-393.98337,-72.202888)" id="g412">
</g>
    <g transform="matrix(0.26458333,0,0,0.26458333,-393.98337,-72.202888)" id="g414">
</g>
    <g transform="matrix(0.26458333,0,0,0.26458333,-393.98337,-72.202888)" id="g416">
</g>
    <g transform="matrix(0.26458333,0,0,0.26458333,-393.98337,-72.202888)" id="g418">
</g>
    <g transform="matrix(0.26458333,0,0,0.26458333,-393.98337,-72.202888)" id="g420">
</g>
    <g transform="matrix(0.26458333,0,0,0.26458333,-393.98337,-72.202888)" id="g422">
</g>
    <g transform="matrix(0.26458333,0,0,0.26458333,-393.98337,-72.202888)" id="g424">
</g>
    <g transform="matrix(0.26458333,0,0,0.26458333,-393.98337,-72.202888)" id="g426">
</g>
    <g transform="matrix(0.26458333,0,0,0.26458333,-393.98337,-72.202888)" id="g428">
</g>
    <g transform="matrix(0.26458333,0,0,0.26458333,-393.98337,-72.202888)" id="g430">
</g>
    <g transform="matrix(0.26458333,0,0,0.26458333,-393.98337,-72.202888)" id="g432">
</g>
    <g transform="matrix(0.26458333,0,0,0.26458333,-393.98337,-72.202888)" id="g434">
</g>
    <g transform="matrix(0.26458333,0,0,0.26458333,-393.98337,-72.202888)" id="g436">
</g>
    <g transform="matrix(0.26458333,0,0,0.26458333,-393.98337,-72.202888)" id="g438">
</g>
    <g transform="matrix(0.26458333,0,0,0.26458333,-393.98337,-72.202888)" id="g440">
</g>
    <path style="fill:#a31747;stroke-width:0.264583" id="path12" d="M -619.64832,513.33252" class="st0"></path>
    <rect style="fill:#e7e7e8;stroke-width:0.264583" id="rect42" height="58.472916" width="88.900002" class="st4" y="-427.80627" x="-704.67743"></rect>
    <g transform="matrix(0.26458333,0,0,0.26458333,-579.52954,-164.67814)" id="g68">
      <rect id="rect44" height="112.99" width="83.389999" class="st1" y="-974" x="-342.37"></rect>
      <line id="line46" y2="-950.95001" x2="-282.79001" y1="-950.95001" x1="-327.28" class="st2"></line>
      <g id="g62">
        <path id="path48" d="m -322.3,-963.66 v 10.31 h -1.61 v -10.31 h -3.03 v -1.35 h 7.84 l -0.17,1.35 z" class="st4"></path>
        <path id="path50" d="m -312.29,-955.69 c -0.18,0.54 -0.43,1 -0.75,1.38 -0.32,0.38 -0.71,0.67 -1.17,0.88 -0.46,0.21 -0.97,0.31 -1.52,0.31 -0.57,0 -1.08,-0.1 -1.54,-0.31 -0.46,-0.21 -0.85,-0.51 -1.17,-0.9 -0.32,-0.39 -0.56,-0.86 -0.73,-1.41 -0.17,-0.55 -0.25,-1.17 -0.25,-1.86 0,-0.69 0.08,-1.31 0.25,-1.85 0.17,-0.54 0.41,-1.02 0.73,-1.41 0.32,-0.39 0.7,-0.69 1.15,-0.9 0.45,-0.21 0.96,-0.31 1.52,-0.31 0.62,0 1.17,0.12 1.64,0.36 0.47,0.24 0.86,0.56 1.17,0.96 0.31,0.41 0.54,0.89 0.7,1.44 0.15,0.55 0.23,1.15 0.23,1.79 0,0.68 -0.08,1.29 -0.26,1.83 z m -1.65,-3.41 c -0.09,-0.44 -0.23,-0.79 -0.4,-1.06 -0.17,-0.27 -0.39,-0.45 -0.63,-0.56 -0.25,-0.11 -0.52,-0.17 -0.83,-0.17 -0.68,0 -1.18,0.25 -1.48,0.74 -0.3,0.49 -0.45,1.29 -0.45,2.37 0,0.65 0.04,1.19 0.13,1.63 0.08,0.44 0.21,0.8 0.38,1.07 0.17,0.27 0.37,0.47 0.62,0.59 0.25,0.12 0.54,0.18 0.87,0.18 0.59,0 1.06,-0.25 1.41,-0.74 0.35,-0.49 0.52,-1.3 0.52,-2.41 0,-0.65 -0.05,-1.2 -0.14,-1.64 z" class="st4"></path>
        <path id="path52" d="m -298.23,-956.7 c -0.22,0.69 -0.53,1.28 -0.93,1.77 -0.41,0.51 -0.91,0.9 -1.5,1.17 -0.6,0.27 -1.4,0.41 -2.41,0.41 h -2.9 v -11.67 h 2.7 c 1,0 1.84,0.14 2.53,0.42 0.69,0.28 1.29,0.78 1.82,1.52 0.69,0.96 1.03,2.26 1.03,3.91 0,0.95 -0.11,1.78 -0.34,2.47 z m -1.6,-4.44 c -0.11,-0.61 -0.34,-1.14 -0.69,-1.58 -0.33,-0.41 -0.67,-0.68 -1.03,-0.82 -0.36,-0.14 -0.83,-0.21 -1.4,-0.21 h -1.31 v 9.04 h 1.28 c 0.67,0 1.23,-0.1 1.66,-0.3 0.44,-0.2 0.78,-0.53 1.04,-1.01 0.21,-0.4 0.37,-0.85 0.47,-1.36 0.1,-0.51 0.15,-1.05 0.15,-1.63 -0.01,-0.8 -0.06,-1.51 -0.17,-2.13 z" class="st4"></path>
        <path id="path54" d="m -288.94,-955.69 c -0.18,0.54 -0.43,1 -0.75,1.38 -0.32,0.38 -0.71,0.67 -1.17,0.88 -0.46,0.21 -0.97,0.31 -1.52,0.31 -0.57,0 -1.08,-0.1 -1.54,-0.31 -0.46,-0.21 -0.85,-0.51 -1.17,-0.9 -0.32,-0.39 -0.56,-0.86 -0.73,-1.41 -0.17,-0.55 -0.25,-1.17 -0.25,-1.86 0,-0.69 0.08,-1.31 0.25,-1.85 0.17,-0.54 0.41,-1.02 0.73,-1.41 0.32,-0.39 0.7,-0.69 1.15,-0.9 0.45,-0.21 0.96,-0.31 1.52,-0.31 0.62,0 1.17,0.12 1.64,0.36 0.47,0.24 0.86,0.56 1.17,0.96 0.31,0.41 0.54,0.89 0.7,1.44 0.15,0.55 0.23,1.15 0.23,1.79 0,0.68 -0.09,1.29 -0.26,1.83 z m -1.65,-3.41 c -0.09,-0.44 -0.23,-0.79 -0.4,-1.06 -0.17,-0.27 -0.39,-0.45 -0.63,-0.56 -0.24,-0.11 -0.52,-0.17 -0.83,-0.17 -0.68,0 -1.18,0.25 -1.48,0.74 -0.3,0.49 -0.45,1.29 -0.45,2.37 0,0.65 0.04,1.19 0.13,1.63 0.08,0.44 0.21,0.8 0.38,1.07 0.17,0.27 0.37,0.47 0.62,0.59 0.25,0.12 0.54,0.18 0.87,0.18 0.59,0 1.06,-0.25 1.41,-0.74 0.35,-0.49 0.52,-1.3 0.52,-2.41 -0.01,-0.65 -0.05,-1.2 -0.14,-1.64 z" class="st4"></path>
        <path id="path56" d="m -284.48,-958.82 c -0.24,0.24 -0.52,0.36 -0.85,0.36 -0.33,0 -0.61,-0.12 -0.84,-0.35 -0.23,-0.23 -0.35,-0.52 -0.35,-0.86 0,-0.34 0.12,-0.63 0.35,-0.87 0.23,-0.24 0.52,-0.36 0.86,-0.36 0.33,0 0.61,0.12 0.84,0.36 0.23,0.24 0.35,0.52 0.35,0.85 0,0.34 -0.12,0.63 -0.36,0.87 z m 0,5.32 c -0.24,0.23 -0.52,0.35 -0.86,0.35 -0.33,0 -0.6,-0.12 -0.83,-0.35 -0.23,-0.23 -0.34,-0.52 -0.34,-0.86 0,-0.35 0.12,-0.65 0.35,-0.89 0.23,-0.24 0.52,-0.36 0.86,-0.36 0.33,0 0.61,0.12 0.84,0.36 0.23,0.24 0.35,0.54 0.35,0.89 -0.01,0.35 -0.13,0.63 -0.37,0.86 z" class="st4"></path>
        <path id="path58" d="m -327.28,-950.78 v -0.34 h 7.01 v 0.34 z" class="st4"></path>
        <path id="path60" d="m -320.27,-950.78 v -0.34 h 37.5 v 0.34 z" class="st4"></path>
      </g>
      <g id="g66">
        <path id="path64" d="m -277.63,-931.68 0.9,1.55 c -5.83,4.12 -11.23,9.33 -16.21,15.64 -4.97,6.31 -8.57,12.49 -10.77,18.53 l -1.31,0.87 c -1.13,0.74 -2.11,1.47 -2.92,2.21 -0.14,-0.72 -0.53,-1.87 -1.16,-3.46 l -0.69,-1.7 c -1.49,-3.68 -2.75,-6.25 -3.78,-7.72 -1.02,-1.46 -2.13,-2.25 -3.33,-2.37 1.61,-1.47 3.01,-2.21 4.21,-2.21 1.65,0 3.46,2.22 5.43,6.66 l 1.07,2.39 c 3.52,-6.31 7.77,-12.12 12.76,-17.43 4.99,-5.31 10.25,-9.64 15.8,-12.96 z" class="st4"></path>
      </g>
    </g>
    <rect style="fill:#e7e7e8;stroke-width:0.264583" id="rect70" height="58.472916" width="88.900002" class="st4" y="-348.43127" x="-703.88367"></rect>
    <g transform="matrix(0.26458333,0,0,0.26458333,-579.52954,-164.67814)" id="g100">
      <defs id="defs73">
        <rect height="148.64999" width="148.64999" y="-690.83002" x="-375" id="rect5271"></rect>
      </defs>
      <clipPath id="clipPath3842">
        <use id="use3840" style="overflow:visible" xlink:href="#SVGID_1_" x="0" y="0" width="100%" height="100%"></use>
      </clipPath>
      <path id="path78" clip-path="url(#SVGID_2_)" d="m -297.86,-615.16 c -0.13,0.26 -0.26,0.38 -0.51,0.64 h -0.13 c -0.13,0.13 -0.38,0.25 -0.51,0.38 0,0 -0.13,0.13 -0.26,0.13 -0.13,0.13 -0.38,0.13 -0.51,0.26 h -0.13 c -0.26,0 -0.51,0.13 -0.77,0.13 -0.26,0 -0.51,0 -0.77,-0.13 h -0.26 c -0.13,0 -0.38,-0.13 -0.51,-0.26 h -0.13 -0.13 c -0.13,0 -0.13,-0.13 -0.26,-0.26 -0.13,0 -0.13,-0.13 -0.26,-0.13 l -0.26,-0.26 -0.26,-0.26 c 0,-0.13 -0.13,-0.13 -0.13,-0.26 0,-0.13 -0.13,-0.13 -0.13,-0.26 0,-0.13 -0.13,-0.26 -0.13,-0.26 0,-0.13 -0.13,-0.13 -0.13,-0.26 v -0.26 -0.38 -0.13 -51.29 c 0,-1.79 1.41,-3.2 3.2,-3.2 9.59,0 18.93,2.56 27.12,7.29 1.54,0.9 2.05,2.81 1.15,4.35 -0.64,1.02 -1.66,1.54 -2.81,1.54 -0.51,0 -1.15,-0.13 -1.54,-0.38 -6.4,-3.71 -13.43,-5.88 -20.72,-6.27 v 35.94 l 9.98,-17.39 c 0.9,-1.54 2.81,-2.05 4.35,-1.15 1.54,0.9 2.05,2.81 1.15,4.35 z" class="st5"></path>
      <path id="path80" clip-path="url(#SVGID_2_)" d="m -328.05,-664.41 c 0.64,-0.38 1.27,-0.51 1.91,-0.51 1.4,0 2.67,0.77 3.31,1.92 0.51,0.9 0.64,1.92 0.38,2.94 -0.25,1.02 -0.89,1.79 -1.78,2.3 -0.64,0.38 -1.27,0.51 -1.91,0.51 -1.4,0 -2.67,-0.77 -3.31,-1.92 -0.51,-0.9 -0.64,-1.92 -0.38,-2.94 0.25,-1.02 0.88,-1.78 1.78,-2.3" class="st5"></path>
      <path id="path82" clip-path="url(#SVGID_2_)" d="m -344.93,-638.57 c -0.64,0 -1.28,-0.13 -1.92,-0.51 -1.79,-1.02 -2.43,-3.45 -1.41,-5.24 0.64,-1.15 1.92,-1.92 3.33,-1.92 0.64,0 1.28,0.13 1.92,0.51 1.79,1.02 2.43,3.45 1.41,5.24 -0.64,1.16 -1.92,1.92 -3.33,1.92" class="st5"></path>
      <path id="path84" clip-path="url(#SVGID_2_)" d="m -300.67,-569.5 c 2.12,0 3.84,1.72 3.84,3.84 0,2.12 -1.72,3.84 -3.84,3.84 -2.12,0 -3.84,-1.72 -3.84,-3.84 0,-2.12 1.72,-3.84 3.84,-3.84" class="st5"></path>
      <path id="path86" clip-path="url(#SVGID_2_)" d="m -351.84,-620.66 c 2.12,0 3.84,1.72 3.84,3.84 0,2.12 -1.72,3.84 -3.84,3.84 -2.12,0 -3.84,-1.72 -3.84,-3.84 0,-2.12 1.72,-3.84 3.84,-3.84" class="st5"></path>
      <path id="path88" clip-path="url(#SVGID_2_)" d="m -249.51,-620.66 c 2.12,0 3.84,1.72 3.84,3.84 0,2.12 -1.72,3.84 -3.84,3.84 -2.12,0 -3.84,-1.72 -3.84,-3.84 0,-2.12 1.72,-3.84 3.84,-3.84" class="st5"></path>
      <path id="path90" clip-path="url(#SVGID_2_)" d="m -276.88,-575.89 c 0.64,-0.38 1.28,-0.51 1.92,-0.51 1.41,0 2.69,0.77 3.33,1.92 0.51,0.89 0.64,1.92 0.38,2.94 -0.26,1.02 -0.89,1.79 -1.79,2.3 -0.64,0.38 -1.28,0.51 -1.92,0.51 -1.41,0 -2.69,-0.77 -3.33,-1.92 -0.51,-0.9 -0.64,-1.92 -0.38,-2.94 0.25,-0.9 0.89,-1.79 1.79,-2.3" class="st5"></path>
      <path id="path92" clip-path="url(#SVGID_2_)" d="m -346.85,-594.57 c 0.64,-0.38 1.28,-0.51 1.92,-0.51 1.41,0 2.69,0.77 3.33,1.92 1.02,1.79 0.38,4.22 -1.41,5.24 -0.64,0.38 -1.28,0.51 -1.92,0.51 -1.41,0 -2.69,-0.77 -3.33,-1.92 -1.02,-1.78 -0.38,-4.21 1.41,-5.24" class="st5"></path>
      <path id="path94" clip-path="url(#SVGID_2_)" d="m -256.29,-595.08 v 0 c 0.64,0 1.28,0.13 1.92,0.51 1.79,1.02 2.43,3.45 1.41,5.24 -0.64,1.15 -1.92,1.92 -3.33,1.92 -0.64,0 -1.28,-0.13 -1.92,-0.51 -1.79,-1.02 -2.43,-3.45 -1.41,-5.24 0.64,-1.15 1.92,-1.92 3.33,-1.92" class="st5"></path>
      <path id="path96" clip-path="url(#SVGID_2_)" d="m -326.14,-576.41 v 0 c 0.64,0 1.27,0.13 1.91,0.51 0.89,0.51 1.53,1.28 1.78,2.3 0.25,1.02 0.13,2.05 -0.38,2.94 -0.64,1.15 -1.91,1.92 -3.31,1.92 -0.64,0 -1.27,-0.13 -1.91,-0.51 -0.89,-0.51 -1.53,-1.28 -1.78,-2.3 -0.26,-1.02 -0.13,-2.05 0.38,-2.94 0.63,-1.15 1.91,-1.92 3.31,-1.92" class="st5"></path>
      <path id="path98" clip-path="url(#SVGID_2_)" d="m -258.21,-645.73 c 0.64,-0.38 1.28,-0.51 1.92,-0.51 1.41,0 2.69,0.77 3.32,1.92 1.02,1.79 0.38,4.22 -1.41,5.24 -0.64,0.38 -1.28,0.51 -1.92,0.51 -1.41,0 -2.69,-0.77 -3.33,-1.92 -1.01,-1.79 -0.37,-4.22 1.42,-5.24" class="st5"></path>
    </g>
    <g transform="matrix(0.26458333,0,0,0.26458333,-579.52954,-164.67814)" id="g146">
      <g id="g144">
        <rect id="rect102" height="43.099998" width="9.8299999" class="st1" y="117.75" x="304.64001"></rect>
        <rect id="rect104" height="43.099998" width="19.66" class="st1" y="117.75" x="275.14999"></rect>
        <rect id="rect106" height="43.099998" width="19.66" class="st1" y="189.59" x="275.14999"></rect>
        <rect id="rect108" height="43.099998" width="9.8299999" class="st1" y="189.59" x="255.74001"></rect>
        <rect id="rect110" height="43.099998" width="9.8299999" class="st1" y="117.75" x="255.74001"></rect>
        <rect id="rect112" height="43.099998" width="9.8299999" class="st1" y="117.75" x="392.60999"></rect>
        <rect id="rect114" height="43.099998" width="19.66" class="st1" y="117.75" x="343.70999"></rect>
        <rect id="rect116" height="43.099998" width="9.8299999" class="st1" y="117.75" x="324.04999"></rect>
        <rect id="rect118" height="43.099998" width="9.8299999" class="st1" y="117.75" x="372.94"></rect>
        <rect id="rect120" height="43.099998" width="9.8299999" class="st1" y="189.59" x="392.60999"></rect>
        <rect id="rect122" height="43.099998" width="9.8299999" class="st1" y="189.59" x="412.26001"></rect>
        <rect id="rect124" height="43.099998" width="9.8299999" class="st1" y="189.59" x="304.64001"></rect>
        <rect id="rect126" height="43.099998" width="9.8299999" class="st1" y="189.59" x="372.94"></rect>
        <rect id="rect128" height="43.099998" width="9.8299999" class="st1" y="117.75" x="412.26001"></rect>
        <rect id="rect130" height="43.099998" width="19.66" class="st1" y="189.59" x="343.70999"></rect>
        <rect id="rect132" height="43.099998" width="9.8299999" class="st1" y="189.59" x="324.04999"></rect>
        <rect id="rect134" height="11.34" width="188.28" class="st1" y="169.17" x="244.64999"></rect>
        <polygon id="polygon136" points="226,86.5 226,121.28 235.83,121.28 235.83,96.08 260.78,96.08 260.78,86.5 " class="st1"></polygon>
        <polygon id="polygon138" points="452.85,121.28 452.85,86.5 418.06,86.5 418.06,96.08 443.02,96.08 443.02,121.28 " class="st1"></polygon>
        <polygon id="polygon140" points="260.78,262.94 260.78,253.36 235.83,253.36 235.83,228.15 226,228.15 226,262.94 " class="st1"></polygon>
        <polygon id="polygon142" points="452.85,262.94 452.85,228.15 443.02,228.15 443.02,253.36 418.06,253.36 418.06,262.94 " class="st1"></polygon>
      </g>
    </g>
    <rect style="fill:#e7e7e8;stroke-width:0.264583" id="rect148" height="58.472916" width="89.032303" class="st4" y="-259.26669" x="-704.14825"></rect>
    <g transform="matrix(0.26458333,0,0,0.26458333,-579.52954,-164.67814)" id="g192">
      <rect id="rect150" height="21.549999" width="4.9099998" class="st1" y="-298.87" x="-318.67999"></rect>
      <rect id="rect152" height="21.549999" width="9.8299999" class="st1" y="-298.87" x="-333.42001"></rect>
      <rect id="rect154" height="21.549999" width="9.8299999" class="st1" y="-262.95999" x="-333.42001"></rect>
      <rect id="rect156" height="21.549999" width="4.9099998" class="st1" y="-262.95999" x="-343.13"></rect>
      <rect id="rect158" height="21.549999" width="4.9099998" class="st1" y="-298.87" x="-343.13"></rect>
      <rect id="rect160" height="21.549999" width="4.9099998" class="st1" y="-298.87" x="-274.70001"></rect>
      <rect id="rect162" height="21.549999" width="9.8299999" class="st1" y="-298.87" x="-299.14999"></rect>
      <rect id="rect164" height="21.549999" width="4.9099998" class="st1" y="-298.87" x="-308.98001"></rect>
      <rect id="rect166" height="21.549999" width="4.9099998" class="st1" y="-298.87" x="-284.53"></rect>
      <rect id="rect168" height="21.549999" width="4.9099998" class="st1" y="-262.95999" x="-274.70001"></rect>
      <rect id="rect170" height="21.549999" width="4.9099998" class="st1" y="-262.95999" x="-264.87"></rect>
      <rect id="rect172" height="21.549999" width="4.9099998" class="st1" y="-262.95999" x="-318.67999"></rect>
      <rect id="rect174" height="21.549999" width="4.9099998" class="st1" y="-262.95999" x="-284.53"></rect>
      <rect id="rect176" height="21.549999" width="4.9099998" class="st1" y="-298.87" x="-264.87"></rect>
      <rect id="rect178" height="21.549999" width="9.8299999" class="st1" y="-262.95999" x="-299.14999"></rect>
      <rect id="rect180" height="21.549999" width="4.9099998" class="st1" y="-262.95999" x="-308.98001"></rect>
      <rect id="rect182" height="5.6700001" width="94.139999" class="st1" y="-273.16" x="-348.67001"></rect>
      <polygon id="polygon184" points="-358,-314.5 -358,-297.11 -353.08,-297.11 -353.08,-309.71 -340.61,-309.71 -340.61,-314.5 " class="st1"></polygon>
      <polygon id="polygon186" points="-244.58,-297.11 -244.58,-314.5 -261.97,-314.5 -261.97,-309.71 -249.49,-309.71 -249.49,-297.11 " class="st1"></polygon>
      <polygon id="polygon188" points="-340.61,-226.28 -340.61,-231.07 -353.08,-231.07 -353.08,-243.67 -358,-243.67 -358,-226.28 " class="st1"></polygon>
      <polygon id="polygon190" points="-244.58,-226.28 -244.58,-243.67 -249.49,-243.67 -249.49,-231.07 -261.97,-231.07 -261.97,-226.28 " class="st1"></polygon>
    </g>
    <g style="fill:#24195d;fill-opacity:1" transform="matrix(1.3049859,0,0,1.3049859,-315.20629,-744.68471)" id="g250">
      <g style="fill:#24195d;fill-opacity:1" id="g248">
        <g style="fill:#24195d;fill-opacity:1" id="g202">
          <defs id="defs195">
            <rect height="294" width="294" y="538.5" x="198.64999" id="rect5334"></rect>
          </defs>
          <clipPath id="clipPath3906">
            <use id="use3904" style="overflow:visible" xlink:href="#SVGID_3_" x="0" y="0" width="100%" height="100%"></use>
          </clipPath>
          <path style="fill:#24195d;fill-opacity:1" id="path200" clip-path="url(#SVGID_4_)" d="m 283.79,698.21 h -33.54 v -82.37 h 33.54 z m -3.24,51.19 h -8.04 v -24.1 h 8.04 z m -19,0 h -8.04 v -24.1 h 8.04 z m 30.99,-135.62 c 0,-4.47 -2.27,-6.75 -6.72,-6.75 -12.35,-0.01 -24.7,0 -37.05,0 -5.15,0 -7.23,2.06 -7.23,7.15 v 148.77 c 0,4.58 2.24,6.85 6.81,6.85 12.54,0.01 25.07,0.01 37.6,0.01 4.28,-0.01 6.6,-2.36 6.6,-6.71 0,-49.78 -0.01,-99.55 -0.01,-149.32" class="st6"></path>
        </g>
        <rect style="fill:#24195d;fill-opacity:1" id="rect204" height="9.8599997" width="23.360001" class="st1" y="621.97998" x="255.36"></rect>
        <rect style="fill:#24195d;fill-opacity:1" id="rect206" height="3.29" width="23.360001" class="st1" y="650.09998" x="255.36"></rect>
        <rect style="fill:#24195d;fill-opacity:1" id="rect208" height="3.29" width="23.360001" class="st1" y="659.96997" x="255.36"></rect>
        <rect style="fill:#24195d;fill-opacity:1" id="rect210" height="3.29" width="23.360001" class="st1" y="669.82001" x="255.36"></rect>
        <g style="fill:#24195d;fill-opacity:1" id="g220">
          <defs id="defs213">
            <rect height="294" width="294" y="538.5" x="198.64999" id="rect5345"></rect>
          </defs>
          <clipPath id="clipPath3918">
            <use id="use3916" style="overflow:visible" xlink:href="#SVGID_5_" x="0" y="0" width="100%" height="100%"></use>
          </clipPath>
          <path style="fill:#24195d;fill-opacity:1" id="path218" clip-path="url(#SVGID_6_)" d="M 354.64,698.21 H 321.1 v -82.37 h 33.54 z m -3.24,51.19 h -8.04 v -24.1 h 8.04 z m -18.99,0 h -8.04 v -24.1 h 8.04 z m 30.98,-135.62 c 0,-4.47 -2.27,-6.75 -6.72,-6.75 -12.35,-0.01 -24.7,0 -37.05,0 -5.15,0 -7.23,2.06 -7.23,7.15 v 148.77 c 0,4.58 2.24,6.85 6.81,6.85 12.54,0.01 25.07,0.01 37.6,0.01 4.28,-0.01 6.6,-2.36 6.6,-6.71 0,-49.78 -0.01,-99.55 -0.01,-149.32" class="st7"></path>
        </g>
        <rect style="fill:#24195d;fill-opacity:1" id="rect222" height="9.8599997" width="23.360001" class="st1" y="621.97998" x="326.20999"></rect>
        <rect style="fill:#24195d;fill-opacity:1" id="rect224" height="3.29" width="23.360001" class="st1" y="650.09998" x="326.20999"></rect>
        <rect style="fill:#24195d;fill-opacity:1" id="rect226" height="3.29" width="23.360001" class="st1" y="659.96997" x="326.20999"></rect>
        <rect style="fill:#24195d;fill-opacity:1" id="rect228" height="3.29" width="23.360001" class="st1" y="669.82001" x="326.20999"></rect>
        <g style="fill:#24195d;fill-opacity:1" id="g238">
          <defs id="defs231">
            <rect height="294" width="294" y="538.5" x="198.64999" id="rect5356"></rect>
          </defs>
          <clipPath id="clipPath3930">
            <use id="use3928" style="overflow:visible" xlink:href="#SVGID_7_" x="0" y="0" width="100%" height="100%"></use>
          </clipPath>
          <path style="fill:#24195d;fill-opacity:1" id="path236" clip-path="url(#SVGID_8_)" d="m 435.84,690.15 -32.4,8.69 -21.34,-79.56 32.4,-8.69 z m 10.14,50.29 -7.76,2.08 -6.25,-23.28 7.76,-2.08 z m -18.35,4.92 -7.76,2.08 -6.25,-23.28 7.76,-2.08 z m -5.22,-139.03 c -1.16,-4.32 -3.94,-5.93 -8.24,-4.77 -11.93,3.19 -23.86,6.4 -35.79,9.6 -4.97,1.33 -6.45,3.86 -5.13,8.78 l 38.55,143.69 c 1.19,4.42 3.94,6.03 8.35,4.85 12.11,-3.24 24.21,-6.49 36.32,-9.74 4.14,-1.11 5.76,-3.99 4.64,-8.19 -12.9,-48.07 -25.79,-96.15 -38.7,-144.22" class="st8"></path>
        </g>
        <rect style="fill:#24195d;fill-opacity:1" id="rect240" height="9.8599997" width="23.360001" class="st1" transform="matrix(0.9659,-0.2591,0.2591,0.9659,-148.3802,125.2881)" y="620.70001" x="389.5"></rect>
        <rect style="fill:#24195d;fill-opacity:1" id="rect242" height="3.29" width="23.360001" class="st1" transform="matrix(0.9659,-0.2591,0.2591,0.9659,-154.3742,127.7739)" y="647.96997" x="395.92999"></rect>
        <rect style="fill:#24195d;fill-opacity:1" id="rect244" height="3.28" width="23.35" class="st1" transform="matrix(0.9659,-0.2591,0.2591,0.9659,-156.7539,128.761)" y="657.48999" x="398.48999"></rect>
        <rect style="fill:#24195d;fill-opacity:1" id="rect246" height="3.28" width="23.360001" class="st1" transform="matrix(0.9659,-0.2591,0.2591,0.9659,-159.134,129.7481)" y="667.02002" x="401.04001"></rect>
      </g>
    </g>
    <rect style="fill:#e7e7e8;stroke-width:0.264583" id="rect252" height="58.472916" width="88.900002" class="st4" y="-164.81046" x="-703.88367"></rect>
    <g transform="matrix(0.26458333,0,0,0.26458333,-579.52954,-164.67814)" id="g308">
      <g id="g262">
        <defs id="defs255">
          <rect height="147" width="147" y="9.5" x="-374.67999" id="rect5370"></rect>
        </defs>
        <clipPath id="clipPath3945">
          <use id="use3943" style="overflow:visible" xlink:href="#SVGID_9_" x="0" y="0" width="100%" height="100%"></use>
        </clipPath>
        <path id="path260" clip-path="url(#SVGID_10_)" d="m -332.11,89.35 h -16.77 V 48.17 h 16.77 z m -1.62,25.6 h -4.02 V 102.9 h 4.02 z m -9.49,0 h -4.02 V 102.9 h 4.02 z m 15.49,-67.81 c 0,-2.23 -1.13,-3.37 -3.36,-3.37 -6.18,0 -12.35,0 -18.53,0 -2.57,0 -3.62,1.03 -3.62,3.57 v 74.38 c 0,2.29 1.12,3.42 3.4,3.43 6.27,0 12.53,0.01 18.8,0 2.14,0 3.3,-1.18 3.3,-3.35 0.01,-24.89 0.01,-49.78 0.01,-74.66" class="st9"></path>
      </g>
      <rect id="rect264" height="4.9299998" width="11.68" class="st1" y="51.240002" x="-346.32001"></rect>
      <rect id="rect266" height="1.64" width="11.68" class="st1" y="65.300003" x="-346.32001"></rect>
      <rect id="rect268" height="1.64" width="11.68" class="st1" y="70.230003" x="-346.32001"></rect>
      <rect id="rect270" height="1.64" width="11.68" class="st1" y="75.160004" x="-346.32001"></rect>
      <g id="g280">
        <defs id="defs273">
          <rect height="147" width="147" y="9.5" x="-374.67999" id="rect5381"></rect>
        </defs>
        <clipPath id="clipPath3957">
          <use id="use3955" style="overflow:visible" xlink:href="#SVGID_11_" x="0" y="0" width="100%" height="100%"></use>
        </clipPath>
        <path id="path278" clip-path="url(#SVGID_12_)" d="m -296.68,89.35 h -16.77 V 48.17 h 16.77 z m -1.62,25.6 h -4.02 V 102.9 h 4.02 z m -9.5,0 h -4.02 V 102.9 h 4.02 z m 15.49,-67.81 c 0,-2.23 -1.13,-3.37 -3.36,-3.37 -6.18,0 -12.35,0 -18.53,0 -2.57,0 -3.62,1.03 -3.62,3.57 v 74.38 c 0,2.29 1.12,3.42 3.4,3.43 6.27,0 12.53,0.01 18.8,0 2.14,0 3.3,-1.18 3.3,-3.35 0.02,-24.89 0.02,-49.78 0.01,-74.66" class="st10"></path>
      </g>
      <rect id="rect282" height="4.9299998" width="11.68" class="st1" y="51.240002" x="-310.89999"></rect>
      <rect id="rect284" height="1.64" width="11.68" class="st1" y="65.300003" x="-310.89999"></rect>
      <rect id="rect286" height="1.64" width="11.68" class="st1" y="70.230003" x="-310.89999"></rect>
      <rect id="rect288" height="1.64" width="11.68" class="st1" y="75.160004" x="-310.89999"></rect>
      <g id="g298">
        <defs id="defs291">
          <rect height="147" width="147" y="9.5" x="-374.67999" id="rect5392"></rect>
        </defs>
        <clipPath id="clipPath3969">
          <use id="use3967" style="overflow:visible" xlink:href="#SVGID_13_" x="0" y="0" width="100%" height="100%"></use>
        </clipPath>
        <path id="path296" clip-path="url(#SVGID_14_)" d="m -256.08,85.32 -16.2,4.34 -10.67,-39.78 16.2,-4.35 z m 5.07,25.15 -3.88,1.04 -3.12,-11.64 3.88,-1.04 z m -9.17,2.46 -3.88,1.04 -3.12,-11.64 3.88,-1.04 z m -2.61,-69.51 c -0.58,-2.16 -1.97,-2.96 -4.12,-2.39 -5.97,1.6 -11.93,3.2 -17.9,4.8 -2.49,0.67 -3.23,1.93 -2.57,4.39 l 19.27,71.84 c 0.59,2.21 1.97,3.02 4.18,2.43 6.05,-1.62 12.11,-3.24 18.16,-4.87 2.07,-0.56 2.88,-2 2.32,-4.09 -6.44,-24.04 -12.89,-48.08 -19.34,-72.11" class="st11"></path>
      </g>
      <rect id="rect300" height="4.9299998" width="11.68" class="st1" transform="matrix(0.9659,-0.2591,0.2591,0.9659,-23.0808,-69.0187)" y="50.599998" x="-279.25"></rect>
      <rect id="rect302" height="1.64" width="11.68" class="st1" transform="matrix(0.9659,-0.2591,0.2591,0.9659,-26.0779,-67.7758)" y="64.239998" x="-276.03"></rect>
      <rect id="rect304" height="1.64" width="11.68" class="st1" transform="matrix(0.9659,-0.2591,0.2591,0.9659,-27.2677,-67.2822)" y="69" x="-274.75"></rect>
      <rect id="rect306" height="1.64" width="11.68" class="st1" transform="matrix(0.9659,-0.2591,0.2591,0.9659,-28.4577,-66.7887)" y="73.760002" x="-273.48001"></rect>
    </g>
    <rect style="fill:#e7e7e8;stroke-width:0.264583" id="rect322" height="58.472916" width="89.032303" class="st4" y="-73.529236" x="-703.61908"></rect>
    <g transform="matrix(0.26458333,0,0,0.26458333,-579.52954,-164.67814)" id="g354">
      <path id="path324" d="m -287.99,458.95 c -3.13,2 -5.21,4.36 -5.55,7.9 -0.34,3.53 0.59,6.62 3.31,8.98 4.14,3.58 11.04,3.52 14.96,-1.8 1.58,-2.15 2.16,-4.69 1.74,-7.31 -0.54,-3.38 -2.33,-6.01 -5.42,-7.74 2.62,-0.11 5.2,-0.1 7.77,-0.11 1.6,-0.01 2.31,-0.73 2.29,-2.32 -0.02,-1.48 -0.74,-2.18 -2.26,-2.18 -13.22,0 -26.43,0 -39.65,0 -4.12,0 -8.24,0.03 -12.36,-0.03 -0.6,-0.01 -1.58,-0.3 -1.73,-0.7 -0.93,-2.48 -1.68,-5.04 -2.55,-7.77 0.74,0 1.24,0 1.73,0 17,0 33.99,-0.03 50.99,0.03 2.4,0.01 4.73,-1.61 5.31,-4.25 0.85,-3.87 1.69,-7.73 2.58,-11.59 1.65,-7.18 3.42,-14.34 4.97,-21.55 0.65,-3.01 -0.17,-5.64 -4.4,-5.64 -24.39,-0.01 -48.78,0 -73.17,0 -0.34,0 -0.72,0.1 -1.01,-0.02 -0.4,-0.17 -0.93,-0.42 -1.07,-0.77 -0.65,-1.71 -1.33,-3.44 -1.74,-5.22 -0.74,-3.18 -3.24,-5.05 -6.61,-4.97 -3.52,0.08 -7.05,0.02 -10.58,0.02 -1.95,0 -3.91,-0.03 -5.86,0.01 -1.49,0.03 -2.85,1.34 -2.68,2.59 0.22,1.59 1.37,2.2 2.72,2.18 5.44,-0.08 10.88,0 16.32,-0.05 1.24,-0.01 1.8,0.44 2.14,1.61 1.04,3.51 2.17,7 3.3,10.49 2.33,7.22 4.68,14.43 7.01,21.65 2.67,8.25 5.32,16.5 8,24.75 0.78,2.39 2.7,3.74 5.22,3.74 1.35,0 2.71,0 4.06,0 -5.1,3.12 -6.1,7.29 -5.31,11.38 0.97,5.02 4.47,7.47 8.72,7.95 5.13,0.59 9.19,-2.27 10.65,-6.63 1.39,-4.18 0.74,-9.04 -4.98,-12.62 7.66,-0.01 15.22,-0.01 23.14,-0.01 z m 18.28,-64.25 c -0.12,-2.86 0.73,-5.44 2.07,-7.92 3.38,-6.27 10.75,-9.63 17.57,-8.13 7.77,1.71 13.99,9.16 12.91,17.91 -0.48,3.89 -2.09,7.19 -4.82,9.81 -4.39,4.19 -9.67,5.61 -15.64,4.14 -1.58,-0.39 -2.69,0.24 -3.14,1.76 -0.37,1.25 0.29,2.29 1.85,2.76 2.73,0.81 5.5,0.93 8.34,0.54 5.38,-0.74 9.82,-3.08 13.3,-7.27 3.73,-4.5 5.38,-9.6 4.87,-15.45 -0.5,-5.76 -2.87,-10.52 -7.29,-14.21 -6,-5 -12.83,-6.39 -20.23,-4.01 -9.76,3.13 -15.45,12.39 -14.46,22.63 0.09,0.91 0.3,1.82 0.59,2.68 0.38,1.11 1.5,1.62 2.82,1.3 1.06,-0.26 1.64,-0.98 1.57,-2.12 -0.1,-1.48 -0.21,-2.95 -0.31,-4.42 z m 13.91,-2.28 c -3.33,0 -6.47,0.03 -9.61,-0.01 -1.21,-0.02 -2.08,0.4 -2.35,1.61 -0.34,1.51 0.21,2.52 1.69,2.88 1.05,0.25 2.16,0.25 3.25,0.27 2.32,0.04 4.63,0.01 7.02,0.01 0,0.66 0,1.13 0,1.59 0,2.63 -0.03,5.27 0.01,7.9 0.02,1.57 0.97,2.5 2.39,2.49 1.43,-0.01 2.34,-0.98 2.35,-2.53 0.01,-2.46 0,-4.93 0,-7.39 0,-0.66 0,-1.32 0,-2.06 2.82,0 5.45,0.02 8.08,-0.01 0.79,-0.01 1.59,-0.1 2.36,-0.25 1.03,-0.2 1.9,-1.44 1.78,-2.42 -0.14,-1.18 -1.09,-2.07 -2.26,-2.07 -2,-0.01 -3.99,0 -5.99,0 -1.3,0 -2.6,0 -3.98,0 0,-3.37 0.01,-6.55 0,-9.73 -0.01,-2.06 -2.03,-3.3 -3.66,-2.1 -0.61,0.45 -1.01,1.56 -1.04,2.38 -0.12,3.08 -0.04,6.17 -0.04,9.44 z" class="st3"></path>
      <path id="path326" d="m -287.99,458.95 c -7.92,0 -15.47,0 -23.14,0 5.72,3.58 6.38,8.44 4.98,12.62 -1.45,4.36 -5.52,7.22 -10.65,6.63 -4.24,-0.49 -7.75,-2.94 -8.72,-7.95 -0.79,-4.08 0.21,-8.25 5.31,-11.38 -1.35,0 -2.71,0 -4.06,0 -2.52,0 -4.45,-1.35 -5.22,-3.74 -2.68,-8.25 -5.33,-16.5 -8,-24.75 -2.33,-7.22 -4.68,-14.43 -7.01,-21.65 -1.12,-3.49 -2.26,-6.98 -3.3,-10.49 -0.35,-1.16 -0.91,-1.62 -2.14,-1.61 -5.44,0.05 -10.88,-0.02 -16.32,0.05 -1.36,0.02 -2.51,-0.59 -2.72,-2.18 -0.17,-1.25 1.19,-2.56 2.68,-2.59 1.95,-0.04 3.91,-0.01 5.86,-0.01 3.53,0 7.06,0.07 10.58,-0.02 3.37,-0.08 5.87,1.79 6.61,4.97 0.42,1.78 1.09,3.5 1.74,5.22 0.13,0.35 0.66,0.6 1.07,0.77 0.29,0.12 0.67,0.02 1.01,0.02 24.39,0 48.78,0 73.17,0 4.23,0 5.05,2.63 4.4,5.64 -1.55,7.21 -3.32,14.36 -4.97,21.55 -0.89,3.86 -1.73,7.72 -2.58,11.59 -0.58,2.64 -2.91,4.26 -5.31,4.25 -17,-0.06 -33.99,-0.03 -50.99,-0.03 -0.5,0 -0.99,0 -1.73,0 0.87,2.74 1.62,5.29 2.55,7.77 0.15,0.4 1.13,0.69 1.73,0.7 4.12,0.06 8.24,0.03 12.36,0.03 13.22,0 26.43,0 39.65,0 1.52,0 2.24,0.7 2.26,2.18 0.02,1.58 -0.69,2.31 -2.29,2.32 -2.57,0.01 -5.14,0 -7.77,0.11 3.09,1.73 4.89,4.36 5.42,7.74 0.42,2.61 -0.16,5.16 -1.74,7.31 -3.92,5.32 -10.82,5.37 -14.96,1.8 -2.73,-2.36 -3.65,-5.44 -3.31,-8.98 0.34,-3.52 2.42,-5.89 5.55,-7.89 z m -51.73,-51.25 c 0.8,2.5 1.63,4.94 2.35,7.41 0.28,0.96 0.68,1.32 1.74,1.31 5.85,-0.06 11.71,-0.03 17.56,-0.03 0.41,0 0.82,-0.04 1.26,-0.06 0,-2.92 0,-5.74 0,-8.62 -7.65,-0.01 -15.22,-0.01 -22.91,-0.01 z m 27.82,-0.03 c 0,2.96 0,5.78 0,8.6 6.84,0 13.6,0 20.3,0 0,-2.93 0,-5.76 0,-8.6 -6.8,0 -13.5,0 -20.3,0 z m 25.21,8.72 c 5.91,0 11.68,0.01 17.45,-0.02 0.28,0 0.75,-0.32 0.81,-0.56 0.65,-2.68 1.24,-5.38 1.84,-8.06 -6.82,0 -13.45,0 -20.1,0 0,2.89 0,5.68 0,8.64 z m -4.89,12.44 c 0,-2.62 0,-5.1 0,-7.62 -6.81,0 -13.54,0 -20.29,0 0,2.58 0,5.09 0,7.62 6.8,0 13.49,0 20.29,0 z m -20.35,12.2 c 6.87,0 13.6,0 20.35,0 0,-2.48 0,-4.88 0,-7.29 -6.83,0 -13.59,0 -20.35,0 0,2.48 0,4.85 0,7.29 z m -23.44,-19.85 c 0.7,2.24 1.42,4.41 2.04,6.6 0.26,0.92 0.76,1.12 1.64,1.11 4.58,-0.04 9.16,-0.02 13.74,-0.02 0.37,0 0.74,-0.05 1.1,-0.07 0,-2.6 0,-5.11 0,-7.62 -6.22,0 -12.32,0 -18.52,0 z m 48.67,7.65 c 5.13,0 10.13,0 15.31,0 0.58,-2.51 1.15,-5.05 1.74,-7.59 -5.74,0 -11.37,0 -17.04,0 -0.01,2.54 -0.01,5 -0.01,7.59 z m -30.09,4.88 c -4.92,0 -9.7,0 -14.57,0 0.7,2.19 1.41,4.27 2,6.39 0.23,0.82 0.61,1.04 1.41,1.03 3.4,-0.04 6.79,-0.01 10.19,-0.02 0.32,0 0.64,-0.07 0.97,-0.1 0,-2.47 0,-4.83 0,-7.3 z m 30.11,7.41 c 3.23,0 6.32,0.02 9.41,0 3.66,-0.03 2.81,0.51 3.76,-2.9 0.41,-1.45 0.63,-2.96 0.95,-4.47 -4.87,0 -9.5,0 -14.19,0 0,2.27 0,4.44 0,6.6 0.01,0.2 0.04,0.41 0.07,0.77 z m 8.44,26.95 c 0.04,-3.03 -2.46,-5.14 -5.37,-5.33 -2.57,-0.17 -5.46,2.7 -5.36,5.44 0.1,2.59 1.89,5.27 5.36,5.32 2.99,0.03 5.37,-2.41 5.37,-5.43 z m -42.67,0.05 c -0.32,3.07 2.71,5.32 5.22,5.41 2.74,0.1 5.46,-2.95 5.37,-5.28 -0.12,-3.15 -2.32,-5.39 -5.39,-5.47 -2.33,-0.07 -5.39,2.01 -5.2,5.34 z" class="st12"></path>
      <path id="path328" d="m -269.71,394.7 c 0.1,1.47 0.22,2.94 0.31,4.41 0.07,1.14 -0.51,1.86 -1.57,2.12 -1.32,0.32 -2.44,-0.18 -2.82,-1.3 -0.29,-0.86 -0.5,-1.78 -0.59,-2.68 -1,-10.24 4.7,-19.5 14.46,-22.63 7.41,-2.38 14.24,-0.98 20.23,4.01 4.42,3.69 6.79,8.44 7.29,14.21 0.51,5.86 -1.13,10.96 -4.87,15.45 -3.48,4.19 -7.92,6.52 -13.3,7.27 -2.84,0.39 -5.61,0.27 -8.34,-0.54 -1.56,-0.46 -2.22,-1.5 -1.85,-2.76 0.45,-1.53 1.56,-2.15 3.14,-1.76 5.97,1.47 11.25,0.05 15.64,-4.14 2.74,-2.62 4.35,-5.92 4.82,-9.81 1.08,-8.76 -5.15,-16.21 -12.91,-17.91 -6.82,-1.5 -14.19,1.87 -17.57,8.13 -1.34,2.5 -2.19,5.07 -2.07,7.93 z" class="st12"></path>
      <path id="path330" d="m -255.8,392.42 c 0,-3.27 -0.07,-6.36 0.05,-9.45 0.03,-0.83 0.43,-1.93 1.04,-2.38 1.63,-1.2 3.65,0.04 3.66,2.1 0.01,3.18 0,6.36 0,9.73 1.38,0 2.68,0 3.98,0 2,0 3.99,0 5.99,0 1.16,0 2.12,0.89 2.26,2.07 0.12,0.98 -0.75,2.21 -1.78,2.42 -0.78,0.15 -1.57,0.25 -2.36,0.25 -2.63,0.03 -5.26,0.01 -8.08,0.01 0,0.74 0,1.4 0,2.06 0,2.46 0.01,4.93 0,7.39 -0.01,1.55 -0.92,2.52 -2.35,2.53 -1.42,0.01 -2.37,-0.92 -2.39,-2.49 -0.04,-2.63 -0.01,-5.27 -0.01,-7.9 0,-0.46 0,-0.93 0,-1.59 -2.39,0 -4.7,0.03 -7.02,-0.01 -1.09,-0.02 -2.2,-0.02 -3.25,-0.27 -1.48,-0.36 -2.03,-1.37 -1.69,-2.88 0.27,-1.22 1.14,-1.63 2.35,-1.61 3.13,0.05 6.27,0.02 9.6,0.02 z" class="st12"></path>
      <path id="path332" d="m -339.72,407.7 c 7.69,0 15.27,0 22.91,0 0,2.89 0,5.71 0,8.62 -0.44,0.02 -0.85,0.06 -1.26,0.06 -5.85,0 -11.71,-0.03 -17.56,0.03 -1.05,0.01 -1.46,-0.35 -1.74,-1.31 -0.72,-2.46 -1.55,-4.9 -2.35,-7.4 z" class="st4"></path>
      <path id="path334" d="m -311.9,407.67 c 6.8,0 13.5,0 20.3,0 0,2.84 0,5.67 0,8.6 -6.71,0 -13.46,0 -20.3,0 0,-2.82 0,-5.64 0,-8.6 z" class="st4"></path>
      <path id="path336" d="m -286.69,416.39 c 0,-2.96 0,-5.75 0,-8.65 6.65,0 13.28,0 20.1,0 -0.6,2.68 -1.19,5.38 -1.84,8.06 -0.06,0.25 -0.53,0.56 -0.81,0.56 -5.77,0.03 -11.54,0.03 -17.45,0.03 z" class="st4"></path>
      <path id="path338" d="m -291.58,428.83 c -6.79,0 -13.49,0 -20.29,0 0,-2.52 0,-5.04 0,-7.62 6.76,0 13.48,0 20.29,0 0,2.52 0,5 0,7.62 z" class="st4"></path>
      <path id="path340" d="m -311.93,441.03 c 0,-2.45 0,-4.81 0,-7.29 6.76,0 13.52,0 20.35,0 0,2.41 0,4.81 0,7.29 -6.75,0 -13.48,0 -20.35,0 z" class="st4"></path>
      <path id="path342" d="m -335.37,421.18 c 6.2,0 12.3,0 18.51,0 0,2.52 0,5.03 0,7.62 -0.37,0.02 -0.74,0.07 -1.1,0.07 -4.58,0 -9.16,-0.02 -13.74,0.02 -0.88,0.01 -1.38,-0.19 -1.64,-1.11 -0.61,-2.19 -1.33,-4.36 -2.03,-6.6 z" class="st4"></path>
      <path id="path344" d="m -286.7,428.83 c 0,-2.59 0,-5.05 0,-7.59 5.67,0 11.3,0 17.04,0 -0.58,2.54 -1.16,5.08 -1.74,7.59 -5.16,0 -10.17,0 -15.3,0 z" class="st4"></path>
      <path id="path346" d="m -316.79,433.71 c 0,2.46 0,4.83 0,7.3 -0.32,0.04 -0.64,0.1 -0.97,0.1 -3.4,0.01 -6.8,-0.02 -10.19,0.02 -0.8,0.01 -1.18,-0.22 -1.41,-1.03 -0.59,-2.12 -1.31,-4.2 -2,-6.39 4.87,0 9.65,0 14.57,0 z" class="st4"></path>
      <path id="path348" d="m -286.68,441.12 c -0.03,-0.36 -0.06,-0.57 -0.06,-0.77 0,-2.16 0,-4.32 0,-6.6 4.68,0 9.32,0 14.19,0 -0.31,1.52 -0.54,3.02 -0.95,4.47 -0.96,3.4 -0.1,2.87 -3.76,2.9 -3.1,0.02 -6.19,0 -9.42,0 z" class="st4"></path>
      <path id="path350" d="m -278.24,468.07 c 0,3.02 -2.38,5.46 -5.38,5.42 -3.47,-0.05 -5.26,-2.72 -5.36,-5.32 -0.1,-2.74 2.8,-5.61 5.36,-5.44 2.92,0.2 5.42,2.3 5.38,5.34 z" class="st4"></path>
      <path id="path352" d="m -320.91,468.12 c -0.19,-3.33 2.86,-5.41 5.2,-5.34 3.07,0.09 5.27,2.32 5.39,5.47 0.09,2.33 -2.63,5.38 -5.37,5.28 -2.51,-0.1 -5.54,-2.35 -5.22,-5.41 z" class="st4"></path>
    </g>
    <g transform="matrix(0.26458333,0,0,0.26458333,-579.52954,-164.67814)" id="g386">
      <g id="g384">
        <defs id="defs357">
          <rect height="297.31" width="297.31" y="-494.16" x="190" id="rect5421"></rect>
        </defs>
        <clipPath id="clipPath4005">
          <use id="use4003" style="overflow:visible" xlink:href="#SVGID_15_" x="0" y="0" width="100%" height="100%"></use>
        </clipPath>
        <path id="path362" clip-path="url(#SVGID_16_)" d="m 344.28,-342.82 c -0.26,0.51 -0.51,0.77 -1.02,1.28 H 343 c -0.25,0.25 -0.77,0.51 -1.02,0.77 0,0 -0.26,0.26 -0.51,0.26 -0.26,0.26 -0.77,0.26 -1.02,0.51 h -0.26 c -0.51,0 -1.02,0.26 -1.53,0.26 -0.51,0 -1.02,0 -1.53,-0.26 h -0.51 c -0.26,0 -0.77,-0.26 -1.02,-0.51 h -0.26 -0.26 c -0.26,0 -0.26,-0.26 -0.51,-0.51 -0.26,0 -0.26,-0.26 -0.51,-0.26 l -0.51,-0.51 -0.51,-0.51 c 0,-0.26 -0.26,-0.26 -0.26,-0.51 0,-0.25 -0.26,-0.26 -0.26,-0.51 0,-0.26 -0.26,-0.51 -0.26,-0.51 0,-0.26 -0.26,-0.26 -0.26,-0.51 v -0.51 -0.77 -0.26 -102.58 c 0,-3.58 2.81,-6.39 6.4,-6.39 19.19,0 37.86,5.12 54.23,14.58 3.07,1.79 4.09,5.63 2.3,8.7 -1.28,2.05 -3.33,3.07 -5.63,3.07 -1.02,0 -2.3,-0.26 -3.07,-0.77 -12.79,-7.42 -26.86,-11.77 -41.44,-12.53 v 71.88 l 19.95,-34.79 c 1.79,-3.07 5.63,-4.09 8.7,-2.3 3.07,1.79 4.09,5.63 2.3,8.7 z" class="st13"></path>
        <path id="path364" clip-path="url(#SVGID_16_)" d="m 283.89,-441.31 c 1.27,-0.77 2.55,-1.02 3.82,-1.02 2.8,0 5.35,1.54 6.62,3.84 1.02,1.79 1.27,3.84 0.76,5.88 -0.51,2.05 -1.78,3.58 -3.57,4.6 -1.27,0.77 -2.55,1.02 -3.82,1.02 -2.8,0 -5.35,-1.54 -6.62,-3.84 -1.02,-1.79 -1.27,-3.84 -0.76,-5.88 0.52,-2.04 1.79,-3.58 3.57,-4.6" class="st13"></path>
        <path id="path366" clip-path="url(#SVGID_16_)" d="m 250.14,-389.64 c -1.28,0 -2.56,-0.26 -3.84,-1.02 -3.58,-2.05 -4.86,-6.91 -2.81,-10.49 1.28,-2.3 3.84,-3.84 6.65,-3.84 1.28,0 2.56,0.25 3.84,1.02 3.58,2.05 4.86,6.91 2.81,10.49 -1.28,2.31 -3.83,3.84 -6.65,3.84" class="st13"></path>
        <path id="path368" clip-path="url(#SVGID_16_)" d="m 338.65,-251.5 c 4.24,0 7.67,3.44 7.67,7.67 0,4.23 -3.44,7.67 -7.67,7.67 -4.23,0 -7.67,-3.44 -7.67,-7.67 0,-4.23 3.44,-7.67 7.67,-7.67" class="st13"></path>
        <path id="path370" clip-path="url(#SVGID_16_)" d="m 236.33,-353.82 c 4.24,0 7.67,3.44 7.67,7.67 0,4.24 -3.44,7.67 -7.67,7.67 -4.24,0 -7.67,-3.44 -7.67,-7.67 -0.01,-4.24 3.43,-7.67 7.67,-7.67" class="st13"></path>
        <path id="path372" clip-path="url(#SVGID_16_)" d="m 440.98,-353.82 c 4.24,0 7.67,3.44 7.67,7.67 0,4.24 -3.44,7.67 -7.67,7.67 -4.24,0 -7.67,-3.44 -7.67,-7.67 0,-4.24 3.43,-7.67 7.67,-7.67" class="st13"></path>
        <path id="path374" clip-path="url(#SVGID_16_)" d="m 386.23,-264.29 c 1.28,-0.77 2.56,-1.02 3.84,-1.02 2.81,0 5.37,1.54 6.65,3.84 1.02,1.79 1.28,3.84 0.77,5.88 -0.51,2.05 -1.79,3.58 -3.58,4.6 -1.28,0.77 -2.56,1.02 -3.84,1.02 -2.81,0 -5.37,-1.54 -6.65,-3.84 -1.02,-1.79 -1.28,-3.84 -0.77,-5.88 0.51,-1.78 1.8,-3.57 3.58,-4.6" class="st13"></path>
        <path id="path376" clip-path="url(#SVGID_16_)" d="m 246.3,-301.64 c 1.28,-0.77 2.56,-1.02 3.84,-1.02 2.81,0 5.37,1.54 6.65,3.84 2.05,3.58 0.77,8.44 -2.81,10.49 -1.28,0.77 -2.56,1.02 -3.84,1.02 -2.81,0 -5.37,-1.54 -6.65,-3.84 -2.05,-3.58 -0.77,-8.44 2.81,-10.49" class="st13"></path>
        <path id="path378" clip-path="url(#SVGID_16_)" d="m 427.42,-302.66 v 0 c 1.28,0 2.56,0.26 3.84,1.02 3.58,2.05 4.86,6.91 2.81,10.49 -1.28,2.3 -3.84,3.84 -6.65,3.84 -1.28,0 -2.56,-0.25 -3.84,-1.02 -3.58,-2.05 -4.86,-6.91 -2.81,-10.49 1.28,-2.31 3.84,-3.84 6.65,-3.84" class="st13"></path>
        <path id="path380" clip-path="url(#SVGID_16_)" d="m 287.71,-265.31 v 0 c 1.27,0 2.55,0.26 3.82,1.02 1.78,1.02 3.06,2.56 3.57,4.6 0.51,2.04 0.25,4.09 -0.76,5.88 -1.27,2.3 -3.82,3.84 -6.62,3.84 -1.27,0 -2.55,-0.26 -3.82,-1.02 -1.78,-1.02 -3.06,-2.56 -3.57,-4.61 -0.51,-2.05 -0.25,-4.09 0.76,-5.88 1.27,-2.3 3.82,-3.83 6.62,-3.83" class="st13"></path>
        <path id="path382" clip-path="url(#SVGID_16_)" d="m 423.58,-403.96 c 1.28,-0.77 2.56,-1.02 3.84,-1.02 2.81,0 5.37,1.54 6.65,3.84 2.05,3.58 0.77,8.44 -2.81,10.49 -1.28,0.77 -2.56,1.02 -3.84,1.02 -2.81,0 -5.37,-1.54 -6.65,-3.84 -2.05,-3.58 -0.77,-8.45 2.81,-10.49" class="st13"></path>
      </g>
    </g>
    <g transform="matrix(0.26458333,0,0,0.26458333,-579.52954,-164.67814)" id="g390">
      <path id="path388" d="m -419.12,933.15 c 0.14,-0.43 0.22,-0.88 0.22,-1.35 v -49.89 c 0,-2.37 -1.92,-4.28 -4.28,-4.28 h -23.84 v 53.1 c 0,0.85 -0.16,1.67 -0.43,2.43 h -2.8 c 0.14,-0.43 0.22,-0.88 0.22,-1.35 v -68.52 c 0,-2.36 -1.92,-4.28 -4.28,-4.28 h -37.4 c -2.36,0 -4.28,1.92 -4.28,4.28 v 68.52 c 0,0.47 0.08,0.93 0.23,1.35 h -2.8 c -0.27,-0.76 -0.43,-1.57 -0.43,-2.43 v -53.1 h -23.27 c -2.37,0 -4.28,1.91 -4.28,4.28 v 49.89 c 0,0.47 0.08,0.93 0.22,1.35 h -7.36 V 942 h 121.34 v -8.85 z m -94.56,-17.48 h -6.14 v -6.14 h 6.14 z m 0,-10.78 h -6.14 v -6.14 h 6.14 z m 0,-10.42 h -6.14 v -6.14 h 6.14 z m 9.56,21.2 h -6.14 v -6.14 h 6.14 z m 0,-10.78 h -6.14 v -6.14 h 6.14 z m 0,-10.42 h -6.14 v -6.14 h 6.14 z m 40.65,38.4 h -18.02 v -22.49 h 18.02 z M -473,896.48 c -8.34,0 -15.1,-6.76 -15.1,-15.1 0,-8.34 6.76,-15.1 15.1,-15.1 8.34,0 15.1,6.76 15.1,15.1 -0.01,8.34 -6.76,15.1 -15.1,15.1 z m 38.97,19.19 h -6.14 v -6.14 h 6.14 z m 0,-10.78 h -6.14 v -6.14 h 6.14 z m 0,-10.42 h -6.14 v -6.14 h 6.14 z m 9.56,21.2 h -6.14 v -6.14 h 6.14 z m 0,-10.78 h -6.14 v -6.14 h 6.14 z m 0,-10.42 h -6.14 v -6.14 h 6.14 z m -44.78,-16.83 h 5.78 v 7.49 h -5.78 v 5.78 h -7.49 v -5.78 h -5.79 v -7.49 h 5.79 v -5.79 h 7.49 z m 0,-1.37" class="st0"></path>
    </g>
    <g transform="matrix(0.26458333,0,0,0.26458333,-579.52954,-164.67814)" id="g394">
      <path id="path392" d="m -444.58,1453.72 c 0.07,-0.23 0.12,-0.47 0.12,-0.71 v -26.31 c 0,-1.25 -1.01,-2.26 -2.26,-2.26 h -12.57 v 28.01 c 0,0.45 -0.08,0.88 -0.22,1.28 H -461 c 0.07,-0.23 0.12,-0.47 0.12,-0.71 v -36.14 c 0,-1.25 -1.01,-2.26 -2.26,-2.26 h -19.73 c -1.25,0 -2.26,1.01 -2.26,2.26 v 36.14 c 0,0.25 0.04,0.49 0.12,0.71 h -1.47 c -0.14,-0.4 -0.23,-0.83 -0.23,-1.28 v -28.01 h -12.27 c -1.25,0 -2.26,1.01 -2.26,2.26 v 26.31 c 0,0.25 0.04,0.49 0.12,0.71 H -505 v 4.67 h 64 v -4.67 z m -49.88,-9.22 h -3.24 v -3.24 h 3.24 z m 0,-5.68 h -3.24 v -3.24 h 3.24 z m 0,-5.5 h -3.24 v -3.24 h 3.24 z m 5.04,11.18 h -3.24 v -3.24 h 3.24 z m 0,-5.68 h -3.24 v -3.24 h 3.24 z m 0,-5.5 h -3.24 v -3.24 h 3.24 z m 21.44,20.25 h -9.51 v -11.86 h 9.51 z m -5.02,-19.19 c -4.4,0 -7.96,-3.56 -7.96,-7.96 0,-4.4 3.57,-7.96 7.96,-7.96 4.4,0 7.96,3.56 7.96,7.96 0,4.4 -3.56,7.96 -7.96,7.96 z m 20.56,10.12 h -3.24 v -3.24 h 3.24 z m 0,-5.68 h -3.24 v -3.24 h 3.24 z m 0,-5.5 h -3.24 v -3.24 h 3.24 z m 5.04,11.18 h -3.24 v -3.24 h 3.24 z m 0,-5.68 h -3.24 v -3.24 h 3.24 z m 0,-5.5 h -3.24 v -3.24 h 3.24 z m -23.62,-8.88 h 3.05 v 3.95 h -3.05 v 3.05 h -3.95 v -3.05 h -3.05 v -3.95 h 3.05 v -3.05 h 3.95 z m 0,-0.72" class="st0"></path>
    </g>
    <g transform="matrix(0.26458333,0,0,0.26458333,-579.52954,-164.67814)" id="g402">
      <path id="path396" d="m -502.19,1222.17 -0.4,-0.07 0.07,0.86 c 0.04,0.58 0.07,1.17 0.07,1.79 v 7.3 l -11.61,0.86 v -9.35 c 0,-0.31 0.02,-0.64 0.07,-0.99 l 0.07,-0.6 -0.66,0.13 c -0.4,0.09 -0.86,0.13 -1.39,0.13 h -17.51 v -7.36 l 11.68,-29.72 h 11.48 l -8.03,21.08 c -0.18,0.4 -0.38,0.89 -0.6,1.46 -0.22,0.58 -0.45,1.15 -0.7,1.73 -0.24,0.58 -0.51,1.13 -0.8,1.66 -0.29,0.53 -0.59,0.95 -0.9,1.26 h 0.46 c 0.35,-0.04 0.71,-0.07 1.06,-0.07 h 4.98 c 0.18,0 0.35,0.02 0.53,0.07 h 0.33 l -0.07,-0.27 c 0,-0.18 0,-0.35 0,-0.53 0,-1.02 0.03,-2.29 0.1,-3.81 0.07,-1.53 0.25,-3.35 0.56,-5.47 l 0.6,-4.18 10.35,-1.53 v 9.42 c 0,1.68 -0.04,3.08 -0.13,4.21 -0.09,1.13 -0.16,1.85 -0.2,2.16 h 3.98 v 9.88 h -2.39 c -0.36,0.01 -0.69,-0.01 -1,-0.05 z" class="st14"></path>
      <path id="path398" d="m -463.71,1213.45 c -1.06,3.22 -2.62,6.06 -4.68,8.55 -2.06,2.48 -4.61,4.67 -7.66,6.55 -3.05,1.88 -6.59,3.65 -10.61,5.29 l -5.97,-7.03 c 2.48,-0.8 4.64,-1.75 6.5,-2.85 1.86,-1.11 3.44,-2.21 4.74,-3.32 1.3,-1.11 2.33,-2.18 3.08,-3.22 0.75,-1.04 1.26,-1.89 1.53,-2.55 -1.37,0.71 -2.92,1.06 -4.64,1.06 -1.99,0 -3.87,-0.31 -5.64,-0.93 -1.77,-0.62 -3.32,-1.57 -4.64,-2.83 -1.33,-1.27 -2.37,-2.87 -3.12,-4.8 -0.75,-1.93 -1.13,-4.23 -1.13,-6.89 0,-2.31 0.42,-4.45 1.26,-6.43 0.84,-1.98 2.02,-3.67 3.55,-5.1 1.53,-1.42 3.37,-2.53 5.54,-3.33 2.17,-0.8 4.58,-1.2 7.23,-1.2 5.44,0 9.51,1.61 12.21,4.82 2.7,3.22 4.05,7.55 4.05,13 -0.01,4.26 -0.54,8 -1.6,11.21 z M -479,1193.71 c -1.54,0 -2.7,0.55 -3.49,1.66 -0.79,1.11 -1.18,2.72 -1.18,4.84 0,1.86 0.53,3.39 1.58,4.61 1.05,1.22 2.41,1.82 4.08,1.82 1.18,0 2.15,-0.27 2.9,-0.8 0.22,-0.8 0.34,-1.6 0.36,-2.42 0.02,-0.82 0.03,-1.67 0.03,-2.55 0,-4.78 -1.43,-7.16 -4.28,-7.16 z" class="st14"></path>
      <path id="path400" d="m -418.2,1229.68 c -2.34,0.87 -5.24,1.31 -8.69,1.31 -2.92,0 -5.63,-0.46 -8.14,-1.38 -2.51,-0.92 -4.82,-2.56 -6.93,-4.93 -1.98,-2.23 -3.41,-5.04 -4.29,-8.42 h -7.63 v -6.97 h 6.63 v -3.45 c 0,-0.27 0.02,-0.51 0.07,-0.73 h -6.7 v -6.97 h 7.89 c 0.22,-0.79 0.49,-1.57 0.83,-2.33 0.33,-0.77 0.69,-1.52 1.09,-2.27 1.98,-3.59 4.55,-6.22 7.73,-7.89 3.17,-1.67 6.81,-2.5 10.93,-2.5 1.19,0 2.38,0.08 3.55,0.23 1.17,0.15 2.29,0.38 3.35,0.69 1.06,0.31 2.01,0.66 2.85,1.05 0.84,0.4 1.53,0.86 2.06,1.38 l -5.04,8.71 c -2.08,-1.64 -4.38,-2.45 -6.9,-2.45 -1.02,0 -1.98,0.14 -2.89,0.43 -0.91,0.28 -1.67,0.73 -2.29,1.34 -0.53,0.57 -0.98,1.13 -1.36,1.67 -0.38,0.55 -0.67,1.19 -0.9,1.93 h 10.02 v 6.97 h -10.75 v 3.25 c 0,0.31 0.02,0.62 0.07,0.93 h 10.68 v 6.97 h -9.75 c 0.18,0.44 0.38,0.84 0.6,1.19 0.22,0.35 0.44,0.69 0.66,0.99 0.75,0.89 1.61,1.59 2.59,2.12 0.97,0.53 2.08,0.8 3.32,0.8 1.5,0 2.89,-0.22 4.15,-0.66 1.26,-0.44 2.53,-1.24 3.81,-2.39 l 5.11,8.02 c -1.49,1.38 -3.39,2.49 -5.73,3.36 z" class="st14"></path>
    </g>
    <g transform="matrix(0.26458333,0,0,0.26458333,-579.52954,-164.67814)" id="g410">
      <path id="path404" d="m -488.44,1612.73 -0.21,-0.04 0.04,0.46 c 0.02,0.3 0.04,0.62 0.04,0.95 v 3.86 l -6.14,0.46 v -4.95 c 0,-0.16 0.01,-0.34 0.04,-0.53 l 0.04,-0.32 -0.35,0.07 c -0.21,0.05 -0.46,0.07 -0.74,0.07 H -505 v -3.89 l 6.18,-15.72 h 6.07 l -4.25,11.15 c -0.09,0.21 -0.2,0.47 -0.32,0.77 -0.12,0.3 -0.24,0.61 -0.37,0.91 -0.13,0.3 -0.27,0.6 -0.42,0.88 -0.15,0.28 -0.31,0.5 -0.47,0.67 h 0.25 c 0.19,-0.02 0.37,-0.04 0.56,-0.04 h 2.63 c 0.09,0 0.19,0.01 0.28,0.04 h 0.18 l -0.04,-0.14 c 0,-0.09 0,-0.19 0,-0.28 0,-0.54 0.02,-1.21 0.05,-2.02 0.04,-0.81 0.13,-1.77 0.3,-2.89 l 0.32,-2.21 5.47,-0.81 v 4.98 c 0,0.89 -0.02,1.63 -0.07,2.23 -0.05,0.6 -0.08,0.98 -0.11,1.14 h 2.11 v 5.23 h -1.26 c -0.19,0 -0.37,-0.01 -0.53,-0.03 z" class="st14"></path>
      <path id="path406" d="m -468.09,1608.12 c -0.56,1.7 -1.39,3.21 -2.47,4.52 -1.09,1.31 -2.44,2.47 -4.05,3.47 -1.61,1 -3.49,1.93 -5.61,2.8 l -3.16,-3.72 c 1.31,-0.42 2.46,-0.92 3.44,-1.51 0.98,-0.58 1.82,-1.17 2.51,-1.75 0.69,-0.58 1.23,-1.15 1.63,-1.7 0.4,-0.55 0.67,-1 0.81,-1.35 -0.73,0.37 -1.54,0.56 -2.46,0.56 -1.05,0 -2.05,-0.16 -2.98,-0.49 -0.94,-0.33 -1.75,-0.83 -2.46,-1.5 -0.7,-0.67 -1.25,-1.52 -1.65,-2.54 -0.4,-1.02 -0.6,-2.24 -0.6,-3.65 0,-1.22 0.22,-2.35 0.67,-3.4 0.44,-1.05 1.07,-1.94 1.88,-2.7 0.81,-0.75 1.78,-1.34 2.93,-1.76 1.15,-0.42 2.42,-0.63 3.82,-0.63 2.88,0 5.03,0.85 6.46,2.55 1.43,1.7 2.14,3.99 2.14,6.88 -0.01,2.24 -0.29,4.22 -0.85,5.92 z m -8.09,-10.44 c -0.81,0 -1.43,0.29 -1.85,0.88 -0.42,0.59 -0.63,1.44 -0.63,2.56 0,0.98 0.28,1.8 0.84,2.44 0.56,0.64 1.28,0.96 2.16,0.96 0.63,0 1.14,-0.14 1.53,-0.42 0.12,-0.42 0.18,-0.85 0.19,-1.28 0.01,-0.43 0.02,-0.88 0.02,-1.35 0.01,-2.53 -0.75,-3.79 -2.26,-3.79 z" class="st14"></path>
      <path id="path408" d="m -444.02,1616.7 c -1.24,0.46 -2.77,0.69 -4.6,0.69 -1.54,0 -2.98,-0.24 -4.31,-0.73 -1.33,-0.49 -2.55,-1.36 -3.67,-2.61 -1.05,-1.18 -1.8,-2.67 -2.27,-4.45 h -4.04 v -3.68 h 3.51 v -1.82 c 0,-0.14 0.01,-0.27 0.04,-0.39 h -3.54 v -3.68 h 4.18 c 0.12,-0.42 0.26,-0.83 0.44,-1.23 0.17,-0.41 0.37,-0.81 0.58,-1.2 1.05,-1.9 2.41,-3.29 4.09,-4.17 1.68,-0.88 3.6,-1.32 5.78,-1.32 0.63,0 1.26,0.04 1.88,0.12 0.62,0.08 1.21,0.2 1.77,0.37 0.56,0.16 1.06,0.35 1.51,0.56 0.44,0.21 0.81,0.45 1.09,0.73 l -2.67,4.61 c -1.1,-0.87 -2.32,-1.3 -3.65,-1.3 -0.54,0 -1.05,0.07 -1.53,0.23 -0.48,0.15 -0.88,0.39 -1.21,0.71 -0.28,0.3 -0.52,0.6 -0.72,0.88 -0.2,0.29 -0.36,0.63 -0.47,1.02 h 5.3 v 3.68 h -5.68 v 1.72 c 0,0.16 0.01,0.33 0.04,0.49 h 5.65 v 3.68 h -5.16 c 0.09,0.23 0.2,0.44 0.32,0.63 0.12,0.19 0.23,0.36 0.35,0.53 0.4,0.47 0.85,0.84 1.37,1.12 0.51,0.28 1.1,0.42 1.75,0.42 0.79,0 1.53,-0.12 2.19,-0.35 0.67,-0.23 1.34,-0.65 2.02,-1.26 l 2.7,4.24 c -0.79,0.71 -1.8,1.3 -3.04,1.76 z" class="st14"></path>
    </g>
    <g style="fill:#24195d;fill-opacity:1" id="g121" transform="matrix(2.1375106,0,0,2.0548334,-41.08705,264.9314)">
      <path style="fill:#24195d;fill-opacity:1" id="path74" d="M 44.2,48" class="st0"></path>
      <g style="fill:#24195d;fill-opacity:1" id="g98">
        <path style="fill:#24195d;fill-opacity:1" id="path76" d="m 87.3,140 c 1.4,0 2.6,-1.2 2.6,-2.6 0,-1.4 -1.2,-2.6 -2.6,-2.6 -1.4,0 -2.6,1.2 -2.6,2.6 0,1.5 1.2,2.6 2.6,2.6 z" class="st1"></path>
        <path style="fill:#24195d;fill-opacity:1" id="path78-2" d="m 69.9,139.7 c 1.3,0 2.3,-1 2.3,-2.3 0,-1.3 -1,-2.3 -2.3,-2.3 -1.3,0 -2.3,1 -2.3,2.3 0,1.3 1.1,2.3 2.3,2.3 z" class="st1"></path>
        <path style="fill:#24195d;fill-opacity:1" id="path80-9" d="m 105.5,139.7 c 1.3,0 2.3,-1 2.3,-2.3 0,-1.3 -1,-2.3 -2.3,-2.3 -1.3,0 -2.3,1 -2.3,2.3 0,1.3 1,2.3 2.3,2.3 z" class="st1"></path>
        <path style="fill:#24195d;fill-opacity:1" id="path82-8" d="m 50.8,139.7 c 1.3,0 2.3,-1 2.3,-2.3 0,-1.3 -1,-2.3 -2.3,-2.3 -1.3,0 -2.3,1 -2.3,2.3 0,1.3 1,2.3 2.3,2.3 z" class="st1"></path>
        <path style="fill:#24195d;fill-opacity:1" id="path84-3" d="m 128.7,146.9 v -0.6 c 4.4,-0.5 7.8,-4.3 7.8,-8.8 0,-4.5 -3.4,-8.3 -7.8,-8.8 v -0.6 H 44 v 0.6 c -4.4,0.5 -7.8,4.3 -7.8,8.8 0,4.5 3.4,8.3 7.8,8.8 v 0.6 z m -77.9,-14 c 2.1,0 3.9,1.5 4.4,3.4 h 10.4 c 0.5,-1.9 2.3,-3.4 4.4,-3.4 2.1,0 3.9,1.5 4.4,3.4 h 8.4 c 0.5,-2.1 2.4,-3.7 4.7,-3.7 2.3,0 4.2,1.6 4.7,3.7 h 9.1 c 0.5,-1.9 2.3,-3.4 4.4,-3.4 2.1,0 3.9,1.5 4.4,3.4 h 9.3 c 0.5,-1.9 2.3,-3.4 4.4,-3.4 2.5,0 4.5,2 4.5,4.5 0,2.5 -2,4.5 -4.5,4.5 -2.1,0 -3.9,-1.5 -4.4,-3.4 h -9.6 c -0.5,1.9 -2.3,3.4 -4.4,3.4 -2.1,0 -3.9,-1.5 -4.4,-3.4 h -9.1 c -0.5,2.1 -2.4,3.7 -4.7,3.7 -2.3,0 -4.2,-1.6 -4.7,-3.7 h -8.4 c -0.5,1.9 -2.3,3.4 -4.4,3.4 -2.1,0 -3.9,-1.5 -4.4,-3.4 H 55.1 c -0.5,1.9 -2.3,3.4 -4.4,3.4 -2.5,0 -4.5,-2 -4.5,-4.5 0.1,-2.4 2.1,-4.5 4.6,-4.5 z" class="st1"></path>
        <path style="fill:#24195d;fill-opacity:1" id="path86-6" d="m 123.5,139.7 c 1.3,0 2.3,-1 2.3,-2.3 0,-1.3 -1,-2.3 -2.3,-2.3 -1.3,0 -2.3,1 -2.3,2.3 0,1.3 1,2.3 2.3,2.3 z" class="st1"></path>
        <path style="fill:#24195d;fill-opacity:1" id="path88-6" d="M 121.2,100.6 113.7,87.5 H 89.9 v 12 l -13.1,0.6 V 97 L 59.3,96.7 v 2.8 h -6.2 v 7.9 h 23.7 v 3.2 H 53.1 v 10.2 h 68.1 c 0,0 0,-20.2 0,-20.2 z m -4.8,6.8 H 94.3 V 91.5 h 16.6 l 5.6,7.9 z" class="st1"></path>
        <g style="fill:#24195d;fill-opacity:1" id="g96">
          <path style="fill:#24195d;fill-opacity:1" id="path90-7" d="M 110.6,71.7 133.4,54.5 V 44.8 L 105.5,61.5 94.3,84.2 h 16.3 c 0,0 0,-12.5 0,-12.5 z" class="st1"></path>
          <path style="fill:#24195d;fill-opacity:1" id="path92-1" d="m 172.9,99 -32,-58.1 -4.4,3.9 v 8.1 L 165.1,99 Z" class="st1"></path>
          <path style="fill:#24195d;fill-opacity:1" id="path94-0" d="m 167,104.2 c 0.2,16.2 -15,16.6 -15,16.6 30.8,12.1 20.8,-16.6 20.8,-16.6 z" class="st1"></path>
        </g>
      </g>
    </g>
  </g>
  <style type="text/css" id="style10">
	.st0{fill:#A31747;}
	.st1{fill:#A3184A;}
	.st2{fill:none;stroke:#A3184A;stroke-width:0.338;stroke-miterlimit:10;}
	.st3{fill:#FFFFFF;}
	.st4{fill:#E7E7E8;}
	.st5{clip-path:url(#SVGID_2_);fill:#A3184A;}
	.st6{clip-path:url(#SVGID_4_);fill:#A3184A;}
	.st7{clip-path:url(#SVGID_6_);fill:#A3184A;}
	.st8{clip-path:url(#SVGID_8_);fill:#A3184A;}
	.st9{clip-path:url(#SVGID_10_);fill:#A3184A;}
	.st10{clip-path:url(#SVGID_12_);fill:#A3184A;}
	.st11{clip-path:url(#SVGID_14_);fill:#A3184A;}
	.st12{fill:#A21749;}
	.st13{clip-path:url(#SVGID_16_);fill:#A3184A;}
	.st14{fill:#A31749;}
</style>
  <style type="text/css" id="style691">
	.st0{fill:#A31747;}
	.st1{fill:#A3184A;}
	.st2{fill:none;stroke:#A3184A;stroke-width:0.338;stroke-miterlimit:10;}
	.st3{fill:#FFFFFF;}
	.st4{fill:#E7E7E8;}
	.st5{clip-path:url(#SVGID_2_);fill:#A3184A;}
	.st6{clip-path:url(#SVGID_4_);fill:#A3184A;}
	.st7{clip-path:url(#SVGID_6_);fill:#A3184A;}
	.st8{clip-path:url(#SVGID_8_);fill:#A3184A;}
	.st9{clip-path:url(#SVGID_10_);fill:#A3184A;}
	.st10{clip-path:url(#SVGID_12_);fill:#A3184A;}
	.st11{clip-path:url(#SVGID_14_);fill:#A3184A;}
	.st12{fill:#A21749;}
	.st13{clip-path:url(#SVGID_16_);fill:#A3184A;}
	.st14{fill:#A31749;}
</style>
  <style type="text/css" id="style1372">
	.st0{fill:#A31747;}
	.st1{fill:#A3184A;}
	.st2{fill:none;stroke:#A3184A;stroke-width:0.338;stroke-miterlimit:10;}
	.st3{fill:#FFFFFF;}
	.st4{fill:#E7E7E8;}
	.st5{clip-path:url(#SVGID_2_);fill:#A3184A;}
	.st6{clip-path:url(#SVGID_4_);fill:#A3184A;}
	.st7{clip-path:url(#SVGID_6_);fill:#A3184A;}
	.st8{clip-path:url(#SVGID_8_);fill:#A3184A;}
	.st9{clip-path:url(#SVGID_10_);fill:#A3184A;}
	.st10{clip-path:url(#SVGID_12_);fill:#A3184A;}
	.st11{clip-path:url(#SVGID_14_);fill:#A3184A;}
	.st12{fill:#A21749;}
	.st13{clip-path:url(#SVGID_16_);fill:#A3184A;}
	.st14{fill:#A31749;}
</style>
  <style type="text/css" id="style2053">
	.st0{fill:#A31747;}
	.st1{fill:#A3184A;}
	.st2{fill:none;stroke:#A3184A;stroke-width:0.338;stroke-miterlimit:10;}
	.st3{fill:#FFFFFF;}
	.st4{fill:#E7E7E8;}
	.st5{clip-path:url(#SVGID_2_);fill:#A3184A;}
	.st6{clip-path:url(#SVGID_4_);fill:#A3184A;}
	.st7{clip-path:url(#SVGID_6_);fill:#A3184A;}
	.st8{clip-path:url(#SVGID_8_);fill:#A3184A;}
	.st9{clip-path:url(#SVGID_10_);fill:#A3184A;}
	.st10{clip-path:url(#SVGID_12_);fill:#A3184A;}
	.st11{clip-path:url(#SVGID_14_);fill:#A3184A;}
	.st12{fill:#A21749;}
	.st13{clip-path:url(#SVGID_16_);fill:#A3184A;}
	.st14{fill:#A31749;}
</style>
  <style type="text/css" id="style2734">
	.st0{fill:#A31747;}
	.st1{fill:#A3184A;}
	.st2{fill:none;stroke:#A3184A;stroke-width:0.338;stroke-miterlimit:10;}
	.st3{fill:#FFFFFF;}
	.st4{fill:#E7E7E8;}
	.st5{clip-path:url(#SVGID_2_);fill:#A3184A;}
	.st6{clip-path:url(#SVGID_4_);fill:#A3184A;}
	.st7{clip-path:url(#SVGID_6_);fill:#A3184A;}
	.st8{clip-path:url(#SVGID_8_);fill:#A3184A;}
	.st9{clip-path:url(#SVGID_10_);fill:#A3184A;}
	.st10{clip-path:url(#SVGID_12_);fill:#A3184A;}
	.st11{clip-path:url(#SVGID_14_);fill:#A3184A;}
	.st12{fill:#A21749;}
	.st13{clip-path:url(#SVGID_16_);fill:#A3184A;}
	.st14{fill:#A31749;}
</style>
  <style type="text/css" id="style10-8">
	.st0{fill:#003D7C;}
</style>
  <style type="text/css" id="style56">
	.st0{fill:#003D7C;}
</style>
  <style type="text/css" id="style72">
	.st0{fill:#A31747;}
	.st1{fill:#003D7C;}
</style>
  <style type="text/css" id="style123">
	.st0{fill:#A31747;}
	.st1{fill:#003D7C;}
</style>
</svg>
