<?xml version="1.0" encoding="UTF-8"?>
<svg xmlns:svgjs="http://svgjs.com/svgjs" xmlns="http://www.w3.org/2000/svg" xmlns:xlink="http://www.w3.org/1999/xlink" version="1.1" id="Ebene_1" x="0px" y="0px" viewBox="0 0 113.4 113.4" style="enable-background:new 0 0 113.4 113.4;" xml:space="preserve">
<style type="text/css">
	.st0{fill:#D4D1E4;}
	.st1{fill:#24195D;}
</style>
<circle class="st0" cx="56.7" cy="55.3" r="51.4"></circle>
<title>Exported from Streamline App (https://app.streamlineicons.com)</title>
<g transform="matrix(2,0,0,2,0,0)">
	<path class="st1" d="M28.3,28.4c-3.3,0-6-2.7-6-6s2.7-6,6-6s6,2.7,6,6S31.6,28.4,28.3,28.4z M28.3,17.9c-2.5,0-4.5,2-4.5,4.5   s2,4.5,4.5,4.5c2.5,0,4.5-2,4.5-4.5S30.8,17.9,28.3,17.9z"></path>
	<path class="st1" d="M28.3,44.2c-0.3,0-0.7-0.1-1-0.3c-0.2-0.1-0.4-0.3-0.5-0.5c-2.1-3.1-9.8-15.8-9.8-21c0-6.2,5.1-11.3,11.3-11.3   c6.2,0,11.3,5.1,11.3,11.3c0,5.2-7.7,17.9-9.8,21C29.5,43.9,28.9,44.2,28.3,44.2z M28.3,12.6c-5.4,0-9.8,4.4-9.8,9.8   c0,4.3,6.5,15.7,9.5,20.2c0,0,0.1,0.1,0.1,0.1c0.1,0.1,0.3,0.1,0.4-0.1c3-4.5,9.5-15.8,9.5-20.2C38.1,17,33.7,12.6,28.3,12.6z"></path>
</g>
</svg>
