<?xml version="1.0" encoding="UTF-8" standalone="no"?>
<svg xmlns:dc="http://purl.org/dc/elements/1.1/" xmlns:cc="http://creativecommons.org/ns#" xmlns:rdf="http://www.w3.org/1999/02/22-rdf-syntax-ns#" xmlns:svg="http://www.w3.org/2000/svg" xmlns="http://www.w3.org/2000/svg" xmlns:sodipodi="http://sodipodi.sourceforge.net/DTD/sodipodi-0.dtd" xmlns:inkscape="http://www.inkscape.org/namespaces/inkscape" sodipodi:docname="mitarbeiter_neu.svg" inkscape:version="1.0 (4035a4fb49, 2020-05-01)" id="svg8" version="1.1" viewBox="0 0 529.16665 299.77293" height="1133" width="2000">
  <defs id="defs2"></defs>
  <metadata id="metadata5"></metadata>
  <g id="layer1" inkscape:groupmode="layer" inkscape:label="Ebene 1">
    <g style="fill:#24195d;fill-opacity:1" transform="matrix(1.754101,0,0,1.754101,-59.347083,-34.805758)" id="g62">
      <path style="fill:#24195d;fill-opacity:1" class="st0" d="M 40,79.8" id="path30"></path>
      <g style="fill:#24195d;fill-opacity:1" transform="scale(5.8333333)" id="g44">
        <path style="fill:#24195d;fill-opacity:1" class="st1" d="m 17.7,14.9 c -2,0 -3.6,-1.6 -3.6,-3.6 0,-2 1.6,-3.6 3.6,-3.6 2,0 3.6,1.6 3.6,3.6 0,2 -1.6,3.6 -3.6,3.6 z m 0,-6 c -1.3,0 -2.4,1.1 -2.4,2.4 0,1.3 1.1,2.4 2.4,2.4 1.3,0 2.4,-1.1 2.4,-2.4 C 20.1,10 19,8.9 17.7,8.9 Z" id="path32"></path>
        <path style="fill:#24195d;fill-opacity:1" class="st1" d="m 19.2,28.4 h -3 c -0.3,0 -0.6,-0.2 -0.6,-0.5 l -0.7,-5.5 h -1 c -0.3,0 -0.6,-0.3 -0.6,-0.6 v -2.2 c 0,-2.4 2,-4.4 4.4,-4.4 2.4,0 4.3,2 4.3,4.4 v 2.2 c 0,0.3 -0.3,0.6 -0.6,0.6 h -1 l -0.6,5.5 c 0,0.3 -0.3,0.5 -0.6,0.5 z m -2.5,-1.2 h 2 l 0.7,-5.5 c 0,-0.3 0.3,-0.5 0.6,-0.5 h 0.9 v -1.7 c 0,-1.7 -1.4,-3.2 -3.1,-3.2 -1.7,0 -3.2,1.4 -3.2,3.2 v 1.7 h 0.9 c 0.3,0 0.6,0.2 0.6,0.5 z" id="path34"></path>
        <path style="fill:#24195d;fill-opacity:1" class="st1" d="m 10.2,16.4 c -1.6,0 -2.9,-1.3 -2.9,-2.8 0,-1.5 1.3,-2.8 2.9,-2.8 1.6,0 2.8,1.3 2.8,2.8 0,1.5 -1.2,2.8 -2.8,2.8 z m 0,-4.5 c -0.9,0 -1.6,0.8 -1.6,1.7 0,0.9 0.7,1.7 1.7,1.7 1,0 1.7,-0.7 1.7,-1.7 0,-1 -0.9,-1.7 -1.8,-1.7 z" id="path36"></path>
        <path style="fill:#24195d;fill-opacity:1" class="st1" d="m 11.7,26.9 h -3 c -0.3,0 -0.5,-0.2 -0.6,-0.5 l -0.7,-4 h -1 C 6.1,22.4 5.8,22.1 5.8,21.8 V 21 c 0,-0.5 0.1,-0.9 0.2,-1.4 0.4,-1.1 1.1,-2 2.2,-2.5 1,-0.5 2.2,-0.6 3.3,-0.2 0.3,0.1 0.5,0.4 0.4,0.8 -0.1,0.3 -0.4,0.5 -0.8,0.4 -0.8,-0.3 -1.7,-0.2 -2.4,0.2 -0.8,0.4 -1.3,1 -1.6,1.8 -0.1,0.3 -0.2,0.7 -0.2,1 v 0.1 h 0.9 c 0.3,0 0.5,0.2 0.6,0.5 l 0.7,4 h 2 l 0.3,-1.8 c 0.1,-0.3 0.4,-0.5 0.7,-0.5 0.4,0.1 0.6,0.5 0.6,0.8 l -0.4,2.3 c -0.1,0.2 -0.3,0.4 -0.6,0.4 z" id="path38"></path>
        <path style="fill:#24195d;fill-opacity:1" class="st1" d="m 25.2,16.4 c -1.6,0 -2.9,-1.3 -2.9,-2.8 0,-1.5 1.3,-2.8 2.9,-2.8 1.6,0 2.8,1.3 2.8,2.8 0,1.5 -1.2,2.8 -2.8,2.8 z m 0,-4.5 c -0.9,0 -1.7,0.7 -1.7,1.7 0,1 0.7,1.7 1.7,1.7 0.9,0 1.6,-0.7 1.6,-1.7 0,-1 -0.7,-1.7 -1.6,-1.7 z" id="path40"></path>
        <path style="fill:#24195d;fill-opacity:1" class="st1" d="m 26.7,26.9 h -3 c -0.3,0 -0.5,-0.2 -0.6,-0.5 l -0.4,-2.2 c -0.1,-0.3 0.2,-0.6 0.5,-0.7 0.3,-0.1 0.6,0.2 0.7,0.5 l 0.3,1.8 h 2 l 0.7,-4 c 0,-0.3 0.3,-0.5 0.6,-0.5 h 0.9 v -0.2 c 0,-0.3 -0.1,-0.7 -0.2,-1 -0.3,-0.8 -0.8,-1.4 -1.6,-1.8 -0.8,-0.4 -1.6,-0.4 -2.4,-0.2 -0.3,0.1 -0.7,-0.1 -0.8,-0.4 -0.1,-0.3 0.1,-0.7 0.4,-0.8 1.1,-0.4 2.3,-0.3 3.3,0.2 1,0.5 1.8,1.4 2.2,2.5 0.2,0.4 0.2,0.9 0.2,1.4 v 0.8 c 0,0.3 -0.3,0.6 -0.6,0.6 h -1 l -0.7,4 c 0,0.3 -0.2,0.5 -0.5,0.5 z" id="path42"></path>
      </g>
    </g>
  </g>
  <style type="text/css" id="style10">
	.st0{fill:#A31747;}
	.st1{fill:#003D7C;}
</style>
  <style type="text/css" id="style28">
	.st0{fill:#A31747;}
	.st1{fill:#003E69;}
</style>
  <style type="text/css" id="style64">
	.st0{fill:#A31747;}
	.st1{fill:#003D7C;}
</style>
  <style type="text/css" id="style94">
	.st0{fill:#003D7C;}
</style>
  <style type="text/css" id="style10-1">
	.st0{fill:#003D7C;}
</style>
  <style type="text/css" id="style56">
	.st0{fill:#003D7C;}
</style>
  <style type="text/css" id="style72">
	.st0{fill:#A31747;}
	.st1{fill:#003D7C;}
</style>
  <style type="text/css" id="style123">
	.st0{fill:#A31747;}
	.st1{fill:#003D7C;}
</style>
</svg>
