<?xml version="1.0" encoding="UTF-8"?>
<svg xmlns="http://www.w3.org/2000/svg" xmlns:xlink="http://www.w3.org/1999/xlink" xmlns:svgjs="http://svgjs.com/svgjs" version="1.1" viewBox="0 0 200 200" width="200" height="200">
  <title>Exported from Streamline App (https://app.streamlineicons.com)</title>
  <g transform="matrix(8.333333333333334,0,0,8.333333333333334,0,0)">
    <path d="M 16.5,22.5h2.25c0.828,0,1.5-0.672,1.5-1.5v-7.5 " stroke="#ffffff" fill="none" stroke-width="1.5" stroke-linecap="round" stroke-linejoin="round"></path>
    <path d="M 3.75,13.5V21c0,0.828,0.672,1.5,1.5,1.5H7.5 " stroke="#ffffff" fill="none" stroke-width="1.5" stroke-linecap="round" stroke-linejoin="round"></path>
    <path d="M 0.75,12.129 l10.189-10.19c0.586-0.586,1.535-0.586,2.121-0.001c0,0,0,0,0.001,0.001l10.189,10.19 " stroke="#ffffff" fill="none" stroke-width="1.5" stroke-linecap="round" stroke-linejoin="round"></path>
    <path d="M 16.5,5.379V3h3.75v6.129 " stroke="#ffffff" fill="none" stroke-width="1.5" stroke-linecap="round" stroke-linejoin="round"></path>
    <path d="M 12,7.5 c1.243,0,2.25,1.007,2.25,2.25S13.243,12,12,12s-2.25-1.007-2.25-2.25S10.757,7.5,12,7.5z " stroke="#ffffff" fill="none" stroke-width="1.5" stroke-linecap="round" stroke-linejoin="round"></path>
    <path d="M 12,13.5c-2.071,0-3.75,1.679-3.75,3.75 V18h1.5l0.75,4.5h3l0.75-4.5h1.5v-0.75C15.75,15.179,14.071,13.5,12,13.5z" stroke="#ffffff" fill="none" stroke-width="1.5" stroke-linecap="round" stroke-linejoin="round"></path>
  </g>
</svg>
