<?xml version="1.0" encoding="UTF-8" standalone="no"?>
<svg xmlns:dc="http://purl.org/dc/elements/1.1/" xmlns:cc="http://creativecommons.org/ns#" xmlns:rdf="http://www.w3.org/1999/02/22-rdf-syntax-ns#" xmlns:svg="http://www.w3.org/2000/svg" xmlns="http://www.w3.org/2000/svg" xmlns:xlink="http://www.w3.org/1999/xlink" xmlns:sodipodi="http://sodipodi.sourceforge.net/DTD/sodipodi-0.dtd" xmlns:inkscape="http://www.inkscape.org/namespaces/inkscape" sodipodi:docname="podcast-icon2.svg" inkscape:version="1.0 (4035a4fb49, 2020-05-01)" inkscape:export-ydpi="96.756248" inkscape:export-xdpi="96.756248" inkscape:export-filename="C:\Users\ailee\Desktop\proclusio.png" id="svg8" version="1.1" viewBox="0 0 52.916666 52.916665" height="200" width="200">
  <defs id="defs2">
    <linearGradient id="a">
      <stop offset="0" stop-color="#822cbe" id="stop858"></stop>
      <stop offset="1" stop-color="#d772fb" id="stop860"></stop>
    </linearGradient>
    <linearGradient id="b" x1="458.9" x2="456.36" y1="303.81" xlink:href="#a" gradientUnits="userSpaceOnUse" gradientTransform="matrix(0.17544394,0,0,0.17544394,-83.353186,-8.7879465)"></linearGradient>
    <linearGradient id="b-7" x1="458.9" x2="456.36" y1="303.81" xlink:href="#a" gradientUnits="userSpaceOnUse" gradientTransform="matrix(0.17512896,0,0,0.17512896,-53.962636,0.18898933)"></linearGradient>
    <linearGradient id="b-0" x1="458.9" x2="456.36" y1="303.81" xlink:href="#a" gradientUnits="userSpaceOnUse" gradientTransform="matrix(0.26458333,0,0,0.26458333,-176.11687,-37.60863)"></linearGradient>
  </defs>
  <metadata id="metadata5"></metadata>
  <g id="layer1" inkscape:groupmode="layer" inkscape:label="Ebene 1">
    <path style="fill:#ffffff;stroke:#ffffff;stroke-width:0.224032;stroke-opacity:1" id="path2881" d="m 24.781597,52.102894 c -2.007556,-0.716022 -2.438227,-1.689364 -3.261435,-7.392926 -0.957793,-6.629914 -1.1664,-10.733614 -0.61236,-12.033641 0.735728,-1.722928 2.732069,-2.700746 5.524698,-2.711933 2.7702,-0.0112 4.784484,0.97558 5.524699,2.711933 0.556284,1.297789 0.347677,5.403727 -0.610117,12.033641 -0.650491,4.631767 -1.009385,5.802014 -1.906616,6.589639 -1.233692,1.089694 -2.983291,1.391768 -4.643169,0.805524 z M 16.206312,45.300686 C 9.2752047,41.899581 4.8339118,36.144557 3.2188986,28.487599 2.8151423,26.511824 2.7478507,21.797268 3.1291694,19.984839 4.138553,15.118125 6.0675998,11.312023 9.2751995,7.9467194 13.895939,3.0867221 19.840092,0.51799254 26.45717,0.51799254 c 6.549784,0 12.471508,2.52173966 16.980092,7.23629766 3.431909,3.5577328 5.360953,7.3235618 6.347908,12.2842508 0.336463,1.651325 0.336463,6.153312 0.02242,8.010493 -1.031813,5.87138 -4.306706,11.219168 -9.084461,14.812702 -1.704738,1.284365 -5.87686,3.526408 -6.549784,3.526408 -0.246737,0 -0.269168,-0.255083 -0.157015,-1.286603 0.201878,-1.6558 0.403755,-2.000385 1.345846,-2.394197 1.502862,-0.62652 4.059969,-2.443423 5.630123,-4.014196 2.714123,-2.685083 4.710463,-6.198064 5.630123,-9.890054 0.583205,-2.304694 0.515914,-7.428726 -0.134579,-9.800548 -2.041199,-7.540605 -8.209662,-13.4030349 -15.76883,-14.9693315 -2.198217,-0.4475151 -6.190893,-0.4475151 -8.41154,0 C 14.658581,5.5995111 8.3331037,11.752823 6.404058,19.494813 c -0.5159072,2.103313 -0.5159072,7.227344 0,9.330658 1.2785526,5.124031 4.598307,9.822925 8.949878,12.619886 0.852368,0.55939 1.884184,1.14116 2.310368,1.320164 0.942093,0.402761 1.143969,0.738397 1.323416,2.394198 0.112155,1.006906 0.08973,1.297789 -0.157017,1.297789 -0.157014,0 -1.300984,-0.492264 -2.512244,-1.074033 z m 0.08973,-9.102426 c -2.332801,-1.857183 -4.396432,-5.150884 -5.248801,-8.381933 -0.515908,-1.951159 -0.515908,-5.661048 0.02243,-7.607731 1.413137,-5.253812 5.29366,-9.326186 10.677045,-11.239306 1.839325,-0.6488938 5.921725,-0.7943388 8.187229,-0.2953596 7.80591,1.7341146 13.346309,9.5320426 12.269632,17.2673156 -0.426183,3.116932 -1.502859,5.676711 -3.409475,8.055246 -0.942094,1.201573 -3.230031,3.217622 -3.633786,3.217622 -0.06729,0 -0.134583,-0.760772 -0.134583,-1.687124 v -1.691603 l 1.1664,-1.387294 c 4.39643,-5.25381 4.082399,-12.593033 -0.717785,-17.408281 -1.861755,-1.875082 -4.015108,-2.975965 -6.796523,-3.483893 -1.794463,-0.331161 -2.175786,-0.331161 -4.05997,-0.02239 -2.859923,0.465414 -5.076084,1.570772 -7.043262,3.512981 -4.822616,4.766023 -5.136646,12.143285 -0.740215,17.401571 l 1.157428,1.387291 v 1.700553 c 0,0.939778 -0.07403,1.700551 -0.165988,1.700551 -0.08973,0 -0.740216,-0.447513 -1.435569,-1.006906 z m 7.783476,-9.135994 c -1.996339,-0.926352 -3.073016,-2.673893 -3.095447,-4.951738 0,-2.047373 1.14397,-3.832954 3.117877,-4.877898 1.256122,-0.657844 3.476769,-0.657844 4.732894,0.0044 1.368276,0.709311 2.489814,2.085415 2.915999,3.521934 1.300986,4.412483 -3.387046,8.279001 -7.626462,6.303227 z" fill="#ffffff"></path>
    <rect ry="11.688101" y="-32.339611" x="-99.156998" height="85.659882" width="76.30545" id="rect2916" style="fill:none;fill-opacity:1;stroke:#ffffff;stroke-width:0.264583;stroke-opacity:1"></rect>
    <rect ry="11.688101" y="-23.653349" x="-114.79225" height="88.466217" width="82.051743" id="rect2918" style="fill:#000000;fill-opacity:1;stroke:#ffffff;stroke-width:0.264583;stroke-opacity:1"></rect>
  </g>
</svg>
