<?xml version="1.0" encoding="UTF-8" standalone="no"?>
<svg xmlns:dc="http://purl.org/dc/elements/1.1/" xmlns:cc="http://creativecommons.org/ns#" xmlns:rdf="http://www.w3.org/1999/02/22-rdf-syntax-ns#" xmlns:svg="http://www.w3.org/2000/svg" xmlns="http://www.w3.org/2000/svg" xmlns:sodipodi="http://sodipodi.sourceforge.net/DTD/sodipodi-0.dtd" xmlns:inkscape="http://www.inkscape.org/namespaces/inkscape" sodipodi:docname="qm_neu.svg" inkscape:version="1.0 (4035a4fb49, 2020-05-01)" id="svg8" version="1.1" viewBox="0 0 529.16665 299.77293" height="1133" width="2000">
  <defs id="defs2"></defs>
  <metadata id="metadata5"></metadata>
  <g id="layer1" inkscape:groupmode="layer" inkscape:label="Ebene 1">
    <g style="fill:#24195d;fill-opacity:1" id="g92" transform="matrix(1.6411669,0,0,1.6411669,-57.440841,-17.170655)">
      <path style="fill:#24195d;fill-opacity:1" id="path66" d="M 43.7,81.5" class="st0"></path>
      <g style="fill:#24195d;fill-opacity:1" id="g70" transform="scale(5.8333333)">
        <path style="fill:#24195d;fill-opacity:1" id="path68" d="M 27.7,28.6 H 6.7 C 6.3,28.6 6,28.3 6,27.9 V 7 C 6,6.6 6.3,6.3 6.7,6.3 h 21 c 0.4,0 0.7,0.3 0.7,0.7 v 21 c -0.1,0.3 -0.3,0.6 -0.7,0.6 z M 7.3,27.3 H 27 V 7.5 H 7.3 Z" class="st1"></path>
      </g>
      <g style="fill:#24195d;fill-opacity:1" id="g76">
        <path style="fill:#24195d;fill-opacity:1" id="path72" d="m 115.5,108.7 v 25.4 h -11 V 111 c 0,-5.9 -2.1,-8.4 -6.4,-8.4 -4.7,0 -7,3 -7,8.7 v 22.9 H 80 V 111 c 0,-5.9 -2.1,-8.4 -6.5,-8.4 -4.4,0 -7,3 -7,8.7 v 22.9 h -11 V 94.3 h 11 v 4.9 c 2.4,-3.6 6.3,-5.9 11.8,-5.9 5.9,0 9.9,2.1 11.6,6.9 2.8,-4.9 6.9,-6.9 12.6,-6.9 8.7,0 13,5.4 13,15.4 z" class="st1"></path>
        <path style="fill:#24195d;fill-opacity:1" id="path74" d="m 121.7,98.6 14.1,-15 c 2.8,-3.1 3.8,-4.5 3.8,-6.4 0,-2.2 -1.4,-3.6 -4,-3.6 -3.6,0 -4.5,2.4 -4.5,4.7 h -8.5 c 0,-6.8 4,-11.5 13,-11.5 8.3,0 12.6,3.8 12.6,10.2 0,3 -1,5.2 -3.6,7.7 -2,2 -4.4,4.1 -7.2,6.4 h 11 v 7.7 h -26.8 v -0.2 z" class="st1"></path>
      </g>
    </g>
  </g>
  <style type="text/css" id="style10">
	.st0{fill:#A31747;}
	.st1{fill:#003D7C;}
</style>
  <style type="text/css" id="style28">
	.st0{fill:#A31747;}
	.st1{fill:#003E69;}
</style>
  <style type="text/css" id="style64">
	.st0{fill:#A31747;}
	.st1{fill:#003D7C;}
</style>
  <style type="text/css" id="style94">
	.st0{fill:#003D7C;}
</style>
  <style type="text/css" id="style10-1">
	.st0{fill:#003D7C;}
</style>
  <style type="text/css" id="style56">
	.st0{fill:#003D7C;}
</style>
  <style type="text/css" id="style72">
	.st0{fill:#A31747;}
	.st1{fill:#003D7C;}
</style>
  <style type="text/css" id="style123">
	.st0{fill:#A31747;}
	.st1{fill:#003D7C;}
</style>
</svg>
