<?xml version="1.0" encoding="UTF-8" standalone="no"?>
<svg xmlns:dc="http://purl.org/dc/elements/1.1/" xmlns:cc="http://creativecommons.org/ns#" xmlns:rdf="http://www.w3.org/1999/02/22-rdf-syntax-ns#" xmlns:svg="http://www.w3.org/2000/svg" xmlns="http://www.w3.org/2000/svg" xmlns:sodipodi="http://sodipodi.sourceforge.net/DTD/sodipodi-0.dtd" xmlns:inkscape="http://www.inkscape.org/namespaces/inkscape" version="1.1" viewBox="0 0 289 164" height="164" width="289" id="svg4655" sodipodi:docname="sicherheit-icon-jsd.svg" inkscape:version="0.92.3 (2405546, 2018-03-11)">
  <metadata id="metadata4661"></metadata>
  <defs id="defs4659"></defs>
  <g id="g5216" transform="matrix(0.98744719,0,0,0.98744719,1,0.98658435)">
    <path d="M 89.298,84.856333 C 85.321,88.888 78.836166,88.929 74.8045,84.958833 c -0.03417,-0.03417 -0.06833,-0.06833 -0.1025,-0.1025 l -36.380667,-36.9 c -7.824166,-7.5235 -9.792166,-19.2905 -4.838,-28.952833 v 0 c 6.833333,-12.792 22.741333,-17.6163333 35.5265,-10.783 2.138833,1.1411666 4.113667,2.583 5.863,4.264 L 82,19.4135 l 7.134,-6.929 c 10.4345,-10.0723333 27.05317,-9.7785 37.1255,0.656 1.68783,1.749333 3.12283,3.717333 4.264,5.863 v 0 c 4.96783,9.669167 2.993,21.449833 -4.84483,28.980166 z" id="path4643" inkscape:connector-curvature="0" style="fill:#c41617;fill-opacity:1;stroke:#c41617;stroke-width:10.25;stroke-linecap:round;stroke-linejoin:round"></path>
    <path d="M 25.625,158.875 11.862667,142.60483 C 7.503,137.15183 5.125,130.38 5.125,123.39633 V 88.054333 c 0,-5.658 4.592,-10.25 10.25,-10.25 v 0 c 5.658,0 10.25,4.592 10.25,10.25 v 25.624997" id="path4645" inkscape:connector-curvature="0" style="fill:none;stroke:#000000;stroke-width:10.25;stroke-linecap:round;stroke-linejoin:round;stroke-opacity:1"></path>
    <path d="m 56.375,158.875 v -20.5 c 0,-6.08167 -1.797167,-12.02667 -5.172834,-17.08333 L 43.3985,109.60667 C 40.665166,105.083 34.7885,103.6275 30.264833,106.36083 30.135,106.436 30.012,106.518 29.889,106.6 v 0 c -3.990667,2.67867 -5.377833,7.89933 -3.239,12.20433 l 9.238666,15.375" id="path4647" inkscape:connector-curvature="0" style="fill:none;stroke:#000000;stroke-width:10.25;stroke-linecap:round;stroke-linejoin:round;stroke-opacity:1"></path>
    <path d="m 138.375,158.875 13.76233,-16.27017 c 4.35967,-5.453 6.73767,-12.22483 6.73767,-19.2085 V 88.054333 c 0,-5.658 -4.592,-10.25 -10.25,-10.25 v 0 c -5.658,0 -10.25,4.592 -10.25,10.25 v 25.624997" id="path4649" inkscape:connector-curvature="0" style="fill:none;stroke:#000000;stroke-width:10.25;stroke-linecap:round;stroke-linejoin:round;stroke-opacity:1"></path>
    <path d="m 107.625,158.875 v -20.5 c 0,-6.08167 1.79717,-12.02667 5.17283,-17.08333 L 120.6015,109.593 c 2.71967,-4.5305 8.59633,-5.99967 13.12683,-3.28683 0.12984,0.0752 0.25967,0.15716 0.38267,0.246 v 0 c 4.018,2.67866 5.412,7.91983 3.25267,12.2385 l -9.23867,15.375" id="path4651" inkscape:connector-curvature="0" style="fill:none;stroke:#000000;stroke-width:10.25;stroke-linecap:round;stroke-linejoin:round;stroke-opacity:1"></path>
  </g>
</svg>
