<?xml version="1.0" encoding="UTF-8" standalone="no"?>
<svg xmlns:dc="http://purl.org/dc/elements/1.1/" xmlns:cc="http://creativecommons.org/ns#" xmlns:rdf="http://www.w3.org/1999/02/22-rdf-syntax-ns#" xmlns:svg="http://www.w3.org/2000/svg" xmlns="http://www.w3.org/2000/svg" xmlns:sodipodi="http://sodipodi.sourceforge.net/DTD/sodipodi-0.dtd" xmlns:inkscape="http://www.inkscape.org/namespaces/inkscape" sodipodi:docname="sieb_neu.svg" inkscape:version="1.0 (4035a4fb49, 2020-05-01)" id="svg8" version="1.1" viewBox="0 0 529.16665 299.77293" height="1133" width="2000">
  <defs id="defs2"></defs>
  <metadata id="metadata5"></metadata>
  <g id="layer1" inkscape:groupmode="layer" inkscape:label="Ebene 1">
    <g style="fill:#24195d;fill-opacity:1" id="g65" transform="matrix(2.0374866,0,0,2.0374866,-42.58347,-77.191423)">
      <path style="fill:#24195d;fill-opacity:1" id="path12" d="M 41,79.8" class="st0"></path>
      <g style="fill:#24195d;fill-opacity:1" id="g40">
        <path style="fill:#24195d;fill-opacity:1" id="path14" d="M 44,80.2" class="st0"></path>
        <path style="fill:#24195d;fill-opacity:1" id="path16" d="m 177.5,74.3 h -76.3 -0.4 -76.2 c -2.1,0 -3.7,1.7 -3.7,3.7 0,2.1 1.7,3.7 3.7,3.7 h 0.2 c 1.4,18.6 2.1,40.6 17.9,40.6 15.8,0 57.5,0 57.5,0 h 1.7 c 0,0 41.9,0 57.5,0 15.6,0 16.5,-22 17.9,-40.6 h 0.2 c 2.1,0 3.7,-1.7 3.7,-3.7 0,-2 -1.6,-3.7 -3.7,-3.7 z M 38,92.6 c -2.1,0 -3.7,-1.7 -3.7,-3.7 0,-2 1.7,-3.7 3.7,-3.7 2.1,0 3.7,1.7 3.7,3.7 0.1,2 -1.6,3.7 -3.7,3.7 z m 7.9,11.8 c -2.1,0 -3.7,-1.7 -3.7,-3.7 0,-2 1.7,-3.7 3.7,-3.7 2.1,0 3.7,1.7 3.7,3.7 0,2 -1.7,3.7 -3.7,3.7 z m 7.9,11.9 c -2.1,0 -3.7,-1.7 -3.7,-3.7 0,-2 1.7,-3.7 3.7,-3.7 2.1,0 3.7,1.7 3.7,3.7 0,2 -1.6,3.7 -3.7,3.7 z m 0,-23.7 c -2.1,0 -3.7,-1.7 -3.7,-3.7 0,-2 1.7,-3.7 3.7,-3.7 2.1,0 3.7,1.7 3.7,3.7 0,2 -1.6,3.7 -3.7,3.7 z m 8,11.8 c -2.1,0 -3.7,-1.7 -3.7,-3.7 0,-2 1.7,-3.7 3.7,-3.7 2.1,0 3.7,1.7 3.7,3.7 0,2 -1.7,3.7 -3.7,3.7 z m 7.8,11.9 c -2.1,0 -3.7,-1.7 -3.7,-3.7 0,-2 1.7,-3.7 3.7,-3.7 2,0 3.7,1.7 3.7,3.7 0,2 -1.6,3.7 -3.7,3.7 z m 0,-23.7 c -2.1,0 -3.7,-1.7 -3.7,-3.7 0,-2 1.7,-3.7 3.7,-3.7 2,0 3.7,1.7 3.7,3.7 0,2 -1.6,3.7 -3.7,3.7 z m 7.9,11.8 c -2.1,0 -3.7,-1.7 -3.7,-3.7 0,-2 1.7,-3.7 3.7,-3.7 2.1,0 3.7,1.7 3.7,3.7 0,2 -1.6,3.7 -3.7,3.7 z m 7.9,11.9 c -2.1,0 -3.7,-1.7 -3.7,-3.7 0,-2 1.7,-3.7 3.7,-3.7 2.1,0 3.7,1.7 3.7,3.7 0.1,2 -1.6,3.7 -3.7,3.7 z m 0,-23.7 c -2.1,0 -3.7,-1.7 -3.7,-3.7 0,-2 1.7,-3.7 3.7,-3.7 2.1,0 3.7,1.7 3.7,3.7 0.1,2 -1.6,3.7 -3.7,3.7 z m 7.9,11.8 c -2.1,0 -3.7,-1.7 -3.7,-3.7 0,-2 1.7,-3.7 3.7,-3.7 2,0 3.7,1.7 3.7,3.7 0,2 -1.6,3.7 -3.7,3.7 z m 14.1,0 c -2.1,0 -3.7,-1.7 -3.7,-3.7 0,-2 1.7,-3.7 3.7,-3.7 2.1,0 3.7,1.7 3.7,3.7 0,2 -1.6,3.7 -3.7,3.7 z m 7.9,11.9 c -2.1,0 -3.7,-1.7 -3.7,-3.7 0,-2 1.7,-3.7 3.7,-3.7 2.1,0 3.7,1.7 3.7,3.7 0,2 -1.7,3.7 -3.7,3.7 z m 0,-23.7 c -2.1,0 -3.7,-1.7 -3.7,-3.7 0,-2 1.7,-3.7 3.7,-3.7 2.1,0 3.7,1.7 3.7,3.7 0,2 -1.7,3.7 -3.7,3.7 z m -15,0 c -2.1,0 -3.7,-1.7 -3.7,-3.7 0,-2 1.7,-3.7 3.7,-3.7 2.1,0 3.7,1.7 3.7,3.7 0.1,2 -1.6,3.7 -3.7,3.7 z m 0,23.7 c -2.1,0 -3.7,-1.7 -3.7,-3.7 0,-2 1.7,-3.7 3.7,-3.7 2.1,0 3.7,1.7 3.7,3.7 0,2 -1.6,3.7 -3.7,3.7 z m 22.9,-11.9 c -2.1,0 -3.7,-1.7 -3.7,-3.7 0,-2 1.7,-3.7 3.7,-3.7 2,0 3.7,1.7 3.7,3.7 0,2 -1.6,3.7 -3.7,3.7 z m 7.8,11.9 c -2.1,0 -3.7,-1.7 -3.7,-3.7 0,-2 1.7,-3.7 3.7,-3.7 2,0 3.7,1.7 3.7,3.7 0.2,2 -1.5,3.7 -3.7,3.7 z m 0,-23.7 c -2.1,0 -3.7,-1.7 -3.7,-3.7 0,-2 1.7,-3.7 3.7,-3.7 2,0 3.7,1.7 3.7,3.7 0.2,2 -1.5,3.7 -3.7,3.7 z m 8,11.8 c -2.1,0 -3.7,-1.7 -3.7,-3.7 0,-2 1.7,-3.7 3.7,-3.7 2,0 3.7,1.7 3.7,3.7 0,2 -1.7,3.7 -3.7,3.7 z m 7.9,11.9 c -2.1,0 -3.7,-1.7 -3.7,-3.7 0,-2 1.7,-3.7 3.7,-3.7 2.1,0 3.7,1.7 3.7,3.7 0,2 -1.6,3.7 -3.7,3.7 z m 0,-23.7 c -2.1,0 -3.7,-1.7 -3.7,-3.7 0,-2 1.7,-3.7 3.7,-3.7 2.1,0 3.7,1.7 3.7,3.7 0.1,2 -1.6,3.7 -3.7,3.7 z m 7.9,11.8 c -2.1,0 -3.7,-1.7 -3.7,-3.7 0,-2 1.7,-3.7 3.7,-3.7 2.1,0 3.7,1.7 3.7,3.7 0,2 -1.7,3.7 -3.7,3.7 z m 7.9,-11.8 c -2.1,0 -3.7,-1.7 -3.7,-3.7 0,-2 1.7,-3.7 3.7,-3.7 2,0 3.7,1.7 3.7,3.7 0,2 -1.6,3.7 -3.7,3.7 z" class="st1"></path>
        <path style="fill:#24195d;fill-opacity:1" id="path18" d="m 147.9,126.7 c 0,-0.1 -0.2,-0.1 -0.2,0 -0.5,3.5 -2.7,4.3 -2.7,6.8 0,1.6 1.3,2.8 2.8,2.8 1.5,0 2.8,-1.2 2.8,-2.8 0.1,-2.5 -2.3,-3.3 -2.7,-6.8 z" class="st1"></path>
        <path style="fill:#24195d;fill-opacity:1" id="path20" d="m 129.1,126.7 c 0,-0.1 -0.2,-0.1 -0.2,0 -0.5,3.5 -2.7,4.3 -2.7,6.8 0,1.6 1.3,2.8 2.8,2.8 1.5,0 2.8,-1.2 2.8,-2.8 0.1,-2.5 -2.3,-3.3 -2.7,-6.8 z" class="st1"></path>
        <path style="fill:#24195d;fill-opacity:1" id="path22" d="m 110.3,126.7 c 0,-0.1 -0.2,-0.1 -0.2,0 -0.5,3.5 -2.7,4.3 -2.7,6.8 0,1.6 1.3,2.8 2.8,2.8 1.5,0 2.8,-1.2 2.8,-2.8 0,-2.5 -2.2,-3.3 -2.7,-6.8 z" class="st1"></path>
        <path style="fill:#24195d;fill-opacity:1" id="path24" d="m 91.5,126.7 c 0,-0.1 -0.2,-0.1 -0.2,0 -0.5,3.5 -2.7,4.3 -2.7,6.8 0,1.6 1.3,2.8 2.8,2.8 1.5,0 2.8,-1.2 2.8,-2.8 0,-2.5 -2.3,-3.3 -2.7,-6.8 z" class="st1"></path>
        <path style="fill:#24195d;fill-opacity:1" id="path26" d="m 72.7,126.7 c 0,-0.1 -0.2,-0.1 -0.2,0 -0.5,3.5 -2.7,4.3 -2.7,6.8 0,1.6 1.3,2.8 2.8,2.8 1.5,0 2.8,-1.2 2.8,-2.8 0.1,-2.5 -2.3,-3.3 -2.7,-6.8 z" class="st1"></path>
        <path style="fill:#24195d;fill-opacity:1" id="path28" d="m 53.9,126.7 c 0,-0.1 -0.2,-0.1 -0.2,0 -0.5,3.5 -2.7,4.3 -2.7,6.8 0,1.6 1.3,2.8 2.8,2.8 1.5,0 2.8,-1.2 2.8,-2.8 0,-2.5 -2.2,-3.3 -2.7,-6.8 z" class="st1"></path>
        <path style="fill:#24195d;fill-opacity:1" id="path30" d="m 138.5,139 c 0,-0.1 -0.2,-0.1 -0.2,0 -0.5,3.5 -2.7,4.3 -2.7,6.8 0,1.6 1.3,2.8 2.8,2.8 1.5,0 2.8,-1.2 2.8,-2.8 0,-2.4 -2.2,-3.2 -2.7,-6.8 z" class="st1"></path>
        <path style="fill:#24195d;fill-opacity:1" id="path32" d="m 119.7,139 c 0,-0.1 -0.2,-0.1 -0.2,0 -0.5,3.5 -2.7,4.3 -2.7,6.8 0,1.6 1.3,2.8 2.8,2.8 1.5,0 2.8,-1.2 2.8,-2.8 0.1,-2.4 -2.3,-3.2 -2.7,-6.8 z" class="st1"></path>
        <path style="fill:#24195d;fill-opacity:1" id="path34" d="m 100.9,139 c 0,-0.1 -0.2,-0.1 -0.2,0 -0.5,3.5 -2.7,4.3 -2.7,6.8 0,1.6 1.3,2.8 2.8,2.8 1.5,0 2.8,-1.2 2.8,-2.8 0.1,-2.4 -2.3,-3.2 -2.7,-6.8 z" class="st1"></path>
        <path style="fill:#24195d;fill-opacity:1" id="path36" d="m 82.1,139 c 0,-0.1 -0.2,-0.1 -0.2,0 -0.5,3.5 -2.7,4.3 -2.7,6.8 0,1.6 1.3,2.8 2.8,2.8 1.5,0 2.8,-1.2 2.8,-2.8 0,-2.4 -2.2,-3.2 -2.7,-6.8 z" class="st1"></path>
        <path style="fill:#24195d;fill-opacity:1" id="path38" d="m 63.3,139 c 0,-0.1 -0.2,-0.1 -0.2,0 -0.5,3.5 -2.7,4.3 -2.7,6.8 0,1.6 1.3,2.8 2.8,2.8 1.5,0 2.8,-1.2 2.8,-2.8 0,-2.4 -2.3,-3.2 -2.7,-6.8 z" class="st1"></path>
      </g>
    </g>
  </g>
  <style type="text/css" id="style10">
	.st0{fill:#003D7C;}
</style>
  <style type="text/css" id="style56">
	.st0{fill:#003D7C;}
</style>
  <style type="text/css" id="style72">
	.st0{fill:#A31747;}
	.st1{fill:#003D7C;}
</style>
  <style type="text/css" id="style123">
	.st0{fill:#A31747;}
	.st1{fill:#003D7C;}
</style>
  <style type="text/css" id="style10-0">
	.st0{fill:#A31747;}
	.st1{fill:#003D7C;}
</style>
  <style type="text/css" id="style81">
	.st0{fill:#A31747;}
	.st1{fill:#003D7C;}
</style>
  <style type="text/css" id="style99">
	.st0{fill:#A31747;}
	.st1{fill:#003D7C;}
	.st2{fill:#FFFFFF;}
</style>
  <style type="text/css" id="style141">
	.st0{fill:#A31747;}
	.st1{fill:#003D7C;}
</style>
</svg>
