<?xml version="1.0" encoding="UTF-8" standalone="no"?>
<svg xmlns:dc="http://purl.org/dc/elements/1.1/" xmlns:cc="http://creativecommons.org/ns#" xmlns:rdf="http://www.w3.org/1999/02/22-rdf-syntax-ns#" xmlns:svg="http://www.w3.org/2000/svg" xmlns="http://www.w3.org/2000/svg" xmlns:sodipodi="http://sodipodi.sourceforge.net/DTD/sodipodi-0.dtd" xmlns:inkscape="http://www.inkscape.org/namespaces/inkscape" sodipodi:docname="spotyfy.svg" inkscape:version="1.0 (4035a4fb49, 2020-05-01)" inkscape:export-ydpi="96.756248" inkscape:export-xdpi="96.756248" inkscape:export-filename="C:\Users\ailee\Desktop\proclusio.png" id="svg8" version="1.1" viewBox="0 0 52.916666 52.916665" height="200" width="200">
  <defs id="defs2"></defs>
  <metadata id="metadata5"></metadata>
  <g id="layer1" inkscape:groupmode="layer" inkscape:label="Ebene 1">
    <path style="stroke-width:0.307462;fill:#ffffff" fill="#1ed760" d="m 26.45818,0.71099423 c -14.219816,0 -25.74779967,11.52767677 -25.74779967,25.74749177 0,14.220431 11.52798367,25.747186 25.74779967,25.747186 14.221352,0 25.748106,-11.526755 25.748106,-25.747186 0,-14.218892 -11.526754,-25.74626115 -25.748414,-25.74626115 z M 38.265954,37.846269 c -0.461193,0.756357 -1.451221,0.996178 -2.207577,0.531909 -6.045321,-3.69262 -13.655624,-4.528917 -22.618144,-2.481219 -0.86366,0.196776 -1.724555,-0.344357 -1.92133,-1.208327 -0.197699,-0.863968 0.341283,-1.724862 1.207096,-1.921638 9.808042,-2.241705 18.221127,-1.275967 25.008046,2.871697 0.756357,0.464267 0.996177,1.451221 0.531909,2.207578 z m 3.151487,-7.011674 c -0.581103,0.945446 -1.8171,1.243684 -2.761009,0.662581 -6.920973,-4.254968 -17.47092,-5.486969 -25.657099,-3.00206 -1.061667,0.320682 -2.182981,-0.277639 -2.505202,-1.33746 -0.31976,-1.061667 0.278869,-2.180829 1.338692,-2.503663 9.350844,-2.837261 20.975679,-1.462906 28.923575,3.421129 0.943908,0.581105 1.242146,1.817102 0.661043,2.759781 z m 0.270566,-7.30038 C 33.389604,18.60529 19.698317,18.15209 11.775326,20.556752 10.503049,20.942617 9.157594,20.224385 8.7720374,18.952107 8.3864786,17.679215 9.1040959,16.334683 10.377295,15.947895 c 9.095039,-2.76101 24.214486,-2.227563 33.768566,3.44419 1.146832,0.679184 1.521936,2.157155 0.842445,3.299991 -0.676417,1.144373 -2.158384,1.52163 -3.299068,0.842139 z" id="path847"></path>
  </g>
</svg>
