<?xml version="1.0" encoding="UTF-8" standalone="no"?>
<svg xmlns:dc="http://purl.org/dc/elements/1.1/" xmlns:cc="http://creativecommons.org/ns#" xmlns:rdf="http://www.w3.org/1999/02/22-rdf-syntax-ns#" xmlns:svg="http://www.w3.org/2000/svg" xmlns="http://www.w3.org/2000/svg" xmlns:sodipodi="http://sodipodi.sourceforge.net/DTD/sodipodi-0.dtd" xmlns:inkscape="http://www.inkscape.org/namespaces/inkscape" sodipodi:docname="steckdose_neu.svg" inkscape:version="1.0 (4035a4fb49, 2020-05-01)" id="svg8" version="1.1" viewBox="0 0 529.16665 299.77293" height="1133" width="2000">
  <defs id="defs2"></defs>
  <metadata id="metadata5"></metadata>
  <g id="layer1" inkscape:groupmode="layer" inkscape:label="Ebene 1">
    <g transform="matrix(2.0612842,0,0,2.0612842,308.47396,91.819503)" id="g26">
      <path class="st0" d="M 40,79.8" id="path12"></path>
      <path style="fill:#24195d;fill-opacity:1" class="st1" d="m -29.151344,-23.459438 h -55.800005 c -7,0 -12.8,5.8 -12.8,12.8 V 44.94056 c 0,7 5.8,12.8 12.8,12.8 h 55.600005 c 7,0 12.8,-5.8 12.8,-12.8 v -55.699998 c 0,-7 -5.6,-12.7 -12.6,-12.7 z m -3.3,40.599997 c 0,13.5 -11.1,24.600001 -24.6,24.600001 -13.5,0 -24.600005,-11.100001 -24.600005,-24.600001 0,-13.4999972 11.100005,-24.5999972 24.600005,-24.5999972 13.7,-0.1 24.6,10.9 24.6,24.5999972 z m -7.4,-2.3 v 4.4 c 0,2.7 -2.3,5 -5,5 h -3.9 c -2.7,0 -5,-2.3 -5,-5 v -4.4 c 0,-2.7 2.3,-4.9999972 5,-4.9999972 h 3.9 c 2.7,0.1 5,2.2999972 5,4.9999972 z m -20.3,0 v 4.4 c 0,2.7 -2.3,5 -5,5 h -3.9 c -2.7,0 -5,-2.3 -5,-5 v -4.4 c 0,-2.7 2.3,-4.9999972 5,-4.9999972 h 3.9 c 2.7,0.1 5,2.2999972 5,4.9999972 z m 37.8,57.700001 c 0,2.7 -2.3,5 -5,5 h -79.900006 c -13.8,0 -24.9,-11.2 -24.9,-24.9 v -20.2 c -7.9,-1.500001 -13.9,-8.500001 -13.9,-16.800001 V 4.2405618 c -2,-0.6 -3.6,-2.5 -3.6,-4.70000002 0,-2.69999998 2.3,-4.99999998 5,-4.99999998 h 4.1 v -9.6999998 c 0,-2.7 2.3,-5 5,-5 2.7,0 5,2.3 5,5 v 9.7999998 h 7.1 v -9.7999998 c 0,-2.7 2.3,-5 5,-5 2.7,0 5,2.3 5,5 v 9.7999998 h 4.1 c 2.7,0 5,2.3 5,4.99999998 0,2.30000002 -1.6,4.20000002 -3.6,4.70000002 V 15.640559 c 0,8.4 -6,15.3 -13.9,16.800001 v 20.1 c 0,8.4 6.8,15 15,15 h 79.900006 c 2.4,0 4.6,2.3 4.6,5 z" id="path14"></path>
    </g>
  </g>
  <style type="text/css" id="style10">
	.st0{fill:#A31747;}
	.st1{fill:#003D7C;}
</style>
  <style type="text/css" id="style28">
	.st0{fill:#A31747;}
	.st1{fill:#003E69;}
</style>
  <style type="text/css" id="style64">
	.st0{fill:#A31747;}
	.st1{fill:#003D7C;}
</style>
  <style type="text/css" id="style94">
	.st0{fill:#003D7C;}
</style>
  <style type="text/css" id="style10-1">
	.st0{fill:#003D7C;}
</style>
  <style type="text/css" id="style56">
	.st0{fill:#003D7C;}
</style>
  <style type="text/css" id="style72">
	.st0{fill:#A31747;}
	.st1{fill:#003D7C;}
</style>
  <style type="text/css" id="style123">
	.st0{fill:#A31747;}
	.st1{fill:#003D7C;}
</style>
</svg>
