<?xml version="1.0" encoding="UTF-8"?>
<svg xmlns:svgjs="http://svgjs.com/svgjs" xmlns="http://www.w3.org/2000/svg" xmlns:xlink="http://www.w3.org/1999/xlink" version="1.1" id="Ebene_1" x="0px" y="0px" viewBox="0 0 113.4 113.4" style="enable-background:new 0 0 113.4 113.4;" xml:space="preserve">
<style type="text/css">
	.st0{fill:#D4D1E4;}
	.st1{fill:#24195D;}
</style>
<circle class="st0" cx="56.3" cy="56.3" r="51.4"></circle>
<title>Exported from Streamline App (https://app.streamlineicons.com)</title>
<g transform="matrix(2,0,0,2,0,0)">
	<path class="st1" d="M20.9,22.6c-2.4,0-4.4-2-4.4-4.4s2-4.4,4.4-4.4s4.4,2,4.4,4.4S23.3,22.6,20.9,22.6z M20.9,15.4   c-1.6,0-2.9,1.3-2.9,2.9s1.3,2.9,2.9,2.9s2.9-1.3,2.9-2.9S22.5,15.4,20.9,15.4z"></path>
	<path class="st1" d="M23.6,42.5h-5.4c-0.4,0-0.7-0.3-0.7-0.7l-0.8-8.4h-2c-0.4,0-0.8-0.3-0.8-0.8V30c0-2.5,1.4-4.9,3.6-6.1   c3.4-1.9,7.7-0.8,9.7,2.6c0.2,0.4,0.1,0.8-0.3,1c-0.4,0.2-0.8,0.1-1-0.3c-0.7-1.3-1.9-2.2-3.4-2.6c-1.4-0.4-2.9-0.2-4.2,0.5   c-1.7,1-2.8,2.8-2.8,4.8v2h2c0.4,0,0.7,0.3,0.7,0.7l0.8,8.4h4.1l0.3-3.2c0-0.4,0.4-0.7,0.8-0.7c0.4,0,0.7,0.4,0.7,0.8l-0.4,3.9   C24.3,42.2,24,42.5,23.6,42.5z"></path>
	<path class="st1" d="M34.5,42.5c-4.4,0-8-3.6-8-8s3.6-8,8-8s8,3.6,8,8S38.9,42.5,34.5,42.5z M34.5,28c-3.6,0-6.5,2.9-6.5,6.5   s2.9,6.5,6.5,6.5s6.5-2.9,6.5-6.5S38.1,28,34.5,28z"></path>
	<path class="st1" d="M37.7,35.2h-3.2c-0.4,0-0.8-0.3-0.8-0.8v-3.2c0-0.4,0.3-0.8,0.8-0.8s0.8,0.3,0.8,0.8v2.4h2.4   c0.4,0,0.8,0.3,0.8,0.8S38.1,35.2,37.7,35.2z"></path>
</g>
</svg>
