<?xml version="1.0" encoding="UTF-8"?>
<svg xmlns="http://www.w3.org/2000/svg" viewBox="0 0 102.8 102.8">
  <defs>
    <style>.cls-1{fill:#d4d1e4;}.cls-2{fill:none;stroke:#24195d;stroke-linecap:round;stroke-linejoin:round;stroke-width:3px;}</style>
  </defs>
  <g id="kreis">
    <circle class="cls-1" cx="51.4" cy="51.4" r="51.4"></circle>
  </g>
  <g id="Ebene_1" data-name="Ebene 1">
    <path class="cls-2" d="M32.78,24.66h0a11.49,11.49,0,0,0-9,11.23v2.27A3.82,3.82,0,0,0,27.58,42h9.58A3.83,3.83,0,0,0,41,38.16h0a3.83,3.83,0,0,1,3.83-3.83H60.14A3.83,3.83,0,0,1,64,38.16h0A3.83,3.83,0,0,0,67.81,42h9.57a3.83,3.83,0,0,0,3.84-3.83V35.89a11.5,11.5,0,0,0-9-11.22h0A103.87,103.87,0,0,0,32.78,24.66Z" transform="translate(-0.08 -0.14)"></path>
    <path class="cls-2" d="M53.26,49.66H51.71A23,23,0,0,0,28.9,69.79l-.23,1.9a7.66,7.66,0,0,0,6.65,8.56,7.46,7.46,0,0,0,1,.06H68.71a7.68,7.68,0,0,0,7.66-7.67,7.46,7.46,0,0,0-.06-1l-.24-1.9A23,23,0,0,0,53.26,49.66Z" transform="translate(-0.08 -0.14)"></path>
    <path class="cls-2" d="M46.73,50.2V43.91" transform="translate(-0.08 -0.14)"></path>
    <path class="cls-2" d="M58.23,50.2V43.91" transform="translate(-0.08 -0.14)"></path>
    <path class="cls-2" d="M44.82,65a7.66,7.66,0,1,0,7.66-7.66A7.66,7.66,0,0,0,44.82,65Z" transform="translate(-0.08 -0.14)"></path>
  </g>
</svg>
