<?xml version="1.0" encoding="UTF-8" standalone="no"?>
<svg xmlns:dc="http://purl.org/dc/elements/1.1/" xmlns:cc="http://creativecommons.org/ns#" xmlns:rdf="http://www.w3.org/1999/02/22-rdf-syntax-ns#" xmlns:svg="http://www.w3.org/2000/svg" xmlns="http://www.w3.org/2000/svg" xmlns:sodipodi="http://sodipodi.sourceforge.net/DTD/sodipodi-0.dtd" xmlns:inkscape="http://www.inkscape.org/namespaces/inkscape" sodipodi:docname="thermometer_neu.svg" inkscape:version="1.0 (4035a4fb49, 2020-05-01)" id="svg8" version="1.1" viewBox="0 0 529.16665 299.77293" height="1133" width="2000">
  <defs id="defs2"></defs>
  <metadata id="metadata5"></metadata>
  <g id="layer1" inkscape:groupmode="layer" inkscape:label="Ebene 1">
    <g id="g1238" transform="translate(-244.05284,-20.575679)">
      <path style="stroke-width:1.50908" class="st0" d="M 171.02738,120.98911" id="path101"></path>
      <g style="fill:#24195d;fill-opacity:1" transform="matrix(1.5090763,0,0,1.5090763,131.20191,20.00723)" id="g105">
        <path style="fill:#24195d;fill-opacity:1" id="path103" d="m 116.6,130.7 v -88 c 0,-9.2 -7.3,-16.5 -16.4,-16.5 -9.2,0 -16.4,7.3 -16.4,16.5 v 88 c -4.9,4.5 -7.9,10.9 -7.9,18.1 0,13.6 11,24.4 24.4,24.4 13.6,0 24.4,-10.9 24.4,-24.4 -0.1,-7.1 -3.2,-13.6 -8.1,-18.1 z m -8.1,-55.9 v 8.5 m 0,-24.9 v 8.5 m 0,2.8 H 91.6 v -27 c 0,-4.7 3.8,-8.5 8.5,-8.5 v 0 c 4.7,0 8.5,3.8 8.5,8.5 v 7.6" class="st1"></path>
      </g>
      <polyline transform="matrix(1.5090763,0,0,1.5090763,118.22385,21.353515)" id="polyline107" points="108.7,75.1 100.2,75.1 100.2,80.3 108.7,80.3  " class="st2"></polyline>
      <polyline transform="matrix(1.5090763,0,0,1.5090763,118.22385,21.353515)" id="polyline109" points="108.7,90.9 100.2,90.9 100.2,96 108.7,96  " class="st2"></polyline>
      <polyline transform="matrix(1.5090763,0,0,1.5090763,118.22385,21.353515)" id="polyline111" points="108.7,106.6 100.2,106.6 100.2,111.6 108.7,111.6  " class="st2"></polyline>
      <polyline transform="matrix(1.5090763,0,0,1.5090763,118.22385,21.353515)" id="polyline113" points="108.7,122.2 100.2,122.2 100.2,127.5 108.7,127.5  " class="st2"></polyline>
      <polyline style="fill:#24195d;fill-opacity:1" transform="matrix(1.5090763,0,0,1.5090763,118.22385,21.353515)" id="polyline115" points="108.7,43.7 100.2,43.7 100.2,48.8 108.7,48.8  " class="st1"></polyline>
      <polyline style="fill:#24195d;fill-opacity:1" transform="matrix(1.5090763,0,0,1.5090763,118.22385,21.353515)" id="polyline117" points="108.7,59.4 100.2,59.4 100.2,64.6 108.7,64.6  " class="st1"></polyline>
    </g>
  </g>
  <style type="text/css" id="style10">
	.st0{fill:#003D7C;}
</style>
  <style type="text/css" id="style56">
	.st0{fill:#003D7C;}
</style>
  <style type="text/css" id="style72">
	.st0{fill:#A31747;}
	.st1{fill:#003D7C;}
</style>
  <style type="text/css" id="style123">
	.st0{fill:#A31747;}
	.st1{fill:#003D7C;}
</style>
  <style type="text/css" id="style10-0">
	.st0{fill:#A31747;}
	.st1{fill:#003D7C;}
</style>
  <style type="text/css" id="style81">
	.st0{fill:#A31747;}
	.st1{fill:#003D7C;}
</style>
  <style type="text/css" id="style99">
	.st0{fill:#A31747;}
	.st1{fill:#003D7C;}
	.st2{fill:#FFFFFF;}
</style>
  <style type="text/css" id="style141">
	.st0{fill:#A31747;}
	.st1{fill:#003D7C;}
</style>
</svg>
