<?xml version="1.0" encoding="UTF-8" standalone="no"?>
<svg xmlns:dc="http://purl.org/dc/elements/1.1/" xmlns:cc="http://creativecommons.org/ns#" xmlns:rdf="http://www.w3.org/1999/02/22-rdf-syntax-ns#" xmlns:svg="http://www.w3.org/2000/svg" xmlns="http://www.w3.org/2000/svg" xmlns:xlink="http://www.w3.org/1999/xlink" xmlns:sodipodi="http://sodipodi.sourceforge.net/DTD/sodipodi-0.dtd" xmlns:inkscape="http://www.inkscape.org/namespaces/inkscape" sodipodi:docname="uhr_neu.svg" inkscape:version="1.0 (4035a4fb49, 2020-05-01)" id="svg8" version="1.1" viewBox="0 0 529.16665 299.77293" height="1133" width="2000">
  <defs id="defs2">
    <rect id="SVGID_1_" x="-375" y="-690.83" width="148.65" height="148.65"></rect>
    <rect id="SVGID_3_" x="198.65" y="538.5" width="294" height="294"></rect>
    <rect id="SVGID_5_" x="198.65" y="538.5" width="294" height="294"></rect>
    <rect id="SVGID_7_" x="198.65" y="538.5" width="294" height="294"></rect>
    <rect id="SVGID_9_" x="-374.68" y="9.5" width="147" height="147"></rect>
    <rect id="SVGID_11_" x="-374.68" y="9.5" width="147" height="147"></rect>
    <rect id="SVGID_13_" x="-374.68" y="9.5" width="147" height="147"></rect>
    <rect id="SVGID_15_" x="190" y="-494.16" width="297.31" height="297.31"></rect>
    <rect id="SVGID_1_-7" x="-383" y="303.17" width="148.65" height="148.65"></rect>
    <rect id="SVGID_3_-8" x="190.65" y="1532.5" width="294" height="294"></rect>
    <rect id="SVGID_5_-4" x="190.65" y="1532.5" width="294" height="294"></rect>
    <rect id="SVGID_7_-9" x="190.65" y="1532.5" width="294" height="294"></rect>
    <rect id="SVGID_9_-5" x="-382.68" y="1003.5" width="147" height="147"></rect>
    <rect id="SVGID_11_-6" x="-382.68" y="1003.5" width="147" height="147"></rect>
    <rect id="SVGID_13_-4" x="-382.68" y="1003.5" width="147" height="147"></rect>
    <rect id="SVGID_15_-8" x="182" y="499.84" width="297.31" height="297.31"></rect>
    <rect id="SVGID_1_-6" x="-383" y="-1208.83" width="148.65" height="148.65"></rect>
    <rect id="SVGID_3_-5" x="190.65" y="20.5" width="294" height="294"></rect>
    <rect id="SVGID_5_-1" x="190.65" y="20.5" width="294" height="294"></rect>
    <rect id="SVGID_7_-92" x="190.65" y="20.5" width="294" height="294"></rect>
    <rect id="SVGID_9_-2" x="-382.68" y="-508.5" width="147" height="147"></rect>
    <rect id="SVGID_11_-5" x="-382.68" y="-508.5" width="147" height="147"></rect>
    <rect id="SVGID_13_-8" x="-382.68" y="-508.5" width="147" height="147"></rect>
    <rect id="SVGID_15_-5" x="182" y="-1012.16" width="297.31" height="297.31"></rect>
    <rect id="SVGID_1_-9" x="-383" y="-1698.83" width="148.65" height="148.65"></rect>
    <rect id="SVGID_3_-1" x="190.65" y="-469.5" width="294" height="294"></rect>
    <rect id="SVGID_5_-6" x="190.65" y="-469.5" width="294" height="294"></rect>
    <rect id="SVGID_7_-3" x="190.65" y="-469.5" width="294" height="294"></rect>
    <rect id="SVGID_9_-0" x="-382.68" y="-998.5" width="147" height="147"></rect>
    <rect id="SVGID_11_-0" x="-382.68" y="-998.5" width="147" height="147"></rect>
    <rect id="SVGID_13_-9" x="-382.68" y="-998.5" width="147" height="147"></rect>
    <rect id="SVGID_15_-3" x="182" y="-1502.16" width="297.31" height="297.31"></rect>
    <rect id="SVGID_1_-73" x="-375" y="-188.83" width="148.65" height="148.65"></rect>
    <rect id="SVGID_3_-4" x="198.65" y="1040.5" width="294" height="294"></rect>
    <rect id="SVGID_5_-8" x="198.65" y="1040.5" width="294" height="294"></rect>
    <rect id="SVGID_7_-0" x="198.65" y="1040.5" width="294" height="294"></rect>
    <rect id="SVGID_9_-1" x="-374.68" y="511.5" width="147" height="147"></rect>
    <rect id="SVGID_11_-7" x="-374.68" y="511.5" width="147" height="147"></rect>
    <rect id="SVGID_13_-43" x="-374.68" y="511.5" width="147" height="147"></rect>
    <rect id="SVGID_15_-2" x="190" y="7.84" width="297.31" height="297.31"></rect>
    <clipPath id="SVGID_2_">
      <use height="100%" width="100%" y="0" x="0" xlink:href="#SVGID_1_" style="overflow:visible" id="use75"></use>
    </clipPath>
    <clipPath id="clipPath3730">
      <use height="100%" width="100%" y="0" x="0" xlink:href="#SVGID_1_" style="overflow:visible" id="use3728"></use>
    </clipPath>
    <clipPath id="clipPath3734">
      <use height="100%" width="100%" y="0" x="0" xlink:href="#SVGID_1_" style="overflow:visible" id="use3732"></use>
    </clipPath>
    <clipPath id="clipPath3738">
      <use height="100%" width="100%" y="0" x="0" xlink:href="#SVGID_1_" style="overflow:visible" id="use3736"></use>
    </clipPath>
    <clipPath id="clipPath3742">
      <use height="100%" width="100%" y="0" x="0" xlink:href="#SVGID_1_" style="overflow:visible" id="use3740"></use>
    </clipPath>
    <clipPath id="clipPath3746">
      <use height="100%" width="100%" y="0" x="0" xlink:href="#SVGID_1_" style="overflow:visible" id="use3744"></use>
    </clipPath>
    <clipPath id="clipPath3750">
      <use height="100%" width="100%" y="0" x="0" xlink:href="#SVGID_1_" style="overflow:visible" id="use3748"></use>
    </clipPath>
    <clipPath id="clipPath3754">
      <use height="100%" width="100%" y="0" x="0" xlink:href="#SVGID_1_" style="overflow:visible" id="use3752"></use>
    </clipPath>
    <clipPath id="clipPath3758">
      <use height="100%" width="100%" y="0" x="0" xlink:href="#SVGID_1_" style="overflow:visible" id="use3756"></use>
    </clipPath>
    <clipPath id="clipPath3762">
      <use height="100%" width="100%" y="0" x="0" xlink:href="#SVGID_1_" style="overflow:visible" id="use3760"></use>
    </clipPath>
    <clipPath id="clipPath3766">
      <use height="100%" width="100%" y="0" x="0" xlink:href="#SVGID_1_" style="overflow:visible" id="use3764"></use>
    </clipPath>
    <clipPath id="SVGID_4_">
      <use height="100%" width="100%" y="0" x="0" xlink:href="#SVGID_3_" style="overflow:visible" id="use197"></use>
    </clipPath>
    <clipPath id="SVGID_6_">
      <use height="100%" width="100%" y="0" x="0" xlink:href="#SVGID_5_" style="overflow:visible" id="use215"></use>
    </clipPath>
    <clipPath id="SVGID_8_">
      <use height="100%" width="100%" y="0" x="0" xlink:href="#SVGID_7_" style="overflow:visible" id="use233"></use>
    </clipPath>
    <clipPath id="SVGID_10_">
      <use height="100%" width="100%" y="0" x="0" xlink:href="#SVGID_9_" style="overflow:visible" id="use257"></use>
    </clipPath>
    <clipPath id="SVGID_12_">
      <use height="100%" width="100%" y="0" x="0" xlink:href="#SVGID_11_" style="overflow:visible" id="use275"></use>
    </clipPath>
    <clipPath id="SVGID_14_">
      <use height="100%" width="100%" y="0" x="0" xlink:href="#SVGID_13_" style="overflow:visible" id="use293"></use>
    </clipPath>
    <clipPath id="SVGID_16_">
      <use height="100%" width="100%" y="0" x="0" xlink:href="#SVGID_15_" style="overflow:visible" id="use359"></use>
    </clipPath>
    <clipPath id="clipPath3784">
      <use height="100%" width="100%" y="0" x="0" xlink:href="#SVGID_15_" style="overflow:visible" id="use3782"></use>
    </clipPath>
    <clipPath id="clipPath3788">
      <use height="100%" width="100%" y="0" x="0" xlink:href="#SVGID_15_" style="overflow:visible" id="use3786"></use>
    </clipPath>
    <clipPath id="clipPath3792">
      <use height="100%" width="100%" y="0" x="0" xlink:href="#SVGID_15_" style="overflow:visible" id="use3790"></use>
    </clipPath>
    <clipPath id="clipPath3796">
      <use height="100%" width="100%" y="0" x="0" xlink:href="#SVGID_15_" style="overflow:visible" id="use3794"></use>
    </clipPath>
    <clipPath id="clipPath3800">
      <use height="100%" width="100%" y="0" x="0" xlink:href="#SVGID_15_" style="overflow:visible" id="use3798"></use>
    </clipPath>
    <clipPath id="clipPath3804">
      <use height="100%" width="100%" y="0" x="0" xlink:href="#SVGID_15_" style="overflow:visible" id="use3802"></use>
    </clipPath>
    <clipPath id="clipPath3808">
      <use height="100%" width="100%" y="0" x="0" xlink:href="#SVGID_15_" style="overflow:visible" id="use3806"></use>
    </clipPath>
    <clipPath id="clipPath3812">
      <use height="100%" width="100%" y="0" x="0" xlink:href="#SVGID_15_" style="overflow:visible" id="use3810"></use>
    </clipPath>
    <clipPath id="clipPath3816">
      <use height="100%" width="100%" y="0" x="0" xlink:href="#SVGID_15_" style="overflow:visible" id="use3814"></use>
    </clipPath>
    <clipPath id="clipPath3820">
      <use height="100%" width="100%" y="0" x="0" xlink:href="#SVGID_15_" style="overflow:visible" id="use3818"></use>
    </clipPath>
    <rect id="rect488" x="-375" y="-690.83002" width="148.64999" height="148.64999"></rect>
    <rect id="rect551" x="198.64999" y="538.5" width="294" height="294"></rect>
    <rect id="rect562" x="198.64999" y="538.5" width="294" height="294"></rect>
    <rect id="rect573" x="198.64999" y="538.5" width="294" height="294"></rect>
    <rect id="rect587" x="-374.67999" y="9.5" width="147" height="147"></rect>
    <rect id="rect598" x="-374.67999" y="9.5" width="147" height="147"></rect>
    <rect id="rect609" x="-374.67999" y="9.5" width="147" height="147"></rect>
    <rect id="rect644" x="190" y="-494.16" width="297.31" height="297.31"></rect>
    <clipPath id="SVGID_2_-3">
      <use id="use75-4" style="overflow:visible" xlink:href="#SVGID_1_" x="0" y="0" width="100%" height="100%"></use>
    </clipPath>
    <clipPath id="clipPath4635">
      <use id="use4633" style="overflow:visible" xlink:href="#SVGID_1_" x="0" y="0" width="100%" height="100%"></use>
    </clipPath>
    <clipPath id="clipPath4639">
      <use id="use4637" style="overflow:visible" xlink:href="#SVGID_1_" x="0" y="0" width="100%" height="100%"></use>
    </clipPath>
    <clipPath id="clipPath4643">
      <use id="use4641" style="overflow:visible" xlink:href="#SVGID_1_" x="0" y="0" width="100%" height="100%"></use>
    </clipPath>
    <clipPath id="clipPath4647">
      <use id="use4645" style="overflow:visible" xlink:href="#SVGID_1_" x="0" y="0" width="100%" height="100%"></use>
    </clipPath>
    <clipPath id="clipPath4651">
      <use id="use4649" style="overflow:visible" xlink:href="#SVGID_1_" x="0" y="0" width="100%" height="100%"></use>
    </clipPath>
    <clipPath id="clipPath4655">
      <use id="use4653" style="overflow:visible" xlink:href="#SVGID_1_" x="0" y="0" width="100%" height="100%"></use>
    </clipPath>
    <clipPath id="clipPath4659">
      <use id="use4657" style="overflow:visible" xlink:href="#SVGID_1_" x="0" y="0" width="100%" height="100%"></use>
    </clipPath>
    <clipPath id="clipPath4663">
      <use id="use4661" style="overflow:visible" xlink:href="#SVGID_1_" x="0" y="0" width="100%" height="100%"></use>
    </clipPath>
    <clipPath id="clipPath4667">
      <use id="use4665" style="overflow:visible" xlink:href="#SVGID_1_" x="0" y="0" width="100%" height="100%"></use>
    </clipPath>
    <clipPath id="clipPath4671">
      <use id="use4669" style="overflow:visible" xlink:href="#SVGID_1_" x="0" y="0" width="100%" height="100%"></use>
    </clipPath>
    <clipPath id="SVGID_4_-2">
      <use id="use197-5" style="overflow:visible" xlink:href="#SVGID_3_" x="0" y="0" width="100%" height="100%"></use>
    </clipPath>
    <clipPath id="SVGID_6_-2">
      <use id="use215-2" style="overflow:visible" xlink:href="#SVGID_5_" x="0" y="0" width="100%" height="100%"></use>
    </clipPath>
    <clipPath id="SVGID_8_-5">
      <use id="use233-2" style="overflow:visible" xlink:href="#SVGID_7_" x="0" y="0" width="100%" height="100%"></use>
    </clipPath>
    <clipPath id="SVGID_10_-5">
      <use id="use257-1" style="overflow:visible" xlink:href="#SVGID_9_" x="0" y="0" width="100%" height="100%"></use>
    </clipPath>
    <clipPath id="SVGID_12_-1">
      <use id="use275-7" style="overflow:visible" xlink:href="#SVGID_11_" x="0" y="0" width="100%" height="100%"></use>
    </clipPath>
    <clipPath id="SVGID_14_-9">
      <use id="use293-1" style="overflow:visible" xlink:href="#SVGID_13_" x="0" y="0" width="100%" height="100%"></use>
    </clipPath>
    <clipPath id="SVGID_16_-9">
      <use id="use359-4" style="overflow:visible" xlink:href="#SVGID_15_" x="0" y="0" width="100%" height="100%"></use>
    </clipPath>
    <clipPath id="clipPath4689">
      <use id="use4687" style="overflow:visible" xlink:href="#SVGID_15_" x="0" y="0" width="100%" height="100%"></use>
    </clipPath>
    <clipPath id="clipPath4693">
      <use id="use4691" style="overflow:visible" xlink:href="#SVGID_15_" x="0" y="0" width="100%" height="100%"></use>
    </clipPath>
    <clipPath id="clipPath4697">
      <use id="use4695" style="overflow:visible" xlink:href="#SVGID_15_" x="0" y="0" width="100%" height="100%"></use>
    </clipPath>
    <clipPath id="clipPath4701">
      <use id="use4699" style="overflow:visible" xlink:href="#SVGID_15_" x="0" y="0" width="100%" height="100%"></use>
    </clipPath>
    <clipPath id="clipPath4705">
      <use id="use4703" style="overflow:visible" xlink:href="#SVGID_15_" x="0" y="0" width="100%" height="100%"></use>
    </clipPath>
    <clipPath id="clipPath4709">
      <use id="use4707" style="overflow:visible" xlink:href="#SVGID_15_" x="0" y="0" width="100%" height="100%"></use>
    </clipPath>
    <clipPath id="clipPath4713">
      <use id="use4711" style="overflow:visible" xlink:href="#SVGID_15_" x="0" y="0" width="100%" height="100%"></use>
    </clipPath>
    <clipPath id="clipPath4717">
      <use id="use4715" style="overflow:visible" xlink:href="#SVGID_15_" x="0" y="0" width="100%" height="100%"></use>
    </clipPath>
    <clipPath id="clipPath4721">
      <use id="use4719" style="overflow:visible" xlink:href="#SVGID_15_" x="0" y="0" width="100%" height="100%"></use>
    </clipPath>
    <clipPath id="clipPath4725">
      <use id="use4723" style="overflow:visible" xlink:href="#SVGID_15_" x="0" y="0" width="100%" height="100%"></use>
    </clipPath>
    <rect height="148.64999" width="148.64999" y="-690.83002" x="-375" id="rect4408"></rect>
    <rect height="294" width="294" y="538.5" x="198.64999" id="rect4471"></rect>
    <rect height="294" width="294" y="538.5" x="198.64999" id="rect4482"></rect>
    <rect height="294" width="294" y="538.5" x="198.64999" id="rect4493"></rect>
    <rect height="147" width="147" y="9.5" x="-374.67999" id="rect4507"></rect>
    <rect height="147" width="147" y="9.5" x="-374.67999" id="rect4518"></rect>
    <rect height="147" width="147" y="9.5" x="-374.67999" id="rect4529"></rect>
    <rect height="297.31" width="297.31" y="-494.16" x="190" id="rect4564"></rect>
    <clipPath id="SVGID_2_-9">
      <use id="use75-0" style="overflow:visible" xlink:href="#SVGID_1_" x="0" y="0" width="100%" height="100%"></use>
    </clipPath>
    <clipPath id="clipPath5477">
      <use id="use5475" style="overflow:visible" xlink:href="#SVGID_1_" x="0" y="0" width="100%" height="100%"></use>
    </clipPath>
    <clipPath id="clipPath5481">
      <use id="use5479" style="overflow:visible" xlink:href="#SVGID_1_" x="0" y="0" width="100%" height="100%"></use>
    </clipPath>
    <clipPath id="clipPath5485">
      <use id="use5483" style="overflow:visible" xlink:href="#SVGID_1_" x="0" y="0" width="100%" height="100%"></use>
    </clipPath>
    <clipPath id="clipPath5489">
      <use id="use5487" style="overflow:visible" xlink:href="#SVGID_1_" x="0" y="0" width="100%" height="100%"></use>
    </clipPath>
    <clipPath id="clipPath5493">
      <use id="use5491" style="overflow:visible" xlink:href="#SVGID_1_" x="0" y="0" width="100%" height="100%"></use>
    </clipPath>
    <clipPath id="clipPath5497">
      <use id="use5495" style="overflow:visible" xlink:href="#SVGID_1_" x="0" y="0" width="100%" height="100%"></use>
    </clipPath>
    <clipPath id="clipPath5501">
      <use id="use5499" style="overflow:visible" xlink:href="#SVGID_1_" x="0" y="0" width="100%" height="100%"></use>
    </clipPath>
    <clipPath id="clipPath5505">
      <use id="use5503" style="overflow:visible" xlink:href="#SVGID_1_" x="0" y="0" width="100%" height="100%"></use>
    </clipPath>
    <clipPath id="clipPath5509">
      <use id="use5507" style="overflow:visible" xlink:href="#SVGID_1_" x="0" y="0" width="100%" height="100%"></use>
    </clipPath>
    <clipPath id="clipPath5513">
      <use id="use5511" style="overflow:visible" xlink:href="#SVGID_1_" x="0" y="0" width="100%" height="100%"></use>
    </clipPath>
    <clipPath id="SVGID_10_-4">
      <use id="use257-8" style="overflow:visible" xlink:href="#SVGID_9_" x="0" y="0" width="100%" height="100%"></use>
    </clipPath>
    <clipPath id="SVGID_12_-0">
      <use id="use275-9" style="overflow:visible" xlink:href="#SVGID_11_" x="0" y="0" width="100%" height="100%"></use>
    </clipPath>
    <clipPath id="SVGID_14_-7">
      <use id="use293-9" style="overflow:visible" xlink:href="#SVGID_13_" x="0" y="0" width="100%" height="100%"></use>
    </clipPath>
    <clipPath id="SVGID_16_-4">
      <use id="use359-6" style="overflow:visible" xlink:href="#SVGID_15_" x="0" y="0" width="100%" height="100%"></use>
    </clipPath>
    <clipPath id="clipPath5525">
      <use id="use5523" style="overflow:visible" xlink:href="#SVGID_15_" x="0" y="0" width="100%" height="100%"></use>
    </clipPath>
    <clipPath id="clipPath5529">
      <use id="use5527" style="overflow:visible" xlink:href="#SVGID_15_" x="0" y="0" width="100%" height="100%"></use>
    </clipPath>
    <clipPath id="clipPath5533">
      <use id="use5531" style="overflow:visible" xlink:href="#SVGID_15_" x="0" y="0" width="100%" height="100%"></use>
    </clipPath>
    <clipPath id="clipPath5537">
      <use id="use5535" style="overflow:visible" xlink:href="#SVGID_15_" x="0" y="0" width="100%" height="100%"></use>
    </clipPath>
    <clipPath id="clipPath5541">
      <use id="use5539" style="overflow:visible" xlink:href="#SVGID_15_" x="0" y="0" width="100%" height="100%"></use>
    </clipPath>
    <clipPath id="clipPath5545">
      <use id="use5543" style="overflow:visible" xlink:href="#SVGID_15_" x="0" y="0" width="100%" height="100%"></use>
    </clipPath>
    <clipPath id="clipPath5549">
      <use id="use5547" style="overflow:visible" xlink:href="#SVGID_15_" x="0" y="0" width="100%" height="100%"></use>
    </clipPath>
    <clipPath id="clipPath5553">
      <use id="use5551" style="overflow:visible" xlink:href="#SVGID_15_" x="0" y="0" width="100%" height="100%"></use>
    </clipPath>
    <clipPath id="clipPath5557">
      <use id="use5555" style="overflow:visible" xlink:href="#SVGID_15_" x="0" y="0" width="100%" height="100%"></use>
    </clipPath>
    <clipPath id="clipPath5561">
      <use id="use5559" style="overflow:visible" xlink:href="#SVGID_15_" x="0" y="0" width="100%" height="100%"></use>
    </clipPath>
    <rect id="rect5271" x="-375" y="-690.83002" width="148.64999" height="148.64999"></rect>
    <rect id="rect5370" x="-374.67999" y="9.5" width="147" height="147"></rect>
    <rect id="rect5381" x="-374.67999" y="9.5" width="147" height="147"></rect>
    <rect id="rect5392" x="-374.67999" y="9.5" width="147" height="147"></rect>
    <rect id="rect5421" x="190" y="-494.16" width="297.31" height="297.31"></rect>
    <clipPath id="SVGID_2_-4">
      <use id="use75-5" style="overflow:visible" xlink:href="#SVGID_1_" x="0" y="0" width="100%" height="100%"></use>
    </clipPath>
    <clipPath id="clipPath6199">
      <use id="use6197" style="overflow:visible" xlink:href="#SVGID_1_" x="0" y="0" width="100%" height="100%"></use>
    </clipPath>
    <clipPath id="clipPath6203">
      <use id="use6201" style="overflow:visible" xlink:href="#SVGID_1_" x="0" y="0" width="100%" height="100%"></use>
    </clipPath>
    <clipPath id="clipPath6207">
      <use id="use6205" style="overflow:visible" xlink:href="#SVGID_1_" x="0" y="0" width="100%" height="100%"></use>
    </clipPath>
    <clipPath id="clipPath6211">
      <use id="use6209" style="overflow:visible" xlink:href="#SVGID_1_" x="0" y="0" width="100%" height="100%"></use>
    </clipPath>
    <clipPath id="clipPath6215">
      <use id="use6213" style="overflow:visible" xlink:href="#SVGID_1_" x="0" y="0" width="100%" height="100%"></use>
    </clipPath>
    <clipPath id="clipPath6219">
      <use id="use6217" style="overflow:visible" xlink:href="#SVGID_1_" x="0" y="0" width="100%" height="100%"></use>
    </clipPath>
    <clipPath id="clipPath6223">
      <use id="use6221" style="overflow:visible" xlink:href="#SVGID_1_" x="0" y="0" width="100%" height="100%"></use>
    </clipPath>
    <clipPath id="clipPath6227">
      <use id="use6225" style="overflow:visible" xlink:href="#SVGID_1_" x="0" y="0" width="100%" height="100%"></use>
    </clipPath>
    <clipPath id="clipPath6231">
      <use id="use6229" style="overflow:visible" xlink:href="#SVGID_1_" x="0" y="0" width="100%" height="100%"></use>
    </clipPath>
    <clipPath id="clipPath6235">
      <use id="use6233" style="overflow:visible" xlink:href="#SVGID_1_" x="0" y="0" width="100%" height="100%"></use>
    </clipPath>
    <clipPath id="SVGID_10_-7">
      <use id="use257-17" style="overflow:visible" xlink:href="#SVGID_9_" x="0" y="0" width="100%" height="100%"></use>
    </clipPath>
    <clipPath id="SVGID_12_-2">
      <use id="use275-5" style="overflow:visible" xlink:href="#SVGID_11_" x="0" y="0" width="100%" height="100%"></use>
    </clipPath>
    <clipPath id="SVGID_14_-5">
      <use id="use293-8" style="overflow:visible" xlink:href="#SVGID_13_" x="0" y="0" width="100%" height="100%"></use>
    </clipPath>
    <clipPath id="SVGID_16_-0">
      <use id="use359-47" style="overflow:visible" xlink:href="#SVGID_15_" x="0" y="0" width="100%" height="100%"></use>
    </clipPath>
    <clipPath id="clipPath6247">
      <use id="use6245" style="overflow:visible" xlink:href="#SVGID_15_" x="0" y="0" width="100%" height="100%"></use>
    </clipPath>
    <clipPath id="clipPath6251">
      <use id="use6249" style="overflow:visible" xlink:href="#SVGID_15_" x="0" y="0" width="100%" height="100%"></use>
    </clipPath>
    <clipPath id="clipPath6255">
      <use id="use6253" style="overflow:visible" xlink:href="#SVGID_15_" x="0" y="0" width="100%" height="100%"></use>
    </clipPath>
    <clipPath id="clipPath6259">
      <use id="use6257" style="overflow:visible" xlink:href="#SVGID_15_" x="0" y="0" width="100%" height="100%"></use>
    </clipPath>
    <clipPath id="clipPath6263">
      <use id="use6261" style="overflow:visible" xlink:href="#SVGID_15_" x="0" y="0" width="100%" height="100%"></use>
    </clipPath>
    <clipPath id="clipPath6267">
      <use id="use6265" style="overflow:visible" xlink:href="#SVGID_15_" x="0" y="0" width="100%" height="100%"></use>
    </clipPath>
    <clipPath id="clipPath6271">
      <use id="use6269" style="overflow:visible" xlink:href="#SVGID_15_" x="0" y="0" width="100%" height="100%"></use>
    </clipPath>
    <clipPath id="clipPath6275">
      <use id="use6273" style="overflow:visible" xlink:href="#SVGID_15_" x="0" y="0" width="100%" height="100%"></use>
    </clipPath>
    <clipPath id="clipPath6279">
      <use id="use6277" style="overflow:visible" xlink:href="#SVGID_15_" x="0" y="0" width="100%" height="100%"></use>
    </clipPath>
    <clipPath id="clipPath6283">
      <use id="use6281" style="overflow:visible" xlink:href="#SVGID_15_" x="0" y="0" width="100%" height="100%"></use>
    </clipPath>
    <rect height="148.64999" width="148.64999" y="-690.83002" x="-375" id="rect6028"></rect>
    <rect height="147" width="147" y="9.5" x="-374.67999" id="rect6092"></rect>
    <rect height="147" width="147" y="9.5" x="-374.67999" id="rect6103"></rect>
    <rect height="147" width="147" y="9.5" x="-374.67999" id="rect6114"></rect>
    <rect height="297.31" width="297.31" y="-494.16" x="190" id="rect6143"></rect>
  </defs>
  <metadata id="metadata5"></metadata>
  <g id="layer1" inkscape:groupmode="layer" inkscape:label="Ebene 1">
    <g transform="matrix(0.26458333,0,0,0.26458333,-393.98337,-72.202888)" id="g412">
</g>
    <g transform="matrix(0.26458333,0,0,0.26458333,-393.98337,-72.202888)" id="g414">
</g>
    <g transform="matrix(0.26458333,0,0,0.26458333,-393.98337,-72.202888)" id="g416">
</g>
    <g transform="matrix(0.26458333,0,0,0.26458333,-393.98337,-72.202888)" id="g418">
</g>
    <g transform="matrix(0.26458333,0,0,0.26458333,-393.98337,-72.202888)" id="g420">
</g>
    <g transform="matrix(0.26458333,0,0,0.26458333,-393.98337,-72.202888)" id="g422">
</g>
    <g transform="matrix(0.26458333,0,0,0.26458333,-393.98337,-72.202888)" id="g424">
</g>
    <g transform="matrix(0.26458333,0,0,0.26458333,-393.98337,-72.202888)" id="g426">
</g>
    <g transform="matrix(0.26458333,0,0,0.26458333,-393.98337,-72.202888)" id="g428">
</g>
    <g transform="matrix(0.26458333,0,0,0.26458333,-393.98337,-72.202888)" id="g430">
</g>
    <g transform="matrix(0.26458333,0,0,0.26458333,-393.98337,-72.202888)" id="g432">
</g>
    <g transform="matrix(0.26458333,0,0,0.26458333,-393.98337,-72.202888)" id="g434">
</g>
    <g transform="matrix(0.26458333,0,0,0.26458333,-393.98337,-72.202888)" id="g436">
</g>
    <g transform="matrix(0.26458333,0,0,0.26458333,-393.98337,-72.202888)" id="g438">
</g>
    <g transform="matrix(0.26458333,0,0,0.26458333,-393.98337,-72.202888)" id="g440">
</g>
    <path class="st0" d="M -281.81964,946.30915" id="path12" style="fill:#a31747;stroke-width:0.264583"></path>
    <g style="fill:#24195d;fill-opacity:1" transform="matrix(0.98808948,0,0,0.98808948,-225.93652,491.27631)" id="g386">
      <g style="fill:#24195d;fill-opacity:1" id="g384">
        <defs id="defs357">
          <rect height="297.31" width="297.31" y="-494.16" x="190" id="rect6862"></rect>
        </defs>
        <clipPath id="clipPath4005">
          <use id="use4003" style="overflow:visible" xlink:href="#SVGID_15_" x="0" y="0" width="100%" height="100%"></use>
        </clipPath>
        <path style="fill:#24195d;fill-opacity:1" id="path362" clip-path="url(#SVGID_16_)" d="m 344.28,-342.82 c -0.26,0.51 -0.51,0.77 -1.02,1.28 H 343 c -0.25,0.25 -0.77,0.51 -1.02,0.77 0,0 -0.26,0.26 -0.51,0.26 -0.26,0.26 -0.77,0.26 -1.02,0.51 h -0.26 c -0.51,0 -1.02,0.26 -1.53,0.26 -0.51,0 -1.02,0 -1.53,-0.26 h -0.51 c -0.26,0 -0.77,-0.26 -1.02,-0.51 h -0.26 -0.26 c -0.26,0 -0.26,-0.26 -0.51,-0.51 -0.26,0 -0.26,-0.26 -0.51,-0.26 l -0.51,-0.51 -0.51,-0.51 c 0,-0.26 -0.26,-0.26 -0.26,-0.51 0,-0.25 -0.26,-0.26 -0.26,-0.51 0,-0.26 -0.26,-0.51 -0.26,-0.51 0,-0.26 -0.26,-0.26 -0.26,-0.51 v -0.51 -0.77 -0.26 -102.58 c 0,-3.58 2.81,-6.39 6.4,-6.39 19.19,0 37.86,5.12 54.23,14.58 3.07,1.79 4.09,5.63 2.3,8.7 -1.28,2.05 -3.33,3.07 -5.63,3.07 -1.02,0 -2.3,-0.26 -3.07,-0.77 -12.79,-7.42 -26.86,-11.77 -41.44,-12.53 v 71.88 l 19.95,-34.79 c 1.79,-3.07 5.63,-4.09 8.7,-2.3 3.07,1.79 4.09,5.63 2.3,8.7 z" class="st13"></path>
        <path style="fill:#24195d;fill-opacity:1" id="path364" clip-path="url(#SVGID_16_)" d="m 283.89,-441.31 c 1.27,-0.77 2.55,-1.02 3.82,-1.02 2.8,0 5.35,1.54 6.62,3.84 1.02,1.79 1.27,3.84 0.76,5.88 -0.51,2.05 -1.78,3.58 -3.57,4.6 -1.27,0.77 -2.55,1.02 -3.82,1.02 -2.8,0 -5.35,-1.54 -6.62,-3.84 -1.02,-1.79 -1.27,-3.84 -0.76,-5.88 0.52,-2.04 1.79,-3.58 3.57,-4.6" class="st13"></path>
        <path style="fill:#24195d;fill-opacity:1" id="path366" clip-path="url(#SVGID_16_)" d="m 250.14,-389.64 c -1.28,0 -2.56,-0.26 -3.84,-1.02 -3.58,-2.05 -4.86,-6.91 -2.81,-10.49 1.28,-2.3 3.84,-3.84 6.65,-3.84 1.28,0 2.56,0.25 3.84,1.02 3.58,2.05 4.86,6.91 2.81,10.49 -1.28,2.31 -3.83,3.84 -6.65,3.84" class="st13"></path>
        <path style="fill:#24195d;fill-opacity:1" id="path368" clip-path="url(#SVGID_16_)" d="m 338.65,-251.5 c 4.24,0 7.67,3.44 7.67,7.67 0,4.23 -3.44,7.67 -7.67,7.67 -4.23,0 -7.67,-3.44 -7.67,-7.67 0,-4.23 3.44,-7.67 7.67,-7.67" class="st13"></path>
        <path style="fill:#24195d;fill-opacity:1" id="path370" clip-path="url(#SVGID_16_)" d="m 236.33,-353.82 c 4.24,0 7.67,3.44 7.67,7.67 0,4.24 -3.44,7.67 -7.67,7.67 -4.24,0 -7.67,-3.44 -7.67,-7.67 -0.01,-4.24 3.43,-7.67 7.67,-7.67" class="st13"></path>
        <path style="fill:#24195d;fill-opacity:1" id="path372" clip-path="url(#SVGID_16_)" d="m 440.98,-353.82 c 4.24,0 7.67,3.44 7.67,7.67 0,4.24 -3.44,7.67 -7.67,7.67 -4.24,0 -7.67,-3.44 -7.67,-7.67 0,-4.24 3.43,-7.67 7.67,-7.67" class="st13"></path>
        <path style="fill:#24195d;fill-opacity:1" id="path374" clip-path="url(#SVGID_16_)" d="m 386.23,-264.29 c 1.28,-0.77 2.56,-1.02 3.84,-1.02 2.81,0 5.37,1.54 6.65,3.84 1.02,1.79 1.28,3.84 0.77,5.88 -0.51,2.05 -1.79,3.58 -3.58,4.6 -1.28,0.77 -2.56,1.02 -3.84,1.02 -2.81,0 -5.37,-1.54 -6.65,-3.84 -1.02,-1.79 -1.28,-3.84 -0.77,-5.88 0.51,-1.78 1.8,-3.57 3.58,-4.6" class="st13"></path>
        <path style="fill:#24195d;fill-opacity:1" id="path376" clip-path="url(#SVGID_16_)" d="m 246.3,-301.64 c 1.28,-0.77 2.56,-1.02 3.84,-1.02 2.81,0 5.37,1.54 6.65,3.84 2.05,3.58 0.77,8.44 -2.81,10.49 -1.28,0.77 -2.56,1.02 -3.84,1.02 -2.81,0 -5.37,-1.54 -6.65,-3.84 -2.05,-3.58 -0.77,-8.44 2.81,-10.49" class="st13"></path>
        <path style="fill:#24195d;fill-opacity:1" id="path378" clip-path="url(#SVGID_16_)" d="m 427.42,-302.66 v 0 c 1.28,0 2.56,0.26 3.84,1.02 3.58,2.05 4.86,6.91 2.81,10.49 -1.28,2.3 -3.84,3.84 -6.65,3.84 -1.28,0 -2.56,-0.25 -3.84,-1.02 -3.58,-2.05 -4.86,-6.91 -2.81,-10.49 1.28,-2.31 3.84,-3.84 6.65,-3.84" class="st13"></path>
        <path style="fill:#24195d;fill-opacity:1" id="path380" clip-path="url(#SVGID_16_)" d="m 287.71,-265.31 v 0 c 1.27,0 2.55,0.26 3.82,1.02 1.78,1.02 3.06,2.56 3.57,4.6 0.51,2.04 0.25,4.09 -0.76,5.88 -1.27,2.3 -3.82,3.84 -6.62,3.84 -1.27,0 -2.55,-0.26 -3.82,-1.02 -1.78,-1.02 -3.06,-2.56 -3.57,-4.61 -0.51,-2.05 -0.25,-4.09 0.76,-5.88 1.27,-2.3 3.82,-3.83 6.62,-3.83" class="st13"></path>
        <path style="fill:#24195d;fill-opacity:1" id="path382" clip-path="url(#SVGID_16_)" d="m 423.58,-403.96 c 1.28,-0.77 2.56,-1.02 3.84,-1.02 2.81,0 5.37,1.54 6.65,3.84 2.05,3.58 0.77,8.44 -2.81,10.49 -1.28,0.77 -2.56,1.02 -3.84,1.02 -2.81,0 -5.37,-1.54 -6.65,-3.84 -2.05,-3.58 -0.77,-8.45 2.81,-10.49" class="st13"></path>
      </g>
    </g>
  </g>
  <style type="text/css" id="style10">
	.st0{fill:#A31747;}
	.st1{fill:#A3184A;}
	.st2{fill:none;stroke:#A3184A;stroke-width:0.338;stroke-miterlimit:10;}
	.st3{fill:#FFFFFF;}
	.st4{fill:#E7E7E8;}
	.st5{clip-path:url(#SVGID_2_);fill:#A3184A;}
	.st6{clip-path:url(#SVGID_4_);fill:#A3184A;}
	.st7{clip-path:url(#SVGID_6_);fill:#A3184A;}
	.st8{clip-path:url(#SVGID_8_);fill:#A3184A;}
	.st9{clip-path:url(#SVGID_10_);fill:#A3184A;}
	.st10{clip-path:url(#SVGID_12_);fill:#A3184A;}
	.st11{clip-path:url(#SVGID_14_);fill:#A3184A;}
	.st12{fill:#A21749;}
	.st13{clip-path:url(#SVGID_16_);fill:#A3184A;}
	.st14{fill:#A31749;}
</style>
  <style type="text/css" id="style691">
	.st0{fill:#A31747;}
	.st1{fill:#A3184A;}
	.st2{fill:none;stroke:#A3184A;stroke-width:0.338;stroke-miterlimit:10;}
	.st3{fill:#FFFFFF;}
	.st4{fill:#E7E7E8;}
	.st5{clip-path:url(#SVGID_2_);fill:#A3184A;}
	.st6{clip-path:url(#SVGID_4_);fill:#A3184A;}
	.st7{clip-path:url(#SVGID_6_);fill:#A3184A;}
	.st8{clip-path:url(#SVGID_8_);fill:#A3184A;}
	.st9{clip-path:url(#SVGID_10_);fill:#A3184A;}
	.st10{clip-path:url(#SVGID_12_);fill:#A3184A;}
	.st11{clip-path:url(#SVGID_14_);fill:#A3184A;}
	.st12{fill:#A21749;}
	.st13{clip-path:url(#SVGID_16_);fill:#A3184A;}
	.st14{fill:#A31749;}
</style>
  <style type="text/css" id="style1372">
	.st0{fill:#A31747;}
	.st1{fill:#A3184A;}
	.st2{fill:none;stroke:#A3184A;stroke-width:0.338;stroke-miterlimit:10;}
	.st3{fill:#FFFFFF;}
	.st4{fill:#E7E7E8;}
	.st5{clip-path:url(#SVGID_2_);fill:#A3184A;}
	.st6{clip-path:url(#SVGID_4_);fill:#A3184A;}
	.st7{clip-path:url(#SVGID_6_);fill:#A3184A;}
	.st8{clip-path:url(#SVGID_8_);fill:#A3184A;}
	.st9{clip-path:url(#SVGID_10_);fill:#A3184A;}
	.st10{clip-path:url(#SVGID_12_);fill:#A3184A;}
	.st11{clip-path:url(#SVGID_14_);fill:#A3184A;}
	.st12{fill:#A21749;}
	.st13{clip-path:url(#SVGID_16_);fill:#A3184A;}
	.st14{fill:#A31749;}
</style>
  <style type="text/css" id="style2053">
	.st0{fill:#A31747;}
	.st1{fill:#A3184A;}
	.st2{fill:none;stroke:#A3184A;stroke-width:0.338;stroke-miterlimit:10;}
	.st3{fill:#FFFFFF;}
	.st4{fill:#E7E7E8;}
	.st5{clip-path:url(#SVGID_2_);fill:#A3184A;}
	.st6{clip-path:url(#SVGID_4_);fill:#A3184A;}
	.st7{clip-path:url(#SVGID_6_);fill:#A3184A;}
	.st8{clip-path:url(#SVGID_8_);fill:#A3184A;}
	.st9{clip-path:url(#SVGID_10_);fill:#A3184A;}
	.st10{clip-path:url(#SVGID_12_);fill:#A3184A;}
	.st11{clip-path:url(#SVGID_14_);fill:#A3184A;}
	.st12{fill:#A21749;}
	.st13{clip-path:url(#SVGID_16_);fill:#A3184A;}
	.st14{fill:#A31749;}
</style>
  <style type="text/css" id="style2734">
	.st0{fill:#A31747;}
	.st1{fill:#A3184A;}
	.st2{fill:none;stroke:#A3184A;stroke-width:0.338;stroke-miterlimit:10;}
	.st3{fill:#FFFFFF;}
	.st4{fill:#E7E7E8;}
	.st5{clip-path:url(#SVGID_2_);fill:#A3184A;}
	.st6{clip-path:url(#SVGID_4_);fill:#A3184A;}
	.st7{clip-path:url(#SVGID_6_);fill:#A3184A;}
	.st8{clip-path:url(#SVGID_8_);fill:#A3184A;}
	.st9{clip-path:url(#SVGID_10_);fill:#A3184A;}
	.st10{clip-path:url(#SVGID_12_);fill:#A3184A;}
	.st11{clip-path:url(#SVGID_14_);fill:#A3184A;}
	.st12{fill:#A21749;}
	.st13{clip-path:url(#SVGID_16_);fill:#A3184A;}
	.st14{fill:#A31749;}
</style>
  <style type="text/css" id="style10-8">
	.st0{fill:#003D7C;}
</style>
  <style type="text/css" id="style56">
	.st0{fill:#003D7C;}
</style>
  <style type="text/css" id="style72">
	.st0{fill:#A31747;}
	.st1{fill:#003D7C;}
</style>
  <style type="text/css" id="style123">
	.st0{fill:#A31747;}
	.st1{fill:#003D7C;}
</style>
</svg>
