<?xml version="1.0" encoding="UTF-8"?>
<svg xmlns="http://www.w3.org/2000/svg" xmlns:xlink="http://www.w3.org/1999/xlink" xmlns:svgjs="http://svgjs.com/svgjs" version="1.1" viewBox="0 0 256 256" width="256" height="256">
  <g transform="matrix(10.666666666666666,0,0,10.666666666666666,0,0)">
    <path d="M12,13.5H3.75A1.5,1.5,0,0,1,2.25,12V2.25A1.5,1.5,0,0,1,3.75.75h16.5a1.5,1.5,0,0,1,1.5,1.5V12a1.5,1.5,0,0,1-1.5,1.5h-4.5" fill="none" stroke="#ffffff" stroke-linecap="round" stroke-linejoin="round" stroke-width="1.5"></path>
    <path d="M12.9 3.75L18.75 3.75" fill="none" stroke="#ffffff" stroke-linecap="round" stroke-linejoin="round" stroke-width="1.5"></path>
    <path d="M15.75,13.5V9.375a1.875,1.875,0,0,0-3.75,0v5.1l-.488,1.949a5.593,5.593,0,0,0,0,2.925A14.112,14.112,0,0,0,12.75,21.3v1.95H19.5c0-4.414-.189-3.769.557-6.8" fill="none" stroke="#ffffff" stroke-linecap="round" stroke-linejoin="round" stroke-width="1.5"></path>
    <path d="M11.633,15.941a4.34,4.34,0,0,1-1.516,1.946c-.59.309-1.867.115-1.867-.975V13.5" fill="none" stroke="#ffffff" stroke-linecap="round" stroke-linejoin="round" stroke-width="1.5"></path>
    <path d="M5.250 6.375 A2.250 2.250 0 1 0 9.750 6.375 A2.250 2.250 0 1 0 5.250 6.375 Z" fill="none" stroke="#ffffff" stroke-linecap="round" stroke-linejoin="round" stroke-width="1.5"></path>
  </g>
</svg>
