<?xml version="1.0" encoding="UTF-8" standalone="no"?>
<svg xmlns:dc="http://purl.org/dc/elements/1.1/" xmlns:cc="http://creativecommons.org/ns#" xmlns:rdf="http://www.w3.org/1999/02/22-rdf-syntax-ns#" xmlns:svg="http://www.w3.org/2000/svg" xmlns="http://www.w3.org/2000/svg" xmlns:sodipodi="http://sodipodi.sourceforge.net/DTD/sodipodi-0.dtd" xmlns:inkscape="http://www.inkscape.org/namespaces/inkscape" version="1.1" viewBox="0 0 256 256" height="256" width="256" id="svg4014" sodipodi:docname="whatsapp-icon-jsd.svg" inkscape:version="0.92.4 (5da689c313, 2019-01-14)">
  <metadata id="metadata4020"></metadata>
  <defs id="defs4018"></defs>
  <path style="fill:#000000;stroke:#ffffff;stroke-width:12.49999142;stroke-linecap:round;stroke-linejoin:round;stroke-opacity:1;fill-opacity:0" inkscape:connector-curvature="0" id="path4008" d="M 128.0834,34.980303 C 76.508434,34.79697 34.525128,76.405275 34.250129,127.98024 c -0.03333,19.60832 6.216662,38.70831 17.833321,54.49996 L 40.416791,217.06352 76.416767,205.64686 C 119.73341,234.0885 177.90837,222.03018 206.35835,178.71354 216.25834,163.63022 221.60834,146.0219 221.75,127.98024 221.475,76.471942 179.5917,34.888636 128.0834,34.980303"></path>
  <path style="fill:#000000;stroke:#ffffff;stroke-width:12.49999142;stroke-linecap:round;stroke-linejoin:round;stroke-opacity:1;fill-opacity:0" inkscape:connector-curvature="0" id="path4010" d="m 178.6667,150.89689 c -0.58333,-1 -2.25,-1.66666 -4.66666,-2.83333 -2.41667,-1.16666 -14.49999,-7.08333 -16.66666,-7.91666 -2.16667,-0.83333 -3.91666,-1.25 -5.5,1.25 -1.58333,2.5 -4.16666,6.08333 -5.58333,7.66666 -1.41666,1.58333 -2.83333,1.83333 -5.33333,0.58333 -14.25832,-6.21666 -26.29164,-16.61665 -34.49997,-29.83331 -1.41667,-2.41667 0,-3.75 1.08333,-4.91666 4.08333,-4.08333 4.16666,-3.5 5.16666,-5.5 0.725,-1.325 0.725,-2.925 0,-4.25 -1.25,-1.41666 -5.83333,-13.249988 -7.91666,-18.083318 -2.08333,-4.833331 -12.583323,-5.749997 -16.666654,-1.25 -43.333304,45.666638 62.249954,123.916588 89.249944,76.249948 2.25,-3.21666 2.75833,-7.34166 1.33333,-10.99999"></path>
</svg>
