<?xml version="1.0" encoding="UTF-8" standalone="no"?>
<svg xmlns:dc="http://purl.org/dc/elements/1.1/" xmlns:cc="http://creativecommons.org/ns#" xmlns:rdf="http://www.w3.org/1999/02/22-rdf-syntax-ns#" xmlns:svg="http://www.w3.org/2000/svg" xmlns="http://www.w3.org/2000/svg" xmlns:sodipodi="http://sodipodi.sourceforge.net/DTD/sodipodi-0.dtd" xmlns:inkscape="http://www.inkscape.org/namespaces/inkscape" version="1.1" viewBox="0 0 289 164" height="164" width="289" id="svg5284" sodipodi:docname="zusammenhalt-icon-jsd.svg" inkscape:version="0.92.3 (2405546, 2018-03-11)">
  <metadata id="metadata5290"></metadata>
  <defs id="defs5288"></defs>
  <g transform="matrix(6.75,0,0,6.75,1.0005063,1)" id="g5282">
    <path d="m 12,0.75 c 1.657,0 3,1.343 3,3 0,1.657 -1.343,3 -3,3 -1.657,0 -3,-1.343 -3,-3 0,-1.657 1.343,-3 3,-3 z" id="path5268" inkscape:connector-curvature="0" style="fill:none;stroke:#000000;stroke-width:1.5;stroke-linecap:round;stroke-linejoin:round"></path>
    <path d="M 15.75,14.25 V 12 C 15.75,9.929 14.071,8.25 12,8.25 9.929,8.25 8.25,9.929 8.25,12 v 2.25 h 1.5 l 0.75,6 h 3 l 0.75,-6 z" id="path5270" inkscape:connector-curvature="0" style="fill:none;stroke:#000000;stroke-width:1.5;stroke-linecap:round;stroke-linejoin:round"></path>
    <path d="M 4.5,3.75 C 5.743,3.75 6.75,4.757 6.75,6 6.75,7.243 5.743,8.25 4.5,8.25 3.257,8.25 2.25,7.243 2.25,6 2.25,4.757 3.257,3.75 4.5,3.75 Z" id="path5272" inkscape:connector-curvature="0" style="fill:none;stroke:#000000;stroke-width:1.5;stroke-linecap:round;stroke-linejoin:round"></path>
    <path d="M 5.7,9.947 C 3.736,9.286 1.607,10.343 0.946,12.307 0.817,12.691 0.75,13.094 0.75,13.5 v 0.75 h 1.5 L 3,18.75 h 3 l 0.376,-2.256" id="path5274" inkscape:connector-curvature="0" style="fill:none;stroke:#000000;stroke-width:1.5;stroke-linecap:round;stroke-linejoin:round"></path>
    <path d="m 19.5,3.75 c 1.243,0 2.25,1.007 2.25,2.25 0,1.243 -1.007,2.25 -2.25,2.25 -1.243,0 -2.25,-1.007 -2.25,-2.25 0,-1.243 1.007,-2.25 2.25,-2.25 z" id="path5276" inkscape:connector-curvature="0" style="fill:none;stroke:#000000;stroke-width:1.5;stroke-linecap:round;stroke-linejoin:round"></path>
    <path d="m 18.3,9.947 c 1.964,-0.661 4.093,0.396 4.754,2.36 0.129,0.384 0.196,0.787 0.196,1.193 v 0.75 h -1.5 L 21,18.75 h -3 l -0.376,-2.256" id="path5278" inkscape:connector-curvature="0" style="fill:none;stroke:#000000;stroke-width:1.5;stroke-linecap:round;stroke-linejoin:round"></path>
    <path d="m 23.25,21 c 0,1.243 -5.037,2.25 -11.25,2.25 C 5.787,23.25 0.75,22.243 0.75,21" id="path5280" inkscape:connector-curvature="0" style="fill:none;stroke:#000000;stroke-width:1.5;stroke-linecap:round;stroke-linejoin:round"></path>
  </g>
</svg>
