<?xml version="1.0" encoding="UTF-8" standalone="no"?>
<!DOCTYPE svg PUBLIC "-//W3C//DTD SVG 1.1//EN" "http://www.w3.org/Graphics/SVG/1.1/DTD/svg11.dtd">
<svg width="100%" height="100%" viewBox="0 0 755 172" version="1.1" xmlns="http://www.w3.org/2000/svg" xmlns:xlink="http://www.w3.org/1999/xlink" xml:space="preserve" xmlns:serif="http://www.serif.com/" style="fill-rule:evenodd;clip-rule:evenodd;stroke-linejoin:round;stroke-miterlimit:1.41421;">
    <g transform="matrix(1,0,0,1,-56.69,-83.39)">
        <path d="M113.39,255.12L113.39,226.77L141.73,226.77L141.73,198.43L113.39,198.43L113.39,170.08L85.04,170.08L85.04,198.43L56.69,198.43L56.69,226.77L85.04,226.77L85.04,255.12L113.39,255.12Z" style="fill:rgb(0,188,130);fill-rule:nonzero;"/>
    </g>
    <g transform="matrix(1,0,0,1,-56.69,-83.39)">
        <path d="M184.25,226.77L170.08,226.77L170.08,198.43L184.25,198.43C192.027,198.425 198.425,192.027 198.43,184.25L198.43,113.39L127.56,113.39C119.789,113.395 113.395,119.789 113.39,127.56L113.39,141.73L85,141.73L85,127.56C85,104.212 104.212,85 127.56,85L226.77,85L226.77,184.21C226.77,207.543 207.583,226.748 184.25,226.77Z" style="fill:rgb(0,188,130);fill-rule:nonzero;"/>
    </g>
    <g transform="matrix(1,0,0,1,-56.69,-83.39)">
        <path d="M255.12,150.58L255.12,135.73C256.223,135.921 257.341,136.014 258.46,136.01C264.31,136.01 266.25,133.78 266.25,127.19L266.25,85L283.05,85L283.05,130.21C283.05,144.13 277.05,150.91 261.89,150.91C259.629,150.934 257.368,150.824 255.12,150.58Z" style="fill:rgb(0,188,130);fill-rule:nonzero;"/>
    </g>
    <g transform="matrix(1,0,0,1,-56.69,-83.39)">
        <path d="M290.1,138.88C288.549,135.245 287.792,131.321 287.88,127.37C287.798,123.465 288.555,119.587 290.1,116C293.82,107.83 301.89,102.91 313.3,102.91C324.71,102.91 332.79,107.74 336.41,115.91C338.042,119.519 338.836,123.451 338.73,127.41C338.845,131.402 338.052,135.369 336.41,139.01C332.79,147.09 324.72,151.91 313.3,151.91C301.88,151.91 293.82,147.05 290.1,138.88ZM321.1,134.98C321.93,133.13 322.21,130.72 322.21,127.37C322.21,124.02 321.93,121.62 321.1,119.86C319.8,116.98 317.29,115.5 313.3,115.5C309.31,115.5 306.81,117.07 305.51,119.86C304.661,122.269 304.28,124.818 304.39,127.37C304.281,129.954 304.661,132.536 305.51,134.98C306.81,137.77 309.31,139.35 313.3,139.35C317.29,139.35 319.8,137.77 321.1,135L321.1,134.98Z" style="fill:rgb(0,188,130);fill-rule:nonzero;"/>
    </g>
    <g transform="matrix(1,0,0,1,-56.69,-83.39)">
        <path d="M389.12,120.79L389.12,150.58L373.62,150.58L373.62,124.13C373.62,118 371.21,115.5 366.38,115.5C361.28,115.5 358.5,118.5 358.5,124.59L358.5,150.59L343,150.59L343,85L358.5,85L358.5,110C361.65,105.45 366.2,102.85 372.7,102.85C383.09,102.87 389.12,109.18 389.12,120.79Z" style="fill:rgb(0,188,130);fill-rule:nonzero;"/>
    </g>
    <g transform="matrix(1,0,0,1,-56.69,-83.39)">
        <path d="M439.79,123.94L439.79,150.58L424.29,150.58L424.29,145.1C421.23,149.37 416.5,151.87 408.98,151.87C401.65,151.87 396.17,149.28 393.85,144.08C392.903,142.017 392.457,139.758 392.55,137.49C392.489,135.332 392.87,133.185 393.67,131.18C397.01,123.94 406.01,122.27 417.33,122.27L424.33,122.27L424.33,121.53C424.33,118.74 424.15,117.72 423.59,116.53C422.657,114.477 420.523,113.453 417.19,113.46C413.57,113.46 411.52,114.39 410.6,116.46C410.248,117.349 410.058,118.294 410.04,119.25L394.22,119.25C394.26,117.013 394.736,114.805 395.62,112.75C398.68,105.98 406.57,102.91 416.96,102.91C428.19,102.91 434.78,105.91 437.84,112.57C439.238,116.193 439.901,120.058 439.79,123.94ZM423.46,136.65C424.11,135.36 424.29,134.06 424.29,131.55L424.29,130.9L418.35,130.9C413.9,130.9 410.28,131.37 409.26,133.78C408.947,134.4 408.786,135.086 408.79,135.78C408.759,136.551 408.92,137.317 409.26,138.01C410.18,140.01 412.6,140.79 415.38,140.79C419.56,140.83 422.25,139.35 423.46,136.65Z" style="fill:rgb(0,188,130);fill-rule:nonzero;"/>
    </g>
    <g transform="matrix(1,0,0,1,-56.69,-83.39)">
        <path d="M491.29,120.79L491.29,150.58L475.79,150.58L475.79,124.13C475.79,118 473.38,115.5 468.56,115.5C463.45,115.5 460.67,118.5 460.67,124.59L460.67,150.59L445.17,150.59L445.17,104.27L460.67,104.27L460.67,110C463.82,105.45 468.37,102.85 474.87,102.85C485.26,102.87 491.29,109.18 491.29,120.79Z" style="fill:rgb(0,188,130);fill-rule:nonzero;"/>
    </g>
    <g transform="matrix(1,0,0,1,-56.69,-83.39)">
        <path d="M543.26,120.79L543.26,150.58L527.76,150.58L527.76,124.13C527.76,118 525.35,115.5 520.52,115.5C515.42,115.5 512.63,118.5 512.63,124.59L512.63,150.59L497.14,150.59L497.14,104.27L512.63,104.27L512.63,110C515.79,105.45 520.34,102.85 526.83,102.85C537.23,102.87 543.26,109.18 543.26,120.79Z" style="fill:rgb(0,188,130);fill-rule:nonzero;"/>
    </g>
    <g transform="matrix(1,0,0,1,-56.69,-83.39)">
        <path d="M580.75,135L596.43,135C596.154,139.171 594.254,143.071 591.14,145.86C586.6,150.04 579.91,151.86 572.58,151.86C561.17,151.86 552.72,147.32 549.01,139.06C547.447,135.33 546.688,131.313 546.78,127.27C546.639,123.285 547.401,119.319 549.01,115.67C552.63,107.6 560.61,102.86 571.56,102.86C582.7,102.86 590.68,107.78 594.39,115.86C596.39,120.4 596.8,124.49 596.8,131.17L562.47,131.17C562.542,132.863 562.918,134.53 563.58,136.09C564.88,139.09 567.85,140.54 572.3,140.54C574.635,140.666 576.94,139.957 578.8,138.54C579.848,137.628 580.539,136.373 580.75,135ZM563.58,118.39C563.007,119.652 562.669,121.007 562.58,122.39L581,122.39C580.992,121.004 580.674,119.637 580.07,118.39C578.68,115.33 575.89,113.85 571.81,113.85C567.73,113.85 565,115.31 563.58,118.37L563.58,118.39Z" style="fill:rgb(0,188,130);fill-rule:nonzero;"/>
    </g>
    <g transform="matrix(1,0,0,1,-56.69,-83.39)">
        <path d="M600.51,142.87C599.478,140.504 598.973,137.941 599.03,135.36L614.25,135.36C614.19,136.597 614.412,137.832 614.9,138.97C615.83,141.02 617.59,141.97 620.37,141.97C622.79,141.97 624.55,141.23 625.2,139.75C625.465,139.199 625.592,138.591 625.57,137.98C625.602,137.4 625.474,136.822 625.2,136.31C624.09,133.81 620.37,133.07 615.36,131.77C609.98,130.37 604.13,128.24 601.72,122.95C601.025,121.275 600.684,119.473 600.72,117.66C600.673,115.595 601.087,113.545 601.93,111.66C604.52,105.81 611.67,102.93 620.39,102.93C629.11,102.93 635.99,105.53 638.68,111.47C639.571,113.519 640.015,115.736 639.98,117.97L625.29,117.97C625.329,116.89 625.142,115.813 624.74,114.81C623.9,113.14 622.32,112.31 620.1,112.31C617.88,112.31 616.48,113.05 615.92,114.31C615.736,114.782 615.641,115.284 615.64,115.79C615.623,116.301 615.718,116.81 615.92,117.28C617.13,119.78 621.58,120.8 626.04,121.92C632.44,123.59 638.29,125.81 640.7,131.1C641.437,132.829 641.779,134.702 641.7,136.58C641.768,138.776 641.355,140.96 640.49,142.98C637.49,149.48 629.64,152.36 620.17,152.36C610.44,152.25 603.3,149.18 600.51,142.87Z" style="fill:rgb(0,188,130);fill-rule:nonzero;"/>
    </g>
    <g transform="matrix(1,0,0,1,-56.69,-83.39)">
        <path d="M645.43,142.87C644.394,140.504 643.886,137.942 643.94,135.36L659.16,135.36C659.1,136.597 659.322,137.832 659.81,138.97C660.74,141.02 662.5,141.97 665.29,141.97C667.7,141.97 669.46,141.23 670.11,139.75C670.378,139.199 670.508,138.592 670.49,137.98C670.518,137.399 670.387,136.821 670.11,136.31C669,133.81 665.29,133.07 660.28,131.77C654.89,130.37 649.05,128.24 646.64,122.95C645.945,121.275 645.604,119.473 645.64,117.66C645.598,115.595 646.011,113.547 646.85,111.66C649.45,105.81 656.6,102.93 665.32,102.93C674.04,102.93 680.91,105.53 683.6,111.47C684.496,113.518 684.94,115.735 684.9,117.97L670.21,117.97C670.246,116.889 670.055,115.813 669.65,114.81C668.82,113.14 667.24,112.31 665.01,112.31C662.78,112.31 661.39,113.05 660.83,114.31C660.654,114.784 660.562,115.285 660.56,115.79C660.545,116.3 660.637,116.808 660.83,117.28C662.04,119.78 666.5,120.8 670.95,121.92C677.35,123.59 683.2,125.81 685.61,131.1C686.352,132.828 686.694,134.701 686.61,136.58C686.676,138.775 686.266,140.958 685.41,142.98C682.41,149.48 674.55,152.36 665.08,152.36C655.36,152.25 648.21,149.18 645.43,142.87Z" style="fill:rgb(0,188,130);fill-rule:nonzero;"/>
    </g>
    <g transform="matrix(1,0,0,1,-56.69,-83.39)">
        <path d="M693.31,135.54L693.31,116.33L687.09,116.33L687.09,104.27L693.31,104.27L693.31,93.27L708.81,93.27L708.81,104.27L719.67,104.27L719.67,116.33L708.81,116.33L708.81,132.85C708.81,137.49 710.57,139.07 714.47,139.07C716.101,139.056 717.724,138.838 719.3,138.42L719.3,150.42C715.937,151.083 712.518,151.418 709.09,151.42C698.05,151.41 693.31,147.14 693.31,135.54Z" style="fill:rgb(0,188,130);fill-rule:nonzero;"/>
    </g>
    <g transform="matrix(1,0,0,1,-56.69,-83.39)">
        <path d="M724.12,91.74C724.12,87.28 727.56,84.04 732.29,84.04C737.02,84.04 740.46,87.28 740.46,91.74C740.46,96.2 737.02,99.44 732.29,99.44C727.56,99.44 724.12,96.19 724.12,91.74ZM724.49,104.27L740,104.27L740,150.58L724.5,150.58L724.49,104.27Z" style="fill:rgb(0,188,130);fill-rule:nonzero;"/>
    </g>
    <g transform="matrix(1,0,0,1,-56.69,-83.39)">
        <path d="M750.07,116.33L744.41,116.33L744.41,104.27L750.07,104.27L750.07,100.09C750.07,88.49 755.55,83.39 768.73,83.39C771.226,83.402 773.713,83.681 776.15,84.22L776.15,96.47C774.694,95.938 773.15,95.687 771.6,95.73C767.6,95.73 765.6,97.73 765.6,101.58L765.6,104.27L775.9,104.27L775.9,116.33L765.6,116.33L765.6,150.58L750.1,150.58L750.07,116.33Z" style="fill:rgb(0,188,130);fill-rule:nonzero;"/>
    </g>
    <g transform="matrix(1,0,0,1,-56.69,-83.39)">
        <path d="M784.35,135.54L784.35,116.33L778.13,116.33L778.13,104.27L784.35,104.27L784.35,93.27L799.85,93.27L799.85,104.27L810.71,104.27L810.71,116.33L799.85,116.33L799.85,132.85C799.85,137.49 801.61,139.07 805.51,139.07C807.141,139.056 808.763,138.837 810.34,138.42L810.34,150.42C806.977,151.083 803.558,151.418 800.13,151.42C789.09,151.41 784.35,147.14 784.35,135.54Z" style="fill:rgb(0,188,130);fill-rule:nonzero;"/>
    </g>
    <g transform="matrix(1,0,0,1,-56.69,-83.39)">
        <path d="M255.12,161.25L282.77,161.25C297.34,161.25 307.18,167.19 311.77,177.4C313.9,181.95 314.83,187.24 314.83,194.01C314.83,200.78 313.9,206.08 311.77,210.63C307.22,220.83 297.38,226.77 282.77,226.77L255.12,226.77L255.12,161.25ZM280.12,212.48C288.2,212.48 292.93,209.6 295.25,204.41C296.45,201.72 296.92,198.56 296.92,194.01C296.92,189.46 296.45,186.22 295.25,183.53C292.84,178.33 288.25,175.53 280.12,175.53L271.95,175.53L271.95,212.46L280.12,212.48Z" style="fill:rgb(0,188,130);fill-rule:nonzero;"/>
    </g>
    <g transform="matrix(1,0,0,1,-56.69,-83.39)">
        <path d="M319.61,167.93C319.61,163.48 323.05,160.23 327.78,160.23C332.51,160.23 335.95,163.48 335.95,167.93C335.95,172.38 332.51,175.64 327.78,175.64C323.05,175.64 319.61,172.39 319.61,167.93ZM319.98,180.46L335.48,180.46L335.48,226.77L320,226.77L319.98,180.46Z" style="fill:rgb(0,188,130);fill-rule:nonzero;"/>
    </g>
    <g transform="matrix(1,0,0,1,-56.69,-83.39)">
        <path d="M386.89,200.14L386.89,226.77L371.4,226.77L371.4,221.3C368.33,225.57 363.6,228.07 356.08,228.07C348.75,228.07 343.28,225.47 340.96,220.28C340.013,218.217 339.567,215.958 339.66,213.69C339.601,211.533 339.978,209.387 340.77,207.38C344.11,200.14 353.11,198.47 364.44,198.47L371.44,198.47L371.44,197.72C371.44,194.94 371.25,193.92 370.69,192.72C369.77,190.72 367.63,189.66 364.29,189.66C360.67,189.66 358.63,190.59 357.7,192.66C357.358,193.549 357.169,194.488 357.14,195.44L341.33,195.44C341.362,193.206 341.835,191.001 342.72,188.95C345.78,182.17 353.67,179.11 364.06,179.11C375.29,179.11 381.88,182.11 384.95,188.76C386.339,192.389 386.998,196.256 386.89,200.14ZM370.56,212.85C371.21,211.55 371.4,210.25 371.4,207.75L371.4,207.1L365.46,207.1C361,207.1 357.38,207.56 356.36,209.97C356.045,210.607 355.887,211.31 355.9,212.02C355.864,212.787 356.023,213.55 356.36,214.24C357.29,216.24 359.7,217.03 362.49,217.03C366.66,217 369.35,215.54 370.56,212.85Z" style="fill:rgb(0,188,130);fill-rule:nonzero;"/>
    </g>
    <g transform="matrix(1,0,0,1,-56.69,-83.39)">
        <path d="M422.71,226.77L408.33,207.47L408.33,226.77L392.83,226.77L392.83,161.25L408.33,161.25L408.33,195.59L421.23,180.46L440.44,180.46L421.78,201.34L442.48,226.77L422.71,226.77Z" style="fill:rgb(0,188,130);fill-rule:nonzero;"/>
    </g>
    <g transform="matrix(1,0,0,1,-56.69,-83.39)">
        <path d="M441,215.08C439.445,211.446 438.685,207.522 438.77,203.57C438.685,199.651 439.446,195.759 441,192.16C444.71,183.99 452.79,179.07 464.2,179.07C475.61,179.07 483.69,183.9 487.31,192.07C490.402,199.46 490.402,207.79 487.31,215.18C483.69,223.26 475.62,228.08 464.2,228.08C452.78,228.08 444.7,223.25 441,215.08ZM472,211.18C472.83,209.33 473.11,206.91 473.11,203.57C473.11,200.23 472.83,197.82 472,196.05C470.7,193.18 468.19,191.69 464.2,191.69C460.21,191.69 457.71,193.27 456.41,196.05C455.557,198.461 455.177,201.015 455.29,203.57C455.177,206.155 455.557,208.737 456.41,211.18C457.71,213.97 460.21,215.54 464.2,215.54C468.19,215.54 470.69,214 472,211.18Z" style="fill:rgb(0,188,130);fill-rule:nonzero;"/>
    </g>
    <g transform="matrix(1,0,0,1,-56.69,-83.39)">
        <path d="M539.73,197L539.73,226.79L524.24,226.79L524.24,200.32C524.24,194.2 521.82,191.69 517,191.69C511.89,191.69 509.11,194.69 509.11,200.79L509.11,226.79L493.61,226.79L493.61,180.46L509.11,180.46L509.11,186.22C512.26,181.67 516.81,179.07 523.31,179.07C533.7,179.07 539.73,185.38 539.73,197Z" style="fill:rgb(0,188,130);fill-rule:nonzero;"/>
    </g>
    <g transform="matrix(1,0,0,1,-56.69,-83.39)">
        <path d="M545,167.93C545,163.48 548.43,160.23 553.17,160.23C557.91,160.23 561.33,163.48 561.33,167.93C561.33,172.38 557.9,175.64 553.17,175.64C548.44,175.64 545,172.39 545,167.93ZM545.37,180.46L560.87,180.46L560.87,226.77L545.37,226.77L545.37,180.46Z" style="fill:rgb(0,188,130);fill-rule:nonzero;"/>
    </g>
    <g transform="matrix(1,0,0,1,-56.69,-83.39)">
        <path d="M599.31,211.18L615,211.18C614.711,215.338 612.808,219.223 609.7,222C605.16,226.18 598.47,228 591.14,228C579.73,228 571.28,223.45 567.57,215.19C566.002,211.465 565.242,207.45 565.34,203.41C565.194,199.424 565.957,195.457 567.57,191.81C571.19,183.73 579.17,179 590.12,179C601.26,179 609.24,183.92 612.95,192C614.95,196.55 615.36,200.63 615.36,207.32L581,207.32C581.072,209.013 581.448,210.68 582.11,212.24C583.41,215.24 586.38,216.69 590.83,216.69C593.158,216.827 595.462,216.136 597.33,214.74C598.391,213.826 599.094,212.564 599.31,211.18ZM582.14,194.57C581.563,195.83 581.224,197.186 581.14,198.57L599.61,198.57C599.598,197.185 599.28,195.819 598.68,194.57C597.29,191.51 594.5,190.02 590.42,190.02C586.34,190.02 583.53,191.51 582.14,194.57Z" style="fill:rgb(0,188,130);fill-rule:nonzero;"/>
    </g>
</svg>
