<?xml version="1.0" encoding="UTF-8" standalone="no"?>
<svg
   xmlns:dc="http://purl.org/dc/elements/1.1/"
   xmlns:cc="http://creativecommons.org/ns#"
   xmlns:rdf="http://www.w3.org/1999/02/22-rdf-syntax-ns#"
   xmlns:svg="http://www.w3.org/2000/svg"
   xmlns="http://www.w3.org/2000/svg"
   height="174.24899"
   width="756.29999"
   version="1.1"
   viewBox="0 0 756.29999 174.24899"
   data-name="Ebene 1"
   id="Ebene_1">
  <metadata
     id="metadata4149">
    <rdf:RDF>
      <cc:Work
         rdf:about="">
        <dc:format>image/svg+xml</dc:format>
        <dc:type
           rdf:resource="http://purl.org/dc/dcmitype/StillImage" />
        <dc:title></dc:title>
      </cc:Work>
    </rdf:RDF>
  </metadata>
  <defs
     id="defs4094">
    <style
       id="style4092">.cls-1{fill:#00bc82;}.cls-2{fill:#fff;}</style>
  </defs>
  <polygon
     transform="translate(-55.284981,-81.951251)"
     style="fill:#ffffff"
     id="polygon4100"
     points="85.04,226.77 85.04,255.12 113.39,255.12 113.39,226.77 141.73,226.77 141.73,198.43 113.39,198.43 113.39,170.08 85.04,170.08 85.04,198.43 56.69,198.43 56.69,226.77 "
     class="cls-2" />
  <path
     style="fill:#ffffff"
     id="path4102"
     d="m 128.96502,144.81875 h -14.17 v -28.34 h 14.17 a 14.19,14.19 0 0 0 14.18,-14.18 V 31.438751 H 72.275019 a 14.18,14.18 0 0 0 -14.17,14.17 v 14.17 h -28.39 v -14.17 a 42.56,42.56 0 0 1 42.56,-42.559998 h 99.210001 v 99.209997 a 42.56,42.56 0 0 1 -42.52,42.56 z"
     class="cls-2" />
  <path
     style="fill:#ffffff"
     id="path4104"
     d="m 199.83502,68.628751 v -14.85 a 19.19,19.19 0 0 0 3.34,0.28 c 5.85,0 7.79,-2.23 7.79,-8.82 V 3.048753 h 16.8 v 45.209998 c 0,13.92 -6,20.7 -21.16,20.7 a 57,57 0 0 1 -6.77,-0.33 z"
     class="cls-2" />
  <path
     style="fill:#ffffff"
     id="path4106"
     d="m 234.81502,56.928754 a 27.74,27.74 0 0 1 -2.22,-11.51 27.29,27.29 0 0 1 2.22,-11.37 c 3.72,-8.17 11.79,-13.09 23.2,-13.09 11.41,0 19.49,4.83 23.11,13 a 26.21,26.21 0 0 1 2.32,11.5 26.37,26.37 0 0 1 -2.32,11.6 c -3.62,8.08 -11.69,12.9 -23.11,12.9 -11.42,0 -19.48,-4.86 -23.2,-13.03 z m 31,-3.9 c 0.83,-1.85 1.11,-4.26 1.11,-7.61 0,-3.35 -0.28,-5.75 -1.11,-7.51 -1.3,-2.88 -3.81,-4.36 -7.8,-4.36 -3.99,0 -6.49,1.57 -7.79,4.36 a 20,20 0 0 0 -1.12,7.51 20.56,20.56 0 0 0 1.12,7.61 c 1.3,2.79 3.8,4.37 7.79,4.37 3.99,0 6.5,-1.58 7.8,-4.35 z"
     class="cls-2" />
  <path
     style="fill:#ffffff"
     id="path4108"
     d="m 333.83502,38.838751 v 29.79 h -15.5 v -26.45 c 0,-6.13 -2.41,-8.63 -7.24,-8.63 -5.1,0 -7.88,3 -7.88,9.09 v 26 h -15.5 V 3.048753 h 15.5 v 24.999998 c 3.15,-4.55 7.7,-7.15 14.2,-7.15 10.39,0.02 16.42,6.33 16.42,17.94 z"
     class="cls-2" />
  <path
     style="fill:#ffffff"
     id="path4110"
     d="m 384.50502,41.988754 v 26.64 h -15.5 v -5.48 c -3.06,4.27 -7.79,6.77 -15.31,6.77 -7.33,0 -12.81,-2.59 -15.13,-7.79 a 14.39,14.39 0 0 1 -1.3,-6.59 15.83,15.83 0 0 1 1.12,-6.31 c 3.34,-7.24 12.34,-8.91 23.66,-8.91 h 7 v -0.74 c 0,-2.79 -0.18,-3.81 -0.74,-5 q -1.4,-3.08 -6.4,-3.07 c -3.62,0 -5.67,0.93 -6.59,3 a 8,8 0 0 0 -0.56,2.79 h -15.82 a 17.24,17.24 0 0 1 1.4,-6.5 c 3.06,-6.77 10.95,-9.84 21.34,-9.84 11.23,0 17.82,3 20.88,9.66 a 29.25,29.25 0 0 1 1.95,11.37 z m -16.33,12.71 c 0.65,-1.29 0.83,-2.59 0.83,-5.1 v -0.65 h -5.94 c -4.45,0 -8.07,0.47 -9.09,2.88 a 4.39,4.39 0 0 0 -0.47,2 4.64,4.64 0 0 0 0.47,2.23 c 0.92,2 3.34,2.78 6.12,2.78 4.18,0.04 6.87,-1.44 8.08,-4.14 z"
     class="cls-2" />
  <path
     style="fill:#ffffff"
     id="path4112"
     d="m 436.00502,38.838754 v 29.79 h -15.5 v -26.45 c 0,-6.13 -2.41,-8.63 -7.23,-8.63 -5.11,0 -7.89,3 -7.89,9.09 v 26 h -15.5 v -46.32 h 15.5 v 5.73 c 3.15,-4.55 7.7,-7.15 14.2,-7.15 10.39,0.02 16.42,6.33 16.42,17.94 z"
     class="cls-2" />
  <path
     style="fill:#ffffff"
     id="path4114"
     d="m 487.97502,38.838754 v 29.79 h -15.5 v -26.45 c 0,-6.13 -2.41,-8.63 -7.24,-8.63 -5.1,0 -7.89,3 -7.89,9.09 v 26 h -15.49 v -46.32 h 15.49 v 5.73 c 3.16,-4.55 7.71,-7.15 14.2,-7.15 10.4,0.02 16.43,6.33 16.43,17.94 z"
     class="cls-2" />
  <path
     style="fill:#ffffff"
     id="path4116"
     d="m 525.46502,53.048754 h 15.68 a 16,16 0 0 1 -5.29,10.86 c -4.54,4.18 -11.23,6 -18.56,6 -11.41,0 -19.86,-4.54 -23.57,-12.8 a 28.81,28.81 0 0 1 -2.23,-11.79 26.44,26.44 0 0 1 2.23,-11.6 c 3.62,-8.07 11.6,-12.81 22.55,-12.81 11.14,0 19.12,4.92 22.83,13 2,4.54 2.41,8.63 2.41,15.31 h -34.33 a 14.12,14.12 0 0 0 1.11,4.92 c 1.3,3 4.27,4.45 8.72,4.45 a 9.85,9.85 0 0 0 6.5,-2 5.88,5.88 0 0 0 1.95,-3.54 z m -17.17,-16.61 a 11.45,11.45 0 0 0 -1,4 h 18.42 a 9.31,9.31 0 0 0 -0.93,-4 c -1.39,-3.06 -4.18,-4.54 -8.26,-4.54 -4.08,0 -6.81,1.46 -8.23,4.52 z"
     class="cls-2" />
  <path
     style="fill:#ffffff"
     id="path4118"
     d="m 545.22502,60.918754 a 17.8,17.8 0 0 1 -1.48,-7.51 h 15.22 a 8.16,8.16 0 0 0 0.65,3.61 c 0.93,2.05 2.69,3 5.47,3 2.42,0 4.18,-0.74 4.83,-2.22 a 3.78,3.78 0 0 0 0.37,-1.77 3.17,3.17 0 0 0 -0.37,-1.67 c -1.11,-2.5 -4.83,-3.24 -9.84,-4.54 -5.38,-1.4 -11.23,-3.53 -13.64,-8.82 a 13.13,13.13 0 0 1 -1,-5.29 13.92,13.92 0 0 1 1.21,-6 c 2.59,-5.85 9.74,-8.73 18.46,-8.73 8.72,0 15.6,2.6 18.29,8.54 a 15.69,15.69 0 0 1 1.3,6.5 h -14.69 a 7.75,7.75 0 0 0 -0.55,-3.16 c -0.84,-1.67 -2.42,-2.5 -4.64,-2.5 -2.22,0 -3.62,0.74 -4.18,2 a 4.08,4.08 0 0 0 -0.28,1.48 3.48,3.48 0 0 0 0.28,1.49 c 1.21,2.5 5.66,3.52 10.12,4.64 6.4,1.67 12.25,3.89 14.66,9.18 a 12.63,12.63 0 0 1 1,5.48 15.08,15.08 0 0 1 -1.21,6.4 c -3,6.5 -10.85,9.38 -20.32,9.38 -9.73,-0.11 -16.87,-3.18 -19.66,-9.49 z"
     class="cls-2" />
  <path
     style="fill:#ffffff"
     id="path4120"
     d="m 590.14502,60.918754 a 17.8,17.8 0 0 1 -1.49,-7.51 h 15.22 a 8.16,8.16 0 0 0 0.65,3.61 c 0.93,2.05 2.69,3 5.48,3 2.41,0 4.17,-0.74 4.82,-2.22 a 3.79,3.79 0 0 0 0.38,-1.77 3.18,3.18 0 0 0 -0.38,-1.67 c -1.11,-2.5 -4.82,-3.24 -9.83,-4.54 -5.39,-1.4 -11.23,-3.53 -13.64,-8.82 a 13.12,13.12 0 0 1 -1,-5.29 14.06,14.06 0 0 1 1.21,-6 c 2.6,-5.85 9.75,-8.73 18.47,-8.73 8.72,0 15.59,2.6 18.28,8.54 a 15.53,15.53 0 0 1 1.3,6.5 h -14.69 a 7.74,7.74 0 0 0 -0.56,-3.16 c -0.83,-1.67 -2.41,-2.5 -4.64,-2.5 -2.23,0 -3.62,0.74 -4.18,2 a 4.29,4.29 0 0 0 -0.27,1.48 3.64,3.64 0 0 0 0.27,1.49 c 1.21,2.5 5.67,3.52 10.12,4.64 6.4,1.67 12.25,3.89 14.66,9.18 a 12.48,12.48 0 0 1 1,5.48 15.24,15.24 0 0 1 -1.2,6.4 c -3,6.5 -10.86,9.38 -20.33,9.38 -9.72,-0.11 -16.87,-3.18 -19.65,-9.49 z"
     class="cls-2" />
  <path
     style="fill:#ffffff"
     id="path4122"
     d="m 638.02502,53.588751 v -19.21 h -6.22 v -12.06 h 6.22 V 11.318753 h 15.5 v 10.999998 h 10.86 v 12.06 h -10.86 v 16.52 c 0,4.64 1.76,6.22 5.66,6.22 a 19.47,19.47 0 0 0 4.83,-0.65 v 12 a 52.92,52.92 0 0 1 -10.21,1 c -11.04,-0.01 -15.78,-4.28 -15.78,-15.88 z"
     class="cls-2" />
  <path
     style="fill:#ffffff"
     id="path4124"
     d="m 668.83502,9.788753 c 0,-4.46 3.44,-7.7 8.17,-7.7 4.73,0 8.17,3.24 8.17,7.7 0,4.46 -3.44,7.7 -8.17,7.7 -4.73,0 -8.17,-3.25 -8.17,-7.7 z m 0.37,12.529998 h 15.51 v 46.31 h -15.5 z"
     class="cls-2" />
  <path
     style="fill:#ffffff"
     id="path4126"
     d="m 694.78502,34.378751 h -5.66 v -12.06 h 5.66 v -4.18 c 0,-11.599998 5.48,-16.699998 18.66,-16.699998 a 35.15,35.15 0 0 1 7.42,0.83 v 12.25 a 12.25,12.25 0 0 0 -4.55,-0.74 c -4,0 -6,2 -6,5.849998 v 2.69 h 10.3 v 12.06 h -10.3 v 34.25 h -15.5 z"
     class="cls-2" />
  <path
     style="fill:#ffffff"
     id="path4128"
     d="m 729.06502,53.588751 v -19.21 h -6.22 v -12.06 h 6.22 V 11.318753 h 15.5 v 10.999998 h 10.86 v 12.06 h -10.86 v 16.52 c 0,4.64 1.76,6.22 5.66,6.22 a 19.53,19.53 0 0 0 4.83,-0.65 v 12 a 52.92,52.92 0 0 1 -10.21,1 c -11.04,-0.01 -15.78,-4.28 -15.78,-15.88 z"
     class="cls-2" />
  <path
     style="fill:#ffffff"
     id="path4130"
     d="m 199.83502,79.298754 h 27.65 c 14.57,0 24.41,5.94 29,16.15 2.13,4.55 3.06,9.839996 3.06,16.609996 0,6.77 -0.93,12.07 -3.06,16.62 -4.55,10.2 -14.39,16.14 -29,16.14 h -27.65 z m 25,51.229996 c 8.08,0 12.81,-2.88 15.13,-8.07 1.2,-2.69 1.67,-5.85 1.67,-10.4 0,-4.55 -0.47,-7.79 -1.67,-10.48 -2.41,-5.199996 -7,-7.999996 -15.13,-7.999996 h -8.17 v 36.929996 z"
     class="cls-2" />
  <path
     style="fill:#ffffff"
     id="path4132"
     d="m 264.32502,85.978754 c 0,-4.45 3.44,-7.7 8.17,-7.7 4.73,0 8.17,3.25 8.17,7.7 0,4.45 -3.44,7.71 -8.17,7.71 -4.73,0 -8.17,-3.25 -8.17,-7.71 z m 0.37,12.53 h 15.5 v 46.309996 h -15.48 z"
     class="cls-2" />
  <path
     style="fill:#ffffff"
     id="path4134"
     d="m 331.60502,118.18875 v 26.63 h -15.49 v -5.47 c -3.07,4.27 -7.8,6.77 -15.32,6.77 -7.33,0 -12.8,-2.6 -15.12,-7.79 a 14.39,14.39 0 0 1 -1.3,-6.59 16,16 0 0 1 1.11,-6.31 c 3.34,-7.24 12.34,-8.91 23.67,-8.91 h 7 v -0.75 c 0,-2.78 -0.19,-3.8 -0.75,-5 -0.92,-2 -3.06,-3.06 -6.4,-3.06 -3.62,0 -5.66,0.93 -6.59,3 a 8.46,8.46 0 0 0 -0.56,2.78 h -15.81 a 17,17 0 0 1 1.39,-6.49 c 3.06,-6.78 10.95,-9.839996 21.34,-9.839996 11.23,0 17.82,2.999996 20.89,9.649996 a 29.53,29.53 0 0 1 1.94,11.38 z m -16.33,12.71 c 0.65,-1.3 0.84,-2.6 0.84,-5.1 v -0.65 h -5.94 c -4.46,0 -8.08,0.46 -9.1,2.87 a 4.44,4.44 0 0 0 -0.46,2.05 4.57,4.57 0 0 0 0.46,2.22 c 0.93,2 3.34,2.79 6.13,2.79 4.17,-0.03 6.86,-1.49 8.07,-4.18 z"
     class="cls-2" />
  <path
     style="fill:#ffffff"
     id="path4136"
     d="m 367.42502,144.81875 -14.38,-19.3 v 19.3 h -15.5 V 79.298754 h 15.5 v 34.339996 l 12.9,-15.129996 h 19.21 l -18.66,20.879996 20.7,25.43 z"
     class="cls-2" />
  <path
     style="fill:#ffffff"
     id="path4138"
     d="m 385.71502,133.12875 a 27.74,27.74 0 0 1 -2.23,-11.51 27.29,27.29 0 0 1 2.23,-11.41 c 3.71,-8.17 11.79,-13.089996 23.2,-13.089996 11.41,0 19.49,4.829996 23.11,12.999996 a 29.94,29.94 0 0 1 0,23.11 c -3.62,8.08 -11.69,12.9 -23.11,12.9 -11.42,0 -19.5,-4.83 -23.2,-13 z m 31,-3.9 c 0.83,-1.85 1.11,-4.27 1.11,-7.61 0,-3.34 -0.28,-5.75 -1.11,-7.52 -1.3,-2.87 -3.81,-4.36 -7.8,-4.36 -3.99,0 -6.49,1.58 -7.79,4.36 a 19.9,19.9 0 0 0 -1.12,7.52 20.39,20.39 0 0 0 1.12,7.61 c 1.3,2.79 3.8,4.36 7.79,4.36 3.99,0 6.49,-1.54 7.8,-4.36 z"
     class="cls-2" />
  <path
     style="fill:#ffffff"
     id="path4140"
     d="m 484.44502,115.04875 v 29.79 h -15.49 v -26.47 c 0,-6.12 -2.42,-8.63 -7.24,-8.63 -5.11,0 -7.89,3 -7.89,9.1 v 26 h -15.5 V 98.508754 h 15.5 v 5.759996 c 3.15,-4.549996 7.7,-7.149996 14.2,-7.149996 10.39,0 16.42,6.309996 16.42,17.929996 z"
     class="cls-2" />
  <path
     style="fill:#ffffff"
     id="path4142"
     d="m 489.71502,85.978754 c 0,-4.45 3.43,-7.7 8.17,-7.7 4.74,0 8.16,3.25 8.16,7.7 0,4.45 -3.43,7.71 -8.16,7.71 -4.73,0 -8.17,-3.25 -8.17,-7.71 z m 0.37,12.53 h 15.5 v 46.309996 h -15.5 z"
     class="cls-2" />
  <path
     style="fill:#ffffff"
     id="path4144"
     d="m 544.02502,129.22875 h 15.69 a 16,16 0 0 1 -5.3,10.82 c -4.54,4.18 -11.23,6 -18.56,6 -11.41,0 -19.86,-4.55 -23.57,-12.81 a 28.59,28.59 0 0 1 -2.23,-11.78 26.3,26.3 0 0 1 2.23,-11.6 c 3.62,-8.08 11.6,-12.809996 22.55,-12.809996 11.14,0 19.12,4.919996 22.83,12.999996 2,4.55 2.41,8.63 2.41,15.32 h -34.36 a 14.12,14.12 0 0 0 1.11,4.92 c 1.3,3 4.27,4.45 8.72,4.45 a 9.89,9.89 0 0 0 6.5,-1.95 5.9,5.9 0 0 0 1.98,-3.56 z m -17.17,-16.61 a 11.23,11.23 0 0 0 -1,4 h 18.47 a 9.42,9.42 0 0 0 -0.93,-4 c -1.39,-3.06 -4.18,-4.55 -8.26,-4.55 -4.08,0 -6.89,1.49 -8.28,4.55 z"
     class="cls-2" />
</svg>
