<svg id="Ebene_1" data-name="Ebene 1" xmlns="http://www.w3.org/2000/svg" viewBox="0 0 102.87 102.87"><defs><style>.cls-1{fill:#d4d1e4;}.cls-2{fill:none;stroke:#24195d;stroke-linecap:round;stroke-linejoin:round;stroke-width:3px;}</style></defs><circle class="cls-1" cx="51.43" cy="51.43" r="51.43"/><path class="cls-2" d="M61.81,69.32l-8.24,1.5,1.5-8.24L76.79,40.87a5.29,5.29,0,0,1,7.48,7.48Z" transform="translate(-4.7 -4.62)"/><path class="cls-2" d="M43.84,28.88H61.06v6.74H43.84Z" transform="translate(-4.7 -4.62)"/><path class="cls-2" d="M61.06,31.88H67.8a3.53,3.53,0,0,1,3.74,3.31,3.09,3.09,0,0,1,0,.43" transform="translate(-4.7 -4.62)"/><path class="cls-2" d="M70.8,69.32v6.73a3.55,3.55,0,0,1-3.32,3.75,3.08,3.08,0,0,1-.43,0H37.1a3.54,3.54,0,0,1-3.75-3.32,3.08,3.08,0,0,1,0-.43V35.62a3.53,3.53,0,0,1,3.31-3.74h7.18" transform="translate(-4.7 -4.62)"/><path class="cls-2" d="M43.84,45.36H61.06" transform="translate(-4.7 -4.62)"/><path class="cls-2" d="M43.84,55.84h6.74" transform="translate(-4.7 -4.62)"/></svg>